<?xml version="1.0" encoding="utf-8"?>
<!-- Generator: Adobe Illustrator 24.0.1, SVG Export Plug-In . SVG Version: 6.00 Build 0)  -->
<svg version="1.1" xmlns="http://www.w3.org/2000/svg" xmlns:xlink="http://www.w3.org/1999/xlink" x="0px" y="0px"
	 viewBox="0 0 344.6 248.3" style="enable-background:new 0 0 344.6 248.3;" xml:space="preserve">
<style type="text/css">
	.st0{fill:#1D3C56;}
	.st1{fill:#5B5B5B;}
	.st2{fill:#AC4D2E;}
	.st3{fill:#EDBD34;}
	.st4{fill:#FFFFFF;}
	.st5{fill:#16ABC4;}
</style>
<g id="BACKGROUND">
</g>
<g id="OBJECTS">
	<g>
		<polygon class="st0" points="227.3,122.9 257.4,115.4 235.2,92.9 227.3,122.9 257.4,115.4 235.2,92.9 		"/>
		<polygon class="st1" points="175,95.9 191.8,69.8 160.7,68.3 175,95.9 191.8,69.8 160.7,68.3 		"/>
		<polygon class="st2" points="119.1,121.1 110.1,91.4 88.9,114 119.1,121.1 110.1,91.4 88.9,114 		"/>
		<polygon class="st3" points="98.5,177.8 71.1,163.2 72.2,194.3 98.5,177.8 71.1,163.2 72.2,194.3 		"/>
		<path class="st0" d="M211.9,85.4C234,95,252.8,113,263,136.2l62.2-26c-17.5-40.6-49.7-71.1-87.8-87.2L211.9,85.4z"/>
		<path class="st2" d="M81.5,136.9c9.5-21.9,26.3-40.2,50-50.8l-26-62.2C65,41.5,35.1,73.5,19,111.3L81.5,136.9z"/>
		<path class="st1" d="M135.3,84.5c24.1-9.6,49.9-9.2,72.4-0.6l25.5-62.3c-38.4-15.2-82.4-16.2-123.9,0.7L135.3,84.5z"/>
		<path class="st3" d="M80.5,212.5c-9.1-23-8.9-49.4-0.3-71.7l-62.4-25.6c-15.1,38.3-16.1,82.4,0.5,123.4L80.5,212.5z"/>
		<g>
			<path class="st4" d="M28.3,157.9l6.2,2.5l2.9,9.5c-0.1,0.1-0.2,0.2-0.2,0.3l-2.3,5.4c-0.1,0.2-0.1,0.4,0,0.6l3.9,12.7
				c-0.2,0.6-0.4,1.2-0.5,1.9c-0.3,3.5,2.3,6.6,5.8,6.9c3.5,0.3,6.6-2.3,6.9-5.8c0-0.6,0-1.1-0.1-1.6l11.9-3.9
				c0.4-0.1,0.7-0.6,0.5-1c-0.1-0.4-0.6-0.7-1-0.5l-11.8,3.9c-0.2-0.4-0.4-0.8-0.7-1.2l11.1-3.5c0.1,0,0.3-0.1,0.3-0.3
				c0.1-0.1,0.1-0.3,0-0.4l-4.4-13.9c-0.1-0.3-0.4-0.5-0.7-0.4l-1.2,0.4l-3.1-9.8c0-0.1-0.1-0.3-0.3-0.3c-0.1-0.1-0.3-0.1-0.4,0
				l-10.6,3.3c-0.1,0-0.3,0.1-0.3,0.3c-0.1,0.1-0.1,0.3,0,0.4l3.1,9.8l-1.4,0.4c-0.3,0.1-0.5,0.4-0.4,0.7l3.4,10.8
				c-0.4,0-0.9,0-1.3,0.1L36,159.6c-0.1-0.2-0.2-0.4-0.5-0.5l-6.6-2.7c-0.4-0.2-0.9,0-1,0.4C27.7,157.2,27.9,157.7,28.3,157.9z
				 M41.5,163.3l2.9-0.9l0.9,2.7L49,164l-0.9-2.7l2.9-0.9l2.9,9.3l-9.5,3L41.5,163.3z M45.1,186.5c0.1,0,0.3,0,0.4,0.1
				c0.5,0.1,0.9,0.2,1.3,0.4c0,0,0.1,0,0.1,0.1c0.4,0.2,0.8,0.5,1.1,0.9c0.3,0.4,0.6,0.8,0.9,1.2c0.2,0.5,0.4,1,0.5,1.5
				c0,0.3,0,0.7,0,1c-0.2,2.6-2.5,4.5-5.1,4.3c-2.6-0.2-4.5-2.5-4.3-5.1c0.2-1.7,1.2-3.1,2.6-3.8c0.5-0.2,1-0.4,1.5-0.5
				C44.5,186.5,44.8,186.5,45.1,186.5z M42.9,174.3L47,173l1.2,3.9l4.9-1.5l-1.2-3.9l4.1-1.3l4,12.8l-11.1,3.5
				c-0.7-0.7-1.6-1.1-2.7-1.4L42.9,174.3z M40,187.1l-1.4-4.6l2.3-1.2l1.3,4.2C41.3,185.8,40.6,186.4,40,187.1z M38.1,180.8
				l-1.5-4.9l1.6-3.7l2.3,7.5L38.1,180.8z"/>
			<path class="st4" d="M44.5,194.3c1.5,0.1,2.8-1,3-2.5c0-0.1,0-0.1,0-0.2c0-0.6-0.1-1.1-0.4-1.6c-0.4-0.7-1.2-1.2-2.1-1.2
				c-0.1,0-0.1,0-0.2,0c-0.6,0-1.1,0.2-1.5,0.4c-0.7,0.4-1.1,1.2-1.2,2C41.8,192.9,43,194.2,44.5,194.3z"/>
		</g>
		<g>
			<path class="st4" d="M85.1,79.2c0.2-0.1,0.4-0.1,0.5-0.2c1.5-0.6,3-1.3,4.5-1.9c0.9-0.4,1.7-0.2,2.2,0.5c0.5,0.7,0.4,1.5-0.1,2.2
				c-0.1,0.1-0.1,0.3,0,0.4c0.4,0.8,0.4,1.4-0.2,2.2C92,82.5,92,82.7,92,82.8c0.5,1.1,0.5,1.5-0.3,2.4c0,0,0,0.1,0.1,0.1
				c0.7,1.1,0.4,2.2-0.8,2.7c-2.1,0.9-4.1,1.8-6.2,2.6c-0.3,0.1-0.7,0.1-1,0.1c-0.6,0-1.2-0.2-1.7,0c-0.5,0.2-0.8,0.8-1.1,1.3
				c-3.1,3.9-6.3,7.8-9.4,11.7c-0.5,0.6-0.9,0.5-1.2-0.2c-1.2-2.8-2.3-5.6-3.5-8.4c-0.2-0.4-0.1-0.7,0.2-1
				c4.7-5.1,9.5-10.3,14.2-15.5c0.4-0.4,0.7-0.7,1.2-0.9c0.6-0.2,1.1-0.5,1.7-0.7c0.7-0.3,1-0.1,1,0.7
				C85.1,78.2,85.1,78.7,85.1,79.2z"/>
			<path class="st4" d="M86.3,77.4c-0.2-0.7-0.5-1.2-1.2-1.5c-0.1,0-0.1-0.1-0.1-0.2c0.1-0.4-0.2-0.5-0.5-0.7
				c-1.9-1.2-2.6-3.6-1.7-5.9c0.4-1,1-1.8,1.9-2.4c0.6-0.4,1-0.2,1,0.5c0.1,1.1,0.1,2.1,0.1,3.2c0,0.3,0.1,0.5,0.4,0.6
				c1,0.6,1.1,0.6,1.9-0.2c0.1-0.1,0.1-0.3,0.1-0.4c0-1.1-0.1-2.1-0.1-3.2c0-0.8,0.3-1,1.1-0.7c2.3,1.2,4,5.5,0.9,8.1
				c-0.3,0.3-0.5,0.5-0.5,1c0,0.1-0.1,0.4-0.2,0.4C88.4,76.5,87.4,76.9,86.3,77.4z"/>
			<path class="st4" d="M90.2,89.8c0,0.4,0,0.8,0.1,1.1c0,0.2,0.1,0.4,0.3,0.4c3.4,2.1,2.6,6.6,0.1,8.3c-0.2,0.1-0.6,0.2-0.8,0.2
				c-0.3-0.1-0.3-0.4-0.3-0.7c0-1-0.1-2-0.1-3c0-0.4-0.1-0.6-0.5-0.8c-0.8-0.5-0.8-0.5-1.6,0.1c-0.3,0.2-0.4,0.4-0.4,0.8
				c0.1,1,0.1,2.1,0.1,3.1c0,0.7-0.3,1-0.9,0.7c-2.2-1.1-4-5-1.5-7.8c0.1-0.1,0.2-0.2,0.3-0.2C86.6,91.3,88.3,90.6,90.2,89.8z"/>
		</g>
		<path class="st4" d="M272.6,71.7c1.9,4.5,3.7,8.9,5.6,13.4c0.1,0.2,0.2,0.3,0.5,0.3c0.4,0,0.9-0.1,1.3,0c0.6,0.1,0.9,0.4,1.1,1
			c0.1,0.4,0,0.8-0.3,1.1c-0.6,0.6-1.1,1.2-1.7,1.8c-0.6,0.6-1.1,1.2-1.7,1.8c-0.5,0.5-0.9,1-1.4,1.5c-0.7,0.7-1.3,1.4-2,2.1
			c-0.5,0.6-1.1,1.2-1.6,1.7c-0.6,0.7-1.3,1.4-2,2c-0.4,0.4-0.9,0.8-1.4,1.2c-0.3,0.2-0.6,0.4-1,0.5c-1.1,0.5-2.2,0.6-3.3,0.4
			c-1.3-0.2-2.6-0.3-3.9-0.4c-1.3-0.1-2.6-0.3-3.9-0.4c-1.3-0.1-2.6-0.3-3.9-0.4c-1.4-0.2-2.8-0.3-4.3-0.5c-0.7-0.1-1.5-0.2-2.2-0.2
			c-0.7-0.1-1.1-0.5-1.3-1.1c-0.1-0.5,0-1,0.5-1.3c0.6-0.5,1.2-1,1.8-1.5c0.1,0,0.1-0.2,0.1-0.3c0,0,0-0.1-0.1-0.1
			c-1.7-4-3.3-7.9-5-11.9c-0.3-0.6-0.1-0.6,0.3-1c0.4-0.3,0.9-0.7,1.4-1c0.7-0.5,1.4-1,2.1-1.5c0.9-0.7,1.8-1.3,2.7-2
			c0.8-0.6,1.6-1.2,2.4-1.8c0.5-0.3,0.9-0.7,1.4-1c0.4-0.2,0.7-0.6,1.2-0.7c0.5-0.1,0.9-0.1,1.4-0.2c1-0.1,1.9-0.3,2.9-0.4
			c0.5-0.1,1-0.1,1.5-0.2c0.9-0.1,1.9-0.3,2.8-0.4c0.5-0.1,1-0.1,1.5-0.2c0.9-0.1,1.9-0.3,2.8-0.4c0.7-0.1,1.4-0.2,2.1-0.3
			c0.9-0.1,1.8-0.3,2.7-0.4c0.2,0,0.4,0,0.5,0.2C272.3,71.1,272.4,71.4,272.6,71.7z M254.7,90.1c0.3,0.7,0.6,1.4,0.9,2.1
			c0.1,0.2,0.1,0.3,0,0.5c-0.3,0.3-0.6,0.6-0.9,0.8c-0.8,0.8-1.6,1.5-2.4,2.3c-0.1,0.1-0.3,0.3-0.5,0.4c-0.1,0.1-0.3,0-0.5,0
			c-0.8,0-1.6-0.1-2.4-0.1c-0.3,0-0.4-0.1-0.5-0.3c-0.1-0.3-0.2-0.6-0.4-0.9c-0.2,0.1-0.3,0.3-0.5,0.4c-0.4,0.4-0.8,0.7-1.2,1.1
			c-0.2,0.2-0.3,0.5-0.3,0.8c0.1,0.3,0.3,0.5,0.6,0.5c0.2,0,0.4,0.1,0.6,0.1c1.2,0.1,2.4,0.2,3.7,0.4c1.5,0.2,2.9,0.3,4.4,0.5
			c1.2,0.1,2.4,0.3,3.7,0.4c0.9,0.1,1.8,0.2,2.6,0.3c0.9,0.1,1.7,0.2,2.6,0.3c0.9,0.1,1.8,0.2,2.7,0c0.9-0.2,1.7-0.6,2.4-1.2
			c0.7-0.6,1.3-1.3,1.9-2c0.6-0.6,1.1-1.2,1.6-1.7c0.7-0.7,1.3-1.4,2-2.1c0.5-0.5,0.9-1,1.4-1.5c0.6-0.6,1.1-1.2,1.7-1.8
			c0.5-0.5,1-1,1.4-1.5c0.3-0.3,0.6-0.6,0.8-0.9c0.2-0.2,0.2-0.4,0.1-0.6c-0.1-0.2-0.3-0.3-0.5-0.3c-0.3,0-0.6,0-0.8,0
			c0-0.1,0-0.2,0-0.3c-0.1,0.1-0.3,0.1-0.3,0.1c-0.1,0.2-0.3,0.2-0.5,0.2c-0.1,0-0.2,0.1-0.3,0.2c-0.4,0.6-0.9,1.2-1.3,1.8
			c-0.1,0.2-0.3,0.3-0.5,0.3c-0.4,0-0.8,0-1.1,0c-1,0-1.9,0-2.9,0c-0.4,0-0.9,0-1.3,0c0,0.1,0.1,0.2,0.1,0.3
			c0.6,1.5,1.2,2.9,1.8,4.4c0.1,0.3,0.1,0.5,0,0.7c-0.2,0.3-0.4,0.6-0.6,0.8c-0.6,0.5-1.4,1-2.1,1.3c-1.4,0.7-2.8,1.2-4.4,1.3
			c-0.6,0-1-0.1-1.3-0.8c-0.8-1.9-1.6-3.8-2.3-5.6c-0.1-0.2-0.1-0.4-0.1-0.5c0.1-0.4,0.3-0.7,0.6-0.9c0.4-0.3,0.8-0.6,1.2-0.9
			c0,0,0,0,0,0c-0.9,0-1.8,0-2.7,0c-1.1,0-2.2,0-3.3,0c-0.1,0-0.3,0-0.4,0.1c-0.3,0.2-0.6,0.5-0.9,0.7
			C255.7,89.3,255.2,89.7,254.7,90.1z M269.7,73.6c-0.1,0-0.2,0-0.3,0c-0.9,0.1-1.7,0.2-2.6,0.4c-0.7,0.1-1.4,0.2-2.1,0.3
			c-1.1,0.1-2.1,0.3-3.2,0.4c-1,0.1-2.1,0.3-3.1,0.4c-0.7,0.1-1.5,0.2-2.2,0.3c-0.3,0-0.6,0.1-0.9,0.1c0.1,0.1,0.1,0.2,0.1,0.3
			c0.6,1.5,1.2,2.9,1.9,4.4c0.1,0.2,0.1,0.4-0.1,0.5c-0.2,0.2-0.4,0.3-0.6,0.5c-0.4,0.3-0.8,0.7-1.3,1c0.7,1.7,1.4,3.3,2.1,4.9
			c0,0.1,0.1,0.1,0.2,0.1c0.6,0,1.2,0,1.7,0c0.7,0,1.3,0,2,0c0.9,0,1.9,0,2.8,0c0.6,0,1.2,0,1.7-0.3c1-0.5,2.2-0.7,3.3-0.7
			c0.5,0,0.8,0.2,1.1,0.7c0.1,0.1,0.1,0.3,0.2,0.4c1.7,0,3.5,0,5.2,0.1C273.6,82.9,271.7,78.2,269.7,73.6z M254.6,75.8
			c-0.1,0.1-0.2,0.1-0.3,0.2c-0.3,0.2-0.5,0.4-0.8,0.6c-0.6,0.4-1.2,0.9-1.8,1.3c-0.4,0.3-0.9,0.7-1.3,1c-0.8,0.6-1.5,1.1-2.3,1.7
			c-0.5,0.4-1,0.7-1.5,1.1c-0.3,0.2-0.3,0.2-0.2,0.6c1.8,4.3,3.6,8.5,5.3,12.8c0,0.1,0.1,0.2,0.1,0.3c0.1,0,0.1,0,0.1-0.1
			c0.5-0.4,0.9-0.9,1.4-1.3c0.4-0.4,0.9-0.9,1.4-1.3c0.2-0.2,0.2-0.3,0.1-0.5c-1-2.4-2-4.9-3.1-7.3c0-0.1-0.1-0.1-0.1-0.2
			c-0.1-0.2,0-0.3,0.1-0.4c0.5-0.4,1-0.8,1.5-1.2c0.7-0.5,1.4-1.1,2.1-1.6c0.3-0.3,0.6-0.5,1-0.8c0.2-0.1,0.2-0.2,0.1-0.4
			c-0.6-1.3-1.1-2.7-1.7-4C254.7,76,254.6,75.9,254.6,75.8z M262.7,91c0,0.1,0.1,0.2,0.1,0.2c0.3,0.6,0.5,1.2,0.8,1.8
			c0.4,1,0.8,1.9,1.2,2.9c0.1,0.2,0.2,0.3,0.4,0.3c0.5,0,1,0,1.5-0.1c0.9-0.2,1.8-0.5,2.6-0.9c0.9-0.4,1.7-0.9,2.4-1.5
			c0.3-0.3,0.4-0.4,0.2-0.8c-0.6-1.5-1.3-3-1.9-4.5c0-0.1-0.1-0.2-0.1-0.3C267.7,89.7,265.4,90.7,262.7,91z M243.9,81.4
			c0.4,0,0.7,0,1.1,0c0.3,0,0.6,0.1,0.8,0c0.5-0.3,0.9-0.7,1.4-1c0.4-0.3,0.9-0.7,1.3-1c0.6-0.4,1.2-0.9,1.8-1.3
			c0.4-0.3,0.9-0.6,1.3-1c0.8-0.6,1.5-1.1,2.3-1.7c0.3-0.2,0.5-0.4,0.8-0.5c0.9-0.2,1.9-0.3,2.9-0.4c1-0.1,1.9-0.3,2.9-0.4
			c1.1-0.1,2.1-0.3,3.2-0.4c0.8-0.1,1.5-0.2,2.3-0.3c1.1-0.1,2.1-0.3,3.2-0.4c0.4,0,0.7-0.1,0.9-0.5c0.1-0.2,0.4-0.4,0.5-0.6
			c0.1-0.1,0.2-0.3,0.3-0.4c-0.9,0.1-1.8,0.3-2.7,0.4c-0.7,0.1-1.5,0.2-2.2,0.3c-1.1,0.2-2.3,0.3-3.4,0.5c-1,0.2-2,0.3-3.1,0.5
			c-0.9,0.1-1.9,0.3-2.8,0.4c-0.7,0.1-1.5,0.2-2.2,0.3c-0.2,0-0.4,0-0.6,0.1c-0.3,0.2-0.7,0.5-1,0.7c-0.4,0.3-0.9,0.7-1.3,1
			c-0.8,0.6-1.6,1.1-2.4,1.7c-0.5,0.3-0.9,0.7-1.3,1c-0.6,0.5-1.3,0.9-1.9,1.3c-0.5,0.3-1,0.7-1.5,1
			C244.4,80.9,244.2,81.1,243.9,81.4z M276.2,87.2c0.4-0.6,0.8-1.1,1.2-1.6c0.1-0.2,0.1-0.3,0-0.5c-1.3-3.1-2.6-6.2-3.9-9.3
			c0-0.1-0.1-0.2-0.1-0.3c-0.5-1.2-1-2.3-1.4-3.5c-0.1-0.2-0.1-0.3-0.2-0.5c-0.5,0.5-0.9,1-1.3,1.5c0,0.1-0.1,0.2,0,0.3
			c0.1,0.3,0.3,0.6,0.4,0.9c0.4,0.9,0.8,1.9,1.1,2.8c1,2.5,2.1,5,3.1,7.5C275.5,85.4,275.8,86.3,276.2,87.2z M251.2,95.5
			c-0.1-0.1-0.1-0.2-0.1-0.3c-1.1-2.6-2.2-5.3-3.3-7.9c-0.7-1.7-1.4-3.3-2.1-5c0-0.1-0.1-0.2-0.2-0.2c-0.5,0-1,0-1.4,0
			c-0.2,0-0.4,0-0.6,0c0,0.1,0,0.1,0,0.1c1.8,4.4,3.7,8.8,5.5,13.2c0,0.1,0.2,0.2,0.2,0.2C249.8,95.5,250.5,95.5,251.2,95.5z
			 M254.6,82.7c-0.2,0.1-0.3,0.2-0.4,0.3c-0.5,0.4-1.1,0.9-1.6,1.3c-0.2,0.1-0.2,0.2-0.1,0.5c0.6,1.5,1.2,2.9,1.8,4.4
			c0,0.1,0.1,0.2,0.1,0.3c0.2-0.1,0.3-0.3,0.4-0.4c0.6-0.5,1.1-0.9,1.7-1.4c0.1-0.1,0.1-0.2,0-0.3c-0.6-1.5-1.2-2.9-1.8-4.4
			C254.7,82.9,254.7,82.8,254.6,82.7z M262.3,90.2c0.3,0,0.5,0.1,0.7,0.1c0.5-0.1,1-0.1,1.4-0.3c1.4-0.3,2.8-1,4-1.8
			c0.3-0.2,0.6-0.5,0.9-0.8c0.2-0.2,0.1-0.3-0.1-0.3c-0.3,0-0.7,0-1,0c-0.6,0.1-1.2,0.3-1.7,0.4c-1.4,0.5-2.8,1.1-3.9,2.2
			C262.5,89.8,262.4,90,262.3,90.2z"/>
		<polygon class="st5" points="252.9,173.8 279,190.6 280.5,159.6 252.9,173.8 279,190.6 280.5,159.6 		"/>
		<path class="st5" d="M263.6,140c9.8,24,9.7,49.8,1.2,72.4l62.6,25c14.8-38.6,15.5-82.5-1.8-123.9L263.6,140z"/>
		<g>
			<path class="st4" d="M168,57.9c-2,0.8-3,3.2-2.1,5.2s3.2,3,5.2,2.1c2-0.8,3-3.2,2.1-5.2S170.1,57,168,57.9z M170.6,64.1
				c-1.4,0.6-3-0.1-3.6-1.5c-0.6-1.4,0.1-3,1.5-3.6c1.4-0.6,3,0.1,3.6,1.5S172.1,63.5,170.6,64.1z"/>
			<path class="st4" d="M168.9,60c-0.8,0.4-1.2,1.3-0.9,2.2c0.4,0.8,1.3,1.2,2.2,0.9s1.2-1.3,0.9-2.2S169.8,59.7,168.9,60z"/>
			<path class="st4" d="M186.8,50c-2,0.8-3,3.2-2.1,5.2s3.2,3,5.2,2.1c2-0.8,3-3.2,2.1-5.2S188.9,49.2,186.8,50z M189.5,56.3
				c-1.4,0.6-3-0.1-3.6-1.5s0.1-3,1.5-3.6c1.4-0.6,3,0.1,3.6,1.5C191.5,54,190.9,55.7,189.5,56.3z"/>
			<path class="st4" d="M187.7,52.2c-0.8,0.4-1.2,1.3-0.9,2.2s1.3,1.2,2.2,0.9c0.8-0.4,1.2-1.3,0.9-2.2
				C189.6,52.2,188.6,51.8,187.7,52.2z"/>
			<path class="st4" d="M190.8,39.7l-3.6,0c-0.7-0.5-3.3-2.5-4.9-3c-0.1,0-0.3,0-0.4,0l-4.6,1.9l-1.3-3.1c-0.1-0.3-0.5-0.5-0.8-0.3
				l-22.5,9.4c-0.3,0.1-0.5,0.5-0.3,0.8l5.7,13.7c0.1,0.3,0.5,0.5,0.8,0.3l1-0.4l1.7,4.1c0.1,0.3,0.5,0.5,0.8,0.3l2.5-1
				c0.2-0.1,0.4-0.3,0.4-0.6c-0.1-1.8,1-3.6,2.7-4.3c1.7-0.7,3.7-0.3,4.9,1.1c0.2,0.2,0.4,0.3,0.7,0.2l10.1-4.2
				c0.2-0.1,0.4-0.3,0.4-0.6c-0.1-1.8,1-3.6,2.7-4.3s3.7-0.3,4.9,1.1c0.2,0.2,0.4,0.3,0.7,0.2l2.5-1c0.3-0.1,0.5-0.5,0.3-0.8
				l-1.9-4.6l-1.8-4.4C191.3,39.9,191,39.7,190.8,39.7z M177.8,39.7l4.3-1.8c1.7,0.7,4.4,2.9,4.5,2.9c0.1,0.1,0.2,0.1,0.4,0.1l3.4,0
				l1.4,3.5l-10.3,4.3L177.8,39.7z M154.4,47.2l1.4-0.6l3.9,9.3l-1.4,0.6L154.4,47.2z M156.6,46.3l1.5-0.6L162,55l-1.5,0.6
				L156.6,46.3z M158.8,45.4l1.5-0.6l3.9,9.3l-1.5,0.6L158.8,45.4z M161,44.4l1.5-0.6l3.9,9.3l-1.5,0.6L161,44.4z M163.2,43.5
				l1.5-0.6l3.9,9.3l-1.5,0.6L163.2,43.5z M165.5,42.6l1.5-0.6l3.9,9.3l-1.5,0.6L165.5,42.6z M167.7,41.6l1.5-0.6l3.9,9.3l-1.5,0.6
				L167.7,41.6z M169.9,40.7l1.5-0.6l3.9,9.3l-1.5,0.6L169.9,40.7z M172.1,39.8l1.5-0.6l3.9,9.3l-1.5,0.6L172.1,39.8z M174.3,38.9
				l1.5-0.6l3.9,9.3l-1.5,0.6L174.3,38.9z M153.8,45.5l21.4-8.9l0.3,0.8l-21.4,8.9L153.8,45.5z M159,58.1l-0.3-0.8l21.4-8.9l0.3,0.8
				L159,58.1z M193.8,49l-1.5,0.6c-1.6-1.5-3.9-1.9-6-1.1c-2,0.9-3.4,2.8-3.4,5l-9.4,3.9c-1.6-1.5-3.9-1.9-6-1.1
				c-2,0.9-3.4,2.8-3.4,5l-1.5,0.6l-1.4-3.5l20.4-8.5l10.9-4.5L193.8,49z"/>
			<path class="st4" d="M181.8,39.2l-2.9,1.2l1.5,3.5l5.4-2.3l-0.1,0C184.7,40.8,183,39.7,181.8,39.2z"/>
			
				<rect x="181.7" y="44.5" transform="matrix(0.9227 -0.3855 0.3855 0.9227 -3.1764 73.8902)" class="st4" width="1.9" height="0.7"/>
		</g>
		<g>
			<path class="st4" d="M303.8,180.1c-1.7-4.7-3.4-9.5-5.2-14.2c0.5-0.2,0.9-0.3,1.3-0.5c1.9,5.3,3.9,10.6,5.8,15.9
				c-3.4-2-6.8,0.2-6.4,4.1c-0.2,0.1-0.4,0.2-0.6,0.3c-2,0.7-4,1.5-6,2.2c-2.9-3.1-5.6-2.9-7.5,0.6c-0.8-2.3-1.7-4.4-2.4-6.6
				c-0.3-0.8,0.2-1.5,1-1.9c0.5-0.3,1-0.5,1.7-0.7c-0.9-2.4-1.7-4.7-2.5-7c-0.6-1.7-0.4-2.3,1.3-2.9c1.2-0.5,2.5-0.9,3.7-1.4
				c1.2-0.5,2.1-0.2,3.1,0.6c3.9,3.7,7.8,7.3,11.7,11c0.2,0.2,0.5,0.4,0.7,0.6C303.7,180.2,303.8,180.1,303.8,180.1z M287.2,176.5
				c0.5,1.4,1,2.7,1.5,4.1c0.2,0.7,0.5,0.8,1.2,0.6c2.4-0.9,4.8-1.8,7.2-2.6c1-0.4,1-0.6,0.3-1.3c-2.4-2.2-4.8-4.4-7.2-6.7
				c-0.4-0.4-0.8-0.5-1.4-0.3c-0.8,0.4-1.7,0.7-2.6,0.9c-0.7,0.2-0.8,0.5-0.6,1.2C286.2,173.7,286.7,175.1,287.2,176.5z"/>
			<path class="st4" d="M288.1,186.7c1.6-0.6,3.3,0.2,3.9,1.8c0.6,1.5-0.3,3.3-1.8,3.9c-1.6,0.6-3.4-0.3-3.9-1.9
				C285.7,188.9,286.5,187.2,288.1,186.7z M290.6,189c-0.3-0.8-1.2-1.2-2-0.9c-0.8,0.3-1.2,1.2-1,2c0.3,0.8,1.2,1.2,2,0.9
				C290.4,190.7,290.8,189.8,290.6,189z"/>
			<path class="st4" d="M302.2,181.5c1.6-0.6,3.3,0.2,3.9,1.8c0.6,1.5-0.2,3.3-1.8,3.9c-1.6,0.6-3.4-0.3-4-1.9
				C299.8,183.8,300.6,182.1,302.2,181.5z M304.7,183.8c-0.3-0.8-1.2-1.2-2-0.9c-0.8,0.3-1.2,1.2-0.9,2c0.3,0.8,1.2,1.2,2,0.9
				C304.6,185.5,305,184.6,304.7,183.8z"/>
			<path class="st4" d="M310.4,163.4c-1.1,1.4-2.1,2.7-3.1,3.9c-0.1,0.2-0.5,0.3-0.7,0.2c-1.5-0.3-3-0.6-4.5-1.1
				C304.8,165.4,307.5,164.4,310.4,163.4z"/>
			<path class="st4" d="M315,177.2c-2.6,1-5.2,1.9-7.9,2.9c0-0.1-0.1-0.1-0.1-0.2c1-1.2,1.9-2.4,2.9-3.6c0.1-0.1,0.4-0.2,0.6-0.2
				c1.5,0.3,3,0.6,4.5,0.9C315,177.1,315,177.1,315,177.2z"/>
			<path class="st4" d="M312.4,169.8c-2.6,1-5.3,1.9-7.9,2.9c-0.1-0.1-0.1-0.1-0.2-0.2c1-1.2,1.9-2.5,2.9-3.7
				c0.1-0.1,0.3-0.1,0.4-0.1c1.6,0.3,3.1,0.6,4.7,1C312.4,169.7,312.4,169.7,312.4,169.8z"/>
			<path class="st4" d="M304.8,173.7c2.7-1,5.3-1.9,8-2.9c0,0,0.1,0.1,0.1,0.1c-1,1.3-2,2.6-3,3.8c-0.1,0.1-0.4,0.2-0.5,0.1
				c-1.5-0.3-3-0.6-4.5-0.9C304.9,173.9,304.9,173.8,304.8,173.7z"/>
			<path class="st4" d="M313.1,168.8c-1.7-0.4-3.3-0.7-5-1c1.1-1.4,2.1-2.6,3.1-4C311.8,165.5,312.4,167.1,313.1,168.8z"/>
			<path class="st4" d="M313.9,171.1c0.6,1.8,1.2,3.3,1.9,5.1c-1.7-0.4-3.3-0.7-5-1C311.8,173.8,312.8,172.5,313.9,171.1z"/>
			<path class="st4" d="M304.4,174.8c1.6,0.3,3.1,0.6,4.8,1c-1,1.3-2,2.5-3,3.9C305.5,178,305,176.5,304.4,174.8z"/>
			<path class="st4" d="M306.5,168.4c-1,1.3-2,2.5-3,3.8c-0.6-1.7-1.2-3.2-1.8-4.8C303.3,167.7,304.8,168,306.5,168.4z"/>
			<path class="st4" d="M306.8,182.7c-0.3-0.4-0.6-0.7-0.9-1.1c2.4-0.9,4.8-1.8,7.3-2.7c0.2,0.4,0.3,0.8,0.5,1.3
				C311.4,181,309.1,181.8,306.8,182.7z"/>
		</g>
		<g>
			<path class="st4" d="M18.6,220.3l0.3,1.2l-0.9,0.2l-0.9-3.3l0.9-0.2l0.3,1.2l6.4-1.8l0.3,1L18.6,220.3z"/>
			<path class="st4" d="M20.7,215.7l3.3-0.8l0.2,1l-7.3,1.8l-0.4-1.5c-0.3-1.1,0-1.8,1.3-2.2l0.3-0.1c1.1-0.3,1.5,0.1,1.7,0.4
				c0.1-0.5,0.3-0.8,1.3-1.1c0.6-0.2,1.8-0.4,2.2-0.6l0.2,1c-0.4,0.2-1.6,0.5-2.2,0.6c-0.9,0.2-1.1,0.4-1,1.1L20.7,215.7z
				 M19.9,215.9l-0.1-0.4c-0.2-0.6-0.5-0.8-1.3-0.6l-0.3,0.1c-0.6,0.2-0.9,0.4-0.8,1.1l0.1,0.4L19.9,215.9z"/>
			<path class="st4" d="M21,211.4l2.2-0.2l0.2,1l-7.7,0.4l-0.3-1.4l7.1-2.9l0.2,1l-2.1,0.8L21,211.4z M19.8,210.5
				c-1.4,0.5-2.5,1-3.3,1.2l0,0c0.6-0.1,2.3-0.2,3.5-0.3L19.8,210.5z"/>
			<path class="st4" d="M20.1,207.4l0.4-0.1c0.6-0.1,0.9-0.4,0.8-0.9c-0.1-0.5-0.5-0.6-1.2-0.4c-0.8,0.2-1.1,0.4-1.5,1.3
				c-0.5,0.9-0.8,1.4-1.9,1.6c-1,0.2-2,0.1-2.2-1.2c-0.2-1.3,0.6-1.7,1.4-1.8l0.4-0.1l0.2,1l-0.3,0.1c-0.6,0.1-0.9,0.3-0.8,0.7
				c0.1,0.4,0.5,0.5,1,0.4c0.6-0.1,0.8-0.3,1.2-1c0.6-1.2,1-1.7,2.2-1.9c1.1-0.2,2.1-0.1,2.4,1.3c0.3,1.3-0.5,1.8-1.5,2l-0.4,0.1
				L20.1,207.4z"/>
			<path class="st4" d="M14.2,205.3l-0.2-1l6.6-1.1l-0.3-1.9l0.9-0.1l0.5,2.8L14.2,205.3z"/>
			<path class="st4" d="M15.1,198.1l3.6-0.5c1.4-0.2,2.1,0.3,2.3,1.5c0.2,1.2-0.5,1.8-1.8,2l-3.6,0.5c-1.4,0.2-2.1-0.4-2.3-1.4
				C13.1,199.1,13.7,198.3,15.1,198.1z M15.4,200.6l3.8-0.6c0.7-0.1,1-0.4,0.9-0.9c-0.1-0.5-0.4-0.7-1.2-0.6l-3.8,0.6
				c-0.7,0.1-1,0.4-0.9,0.9C14.3,200.5,14.6,200.7,15.4,200.6z"/>
			<path class="st4" d="M20.1,193.2l0.1,0.8c-0.1,0-0.4,0.1-0.6,0.1c0.5,0.1,0.8,0.5,0.8,1c0.1,1.1-0.6,1.5-1.9,1.7l-3.6,0.5
				c-1.2,0.2-2.1-0.2-2.3-1.4c-0.2-1.5,0.9-1.8,1.7-1.9l0.2,0l0.1,1l-0.3,0c-0.5,0.1-1,0.2-0.9,0.8c0.1,0.5,0.4,0.6,1.1,0.6l3.9-0.5
				c0.7-0.1,1-0.3,1-0.8c-0.1-0.6-0.6-0.6-1.5-0.5l-1.1,0.1l0.1,0.7l-0.9,0.1l-0.2-1.7L20.1,193.2z"/>
			<path class="st4" d="M14.1,189.5l3.6-0.4c1.4-0.1,2.1,0.4,2.2,1.6c0.1,1.2-0.5,1.8-1.9,1.9l-3.7,0.4c-1.4,0.1-2.1-0.5-2.2-1.6
				C12.1,190.3,12.7,189.6,14.1,189.5z M14.2,191.9l3.8-0.4c0.7-0.1,1-0.4,1-0.8c0-0.5-0.4-0.7-1.1-0.6l-3.8,0.4
				c-0.7,0.1-1,0.3-1,0.8C13.2,191.8,13.5,192,14.2,191.9z"/>
			<path class="st4" d="M15.8,184.1l0.1,1.7l2.6-0.2l-0.1-1.9l0.9,0.1l0.2,2.8l-7.6,0.5l-0.2-2.8l0.9-0.1l0.1,1.8l2.1-0.1l-0.1-1.7
				L15.8,184.1z"/>
			<path class="st4" d="M11.6,181.8l-0.1-2.8l0.9,0l0.1,1.8l2.2-0.1l-0.1-1.7l0.9,0l0.1,1.7l3.5-0.1l0,1L11.6,181.8z"/>
			<path class="st4" d="M16.9,177.5l2.2,0.3l0,1l-7.6-1.1l0-1.4l7.5-1.4l0,1.1l-2.2,0.4L16.9,177.5z M15.9,176.4
				c-1.4,0.2-2.7,0.4-3.5,0.5l0,0c0.6,0,2.3,0.2,3.5,0.4L15.9,176.4z"/>
			<path class="st4" d="M16.8,171l0.3,0c0.9,0,2.1,0.2,2,1.7c0,1.4-0.9,1.6-2,1.6l-3.8,0c-1.2,0-1.9-0.5-1.9-1.7
				c0-1.4,0.9-1.6,2-1.6l0.3,0l0,1l-0.4,0c-0.5,0-0.9,0.1-0.9,0.6c0,0.5,0.3,0.6,0.9,0.6l4,0c0.6,0,1-0.1,1-0.6c0-0.5-0.4-0.6-1-0.6
				l-0.4,0L16.8,171z"/>
			<path class="st4" d="M16.9,167.1l0.3,0c0.9,0,2,0.2,2,1.7c0,1.4-0.9,1.6-2.1,1.6l-3.8-0.1c-1.2,0-1.9-0.6-1.9-1.7
				c0-1.4,1-1.6,2-1.6l0.3,0l0,1l-0.4,0c-0.5,0-0.9,0.1-0.9,0.6c0,0.5,0.3,0.6,0.9,0.6l4,0.1c0.6,0,1-0.1,1.1-0.6
				c0-0.5-0.4-0.6-1-0.6l-0.4,0L16.9,167.1z"/>
			<path class="st4" d="M11.6,166l0.1-1l3,0.2l0.1-1.4l-3-0.2l0.1-1l7.6,0.4l-0.1,1l-3.6-0.2l-0.1,1.4l3.6,0.2l-0.1,1L11.6,166z"/>
			<path class="st4" d="M12,160.4l7.6,0.6l-0.1,1l-7.6-0.6L12,160.4z"/>
			<path class="st4" d="M19.6,160l-7.5-0.7l0.1-1.2c1.2-0.2,5.1-0.8,5.6-0.9l0,0c-1,0-2-0.1-3.3-0.3l-2.3-0.2l0.1-0.9l7.5,0.7
				l-0.1,1.1c-1.1,0.2-5.4,0.8-5.8,0.9l0,0c0.9,0,2,0.1,3.4,0.3l2.3,0.2L19.6,160z"/>
			<path class="st4" d="M18,154.3l2.1,0.6l-0.1,1l-7.4-2.1l0.2-1.4l7.7-0.4l-0.1,1.1l-2.2,0.1L18,154.3z M17.2,153.1
				c-1.5,0-2.7,0.1-3.5,0l0,0c0.6,0.1,2.2,0.5,3.4,0.9L17.2,153.1z"/>
			<path class="st4" d="M21,148.1l-0.1,0.8c-0.1,0-0.4,0-0.6,0c0.5,0.3,0.6,0.7,0.5,1.2c-0.2,1.1-1,1.3-2.2,1.1l-3.6-0.5
				c-1.2-0.2-2-0.8-1.8-2c0.2-1.5,1.3-1.5,2.2-1.4l0.2,0l-0.1,1l-0.3,0c-0.4-0.1-1-0.1-1.1,0.5c-0.1,0.5,0.2,0.7,0.9,0.8l3.8,0.6
				c0.7,0.1,1.1,0,1.1-0.5c0.1-0.6-0.4-0.8-1.3-0.9l-1.1-0.2l-0.1,0.7l-0.9-0.1l0.3-1.7L21,148.1z"/>
			<path class="st4" d="M21.7,144l-0.1,0.8c-0.1,0-0.4,0-0.6,0c0.5,0.3,0.6,0.7,0.5,1.2c-0.2,1.1-1,1.3-2.3,1.1l-3.6-0.6
				c-1.2-0.2-2-0.8-1.8-2.1c0.3-1.5,1.3-1.5,2.2-1.3l0.2,0l-0.2,1l-0.3,0c-0.4-0.1-1-0.1-1.1,0.5c-0.1,0.5,0.2,0.7,0.9,0.8l3.8,0.7
				c0.7,0.1,1.1,0,1.1-0.5c0.1-0.6-0.4-0.8-1.2-0.9l-1.1-0.2l-0.1,0.7l-0.9-0.2l0.3-1.7L21.7,144z"/>
			<path class="st4" d="M14.7,140.6l7.4,1.4l-0.2,1l-7.4-1.4L14.7,140.6z"/>
			<path class="st4" d="M17.5,136.6l3.6,0.8c1.4,0.3,1.9,1,1.7,2.2c-0.3,1.2-1.1,1.5-2.4,1.2l-3.6-0.8c-1.4-0.3-1.9-1.1-1.6-2.2
				C15.4,136.7,16.2,136.3,17.5,136.6z M16.9,139l3.8,0.8c0.7,0.2,1.1,0,1.2-0.5c0.1-0.5-0.1-0.8-0.9-0.9l-3.8-0.8
				c-0.7-0.1-1.1,0-1.2,0.5C15.9,138.5,16.2,138.8,16.9,139z"/>
		</g>
		<g>
			<path class="st4" d="M33.5,97.1l-0.6,1.1l-0.8-0.5l1.7-3l0.8,0.5L34,96.2l5.7,3.4l-0.5,0.9L33.5,97.1z"/>
			<path class="st4" d="M38.2,95.4l2.9,1.8l-0.5,0.9l-6.4-4l0.8-1.3c0.6-1,1.3-1.3,2.5-0.6l0.3,0.2c0.9,0.6,1,1.1,0.9,1.5
				c0.4-0.3,0.8-0.3,1.7,0.2c0.5,0.3,1.6,1,2,1.2l-0.5,0.8c-0.4-0.2-1.5-0.8-2-1.1c-0.8-0.5-1.1-0.5-1.4,0.1L38.2,95.4z M37.5,95
				l0.2-0.3c0.3-0.6,0.2-0.9-0.5-1.3l-0.2-0.2c-0.5-0.3-0.9-0.4-1.3,0.2l-0.2,0.3L37.5,95z"/>
			<path class="st4" d="M41.5,92.6l1.7,1.5l-0.6,0.9l-5.7-5.2l0.8-1.2l7,3.1l-0.6,0.9l-2-0.9L41.5,92.6z M41.3,91.2
				c-1.3-0.6-2.5-1.1-3.2-1.5l0,0c0.5,0.4,1.7,1.5,2.7,2.3L41.3,91.2z"/>
			<path class="st4" d="M43.7,89.2l0.4,0.3c0.5,0.4,0.9,0.4,1.2,0c0.3-0.4,0-0.8-0.5-1.1c-0.7-0.5-1-0.5-2-0.2
				c-1,0.3-1.6,0.4-2.5-0.2c-0.8-0.6-1.4-1.4-0.7-2.4c0.7-1.1,1.6-0.8,2.3-0.3l0.3,0.2l-0.6,0.8l-0.3-0.2c-0.5-0.3-0.8-0.4-1.1-0.1
				c-0.2,0.4,0,0.7,0.4,1c0.5,0.3,0.8,0.4,1.6,0.1c1.3-0.4,1.9-0.5,2.9,0.3c0.9,0.6,1.5,1.5,0.7,2.6c-0.8,1.1-1.7,0.9-2.5,0.3
				L43.2,90L43.7,89.2z"/>
			<path class="st4" d="M41.2,83.5l0.9-1.3c0.7-0.9,1.5-1.1,2.5-0.3l0.4,0.3c1,0.7,1.4,1.5,0.6,2.7l-0.3,0.4l2.6,1.9l-0.6,0.8
				L41.2,83.5z M44.6,84.7l0.2-0.3c0.5-0.6,0.2-1-0.5-1.5l-0.3-0.2c-0.5-0.3-0.9-0.5-1.3,0l-0.3,0.4L44.6,84.7z"/>
			<path class="st4" d="M47.3,78.5l2.9,2.2c1.1,0.8,1.3,1.7,0.6,2.7c-0.7,1-1.6,0.9-2.7,0.1l-2.9-2.2c-1.1-0.8-1.2-1.8-0.6-2.7
				C45.3,77.7,46.2,77.7,47.3,78.5z M45.7,80.4l3.1,2.3c0.6,0.4,1,0.4,1.3,0.1c0.3-0.4,0.2-0.8-0.4-1.2l-3.1-2.3
				c-0.5-0.4-1-0.5-1.3-0.1C45,79.6,45.1,80,45.7,80.4z"/>
			<path class="st4" d="M50.2,78.3l2.7,2.2l-0.6,0.8l-5.9-4.7l0.9-1.2c0.7-0.9,1.5-1.1,2.5-0.3l0.2,0.2c0.9,0.7,0.9,1.2,0.8,1.6
				c0.4-0.2,0.9-0.2,1.6,0.4c0.5,0.4,1.4,1.2,1.9,1.4l-0.6,0.8c-0.4-0.2-1.4-1-1.8-1.4c-0.7-0.6-1-0.6-1.5-0.1L50.2,78.3z
				 M49.6,77.8l0.2-0.3c0.4-0.5,0.3-0.9-0.3-1.4l-0.2-0.2c-0.5-0.4-0.9-0.5-1.3,0l-0.2,0.3L49.6,77.8z"/>
			<path class="st4" d="M50.3,73.2l-0.8,0.9l-0.7-0.6l2.2-2.6l0.7,0.6l-0.8,0.9l5.1,4.3l-0.7,0.8L50.3,73.2z"/>
			<path class="st4" d="M55.1,69.2l2.7,2.4c1.1,0.9,1.2,1.8,0.4,2.7c-0.8,0.9-1.7,0.8-2.7-0.1l-2.8-2.4c-1-0.9-1.1-1.9-0.4-2.7
				C53.2,68.3,54.1,68.3,55.1,69.2z M53.4,71l2.9,2.6c0.5,0.5,1,0.5,1.3,0.1c0.3-0.4,0.3-0.7-0.3-1.2l-2.9-2.5
				c-0.5-0.5-0.9-0.5-1.3-0.1C52.8,70.1,52.9,70.5,53.4,71z"/>
			<path class="st4" d="M60.2,66.8L59,68l1.9,1.8l1.3-1.4l0.6,0.7l-1.9,2L55.4,66l1.9-2l0.7,0.6l-1.2,1.3l1.6,1.5l1.1-1.2L60.2,66.8
				z"/>
			<path class="st4" d="M65,62.7c-0.9-0.9-2-2.1-2.6-2.7l0,0c0.8,1,2.7,3.6,4,5.5l-0.7,0.7c-1.6-1.2-4.3-3.2-5.4-4.1l0,0
				c0.6,0.6,1.9,1.8,2.8,2.7l2,2l-0.7,0.7L59,62.1l1.1-1.1c1.7,1.2,3.7,2.7,4.5,3.3l0,0c-0.6-0.8-2.1-2.9-3.2-4.6l1-1l5.3,5.4
				L67,64.8L65,62.7z"/>
			<path class="st4" d="M67.1,57.1l2.5,2.7c1,1,1,1.9,0.1,2.8c-0.9,0.8-1.7,0.6-2.7-0.3l-2.5-2.7c-0.9-1-0.9-2-0.1-2.7
				C65.2,56,66.1,56.1,67.1,57.1z M65.2,58.7l2.6,2.8c0.5,0.5,0.9,0.6,1.2,0.3c0.4-0.3,0.3-0.7-0.2-1.3l-2.6-2.8
				c-0.5-0.5-0.9-0.6-1.2-0.3C64.7,57.8,64.7,58.2,65.2,58.7z"/>
			<path class="st4" d="M71.5,60.6l-5-5.7l0.9-0.8c1.1,0.7,4.3,2.9,4.7,3.2l0,0c-0.7-0.7-1.4-1.5-2.2-2.4l-1.5-1.7l0.7-0.6l5,5.7
				L73.3,59c-1-0.6-4.5-3.1-4.9-3.3l0,0c0.6,0.7,1.4,1.5,2.3,2.5l1.6,1.8L71.5,60.6z"/>
			<path class="st4" d="M71.2,52.1l-0.9,0.8l-0.6-0.7l2.6-2.2l0.6,0.7L72,51.5l4.3,5.1l-0.8,0.7L71.2,52.1z"/>
			<path class="st4" d="M76.6,53.4l1.1,1.9l-0.8,0.6l-3.8-6.7l1.1-0.9l5.8,5.1l-0.8,0.7l-1.6-1.5L76.6,53.4z M76.8,52
				c-1.1-1-2-1.8-2.6-2.4l0,0c0.4,0.5,1.2,1.9,1.8,3L76.8,52z"/>
			<path class="st4" d="M83.1,51.1l-0.6,0.5c-0.1-0.1-0.3-0.3-0.4-0.4c0.2,0.5-0.1,1-0.5,1.3c-0.9,0.7-1.6,0.2-2.4-0.7L77,48.7
				c-0.8-1-0.9-2,0.1-2.7c1.2-0.9,2-0.2,2.5,0.5l0.1,0.2l-0.8,0.6l-0.2-0.2c-0.3-0.4-0.6-0.7-1.1-0.4c-0.4,0.3-0.4,0.7,0.1,1.2
				l2.4,3.1c0.4,0.5,0.8,0.7,1.2,0.4c0.5-0.4,0.2-0.8-0.3-1.5l-0.7-0.9l-0.6,0.4l-0.5-0.7l1.4-1.1L83.1,51.1z"/>
			<path class="st4" d="M86.5,48.6L85.8,49c-0.1-0.1-0.3-0.3-0.4-0.5c0.1,0.5-0.1,1-0.5,1.2c-0.9,0.6-1.6,0.2-2.4-0.8l-2.2-3
				c-0.7-1-0.8-2,0.2-2.7c1.2-0.9,2-0.1,2.5,0.6l0.1,0.2l-0.8,0.6l-0.2-0.2c-0.3-0.4-0.6-0.8-1.1-0.4c-0.4,0.3-0.4,0.7,0,1.2
				l2.3,3.1c0.4,0.5,0.8,0.7,1.2,0.5c0.5-0.3,0.3-0.8-0.2-1.5l-0.7-0.9l-0.6,0.4l-0.5-0.7l1.4-1L86.5,48.6z"/>
			<path class="st4" d="M83.8,41.2l4.3,6.2L87.3,48l-4.3-6.2L83.8,41.2z"/>
			<path class="st4" d="M88.6,40.3l2,3c0.8,1.2,0.7,2.1-0.3,2.7c-1,0.7-1.8,0.4-2.6-0.8l-2-3.1c-0.8-1.1-0.6-2.1,0.3-2.7
				C86.9,39,87.8,39.2,88.6,40.3z M86.5,41.6l2.2,3.2c0.4,0.6,0.8,0.7,1.2,0.5c0.4-0.3,0.4-0.7,0-1.3l-2.1-3.2
				c-0.4-0.6-0.8-0.7-1.2-0.5C86.1,40.6,86.1,41,86.5,41.6z"/>
		</g>
		<g>
			<path class="st4" d="M140.7,24.7l0.1,0.4c0.1,0.6,0.4,0.9,0.9,0.8c0.5-0.1,0.6-0.5,0.4-1.2c-0.2-0.8-0.4-1.1-1.3-1.6
				c-0.9-0.5-1.4-0.8-1.6-1.9c-0.2-1-0.1-2,1.2-2.2c1.3-0.2,1.7,0.6,1.8,1.5l0.1,0.4l-1,0.2l-0.1-0.3c-0.1-0.6-0.3-0.9-0.7-0.8
				c-0.4,0.1-0.5,0.5-0.4,1c0.1,0.6,0.3,0.8,1,1.2c1.2,0.6,1.7,1,1.9,2.2c0.2,1.1,0,2.1-1.3,2.3c-1.3,0.2-1.8-0.5-2-1.5l-0.1-0.4
				L140.7,24.7z"/>
			<path class="st4" d="M142.9,18.8l1.5-0.3c1.2-0.2,1.8,0.3,2,1.6l0.1,0.4c0.2,1.2-0.1,2.1-1.5,2.3l-0.5,0.1l0.5,3.2l-1,0.2
				L142.9,18.8z M144.5,22.1l0.4-0.1c0.8-0.1,0.8-0.6,0.7-1.4l-0.1-0.4c-0.1-0.6-0.3-1-1-0.9l-0.5,0.1L144.5,22.1z"/>
			<path class="st4" d="M150.2,21.7l-1.7,0.2l0.4,2.6l1.9-0.3l0,0.9l-2.8,0.4l-1.1-7.5l2.8-0.4l0.1,0.9l-1.8,0.2l0.3,2.1l1.7-0.2
				L150.2,21.7z"/>
			<path class="st4" d="M150.6,17.6l1.5-0.2c1.6-0.2,2,0.7,2.2,2l0.3,2.9c0.1,1.2,0.1,2.4-1.7,2.6l-1.5,0.2L150.6,17.6z M152.4,24.2
				l0.4,0c0.8-0.1,0.9-0.6,0.8-1.5l-0.4-3.2c-0.1-0.8-0.3-1.2-1.1-1.1l-0.4,0L152.4,24.2z"/>
			<path class="st4" d="M156.1,17l0.7,7.5l-1,0.1l-0.7-7.5L156.1,17z"/>
			<path class="st4" d="M157.4,23.8l1.7-6.1l-2,0.2l-0.1-0.9l3.1-0.3l0.1,0.8l-1.6,6l2.2-0.2l-0.1,0.9l-3.2,0.3L157.4,23.8z"/>
			<path class="st4" d="M161.8,16.6l0.5,7.6l-1,0.1l-0.5-7.6L161.8,16.6z"/>
			<path class="st4" d="M166.5,18.3l0.2,3.6c0.1,1.4-0.5,2.1-1.7,2.2c-1.2,0.1-1.7-0.6-1.8-2l-0.2-3.7c-0.1-1.4,0.6-2.1,1.7-2.1
				C165.8,16.2,166.4,16.9,166.5,18.3z M164,18.3l0.2,3.9c0,0.7,0.3,1,0.8,1c0.5,0,0.7-0.3,0.7-1.1l-0.2-3.8c0-0.7-0.3-1-0.8-1
				C164.2,17.2,163.9,17.6,164,18.3z"/>
			<path class="st4" d="M167.6,23.9l-0.2-7.6l1.2,0c0.4,1.2,1.4,5,1.5,5.5l0,0c-0.1-1-0.1-2-0.1-3.3l0-2.3l0.9,0l0.2,7.6l-1.1,0
				c-0.3-1.1-1.5-5.3-1.6-5.7l0,0c0.1,0.9,0.1,2,0.1,3.4l0.1,2.3L167.6,23.9z"/>
			<path class="st4" d="M173.1,16.2l0,7.6l-1,0l0-7.6L173.1,16.2z"/>
			<path class="st4" d="M175.6,23.8l0.2-7.6l1.2,0c0.3,1.2,1.2,5.1,1.3,5.6l0,0c0-1,0-2,0-3.3l0.1-2.3l0.9,0l-0.2,7.6l-1.1,0
				c-0.3-1.1-1.2-5.3-1.3-5.8l0,0c0,0.9,0,2,0,3.4l-0.1,2.3L175.6,23.8z"/>
			<path class="st4" d="M181.2,21.8l-0.4,2.2l-1-0.1l1.6-7.5l1.4,0.1l0.9,7.6l-1.1-0.1l-0.2-2.2L181.2,21.8z M182.3,20.9
				c-0.1-1.5-0.2-2.7-0.3-3.5l0,0c-0.1,0.6-0.4,2.2-0.6,3.5L182.3,20.9z"/>
			<path class="st4" d="M184.1,23.5l2.6-5.8l-2-0.2l0.1-0.9l3.1,0.2l-0.1,0.8l-2.6,5.7l2.2,0.2l-0.2,0.9l-3.2-0.2L184.1,23.5z"/>
			<path class="st4" d="M189.7,17l-0.7,7.5l-1-0.1l0.7-7.5L189.7,17z"/>
			<path class="st4" d="M193.9,19.4l-0.4,3.6c-0.2,1.4-0.8,2-2,1.9c-1.2-0.1-1.6-0.9-1.5-2.2l0.4-3.7c0.2-1.4,0.9-2,2-1.8
				C193.6,17.3,194.1,18.1,193.9,19.4z M191.5,19.1l-0.4,3.8c-0.1,0.7,0.1,1.1,0.6,1.1c0.5,0.1,0.8-0.2,0.8-1l0.4-3.8
				c0.1-0.7-0.1-1.1-0.6-1.1C191.8,18,191.5,18.3,191.5,19.1z"/>
			<path class="st4" d="M194.2,25.1l1-7.5l1.2,0.2c0.2,1.2,0.6,5.2,0.6,5.7l0,0c0.1-1,0.2-2,0.4-3.3l0.3-2.2l0.9,0.1l-1,7.5
				l-1.1-0.2c-0.1-1.2-0.6-5.4-0.7-5.9l0,0c-0.1,0.9-0.2,2-0.4,3.4l-0.3,2.3L194.2,25.1z"/>
			<path class="st4" d="M199.9,23.7l-0.7,2.1l-1-0.2l2.5-7.3l1.4,0.2l0,7.7l-1-0.2l0-2.2L199.9,23.7z M201.1,23
				c0-1.5,0.1-2.7,0.1-3.5l0,0c-0.1,0.6-0.6,2.2-1,3.4L201.1,23z"/>
			<path class="st4" d="M204,19l1,0.2l-1.2,6.6l1.9,0.4l-0.3,0.9l-2.8-0.5L204,19z"/>
			<path class="st4" d="M208.5,19.9l-1.5,7.4l-1-0.2l1.5-7.4L208.5,19.9z"/>
		</g>
		<g>
			<path class="st4" d="M258.7,47.3l-1.5,1.6l-0.8-0.6l5.3-5.5l1.2,0.8l-3.3,7l-0.9-0.6l1-2L258.7,47.3z M260.2,47.1
				c0.7-1.3,1.2-2.4,1.6-3.1l0,0c-0.4,0.5-1.5,1.7-2.4,2.6L260.2,47.1z"/>
			<path class="st4" d="M264.5,44.8l0.8,0.6l-3.9,5.4l1.5,1.1l-0.6,0.7l-2.3-1.7L264.5,44.8z"/>
			<path class="st4" d="M267.4,46.9l0.8,0.6l-4,5.3l1.5,1.1l-0.6,0.7l-2.3-1.7L267.4,46.9z"/>
			<path class="st4" d="M269.8,53.8l-1.3-1l-1.6,2.1l1.5,1.2l-0.7,0.7l-2.2-1.7l4.7-5.9l2.2,1.7l-0.6,0.7l-1.4-1.1L269,52l1.3,1
				L269.8,53.8z"/>
			<path class="st4" d="M270.3,56l-0.3,0.4c-0.4,0.5-0.5,0.9-0.1,1.2c0.4,0.3,0.8,0.1,1.2-0.4c0.5-0.7,0.6-1,0.4-2
				c-0.2-1-0.3-1.6,0.4-2.5c0.6-0.8,1.5-1.3,2.5-0.5c1,0.8,0.6,1.7,0.1,2.3l-0.2,0.3l-0.8-0.6l0.2-0.3c0.4-0.4,0.5-0.8,0.2-1.1
				c-0.3-0.3-0.7-0.1-1,0.4c-0.4,0.5-0.5,0.7-0.3,1.6c0.3,1.3,0.3,1.9-0.5,2.9c-0.7,0.8-1.6,1.4-2.6,0.5c-1-0.8-0.7-1.7-0.1-2.5
				l0.3-0.3L270.3,56z"/>
			<path class="st4" d="M276.1,55.1l-0.9-0.8l0.6-0.7l2.6,2.3l-0.6,0.7l-0.9-0.8l-4.3,5l-0.8-0.7L276.1,55.1z"/>
			<path class="st4" d="M279.7,56.9l-5,5.7l-0.8-0.7l5-5.7L279.7,56.9z"/>
			<path class="st4" d="M280.2,63.7c0.9-1,2-2.1,2.6-2.7l0,0c-1,0.8-3.5,2.8-5.3,4.2l-0.7-0.7c1.1-1.6,3.1-4.4,3.9-5.5l0,0
				c-0.6,0.7-1.7,1.9-2.6,2.9l-1.9,2l-0.7-0.6l5.2-5.5l1.1,1c-1.2,1.7-2.5,3.8-3.1,4.6l0,0c0.8-0.7,2.9-2.2,4.4-3.4l1.1,1l-5.2,5.5
				l-0.7-0.7L280.2,63.7z"/>
			<path class="st4" d="M284,66.6l-1.2-1.2l-1.8,1.9l1.4,1.3l-0.7,0.6l-2-2l5.3-5.4l2,2l-0.7,0.7l-1.3-1.2l-1.5,1.5l1.2,1.2
				L284,66.6z"/>
			<path class="st4" d="M282.1,69.6l5.4-5.3l0.8,0.9c-0.6,1.1-2.7,4.5-3,4.9l0,0c0.7-0.7,1.4-1.5,2.3-2.3l1.6-1.6l0.7,0.7l-5.4,5.3
				l-0.8-0.8c0.6-1,2.9-4.6,3.1-5l0,0c-0.6,0.7-1.4,1.4-2.4,2.4l-1.7,1.6L282.1,69.6z"/>
			<path class="st4" d="M290.5,68.9l-0.8-0.9l0.7-0.6l2.3,2.5l-0.7,0.6l-0.8-0.9l-4.9,4.5l-0.7-0.7L290.5,68.9z"/>
			<path class="st4" d="M293.9,74.2l-2.7,2.4c-1.1,0.9-1.9,0.9-2.8,0c-0.8-0.9-0.6-1.8,0.4-2.6l2.8-2.4c1-0.9,2-0.9,2.7,0
				C295.1,72.4,294.9,73.3,293.9,74.2z M292.4,72.3l-2.9,2.5c-0.5,0.5-0.6,0.9-0.3,1.2c0.3,0.4,0.7,0.3,1.3-0.2l2.9-2.5
				c0.5-0.5,0.6-0.9,0.3-1.2C293.3,71.8,292.9,71.8,292.4,72.3z"/>
			<path class="st4" d="M297.1,74.9l1.8,2.2l-0.7,0.6l-1.1-1.4l-1.7,1.4l1.1,1.3l-0.7,0.6l-1.1-1.3l-2.7,2.2l-0.6-0.8L297.1,74.9z"
				/>
			<path class="st4" d="M300,78.5l-5.9,4.7l-0.6-0.8l5.9-4.7L300,78.5z"/>
			<path class="st4" d="M299.2,84l-1-1.3l-2.1,1.6l1.2,1.5l-0.8,0.5l-1.7-2.2l6-4.6l1.7,2.2l-0.7,0.6l-1.1-1.4l-1.7,1.3l1,1.3
				L299.2,84z"/>
			<path class="st4" d="M300.2,85.6l-2.8,2l-0.6-0.8l6.1-4.5l0.9,1.2c0.7,0.9,0.7,1.7-0.4,2.5l-0.3,0.2c-0.9,0.7-1.4,0.5-1.7,0.3
				c0.1,0.5,0,0.9-0.8,1.5c-0.5,0.4-1.5,1.1-1.8,1.4l-0.6-0.8c0.3-0.4,1.3-1.1,1.8-1.4c0.8-0.6,0.9-0.8,0.5-1.4L300.2,85.6z
				 M300.9,85.1l0.2,0.3c0.4,0.5,0.8,0.5,1.4,0l0.2-0.2c0.5-0.4,0.7-0.7,0.3-1.3l-0.2-0.3L300.9,85.1z"/>
			<path class="st4" d="M303.7,90.3l-1-1.4l-2.1,1.5l1.1,1.6l-0.8,0.4l-1.6-2.3l6.2-4.3l1.6,2.3l-0.8,0.5l-1-1.5l-1.8,1.2l1,1.4
				L303.7,90.3z"/>
		</g>
		<g>
			<path class="st4" d="M326.8,131.7l0.3,1l-6.4,1.7l0.5,1.8l-0.9,0.1l-0.7-2.7L326.8,131.7z"/>
			<path class="st4" d="M326.6,138.9l-3.5,0.9c-1.4,0.3-2.2-0.1-2.5-1.3c-0.3-1.2,0.3-1.8,1.6-2.2l3.6-0.9c1.3-0.3,2.1,0.2,2.4,1.2
				C328.5,137.8,327.9,138.6,326.6,138.9z M326.1,136.5l-3.7,0.9c-0.7,0.2-0.9,0.5-0.8,0.9c0.1,0.5,0.5,0.6,1.2,0.4l3.7-0.9
				c0.7-0.2,1-0.5,0.8-1C327.2,136.4,326.8,136.3,326.1,136.5z"/>
			<path class="st4" d="M322.1,144.3l-0.2-0.8c0.1-0.1,0.4-0.1,0.6-0.2c-0.6-0.1-0.8-0.5-0.9-1c-0.2-1.1,0.5-1.6,1.7-1.8l3.6-0.8
				c1.2-0.3,2.1,0,2.4,1.2c0.3,1.4-0.7,1.9-1.5,2.1l-0.2,0l-0.2-1l0.3-0.1c0.4-0.1,0.9-0.3,0.8-0.9c-0.1-0.5-0.4-0.6-1.1-0.4
				l-3.8,0.8c-0.7,0.1-1,0.4-0.9,0.9c0.1,0.6,0.7,0.6,1.5,0.4l1.1-0.2l-0.2-0.7l0.9-0.2l0.4,1.7L322.1,144.3z"/>
			<path class="st4" d="M329.9,144.7l-7.4,1.5l-0.2-1l7.4-1.5L329.9,144.7z"/>
			<path class="st4" d="M324.9,147.5l-0.4,0.1c-0.6,0.1-0.9,0.4-0.8,0.8c0.1,0.5,0.5,0.6,1.1,0.4c0.8-0.2,1.1-0.4,1.6-1.3
				c0.5-0.9,0.8-1.4,1.9-1.6c1-0.2,2-0.1,2.2,1.2c0.2,1.3-0.6,1.7-1.5,1.8l-0.4,0.1l-0.2-1l0.3-0.1c0.6-0.1,0.9-0.3,0.8-0.7
				c-0.1-0.4-0.5-0.5-1-0.4c-0.6,0.1-0.8,0.3-1.2,1c-0.6,1.2-1,1.6-2.3,1.9c-1.1,0.2-2.1,0-2.3-1.3c-0.2-1.3,0.5-1.8,1.5-2l0.4-0.1
				L324.9,147.5z"/>
			<path class="st4" d="M330,150.6l-0.2-1.2l0.9-0.1l0.5,3.4l-0.9,0.1l-0.2-1.2l-6.6,1.1l-0.2-1L330,150.6z"/>
			<path class="st4" d="M331.5,154.3l-7.5,1.1l-0.1-1l7.5-1.1L331.5,154.3z"/>
			<path class="st4" d="M326.7,159.2l-0.3,0c-0.9,0.1-2.1,0.1-2.2-1.4c-0.2-1.4,0.7-1.7,1.8-1.9l3.8-0.5c1.2-0.1,2,0.3,2.1,1.4
				c0.2,1.3-0.7,1.7-1.7,1.8l-0.3,0l-0.1-1l0.4-0.1c0.5-0.1,0.9-0.2,0.8-0.7c-0.1-0.5-0.4-0.6-1-0.5l-3.9,0.5c-0.6,0.1-1,0.3-1,0.7
				c0.1,0.5,0.5,0.5,1.1,0.5l0.4,0L326.7,159.2z"/>
			<path class="st4" d="M326.9,160.9l-2.2-0.1l-0.1-1l7.7,0.5l0.1,1.4l-7.4,2l-0.1-1.1l2.1-0.6L326.9,160.9z M327.9,161.9
				c1.4-0.4,2.6-0.7,3.4-0.8l0,0c-0.6,0-2.3,0-3.5-0.1L327.9,161.9z"/>
			<path class="st4" d="M328.9,168.2l-0.1-1.7l-2.6,0.2l0.1,1.9l-0.9-0.1l-0.2-2.8l7.6-0.5l0.2,2.8l-0.9,0.1l-0.1-1.8l-2.1,0.2
				l0.1,1.7L328.9,168.2z"/>
			<path class="st4" d="M333,170.5l0.1,2.8l-0.9,0l-0.1-1.8l-2.2,0.1l0.1,1.7l-0.9,0l-0.1-1.7l-3.5,0.1l0-1L333,170.5z"/>
			<path class="st4" d="M329.2,176.9l0-1.7l-2.6,0l0,1.9l-0.9-0.1l-0.1-2.8l7.6-0.1l0.1,2.8l-0.9,0l0-1.8l-2.1,0l0,1.7L329.2,176.9z
				"/>
			<path class="st4" d="M329.1,178.8l-3.5,0l0-1l7.6,0l0,1.5c0,1.1-0.5,1.8-1.8,1.8l-0.3,0c-1.1,0-1.5-0.4-1.6-0.8
				c-0.2,0.5-0.5,0.7-1.6,0.7c-0.6,0-1.9,0-2.3,0.1l0-1c0.5-0.1,1.7-0.1,2.3-0.1c0.9,0,1.2-0.1,1.2-0.8L329.1,178.8z M329.9,178.8
				l0,0.4c0,0.7,0.3,0.9,1.1,0.9l0.3,0c0.6,0,1-0.1,1-0.8l0-0.4L329.9,178.8z"/>
			<path class="st4" d="M328.5,185.7c1.3,0,2.9,0.1,3.7,0.2l0,0c-1.3-0.2-4.5-0.8-6.7-1.2l0-1c2-0.2,5.4-0.6,6.7-0.7l0,0
				c-0.9,0-2.6,0-3.9-0.1l-2.8-0.1l0-0.9l7.6,0.2l0,1.5c-2.1,0.3-4.5,0.6-5.5,0.7l0,0c1,0.2,3.5,0.7,5.5,1.1l0,1.5l-7.6-0.2l0-1
				L328.5,185.7z"/>
			<path class="st4" d="M330.8,191.3l-3.6-0.2c-1.4-0.1-2-0.7-2-1.9c0.1-1.2,0.8-1.7,2.2-1.6l3.7,0.2c1.4,0.1,2,0.8,1.9,1.9
				C332.9,190.8,332.2,191.4,330.8,191.3z M331.1,188.8l-3.9-0.2c-0.7,0-1,0.2-1.1,0.7c0,0.5,0.3,0.7,1,0.8l3.8,0.2
				c0.7,0,1.1-0.2,1.1-0.7C332.1,189.1,331.8,188.9,331.1,188.8z"/>
			<path class="st4" d="M332.6,194l-0.1,1.5c-0.2,1.6-1.1,1.8-2.4,1.7l-2.9-0.3c-1.2-0.1-2.4-0.4-2.2-2.2l0.1-1.5L332.6,194z
				 M325.8,194.4l0,0.4c-0.1,0.8,0.4,1,1.3,1.1l3.2,0.3c0.8,0.1,1.3,0,1.3-0.9l0-0.4L325.8,194.4z"/>
			<path class="st4" d="M327.8,200.7l0.2-1.7l-2.6-0.3l-0.2,1.9l-0.9-0.2l0.3-2.8l7.5,0.9l-0.3,2.8l-0.9-0.1l0.2-1.8l-2.1-0.3
				l-0.2,1.7L327.8,200.7z"/>
			<path class="st4" d="M331.6,202.1l-0.2,1.5c-0.2,1.2-0.8,1.7-2.1,1.5l-0.4-0.1c-1.2-0.2-2-0.7-1.8-2.1l0.1-0.5L324,202l0.1-1
				L331.6,202.1z M328,202.6L328,203c-0.1,0.8,0.3,1,1.1,1.1l0.4,0.1c0.6,0.1,1.1,0,1.2-0.7l0.1-0.5L328,202.6z"/>
			<path class="st4" d="M328.5,209.3l-3.6-0.6c-1.4-0.2-1.9-0.9-1.7-2.1c0.2-1.2,1-1.6,2.3-1.3l3.6,0.6c1.4,0.2,1.9,1,1.7,2.1
				C330.6,209.1,329.8,209.6,328.5,209.3z M329,206.9l-3.8-0.7c-0.7-0.1-1.1,0.1-1.1,0.5c-0.1,0.5,0.2,0.8,0.9,0.9l3.8,0.6
				c0.7,0.1,1.1,0,1.1-0.5C330,207.3,329.7,207,329,206.9z"/>
			<path class="st4" d="M324.8,210.4l-0.4-0.1c-0.6-0.1-1,0-1.1,0.5c-0.1,0.5,0.3,0.7,0.9,0.8c0.8,0.2,1.1,0,1.9-0.6
				c0.8-0.7,1.3-1,2.4-0.8c1,0.2,1.9,0.7,1.6,1.9c-0.3,1.3-1.2,1.3-2,1.2l-0.4-0.1l0.2-1l0.3,0.1c0.6,0.1,0.9,0.1,1-0.4
				c0.1-0.4-0.3-0.6-0.8-0.7c-0.6-0.1-0.9-0.1-1.5,0.5c-1,0.9-1.5,1.2-2.8,0.9c-1.1-0.2-2-0.7-1.7-2.1c0.3-1.3,1.2-1.5,2.1-1.3
				l0.4,0.1L324.8,210.4z"/>
			<path class="st4" d="M329.3,215.6l-7.4-1.6l0.2-1l7.4,1.6L329.3,215.6z"/>
			<path class="st4" d="M327.9,217.2l0.3-1.2l0.9,0.2l-0.8,3.4l-0.9-0.2l0.3-1.2l-6.5-1.5l0.2-1L327.9,217.2z"/>
			<path class="st4" d="M325.5,222.9l-3.5-0.9c-1.4-0.3-1.9-1.1-1.6-2.3c0.3-1.2,1.1-1.5,2.4-1.1l3.6,0.9c1.3,0.3,1.8,1.2,1.5,2.2
				C327.6,222.9,326.8,223.3,325.5,222.9z M326.2,220.6l-3.7-1c-0.7-0.2-1.1,0-1.2,0.4c-0.1,0.5,0.1,0.8,0.8,1l3.7,1
				c0.7,0.2,1.1,0,1.2-0.4C327.1,221.1,326.9,220.7,326.2,220.6z"/>
		</g>
	</g>
</g>
</svg>
