<?xml version="1.0" encoding="utf-8"?>
<!-- Generator: Adobe Illustrator 24.0.1, SVG Export Plug-In . SVG Version: 6.00 Build 0)  -->
<svg version="1.1" id="Livello_1" xmlns="http://www.w3.org/2000/svg" xmlns:xlink="http://www.w3.org/1999/xlink" x="0px" y="0px"
	 viewBox="0 0 41.7 39.9" style="enable-background:new 0 0 41.7 39.9;" xml:space="preserve">
<style type="text/css">
	.st0{fill:#5C5C5C;stroke:#5C5C5C;stroke-width:0.5;stroke-miterlimit:10;}
</style>
<g id="alvoHv.tif">
	<g>
		<path class="st0" d="M20.9,36.2c-0.4-0.1-0.8-0.2-1.1-0.3c-2.9-1.3-3.3-5.2-0.8-7.1c0.1,0,0.1-0.1,0.2-0.2
			c-2.3-4.8-4.5-9.6-6.8-14.5c-0.1,0.1-0.1,0.2-0.1,0.3c-0.4,1-0.8,2-1.1,3c-0.1,0.2-0.1,0.3,0,0.5c1.3,2.4,2.5,4.8,3.8,7.2
			c0.1,0.1,0.1,0.2,0.2,0.3c-0.4,0.2-0.8,0.4-1.2,0.6c-0.1-0.1-0.1-0.2-0.2-0.3c-1.4-2.6-2.8-5.2-4.1-7.8c-0.1-0.2-0.1-0.4,0-0.6
			c0.6-1.6,1.3-3.2,1.9-4.8c0.1-0.2,0.1-0.4,0-0.5c-1.1-2.3-2.1-4.5-3.2-6.8C8.1,5.1,7.9,5.1,7.7,5.1C6.9,5.2,6.1,5.2,5.3,5.3
			c-0.1,0-0.3,0-0.4,0c0-0.5,0-0.9,0-1.4c0.2,0,0.5,0,0.8-0.1c1-0.1,1.9-0.1,2.9-0.1C8.8,3.7,9,3.8,9.1,4c2.9,6.2,5.9,12.4,8.8,18.6
			c0.8,1.7,1.6,3.4,2.4,5.2c0,0.1,0.1,0.2,0.1,0.3c1.6-0.3,3.2,0.1,4.4,1.7c3.6-1.7,7.2-3.4,10.8-5.1c0.2,0.4,0.4,0.8,0.6,1.3
			c-0.7,0.3-1.4,0.7-2.1,1c-2.8,1.3-5.7,2.7-8.5,4c-0.2,0.1-0.3,0.2-0.2,0.4c0.4,2.4-1,4.4-3.4,4.8c0,0-0.1,0-0.1,0.1
			C21.6,36.2,21.2,36.2,20.9,36.2z M21.4,29.4c-1.5,0-2.7,1.2-2.7,2.7c0,1.5,1.2,2.7,2.7,2.7c1.5,0,2.7-1.2,2.7-2.7
			C24.1,30.6,22.9,29.4,21.4,29.4z"/>
		<path class="st0" d="M16.5,14.6c4.1-2,8.2-4,12.3-6c2,4.1,3.9,8.2,5.9,12.3c-4.1,2-8.2,4-12.3,6C20.5,22.8,18.5,18.7,16.5,14.6z
			 M23,25c3.3-1.6,6.6-3.1,9.9-4.7c-1.6-3.3-3.1-6.5-4.7-9.8c-3.3,1.6-6.6,3.1-9.9,4.7C19.9,18.5,21.5,21.7,23,25z"/>
	</g>
</g>
</svg>
