<?xml version="1.0" encoding="utf-8"?>
<!-- Generator: Adobe Illustrator 24.0.1, SVG Export Plug-In . SVG Version: 6.00 Build 0)  -->
<svg version="1.1" id="Livello_1" xmlns="http://www.w3.org/2000/svg" xmlns:xlink="http://www.w3.org/1999/xlink" x="0px" y="0px"
	 viewBox="0 0 40.9 39.9" style="enable-background:new 0 0 40.9 39.9;" xml:space="preserve">
<style type="text/css">
	.st0{fill:#5C5C5C;}
</style>
<g id="_x30_UcBSW.tif">
	<g>
		<path class="st0" d="M39.9,0.7c0,12.8,0,25.7,0,38.5c-1.5,0-2.9,0-4.4,0c0-2.4,0-4.7,0-7.1c-10.1,0-20.1,0-30.2,0
			c0,2.4,0,4.8,0,7.1c-1.3,0-2.7,0-4,0c0-12.8,0-25.7,0-38.5c1.4,0,2.6,0,4,0c0,4,0,7.9,0,11.9c0.9,0,1.8,0,2.8,0c0-3.2,0-6.3,0-9.5
			c4.1,0,8.2,0,12.3,0c0,1.1,0,2.1,0,3.2c4,0,7.9,0,11.9,0c0,2.1,0,4.2,0,6.3c1.1,0,2.1,0,3.2,0c0-4,0-7.9,0-11.9
			C37,0.7,38.5,0.7,39.9,0.7z M8.9,22.2c4,0,7.9,0,11.9,0c0-1.1,0-2.1,0-3.1c4.1,0,8.2,0,12.3,0c0,3.2,0,6.3,0,9.5
			c0.8,0,1.6,0,2.4,0c0-4.1,0-8.2,0-12.3c-10.1,0-20.1,0-30.1,0c0,4.1,0,8.2,0,12.2c1.2,0,2.3,0,3.5,0C8.9,26.4,8.9,24.3,8.9,22.2z
			 M36.7,1.9c0,12,0,24.1,0,36.1c0.7,0,1.3,0,1.9,0c0-12,0-24.1,0-36.1C38,1.9,37.4,1.9,36.7,1.9z M9.4,4.3c0,2.8,0,5.5,0,8.3
			c3.3,0,6.6,0,9.9,0c0-2.8,0-5.5,0-8.3c-0.9,0-1.8,0-2.8,0c0,1.6,0,3.2,0,4.7c-1.5,0-2.9,0-4.4,0c0-1.6,0-3.1,0-4.7
			C11.2,4.3,10.3,4.3,9.4,4.3z M29.2,24.9c-1.5,0-2.9,0-4.4,0c0-1.6,0-3.2,0-4.7c-0.9,0-1.8,0-2.7,0c0,2.8,0,5.5,0,8.3
			c3.3,0,6.6,0,9.9,0c0-2.8,0-5.5,0-8.3c-0.9,0-1.8,0-2.7,0C29.2,21.8,29.2,23.4,29.2,24.9z M2.6,2c0,12,0,24.1,0,36.1
			c0.5,0,1,0,1.5,0c0-12,0-24,0-36.1C3.6,2,3.1,2,2.6,2z M31.1,7.5c-3.6,0-7.1,0-10.7,0c0,1.7,0,3.4,0,5.1c3.6,0,7.1,0,10.7,0
			C31.1,10.9,31.1,9.2,31.1,7.5z M10.1,28.5c0.1,0,0.2,0,0.2,0c3.4,0,6.8,0,10.1,0c0.2,0,0.3-0.1,0.3-0.3c0-1.5,0-3.1,0-4.6
			c0-0.1,0-0.1,0-0.2c-3.6,0-7.1,0-10.7,0C10.1,25.1,10.1,26.8,10.1,28.5z M35.5,13.9c-10.1,0-20.1,0-30.1,0c0,0.4,0,0.8,0,1.1
			c10.1,0,20.1,0,30.1,0C35.5,14.6,35.5,14.3,35.5,13.9z M5.4,30.9c10.1,0,20.1,0,30.1,0c0-0.4,0-0.8,0-1.1c-10.1,0-20.1,0-30.1,0
			C5.4,30.1,5.4,30.5,5.4,30.9z M13.3,4.3c0,1.2,0,2.3,0,3.5c0.7,0,1.3,0,1.9,0c0-1.2,0-2.3,0-3.5C14.6,4.3,14,4.3,13.3,4.3z
			 M28,20.2c-0.7,0-1.3,0-2,0c0,1.2,0,2.3,0,3.5c0.7,0,1.3,0,2,0C28,22.6,28,21.4,28,20.2z"/>
		<path class="st0" d="M26.6,10.7c-1.3,0-2.6,0-3.9,0c0-0.4,0-0.8,0-1.2c1.3,0,2.6,0,3.9,0C26.6,9.9,26.6,10.2,26.6,10.7z"/>
		<path class="st0" d="M27.4,10.6c0-0.4,0-0.7,0-1.1c0.8,0,1.5,0,2.3,0c0,0.4,0,0.7,0,1.1C29,10.6,28.2,10.6,27.4,10.6z"/>
		<path class="st0" d="M16.2,26.5c-1.3,0-2.6,0-3.9,0c0-0.4,0-0.7,0-1.2c1.3,0,2.6,0,3.9,0C16.2,25.8,16.2,26.1,16.2,26.5z"/>
		<path class="st0" d="M17.1,26.5c0-0.4,0-0.8,0-1.1c0.8,0,1.5,0,2.3,0c0,0.4,0,0.7,0,1.1C18.7,26.5,17.9,26.5,17.1,26.5z"/>
	</g>
</g>
</svg>
