<?xml version="1.0" encoding="utf-8"?>
<!-- Generator: Adobe Illustrator 24.0.1, SVG Export Plug-In . SVG Version: 6.00 Build 0)  -->
<svg version="1.1" id="Livello_1" xmlns="http://www.w3.org/2000/svg" xmlns:xlink="http://www.w3.org/1999/xlink" x="0px" y="0px"
	 viewBox="0 0 54.4 39.9" style="enable-background:new 0 0 54.4 39.9;" xml:space="preserve">
<style type="text/css">
	.st0{fill:#5C5C5C;stroke:#5C5C5C;stroke-width:0.5;stroke-miterlimit:10;}
	.st1{fill:#FFFFFF;}
</style>
<g id="BJMFzQ.tif">
	<g>
		<path class="st0" d="M13.8,4.1c0.1,0,0.1,0,0.2,0c1.8,4.9,3.6,9.8,5.5,14.7c0.4,1,0.7,2,1.1,3c0.1-0.1,0.1-0.2,0.1-0.3
			c2.1-5.7,4.2-11.4,6.4-17c0-0.1,0-0.2,0.1-0.3c0.1,0,0.2,0,0.3,0c0,0,0,0.1,0.1,0.1c1.3,0.5,2.6,1,3.9,1.5c0.1,0,0.3,0,0.4-0.1
			c0.5-0.3,0.9-0.6,1.4-1c0.7,1,1.3,1.9,2,2.8C39.1,13,43,18.5,46.8,24c1.3,1.9,2.7,3.8,4,5.7c0,0,0,0.1,0,0.1
			c-2.2,1.6-4.5,3.1-6.7,4.7c-4.2-6-8.4-12-12.7-18.1c-2.4,6.5-4.8,12.9-7.2,19.3c-0.8-0.3-1.6-0.5-2.3-0.9c-0.9-0.5-1.8-0.4-2.7,0
			c-0.7,0.4-1.5,0.6-2.3,0.9c-1.1-3-2.2-5.9-3.3-8.8c0,0-0.1,0-0.1,0c0,2.6,0,5.3,0,7.9c-2.8,0-5.5,0-8.2,0c0-10.2,0-20.4,0-30.7
			c0.2,0,0.3,0,0.5,0c2.5,0,4.9,0,7.4,0C13.5,4.2,13.6,4.2,13.8,4.1z M9.5,30.4c-1.1,0-2.2,0-3.3,0c0,0.5,0,1,0,1.5
			c1.1,0,2.2,0,3.3,0c0,0.3,0,0.5,0,0.8c-1.1,0-2.2,0-3.3,0c0,0.5,0,1,0,1.4c2.2,0,4.4,0,6.6,0c0-9.7,0-19.4,0-29.1
			c-2.2,0-4.4,0-6.6,0c0,0.7,0,1.4,0,2.2c1.1,0,2.2,0,3.3,0c0,0.3,0,0.5,0,0.8C8.3,8,7.2,8,6.2,8c0,0.5,0,1,0,1.5c1.1,0,2.2,0,3.3,0
			c0,0.3,0,0.5,0,0.8c-1.1,0-2.2,0-3.3,0c0,0.5,0,0.9,0,1.5c1.1,0,2.2,0,3.3,0c0,0.3,0,0.5,0,0.8c-1.1,0-2.2,0-3.3,0
			c0,0.5,0,1,0,1.5c1.1,0,2.2,0,3.3,0c0,0.3,0,0.5,0,0.8c-1.1,0-2.2,0-3.3,0c0,0.5,0,1,0,1.5c1.1,0,2.2,0,3.3,0c0,0.3,0,0.5,0,0.8
			c-1.1,0-2.2,0-3.3,0c0,0.5,0,1,0,1.4c1.1,0,2.2,0,3.3,0c0,0.3,0,0.5,0,0.8c-1.1,0-2.2,0-3.3,0c0,0.5,0,0.9,0,1.5
			c1.1,0,2.2,0,3.3,0c0,0.3,0,0.5,0,0.8c-1.1,0-2.2,0-3.3,0c0,0.5,0,1,0,1.5c1.1,0,2.2,0,3.3,0c0,0.3,0,0.5,0,0.8
			c-1.1,0-2.2,0-3.3,0c0,0.5,0,1,0,1.5c1.1,0,2.2,0,3.3,0c0,0.3,0,0.5,0,0.8c-1.1,0-2.2,0-3.3,0c0,0.5,0,0.9,0,1.4
			c1.1,0,2.2,0,3.3,0c0,0.3,0,0.5,0,0.8c-1.1,0-2.2,0-3.3,0c0,0.5,0,1,0,1.5c1.1,0,2.2,0,3.3,0C9.5,30,9.5,30.2,9.5,30.4z M34.6,7.9
			c-0.8,2-1.5,4-2.3,6c0.5-0.4,1-0.7,1.4-1c0.2,0.2,0.3,0.4,0.4,0.6c-0.7,0.6-1.5,1.1-2.2,1.6c-0.2,0.1-0.4,0.3-0.2,0.5
			c0.2,0.3,0.4,0.6,0.7,0.9c0.9-0.6,1.7-1.3,2.6-1.9c0.2,0.2,0.3,0.4,0.4,0.6c-0.9,0.7-1.7,1.3-2.6,1.9c0.3,0.4,0.6,0.8,0.8,1.2
			c0.9-0.7,1.8-1.3,2.6-1.9c0.2,0.2,0.3,0.4,0.4,0.6c-0.9,0.7-1.8,1.3-2.6,2c0.3,0.4,0.6,0.8,0.8,1.2c0.9-0.7,1.8-1.3,2.7-2
			c0.2,0.2,0.3,0.4,0.5,0.6c-0.9,0.7-1.8,1.3-2.7,2c0.3,0.4,0.6,0.8,0.8,1.2c0.9-0.7,1.8-1.3,2.7-2c0.2,0.2,0.3,0.4,0.4,0.6
			c-0.9,0.7-1.8,1.3-2.7,2c0.3,0.4,0.6,0.8,0.8,1.2c0.9-0.7,1.8-1.4,2.8-2c0.2,0.2,0.3,0.4,0.4,0.6c-0.9,0.7-1.8,1.4-2.8,2.1
			c0.3,0.4,0.6,0.8,0.8,1.2c0.9-0.7,1.9-1.4,2.8-2.1c0.2,0.2,0.3,0.4,0.5,0.6c-1,0.7-1.9,1.4-2.8,2.1c0.3,0.4,0.6,0.8,0.8,1.2
			c1-0.7,1.9-1.4,2.9-2.1c0.2,0.2,0.3,0.4,0.4,0.6c-1,0.7-1.9,1.4-2.9,2.1c0.3,0.4,0.6,0.8,0.8,1.2c1-0.7,1.9-1.4,2.9-2.1
			c0.2,0.2,0.3,0.4,0.5,0.6c-1,0.7-1.9,1.4-2.9,2.2c0.3,0.4,0.6,0.8,0.8,1.2c1-0.7,2-1.4,2.9-2.2c0.2,0.2,0.3,0.4,0.5,0.6
			c-1,0.7-2,1.5-3,2.2c0.4,0.5,0.7,1,1,1.5c1.8-1.3,3.7-2.6,5.5-3.9C44.8,22.4,39.7,15.2,34.6,7.9z M26.3,8.8
			c1.1,0.4,2.2,0.9,3.3,1.3c-0.1,0.3-0.2,0.5-0.3,0.7c-1.1-0.4-2.2-0.8-3.2-1.3c-0.2,0.5-0.3,0.9-0.5,1.4c1.1,0.4,2.1,0.8,3.2,1.3
			c-0.1,0.3-0.2,0.5-0.3,0.7c-1.1-0.4-2.1-0.8-3.2-1.2c-0.2,0.5-0.3,0.9-0.5,1.4c1.1,0.4,2.1,0.8,3.2,1.3c-0.1,0.3-0.2,0.5-0.3,0.7
			c-1.1-0.4-2.1-0.8-3.2-1.2c-0.2,0.5-0.3,0.9-0.5,1.4c1.1,0.4,2.1,0.8,3.1,1.2c-0.1,0.3-0.2,0.5-0.3,0.7c-1.1-0.4-2.1-0.8-3.1-1.2
			c-0.2,0.5-0.3,0.9-0.5,1.4c1.1,0.4,2.1,0.8,3.1,1.2c-0.1,0.3-0.2,0.5-0.3,0.7c-1.1-0.4-2.1-0.8-3.1-1.2c-0.2,0.5-0.3,0.9-0.5,1.4
			c1,0.4,2,0.8,3.1,1.2c-0.1,0.2-0.2,0.5-0.3,0.7c-1-0.4-2-0.8-3.1-1.2c-0.2,0.5-0.3,0.9-0.5,1.4c1,0.4,2,0.8,3,1.2
			c-0.1,0.3-0.2,0.5-0.3,0.7c-1-0.4-2-0.8-3.1-1.2c0,0.4-0.1,0.7-0.1,1c0,0.4,0.3,0.7,0.8,0.8c0.7,0.2,1.3,0.5,1.9,0.8
			c-0.1,0.3-0.2,0.5-0.3,0.7c-0.6-0.2-1.2-0.5-1.8-0.7c1,2.6,1.9,5.2,2.9,7.8c3.1-8.4,6.2-16.7,9.4-25.1c-2.1-0.8-4.2-1.6-6.3-2.3
			c-0.2,0.6-0.4,1.1-0.6,1.6c1.1,0.4,2.2,0.9,3.3,1.3c-0.1,0.3-0.2,0.5-0.3,0.7c-1.1-0.4-2.2-0.8-3.3-1.3
			C26.6,7.9,26.4,8.3,26.3,8.8z M13.7,5.6C13.7,5.6,13.7,5.6,13.7,5.6c-0.1,4.6-0.1,9.1-0.1,13.7c0.3-0.1,0.7-0.2,1-0.4
			c0.1,0.2,0.2,0.5,0.3,0.7c-0.4,0.2-0.7,0.3-1,0.4c-0.1,0.1-0.2,0.2-0.2,0.3c0,0.3,0,0.7,0,1.1c0.6-0.3,1.2-0.5,1.9-0.8
			c0.1,0.2,0.2,0.5,0.3,0.7c-0.6,0.3-1.3,0.5-1.9,0.8c-0.1,0.1-0.3,0.2-0.3,0.3c0,0.4,0,0.8,0,1.2c0.9-0.4,1.8-0.7,2.7-1.1
			c0.1,0.2,0.2,0.5,0.3,0.7c-1,0.4-2,0.8-3,1.3c0.2,0.5,0.3,0.9,0.5,1.4c1.1-0.4,2.1-0.8,3.1-1.3c0.1,0.3,0.2,0.5,0.3,0.7
			c-1.1,0.4-2.1,0.9-3.1,1.3c0.2,0.5,0.3,0.9,0.5,1.4c1.1-0.4,2.1-0.9,3.2-1.3c0.1,0.3,0.2,0.5,0.3,0.7c-1.1,0.4-2.1,0.9-3.2,1.3
			c0.2,0.5,0.4,0.9,0.5,1.4c1.1-0.4,2.2-0.9,3.2-1.3c0.1,0.3,0.2,0.5,0.3,0.7c-1.1,0.5-2.2,0.9-3.2,1.3c0.2,0.5,0.3,0.9,0.5,1.4
			c1.1-0.5,2.2-0.9,3.3-1.4c0.1,0.3,0.2,0.5,0.3,0.7c-1.1,0.5-2.2,0.9-3.3,1.4c0.2,0.6,0.4,1.2,0.7,1.8c2.1-0.8,4.2-1.6,6.3-2.3
			C20.4,23.5,17,14.6,13.7,5.6z M21.7,34c0.7,0.3,1.4,0.5,2.1,0.8c0.2-0.6,0.4-1.2,0.7-1.8C23.5,33.3,22.6,33.7,21.7,34z M32.5,6.1
			c0.4,0.1,0.7,0.2,1.1,0.4c-0.2-0.3-0.4-0.5-0.5-0.8C32.9,5.8,32.7,5.9,32.5,6.1z"/>
		<path class="st1" d="M21.7,34c0.9-0.3,1.8-0.7,2.7-1c-0.2,0.6-0.4,1.2-0.7,1.8C23.1,34.5,22.4,34.3,21.7,34z"/>
		<path class="st1" d="M32.5,6.1c0.2-0.2,0.4-0.3,0.5-0.4c0.2,0.2,0.3,0.4,0.5,0.8C33.2,6.3,32.9,6.2,32.5,6.1z"/>
	</g>
</g>
</svg>
