<?xml version="1.0" encoding="utf-8"?>
<!-- Generator: Adobe Illustrator 24.0.1, SVG Export Plug-In . SVG Version: 6.00 Build 0)  -->
<svg version="1.1" id="Livello_1" xmlns="http://www.w3.org/2000/svg" xmlns:xlink="http://www.w3.org/1999/xlink" x="0px" y="0px"
	 viewBox="0 0 55.2 39.9" style="enable-background:new 0 0 55.2 39.9;" xml:space="preserve">
<style type="text/css">
	.st0{fill:#5C5C5C;}
</style>
<g id="_x39_PtFoP.tif">
	<g>
		<path class="st0" d="M52.2,18.5c0,4.7,0,9.4,0,14.2c-0.3,0.7-0.9,0.9-1.6,0.9c-0.9,0-1.8,0-2.7,0c-0.3,0-0.5,0.1-0.6,0.4
			c-0.6,2.1-2.4,3.5-4.6,3.5c-2.1,0-4-1.4-4.6-3.5c-0.1-0.3-0.2-0.4-0.5-0.4c-5.9,0-11.8,0-17.7,0c-0.3,0-0.4,0.1-0.5,0.4
			c-0.6,2.1-2.4,3.5-4.6,3.5c-2.1,0-4-1.4-4.6-3.5c-0.1-0.3-0.2-0.4-0.5-0.4c-1.4,0-2.8,0-4.1,0c-0.9,0-1.5-0.6-1.5-1.5
			c0-8.6,0-17.2,0-25.9c0-1,0.2-1.3,1.1-1.7c10,0,20.1,0,30.1,0c1,0.3,1.2,0.6,1.2,1.7c0,0.3,0,0.6,0,0.9c0,0.8,0,1.5,0,2.3
			c0.2,0,0.4,0,0.6,0c2.2,0,4.3,0,6.5,0c1.4,0,2.8,0.4,4,1.1c2.4,1.4,3.6,3.6,4.2,6.2C52,17.4,52.1,17.9,52.2,18.5z M6.6,31.1
			c1.1,0,2.2,0,3.2,0c0.4,0,0.6-0.1,0.7-0.5c0.9-1.7,2.3-2.7,4.3-2.7c1.9,0,3.4,1,4.3,2.7c0.2,0.3,0.3,0.4,0.7,0.4
			c4.6,0,9.2,0,13.8,0c0.2,0,0.3,0,0.5,0c0-8.1,0-16.1,0-24.1C25,7,15.8,7,6.6,7C6.6,15.1,6.6,23.1,6.6,31.1z M49.8,31.1
			c0-0.2,0-0.4,0-0.6c0-3.4,0-6.9,0-10.3c0-0.9,0-1.7-0.2-2.6c-0.6-3.3-2.8-5.8-6.6-5.7c-2,0-3.9,0-5.9,0c-0.2,0-0.3,0-0.5,0
			c0,6.4,0,12.8,0,19.2c0.4,0,0.8,0,1.1,0c0.3,0,0.5-0.1,0.6-0.4c0.6-1.3,1.6-2.2,3-2.6c2.4-0.6,4.5,0.4,5.6,2.6
			c0.1,0.1,0.2,0.3,0.3,0.3C48.2,31.1,49,31.1,49.8,31.1z M42.7,35c1.3,0,2.3-1,2.3-2.3c0-1.3-1.1-2.3-2.3-2.3
			c-1.2,0-2.3,1.1-2.3,2.3C40.4,33.9,41.4,35,42.7,35z M14.8,35c1.3,0,2.3-0.9,2.4-2.2c0.1-1.2-1-2.3-2.3-2.4c-1.3,0-2.3,1-2.4,2.3
			C12.5,33.9,13.5,35,14.8,35z"/>
	</g>
</g>
</svg>
