<?xml version="1.0" encoding="utf-8"?>
<!-- Generator: Adobe Illustrator 24.0.1, SVG Export Plug-In . SVG Version: 6.00 Build 0)  -->
<svg version="1.1" id="Livello_1" xmlns="http://www.w3.org/2000/svg" xmlns:xlink="http://www.w3.org/1999/xlink" x="0px" y="0px"
	 viewBox="0 0 36 39.9" style="enable-background:new 0 0 36 39.9;" xml:space="preserve">
<style type="text/css">
	.st0{fill:#5C5C5C;}
</style>
<g id="qQ4G8s.tif">
	<g>
		<path class="st0" d="M3.8,38.7c-0.7-0.4-0.7-0.9-0.2-1.5c1.4-1.6,2.7-3.2,4.1-4.7C8,32.3,8.1,32,8.1,31.7c0-10,0-20,0-30
			c0-0.2,0-0.3,0-0.5c6.5,0,12.9,0,19.4,0c0,3.6,0,7.2,0,10.9c0.6,0,1.2,0,1.8,0c0,0.2,0,0.4,0,0.5c0,7.1,0,14.1,0,21.2
			c0,0.3,0.1,0.5,0.3,0.7c0.8,0.9,1.6,1.8,2.4,2.7c0.6,0.6,0.5,1.1-0.2,1.6C22.5,38.7,13.2,38.7,3.8,38.7z M9.7,2.8
			c0,9.6,0,19.2,0,28.8c2.6,0,5.1,0,7.6,0c0-6.5,0-13,0-19.5c2.8,0,5.6,0,8.5,0c0-3.1,0-6.2,0-9.3C20.5,2.8,15.1,2.8,9.7,2.8z
			 M19,33.6c2.9,0,5.7,0,8.6,0c0-3.1,0-6.1,0-9.1c-1.2,0-2.3,0-3.5,0c0,0.7,0,1.4,0,2.1c-0.6,0-1.1,0-1.6,0c0-0.7,0-1.4,0-2.1
			c-1.2,0-2.3,0-3.5,0C19,27.5,19,30.5,19,33.6z M27.6,22.8c0-3,0-6,0-9.1c-2.9,0-5.7,0-8.6,0c0,3,0,6,0,9.1
			C21.9,22.8,24.7,22.8,27.6,22.8z M17.4,33.2c-0.2,0-0.3,0-0.4,0c-2.4,0-4.9,0-7.3,0c-0.3,0-0.4,0.1-0.6,0.3c-1,1.1-2,2.3-3,3.4
			C6,37,6,37,5.9,37.1c7.9,0,15.8,0,23.7,0c-0.5-0.6-0.9-1-1.3-1.6c-0.2-0.3-0.4-0.3-0.7-0.3c-3.3,0-6.5,0-9.8,0c-0.1,0-0.3,0-0.4,0
			C17.4,34.5,17.4,33.9,17.4,33.2z"/>
		<path class="st0" d="M11.1,18.6c0-1,0-2,0-2.9c0.5,0,1,0,1.6,0c0,1,0,1.9,0,2.9C12.2,18.6,11.7,18.6,11.1,18.6z"/>
		<path class="st0" d="M24.1,17.2c-0.5,0-1,0-1.6,0c0-1,0-1.9,0-2.9c0.5,0,1,0,1.6,0C24.1,15.3,24.1,16.2,24.1,17.2z"/>
	</g>
</g>
</svg>
