<?xml version="1.0" encoding="utf-8"?>
<!-- Generator: Adobe Illustrator 24.0.1, SVG Export Plug-In . SVG Version: 6.00 Build 0)  -->
<svg version="1.1" xmlns="http://www.w3.org/2000/svg" xmlns:xlink="http://www.w3.org/1999/xlink" x="0px" y="0px"
	 viewBox="0 0 307.5 145.3" style="enable-background:new 0 0 307.5 145.3;" xml:space="preserve">
<style type="text/css">
	.st0{display:none;}
	.st1{display:inline;}
	.st2{fill:#5D5C5C;}
	.st3{font-family:'Baloo';}
	.st4{font-size:35.3563px;}
	.st5{font-size:7.699px;}
</style>
<g id="Livello_1" class="st0">
	<g id="qBT4Kw_1_" class="st1">
		
			<image style="overflow:visible;" width="792" height="1408" id="qBT4Kw_2_" xlink:href="B4FC58CC1D4EAEE4.jpg"  transform="matrix(2.442626e-17 0.3989 -0.3989 2.442626e-17 406.5721 -87.4139)">
		</image>
	</g>
</g>
<g id="Livello_2">
	<g>
		<g>
			<polygon class="st2" points="72.5,16.7 72.5,30.6 101.4,58.8 121.6,40.4 121.6,74.9 129.9,74.9 129.9,19 101.2,45.8 			"/>
			<path class="st2" d="M133.7,16.7l5.6,10.9h20.6c0,0,7.5,2.6,7.1,9.8s-6,8.4-6,8.4h-10.7l14.8,29.1h11.3l-11.3-20.3
				c0,0,13.6-4.9,13.6-18.8c0-19.1-16.3-19.1-16.3-19.1H133.7z"/>
		</g>
		<text transform="matrix(1 0 0 1 7.1998 114.9478)" class="st2 st3 st4">MR TRASPORTI</text>
		<text transform="matrix(1 0 0 1 125.0825 135.8619)" class="st2 st3 st5">PROFESSIONALITÀ E AFFIDABILITÀ AL TUO FIANCO</text>
	</g>
</g>
</svg>
