<?xml version="1.0" encoding="utf-8"?>
<!-- Generator: Adobe Illustrator 24.0.1, SVG Export Plug-In . SVG Version: 6.00 Build 0)  -->
<svg version="1.1" id="Livello_1" xmlns="http://www.w3.org/2000/svg" xmlns:xlink="http://www.w3.org/1999/xlink" x="0px" y="0px"
	 viewBox="0 0 307.5 145.3" style="enable-background:new 0 0 307.5 145.3;" xml:space="preserve">
<style type="text/css">
	.st0{display:none;}
	.st1{display:inline;}
	.st2{fill:#5D5C5C;}
	.st3{fill:#9B9F9F;}
	.st4{fill:#FCFDFD;}
</style>
<g id="Livello_1_1_" class="st0">
	<g id="qBT4Kw_1_" class="st1">
		
			<image style="overflow:visible;enable-background:new    ;" width="792" height="1408" id="qBT4Kw_2_" xlink:href="B4FC58CC1D4EAEE4.jpg"  transform="matrix(-7.327674e-17 0.3989 -0.3989 -7.327674e-17 406.5721 -87.4139)">
		</image>
	</g>
</g>
<g id="Uggq54.tif">
	<g>
		<path class="st2" d="M94.2,83.3c-2.5,1.4-4.8,3.2-7.2,4.9c-7.7,5.2-15.7,9.9-24.8,12.3c-11.2,2.9-21.8,1.3-31.8-4.2
			c-5.4-2.9-10.2-6.7-14.7-10.8c-2.1-2-4.5-3.1-7.4-3.4c-0.7-0.1-1-0.3-1.2-0.9c-1-3.2-1.7-6.5-2.3-9.9c-0.2-1.2,0.2-1.5,1.4-1.4
			c4.1,0.4,7.5,2.1,10,5.6c4.4,6.3,9.2,12.1,15.4,16.8c9.2,7,19.3,8.2,30.2,4.8c8.5-2.7,16.2-6.9,23.9-11.2c3-1.6,5.9-3.3,8.8-4.9
			c0.6-0.1,1.1-0.4,1.7-1.1c-1,0.1-1.7,0.3-2.2,0.8c-5.5,2.3-11,4.7-16.6,7c-6.1,2.5-12.4,4.5-19,4.9C48.1,93.2,39.8,89,33,81.6
			c-4.5-4.9-8-10.4-11-16.3c-2.4-4.9-6.6-6.9-11.7-7.4C8.8,57.7,7.4,57.8,6,58c-0.9,0.2-1.1-0.1-0.9-1c0.2-1,0.4-2,0.5-3
			c0.1-0.7,0.4-1,1.1-1c4.6-0.1,9,0.8,12.8,3.6c2.2,1.6,3,4.1,4.1,6.3c3.2,6.6,7,12.9,12.4,18c7,6.7,15.3,9.1,24.8,7.9
			c7.5-0.9,14.5-3.6,21.3-6.5c3.3-1.4,6.6-3,9.9-4.6c-1.1-0.1-2.1,0.4-3.2,0.7c-7,2.3-14,4.7-21.3,5.8C56.8,86,48,82.6,40.9,74.5
			c-5.2-5.9-8.9-12.8-12.1-19.9c-1-2.3-1.8-4.7-3.1-6.8c-2.7-4.5-7-6.6-12.1-7.1c-0.7-0.1-1.3-0.1-2,0c-1.1,0.1-1.1-0.3-0.6-1.1
			c1.7-2.9,3.6-5.7,5.8-8.3c8.2-9.5,18.5-15.5,31-17.5C63.1,11.3,77,15,89.2,24.8c0.8,0.7,0.9,1-0.2,1.4c-2.9,1.1-5.8,2.2-8.7,3.4
			c-1.3,0.6-2.5,0.3-3.8,0c-4.1-1.2-8.3-1.8-12.6-1.1c-5.7,0.9-10.6,3.3-14.2,7.9c-5.3,6.8-4.2,15.3,2.4,21.2c4,3.6,8.9,5.4,13.9,7
			c1.3,0.4,2.7,0.9,3.9,1.6c1.3,0.8,2.3,1.8,2.1,3.4c-0.1,1.6-1.3,2.4-2.6,2.9c-3.1,1.2-6.1,0.7-9.1-0.3c-2.8-1-4.9-2.7-6.5-5.3
			c-0.9-1.5-1.9-3-3.1-4.3c-1-1-2.1-1.6-3.5-1.1c-1.4,0.5-2.1,1.6-2.2,3c-0.2,4.8,0.9,9.3,3.7,13.3c0.8,1.2,2.2,1.7,3.5,2.2
			c7.5,2.5,15.1,3.5,23,2c5.9-1.1,11-3.7,14.5-8.8c4.4-6.5,3.3-15.5-2.5-20.1c-3.5-2.8-7.6-4.2-11.8-5.5c-2.1-0.6-4.2-1-6.1-2.1
			c-0.5-0.3-1.1-0.6-1.5-1.1c-2.1-2.1-1.4-5.2,1.4-6.1c3-1,5.6,0,8.1,1.6c2.4,1.4,4.2,3.5,6.3,5.2c1.6,1.3,3.3,1.9,5.2,1
			c1.9-0.9,2.7-2.6,2.6-4.7c-0.2-4.8-2.6-8.3-6.2-11.2c0.1-0.4,0.4-0.5,0.8-0.6c2.3-0.4,4.7-0.9,7-1.3c1.8,2.2,3.7,4.2,5.3,6.5
			c12.4,17.2,12.9,40.6,1.2,58.3c-12.6,19.2-35.9,27.8-57.9,21.4c-11.6-3.4-20.9-10.2-27.9-20c-0.4-0.6-0.8-1.1-1.1-1.7
			c-0.1-0.2-0.3-0.5,0-0.7c0.4-0.3,0.4,0.1,0.6,0.3c4.6,4.3,9.4,8.2,15.1,10.8c9.6,4.5,19.5,4.7,29.5,1.7c8.7-2.6,16.5-6.8,23.9-12
			c3.8-2.7,7.6-5.2,11.2-8.1C93.5,84.3,94.2,84.1,94.2,83.3c0.2,0.3,0.3,0,0.5-0.1c0.8-0.4,1.4-0.9,1.9-1.7
			c-0.8,0.3-1.6,0.8-2.1,1.4C94.4,83.1,94.3,83.2,94.2,83.3z"/>
		<path class="st2" d="M154.8,43.8c-2.1,1-3.8,0.7-4.9-1.2c-2.2-3.8-5.6-5.1-9.7-5.1c-2.3,0-4.6-0.3-6.8,0.2
			c-1.7,0.4-2.4,1.1-2.6,2.9c-0.3,2.8-0.3,5.6-0.2,8.4c0.1,1.8,0.7,2.3,2.4,2.5c5,0.3,5.1-0.1,5.7-4.3c0-0.3,0.1-0.5,0.1-0.8
			c0.3-1.5,1.3-2.6,2.6-2.8c1.4-0.2,2.7,0.4,3.5,1.9c0.8,1.6,1.1,3.3,1.3,5.1c0.5,4.2,0.4,8.3-0.9,12.4c-0.4,1.1-0.8,2.2-1.8,3
			c-1.8,1.3-3.7,0.6-4.2-1.5c-0.1-0.6-0.2-1.2-0.3-1.8c-0.5-2.7-3.3-4.4-5.9-3.6c-1,0.3-1.5,1-1.7,2c-0.5,3.7-0.1,7.4,0.5,11
			c0.2,0.9,0.8,1.5,1.7,1.7c4.7,0.9,9.4,0.9,13.9-0.9c2-0.8,3.3-2.5,4.3-4.3c0.6-1.1,1-2.2,1.8-3.2c1.6-2.1,4.5-1.8,5.8,0.5
			c0.6,1.2,0.8,2.4,0.7,3.7c-0.6,4.2-2.1,8.1-4.5,11.7c-0.7,1-1.6,1.5-2.8,1.4c-13.2-1.5-26.4-0.4-39.6-0.8c-0.6,0-1.1,0-1.7-0.1
			c-1.5-0.2-2.5-1.2-2.7-2.5c-0.3-1.6,0.1-2.4,1.8-3.1c2.2-0.9,3.1-2.6,3.5-4.8c1.4-9.7,1.3-19.4,0.1-29.1c-0.1-0.8-0.3-1.5-0.5-2.3
			c-0.4-1.4-1.2-2.4-2.7-2.7c-2.1-0.5-2.7-1.6-2.6-3.4c0.2-1.7,1.3-2.8,3.2-3.1c1.7-0.2,3.3-0.2,5-0.2c7.3,0,14.6,0,21.9,0
			c0.9,0.1,1.6,0.6,2.4,1.1c5.2,3.1,9.6,7.1,13.6,11.6C154.5,43.1,154.8,43.4,154.8,43.8z"/>
		<path class="st2" d="M176.7,54.6c1.4-3,2.8-6.1,3.9-9.3c1-2.7,1.4-5.5,1.3-8.3c-0.3-6.9,6.9-9.3,11.6-7.8c3.8,1.3,6.2,4.1,8.2,7.2
			c4.5,6.9,8,14.3,11.4,21.8c2,4.3,4.1,8.6,6.1,13c0.8,1.7,1.9,3,3.9,3.2c1.2,0.1,2,0.8,2.2,2.1c0.2,1.4-0.2,2.6-1.4,3.5
			c-1.3,1-2.8,1.5-4.4,1.7c-7.1,0.9-14.2,0.8-21.3-0.2c-0.6-0.1-1.2-0.3-1.7-0.6c-1.3-0.7-2.1-1.8-2.1-3.4c0-1.6,1.1-2.2,2.4-2.6
			c2.4-0.9,2.8-2.5,1.1-4.4c0.4-0.5,0.3-1.1,0.1-1.6c-0.6-2-1.2-4-1.9-6c-0.3-0.8-0.4-1.7-0.9-2.4l0,0c-0.1-0.2-0.2-0.4-0.2-0.6
			l0-0.1c0.2-0.3,0.1-0.5-0.1-0.8c-0.8-3.1-2.6-5.7-4.3-8.3c-1.3-1.9-2.8-1.6-3.7,0.5c-1,2.2-1.8,4.5-2.7,6.8
			c-1.9,0.3-3.4-0.7-5-1.5C178.3,56.1,177.1,55.8,176.7,54.6z"/>
		<path class="st3" d="M176.7,54.6c0.4,1.2,1.6,1.5,2.5,1.9c1.5,0.8,3.1,1.8,5,1.5c0.2,0.5,0.7,0.5,1.1,0.5c3.2,0.6,6.4,0.6,9.7,0.5
			c0.2,0.2,0.3,0.5,0.1,0.8c0,0,0,0.1,0,0.1c0.1,0.2,0.2,0.4,0.2,0.6c0,0,0,0,0,0c0.6,0.7,0.7,1.6,0.9,2.4c0.7,2,1.2,4,1.9,6
			c0.2,0.6,0.3,1.1-0.1,1.6c-2.1-0.3-4.2,0.4-6.3,0.5c-3.5,0.3-6.9,0-10.3-0.5c-0.4-0.1-0.9-0.1-1.3,0c-0.3-0.5-0.8-0.5-1.3-0.6
			c-1.9-0.6-3.7-1.3-5.4-2.2c-0.7-0.4-1.2-1.2-2.2-1.1c-1.5-1.8-3.4-3.4-4.5-5.6c-3.1-5.8-6.7-11.3-10.9-16.4
			c-0.3-0.3-0.5-0.8-1-0.8c0-0.5-0.3-0.8-0.6-1.1c-4-4.5-8.4-8.5-13.6-11.6c-0.7-0.4-1.5-0.9-2.4-1.1c-0.4-0.5-0.9-0.6-1.4-0.9
			c-7.6-3.4-15.6-4.4-23.9-3.9c-6.7,0.4-13.3,1.7-19.9,2.8c-2.3,0.4-4.7,0.9-7,1.3c-0.4,0.1-0.6,0.2-0.8,0.6c-2.6,0.1-5.1,1-7.6,1.4
			c-0.6,0.1-1.2,0.2-1.9,0.1c2.1-0.6,4.2-1.3,6.2-1.9c9.2-2.8,18.5-5.5,28-7.3c6-1.1,12.1-1.7,18.2-1.5c12.6,0.6,23.5,5.2,32.6,14.1
			c5.1,5,9.2,10.7,12.9,16.7C174.3,53,175.2,54.1,176.7,54.6z"/>
		<path class="st3" d="M185.3,107.9c2.8,1.3,4.2,3.7,5.3,6.1c1,2.1,2,4.2,3,6.3c0.6,1.2,0.2,1.3-0.9,1.2c-2.4,0-4.8-0.1-7.2,0
			c-1.1,0.1-1.6-0.5-2.1-1.4c-1.4-3-2.9-5.9-4.4-8.8c-0.6-1.2-1.4-2-2.7-2.3c-1-0.3-1.5-0.2-1.5,1.1c0.1,3.3,0,6.7,0,10
			c0,1.1-0.3,1.4-1.4,1.4c-2.1-0.1-4.2-0.1-6.3,0c-0.9,0-1.2-0.2-1.2-1.1c0-9.6,0-19.1,0-28.7c0-0.9,0.2-1.1,1.2-1.1
			c4.7,0.1,9.5,0.1,14.2,0.1c1.8,0,3.5,0.1,5.2,0.6c3.2,0.9,4.7,3.3,5.1,6.3C192.4,102.7,190.4,105.9,185.3,107.9z M174.9,99.9
			c0,0.8,0,1.6,0,2.4c0,0.6,0.2,0.9,0.8,0.9c1.7,0,3.3,0.1,5-0.3c1.4-0.3,2.3-1.4,2.3-2.8c0-1.5-0.8-2.6-2.2-3
			c-0.9-0.2-1.8-0.2-2.7-0.2C174.9,96.8,174.9,96.8,174.9,99.9z"/>
		<path class="st3" d="M136.9,106c0-4.7,0-9.3,0-14c0-1.1,0.3-1.5,1.5-1.5c6.5,0.1,13.1,0,19.6,0c2.6,0,2.6,0,2.6,2.6
			c0,0.8-0.1,1.7,0,2.5c0.1,1.2-0.4,1.5-1.5,1.5c-4-0.1-8,0-12,0c-1.1,0-1.3,0.3-1.3,1.3c0,3.5,0,3.5,3.5,3.5c3,0,6,0,9,0
			c1.1,0,1.4,0.3,1.3,1.4c-0.1,1.3-0.1,2.5,0,3.8c0.1,0.9-0.3,1.2-1.2,1.2c-3.7,0-7.5,0-11.2,0c-1,0-1.4,0.2-1.4,1.3
			c0.1,1.2,0.1,2.5,0,3.7c0,0.9,0.3,1.1,1.1,1.1c4.2,0,8.4,0,12.7,0c1.1,0,1.6,0.3,1.5,1.5c-0.1,1.4-0.1,2.8,0,4.2
			c0.1,1.1-0.2,1.4-1.4,1.4c-7.2-0.1-14.4,0-21.6,0c-1,0-1.3-0.3-1.3-1.3C136.9,115.5,136.9,110.8,136.9,106z"/>
		<path class="st3" d="M118.7,122c-1.1-0.1-3-0.2-4.9-0.7c-4.6-1.1-6.7-5.6-7.2-9.1c-0.1-0.6,0-0.9,0.7-1c2.1-0.1,4.3-0.3,6.4-0.5
			c0.9-0.1,1.2,0.2,1.4,1.1c0.7,3.3,3.2,4.7,6.3,3.9c1.3-0.3,2.4-1.5,2.5-2.8c0.1-1.4-0.6-2.3-1.8-2.9c-2.2-1.1-4.6-1.4-6.9-2.2
			c-1.4-0.5-2.7-1.1-3.9-1.9c-2.9-2-4.1-4.8-3.5-8.2c0.5-3.4,2.6-5.8,5.8-6.8c3.8-1.2,7.7-1.3,11.5-0.2c3.7,1.1,6,4,6.4,7.7
			c0.1,0.7-0.2,0.8-0.8,0.9c-2.2,0.1-4.4,0.2-6.6,0.4c-0.9,0.1-1-0.5-1.2-1.1c-0.8-2.2-2.7-3.3-5-2.8c-1.2,0.3-2,0.9-2.1,2.2
			c-0.1,1.3,0.8,1.8,1.8,2.1c1.9,0.6,3.9,1,5.8,1.6c2.6,0.8,5.2,1.7,7,3.9c4.4,5.5,1.3,14-5.8,15.8C123,121.9,121.3,122,118.7,122z"
			/>
		<path class="st3" d="M251.4,114.9c4,0,7.7,0,11.3,0c1.4,0,2.9,0,4.3,0c0.7,0,0.9,0.2,0.9,0.9c0,1.5,0,3.1,0,4.6
			c0,0.9-0.3,1.1-1.1,1.1c-4.3,0-8.5,0-12.8,0c-4,0-8.1,0-12.1,0c-0.8,0-1.3-0.2-1.1-1.1c0,0,0-0.1,0-0.1c-0.1-5.3-0.1-5.3,3.5-9.2
			c3.8-4.3,7.7-8.6,11.5-12.9c0.2-0.2,0.6-0.4,0.4-0.7c-0.1-0.4-0.5-0.2-0.8-0.2c-3.7,0-7.5,0-11.2,0c-1.8,0-1.8,0-1.8-1.9
			c0-1.2,0-2.5,0-3.7c0-0.7,0.2-1,1-1c7.7,0,15.4,0,23.1,0c0.7,0,1,0.2,1,1c0,1.4,0,2.9,0,4.3c0,0.7-0.3,1.2-0.8,1.6
			c-4.4,5-8.9,10-13.3,14.9C252.8,113.2,252.2,113.9,251.4,114.9z"/>
		<path class="st3" d="M209.4,112.2c0.8-2.8,1.6-5.6,2.4-8.4c1.1-4,2.3-7.9,3.4-11.9c0.3-1,0.7-1.3,1.7-1.3c2.1,0.1,4.2,0.1,6.3,0
			c1.1,0,1.3,0.2,0.9,1.3c-2.7,7.8-5.4,15.6-8.1,23.4c-0.6,1.7-1.3,3.5-1.8,5.2c-0.3,0.8-0.7,1.1-1.5,1.1c-2.4,0-4.8-0.1-7.2,0
			c-0.9,0-1.3-0.3-1.6-1.1c-2.2-6.3-4.4-12.7-6.6-19c-1.1-3.2-2.2-6.4-3.4-9.5c-0.4-1-0.2-1.3,0.9-1.2c2.1,0.1,4.3,0.1,6.5,0
			c1.2-0.1,1.7,0.4,2,1.5c1.8,6.4,3.6,12.7,5.5,19.1c0.1,0.3,0.2,0.6,0.4,1C209.2,112.1,209.3,112.2,209.4,112.2z"/>
		<path class="st3" d="M227.8,106c0-4.7,0-9.5,0-14.2c0-1,0.3-1.3,1.3-1.3c2.2,0.1,4.4,0,6.6,0c0.9,0,1.1,0.3,1.1,1.2
			c0,9.5,0,19,0,28.6c0,1-0.3,1.3-1.3,1.3c-2.2-0.1-4.4-0.1-6.6,0c-0.9,0-1.1-0.3-1.1-1.2C227.9,115.6,227.8,110.8,227.8,106z"/>
		<path class="st3" d="M281.1,106c0,4.7,0,9.5,0,14.2c0,1-0.3,1.4-1.3,1.3c-2.1-0.1-4.2-0.1-6.3,0c-0.9,0-1.3-0.2-1.3-1.2
			c0-9.5,0-19,0-28.6c0-0.9,0.3-1.2,1.2-1.2c2.2,0.1,4.3,0.1,6.5,0c1.1,0,1.3,0.4,1.3,1.4C281.1,96.6,281.1,101.3,281.1,106z"/>
		<path class="st2" d="M171.2,66.6c0.9-0.1,1.5,0.7,2.2,1.1c1.7,0.9,3.6,1.6,5.4,2.2c0.4,0.2,1,0.1,1.3,0.6
			c-0.2,0.5-0.5,0.9-0.7,1.4c-0.5,1.7-0.2,2.3,1.4,2.9c1.5,0.5,3,1,3.1,2.9c0,1.9-1.3,2.9-2.9,3.5c-1.9,0.7-3.8,1-5.8,1
			c-3.6,0.1-7.2,0.1-10.7-0.7c-1.5-0.4-2.6-1.2-2.9-2.8c-0.3-1.5,0.2-2.5,1.6-3.3c0.3-0.1,0.5-0.3,0.8-0.4c2.5-0.7,4.2-2.3,5.3-4.6
			C169.9,69.1,170.6,67.8,171.2,66.6z"/>
		<path class="st3" d="M94,80.6c0.6-0.5,1.2-0.7,2.2-0.8c-0.6,0.7-1.1,1-1.7,1.1C94.3,80.8,94.2,80.7,94,80.6z"/>
		<path class="st3" d="M94.5,83c0.6-0.7,1.3-1.1,2.1-1.4c-0.5,0.7-1.1,1.3-1.9,1.7C94.6,83.2,94.6,83.1,94.5,83z"/>
		<path class="st4" d="M94.5,83c0.1,0.1,0.2,0.2,0.2,0.3c-0.2,0.1-0.3,0.3-0.5,0c0,0,0,0,0,0C94.3,83.2,94.4,83.1,94.5,83z"/>
		<path class="st4" d="M195,59.9C195,59.9,195,59.9,195,59.9C195,59.9,195,59.9,195,59.9z"/>
		<path class="st4" d="M195.3,60.5C195.3,60.5,195.3,60.5,195.3,60.5C195.3,60.5,195.3,60.5,195.3,60.5z"/>
	</g>
</g>
</svg>
