<?xml version="1.0" encoding="utf-8"?>
<!-- Generator: Adobe Illustrator 24.0.1, SVG Export Plug-In . SVG Version: 6.00 Build 0)  -->
<svg version="1.1" id="Livello_1" xmlns="http://www.w3.org/2000/svg" xmlns:xlink="http://www.w3.org/1999/xlink" x="0px" y="0px"
	 viewBox="0 0 344.6 248.3" style="enable-background:new 0 0 344.6 248.3;" xml:space="preserve">
<style type="text/css">
	.st0{fill:#1D3C56;}
	.st1{fill:#5B5B5B;}
	.st2{fill:#AC4D2E;}
	.st3{fill:#EDBD34;}
	.st4{fill:#FFFFFF;}
	.st5{fill:#16ABC4;}
	.st6{fill:#9AD1E2;}
	.st7{fill:#318AA3;}
	.st8{opacity:0.24;fill:#FFFFFF;}
	.st9{fill:#67A1B8;}
	.st10{opacity:0.24;fill:#67A1B8;}
	.st11{fill:#288DBB;}
	.st12{opacity:0.11;fill:#FFFFFF;}
	.st13{opacity:0.68;}
	.st14{fill:#E6BD54;}
	.st15{opacity:0.8;fill:#FFFFFF;}
	.st16{fill:#A35339;}
	.st17{opacity:0.37;fill:#FFFFFF;}
	.st18{fill:#1F3C55;}
	.st19{fill:#5C5B5B;}
	.st20{fill:url(#SVGID_1_);}
	.st21{fill:#E17B6F;}
	.st22{fill:#BDD0FB;}
	.st23{fill:url(#SVGID_2_);}
	.st24{fill:url(#SVGID_3_);}
	.st25{fill:url(#SVGID_4_);}
	.st26{opacity:0.8;fill:#E17B6F;}
	.st27{fill:url(#SVGID_5_);}
	.st28{fill:url(#SVGID_6_);}
	.st29{fill:url(#SVGID_7_);}
	.st30{fill:#1070A4;}
	.st31{fill:url(#SVGID_8_);}
	.st32{fill:#0D658C;}
</style>
<g id="BACKGROUND">
</g>
<g id="OBJECTS">
	<g>
		<polygon class="st0" points="706.3,-69.1 736.4,-76.6 714.2,-99.1 706.3,-69.1 736.4,-76.6 714.2,-99.1 		"/>
		<polygon class="st1" points="654,-96.1 670.8,-122.2 639.7,-123.7 654,-96.1 670.8,-122.2 639.7,-123.7 		"/>
		<polygon class="st2" points="598.1,-70.9 589.1,-100.6 567.9,-78 598.1,-70.9 589.1,-100.6 567.9,-78 		"/>
		<polygon class="st3" points="577.5,-14.2 550.1,-28.8 551.2,2.3 577.5,-14.2 550.1,-28.8 551.2,2.3 		"/>
		<path class="st0" d="M690.9-106.6C713-97,731.8-79,742-55.8l62.2-26c-17.5-40.6-49.7-71.1-87.8-87.2L690.9-106.6z"/>
		<path class="st2" d="M560.5-55.1c9.5-21.9,26.3-40.2,50-50.8l-26-62.2c-40.5,17.6-70.4,49.6-86.5,87.4L560.5-55.1z"/>
		<path class="st1" d="M614.3-107.5c24.1-9.6,49.9-9.2,72.4-0.6l25.5-62.3c-38.4-15.2-82.4-16.2-123.9,0.7L614.3-107.5z"/>
		<path class="st3" d="M559.5,20.5c-9.1-23-8.9-49.4-0.3-71.7l-62.4-25.6c-15.1,38.3-16.1,82.4,0.5,123.4L559.5,20.5z"/>
		<g>
			<path class="st4" d="M507.3-34.1l6.2,2.5l2.9,9.5c-0.1,0.1-0.2,0.2-0.2,0.3l-2.3,5.4c-0.1,0.2-0.1,0.4,0,0.6l3.9,12.7
				c-0.2,0.6-0.4,1.2-0.5,1.9c-0.3,3.5,2.3,6.6,5.8,6.9c3.5,0.3,6.6-2.3,6.9-5.8c0-0.6,0-1.1-0.1-1.6l11.9-3.9
				c0.4-0.1,0.7-0.6,0.5-1c-0.1-0.4-0.6-0.7-1-0.5l-11.8,3.9c-0.2-0.4-0.4-0.8-0.7-1.2l11.1-3.5c0.1,0,0.3-0.1,0.3-0.3
				c0.1-0.1,0.1-0.3,0-0.4l-4.4-13.9c-0.1-0.3-0.4-0.5-0.7-0.4l-1.2,0.4l-3.1-9.8c0-0.1-0.1-0.3-0.3-0.3c-0.1-0.1-0.3-0.1-0.4,0
				l-10.6,3.3c-0.1,0-0.3,0.1-0.3,0.3c-0.1,0.1-0.1,0.3,0,0.4l3.1,9.8l-1.4,0.4c-0.3,0.1-0.5,0.4-0.4,0.7l3.4,10.8
				c-0.4,0-0.9,0-1.3,0.1L515-32.4c-0.1-0.2-0.2-0.4-0.5-0.5l-6.6-2.7c-0.4-0.2-0.9,0-1,0.4C506.7-34.8,506.9-34.3,507.3-34.1z
				 M520.5-28.7l2.9-0.9l0.9,2.7L528-28l-0.9-2.7l2.9-0.9l2.9,9.3l-9.5,3L520.5-28.7z M524.1-5.5c0.1,0,0.3,0,0.4,0.1
				c0.5,0.1,0.9,0.2,1.3,0.4c0,0,0.1,0,0.1,0.1c0.4,0.2,0.8,0.5,1.1,0.9s0.6,0.8,0.9,1.2c0.2,0.5,0.4,1,0.5,1.5c0,0.3,0,0.7,0,1
				c-0.2,2.6-2.5,4.5-5.1,4.3c-2.6-0.2-4.5-2.5-4.3-5.1c0.2-1.7,1.2-3.1,2.6-3.8c0.5-0.2,1-0.4,1.5-0.5
				C523.5-5.5,523.8-5.5,524.1-5.5z M521.9-17.7L526-19l1.2,3.9l4.9-1.5l-1.2-3.9l4.1-1.3L539-9l-11.1,3.5c-0.7-0.7-1.6-1.1-2.7-1.4
				L521.9-17.7z M519-4.9l-1.4-4.6l2.3-1.2l1.3,4.2C520.3-6.2,519.6-5.6,519-4.9z M517.1-11.2l-1.5-4.9l1.6-3.7l2.3,7.5L517.1-11.2z
				"/>
			<path class="st4" d="M523.5,2.3c1.5,0.1,2.8-1,3-2.5c0-0.1,0-0.1,0-0.2c0-0.6-0.1-1.1-0.4-1.6c-0.4-0.7-1.2-1.2-2.1-1.2
				c-0.1,0-0.1,0-0.2,0c-0.6,0-1.1,0.2-1.5,0.4c-0.7,0.4-1.1,1.2-1.2,2C520.8,0.9,522,2.2,523.5,2.3z"/>
		</g>
		<g>
			<path class="st4" d="M564.1-112.8c0.2-0.1,0.4-0.1,0.5-0.2c1.5-0.6,3-1.3,4.5-1.9c0.9-0.4,1.7-0.2,2.2,0.5s0.4,1.5-0.1,2.2
				c-0.1,0.1-0.1,0.3,0,0.4c0.4,0.8,0.4,1.4-0.2,2.2c0,0.1,0,0.3,0,0.4c0.5,1.1,0.5,1.5-0.3,2.4c0,0,0,0.1,0.1,0.1
				c0.7,1.1,0.4,2.2-0.8,2.7c-2.1,0.9-4.1,1.8-6.2,2.6c-0.3,0.1-0.7,0.1-1,0.1c-0.6,0-1.2-0.2-1.7,0s-0.8,0.8-1.1,1.3
				c-3.1,3.9-6.3,7.8-9.4,11.7c-0.5,0.6-0.9,0.5-1.2-0.2c-1.2-2.8-2.3-5.6-3.5-8.4c-0.2-0.4-0.1-0.7,0.2-1
				c4.7-5.1,9.5-10.3,14.2-15.5c0.4-0.4,0.7-0.7,1.2-0.9c0.6-0.2,1.1-0.5,1.7-0.7c0.7-0.3,1-0.1,1,0.7
				C564.1-113.8,564.1-113.3,564.1-112.8z"/>
			<path class="st4" d="M565.3-114.6c-0.2-0.7-0.5-1.2-1.2-1.5c-0.1,0-0.1-0.1-0.1-0.2c0.1-0.4-0.2-0.5-0.5-0.7
				c-1.9-1.2-2.6-3.6-1.7-5.9c0.4-1,1-1.8,1.9-2.4c0.6-0.4,1-0.2,1,0.5c0.1,1.1,0.1,2.1,0.1,3.2c0,0.3,0.1,0.5,0.4,0.6
				c1,0.6,1.1,0.6,1.9-0.2c0.1-0.1,0.1-0.3,0.1-0.4c0-1.1-0.1-2.1-0.1-3.2c0-0.8,0.3-1,1.1-0.7c2.3,1.2,4,5.5,0.9,8.1
				c-0.3,0.3-0.5,0.5-0.5,1c0,0.1-0.1,0.4-0.2,0.4C567.4-115.5,566.4-115.1,565.3-114.6z"/>
			<path class="st4" d="M569.2-102.2c0,0.4,0,0.8,0.1,1.1c0,0.2,0.1,0.4,0.3,0.4c3.4,2.1,2.6,6.6,0.1,8.3c-0.2,0.1-0.6,0.2-0.8,0.2
				c-0.3-0.1-0.3-0.4-0.3-0.7c0-1-0.1-2-0.1-3c0-0.4-0.1-0.6-0.5-0.8c-0.8-0.5-0.8-0.5-1.6,0.1c-0.3,0.2-0.4,0.4-0.4,0.8
				c0.1,1,0.1,2.1,0.1,3.1c0,0.7-0.3,1-0.9,0.7c-2.2-1.1-4-5-1.5-7.8c0.1-0.1,0.2-0.2,0.3-0.2C565.6-100.7,567.3-101.4,569.2-102.2z
				"/>
		</g>
		<path class="st4" d="M751.6-120.3c1.9,4.5,3.7,8.9,5.6,13.4c0.1,0.2,0.2,0.3,0.5,0.3c0.4,0,0.9-0.1,1.3,0c0.6,0.1,0.9,0.4,1.1,1
			c0.1,0.4,0,0.8-0.3,1.1c-0.6,0.6-1.1,1.2-1.7,1.8c-0.6,0.6-1.1,1.2-1.7,1.8c-0.5,0.5-0.9,1-1.4,1.5c-0.7,0.7-1.3,1.4-2,2.1
			c-0.5,0.6-1.1,1.2-1.6,1.7c-0.6,0.7-1.3,1.4-2,2c-0.4,0.4-0.9,0.8-1.4,1.2c-0.3,0.2-0.6,0.4-1,0.5c-1.1,0.5-2.2,0.6-3.3,0.4
			c-1.3-0.2-2.6-0.3-3.9-0.4c-1.3-0.1-2.6-0.3-3.9-0.4s-2.6-0.3-3.9-0.4c-1.4-0.2-2.8-0.3-4.3-0.5c-0.7-0.1-1.5-0.2-2.2-0.2
			c-0.7-0.1-1.1-0.5-1.3-1.1c-0.1-0.5,0-1,0.5-1.3c0.6-0.5,1.2-1,1.8-1.5c0.1,0,0.1-0.2,0.1-0.3c0,0,0-0.1-0.1-0.1
			c-1.7-4-3.3-7.9-5-11.9c-0.3-0.6-0.1-0.6,0.3-1c0.4-0.3,0.9-0.7,1.4-1c0.7-0.5,1.4-1,2.1-1.5c0.9-0.7,1.8-1.3,2.7-2
			c0.8-0.6,1.6-1.2,2.4-1.8c0.5-0.3,0.9-0.7,1.4-1c0.4-0.2,0.7-0.6,1.2-0.7s0.9-0.1,1.4-0.2c1-0.1,1.9-0.3,2.9-0.4
			c0.5-0.1,1-0.1,1.5-0.2c0.9-0.1,1.9-0.3,2.8-0.4c0.5-0.1,1-0.1,1.5-0.2c0.9-0.1,1.9-0.3,2.8-0.4c0.7-0.1,1.4-0.2,2.1-0.3
			c0.9-0.1,1.8-0.3,2.7-0.4c0.2,0,0.4,0,0.5,0.2C751.3-120.9,751.4-120.6,751.6-120.3z M733.7-101.9c0.3,0.7,0.6,1.4,0.9,2.1
			c0.1,0.2,0.1,0.3,0,0.5c-0.3,0.3-0.6,0.6-0.9,0.8c-0.8,0.8-1.6,1.5-2.4,2.3c-0.1,0.1-0.3,0.3-0.5,0.4c-0.1,0.1-0.3,0-0.5,0
			c-0.8,0-1.6-0.1-2.4-0.1c-0.3,0-0.4-0.1-0.5-0.3c-0.1-0.3-0.2-0.6-0.4-0.9c-0.2,0.1-0.3,0.3-0.5,0.4c-0.4,0.4-0.8,0.7-1.2,1.1
			c-0.2,0.2-0.3,0.5-0.3,0.8c0.1,0.3,0.3,0.5,0.6,0.5c0.2,0,0.4,0.1,0.6,0.1c1.2,0.1,2.4,0.2,3.7,0.4c1.5,0.2,2.9,0.3,4.4,0.5
			c1.2,0.1,2.4,0.3,3.7,0.4c0.9,0.1,1.8,0.2,2.6,0.3c0.9,0.1,1.7,0.2,2.6,0.3c0.9,0.1,1.8,0.2,2.7,0s1.7-0.6,2.4-1.2
			c0.7-0.6,1.3-1.3,1.9-2c0.6-0.6,1.1-1.2,1.6-1.7c0.7-0.7,1.3-1.4,2-2.1c0.5-0.5,0.9-1,1.4-1.5c0.6-0.6,1.1-1.2,1.7-1.8
			c0.5-0.5,1-1,1.4-1.5c0.3-0.3,0.6-0.6,0.8-0.9c0.2-0.2,0.2-0.4,0.1-0.6c-0.1-0.2-0.3-0.3-0.5-0.3c-0.3,0-0.6,0-0.8,0
			c0-0.1,0-0.2,0-0.3c-0.1,0.1-0.3,0.1-0.3,0.1c-0.1,0.2-0.3,0.2-0.5,0.2c-0.1,0-0.2,0.1-0.3,0.2c-0.4,0.6-0.9,1.2-1.3,1.8
			c-0.1,0.2-0.3,0.3-0.5,0.3c-0.4,0-0.8,0-1.1,0c-1,0-1.9,0-2.9,0c-0.4,0-0.9,0-1.3,0c0,0.1,0.1,0.2,0.1,0.3
			c0.6,1.5,1.2,2.9,1.8,4.4c0.1,0.3,0.1,0.5,0,0.7c-0.2,0.3-0.4,0.6-0.6,0.8c-0.6,0.5-1.4,1-2.1,1.3c-1.4,0.7-2.8,1.2-4.4,1.3
			c-0.6,0-1-0.1-1.3-0.8c-0.8-1.9-1.6-3.8-2.3-5.6c-0.1-0.2-0.1-0.4-0.1-0.5c0.1-0.4,0.3-0.7,0.6-0.9c0.4-0.3,0.8-0.6,1.2-0.9l0,0
			c-0.9,0-1.8,0-2.7,0c-1.1,0-2.2,0-3.3,0c-0.1,0-0.3,0-0.4,0.1c-0.3,0.2-0.6,0.5-0.9,0.7C734.7-102.7,734.2-102.3,733.7-101.9z
			 M748.7-118.4c-0.1,0-0.2,0-0.3,0c-0.9,0.1-1.7,0.2-2.6,0.4c-0.7,0.1-1.4,0.2-2.1,0.3c-1.1,0.1-2.1,0.3-3.2,0.4
			c-1,0.1-2.1,0.3-3.1,0.4c-0.7,0.1-1.5,0.2-2.2,0.3c-0.3,0-0.6,0.1-0.9,0.1c0.1,0.1,0.1,0.2,0.1,0.3c0.6,1.5,1.2,2.9,1.9,4.4
			c0.1,0.2,0.1,0.4-0.1,0.5c-0.2,0.2-0.4,0.3-0.6,0.5c-0.4,0.3-0.8,0.7-1.3,1c0.7,1.7,1.4,3.3,2.1,4.9c0,0.1,0.1,0.1,0.2,0.1
			c0.6,0,1.2,0,1.7,0c0.7,0,1.3,0,2,0c0.9,0,1.9,0,2.8,0c0.6,0,1.2,0,1.7-0.3c1-0.5,2.2-0.7,3.3-0.7c0.5,0,0.8,0.2,1.1,0.7
			c0.1,0.1,0.1,0.3,0.2,0.4c1.7,0,3.5,0,5.2,0.1C752.6-109.1,750.7-113.8,748.7-118.4z M733.6-116.2c-0.1,0.1-0.2,0.1-0.3,0.2
			c-0.3,0.2-0.5,0.4-0.8,0.6c-0.6,0.4-1.2,0.9-1.8,1.3c-0.4,0.3-0.9,0.7-1.3,1c-0.8,0.6-1.5,1.1-2.3,1.7c-0.5,0.4-1,0.7-1.5,1.1
			c-0.3,0.2-0.3,0.2-0.2,0.6c1.8,4.3,3.6,8.5,5.3,12.8c0,0.1,0.1,0.2,0.1,0.3c0.1,0,0.1,0,0.1-0.1c0.5-0.4,0.9-0.9,1.4-1.3
			c0.4-0.4,0.9-0.9,1.4-1.3c0.2-0.2,0.2-0.3,0.1-0.5c-1-2.4-2-4.9-3.1-7.3c0-0.1-0.1-0.1-0.1-0.2c-0.1-0.2,0-0.3,0.1-0.4
			c0.5-0.4,1-0.8,1.5-1.2c0.7-0.5,1.4-1.1,2.1-1.6c0.3-0.3,0.6-0.5,1-0.8c0.2-0.1,0.2-0.2,0.1-0.4c-0.6-1.3-1.1-2.7-1.7-4
			C733.7-116,733.6-116.1,733.6-116.2z M741.7-101c0,0.1,0.1,0.2,0.1,0.2c0.3,0.6,0.5,1.2,0.8,1.8c0.4,1,0.8,1.9,1.2,2.9
			c0.1,0.2,0.2,0.3,0.4,0.3c0.5,0,1,0,1.5-0.1c0.9-0.2,1.8-0.5,2.6-0.9c0.9-0.4,1.7-0.9,2.4-1.5c0.3-0.3,0.4-0.4,0.2-0.8
			c-0.6-1.5-1.3-3-1.9-4.5c0-0.1-0.1-0.2-0.1-0.3C746.7-102.3,744.4-101.3,741.7-101z M722.9-110.6c0.4,0,0.7,0,1.1,0
			c0.3,0,0.6,0.1,0.8,0c0.5-0.3,0.9-0.7,1.4-1c0.4-0.3,0.9-0.7,1.3-1c0.6-0.4,1.2-0.9,1.8-1.3c0.4-0.3,0.9-0.6,1.3-1
			c0.8-0.6,1.5-1.1,2.3-1.7c0.3-0.2,0.5-0.4,0.8-0.5c0.9-0.2,1.9-0.3,2.9-0.4s1.9-0.3,2.9-0.4c1.1-0.1,2.1-0.3,3.2-0.4
			c0.8-0.1,1.5-0.2,2.3-0.3c1.1-0.1,2.1-0.3,3.2-0.4c0.4,0,0.7-0.1,0.9-0.5c0.1-0.2,0.4-0.4,0.5-0.6c0.1-0.1,0.2-0.3,0.3-0.4
			c-0.9,0.1-1.8,0.3-2.7,0.4c-0.7,0.1-1.5,0.2-2.2,0.3c-1.1,0.2-2.3,0.3-3.4,0.5c-1,0.2-2,0.3-3.1,0.5c-0.9,0.1-1.9,0.3-2.8,0.4
			c-0.7,0.1-1.5,0.2-2.2,0.3c-0.2,0-0.4,0-0.6,0.1c-0.3,0.2-0.7,0.5-1,0.7c-0.4,0.3-0.9,0.7-1.3,1c-0.8,0.6-1.6,1.1-2.4,1.7
			c-0.5,0.3-0.9,0.7-1.3,1c-0.6,0.5-1.3,0.9-1.9,1.3c-0.5,0.3-1,0.7-1.5,1C723.4-111.1,723.2-110.9,722.9-110.6z M755.2-104.8
			c0.4-0.6,0.8-1.1,1.2-1.6c0.1-0.2,0.1-0.3,0-0.5c-1.3-3.1-2.6-6.2-3.9-9.3c0-0.1-0.1-0.2-0.1-0.3c-0.5-1.2-1-2.3-1.4-3.5
			c-0.1-0.2-0.1-0.3-0.2-0.5c-0.5,0.5-0.9,1-1.3,1.5c0,0.1-0.1,0.2,0,0.3c0.1,0.3,0.3,0.6,0.4,0.9c0.4,0.9,0.8,1.9,1.1,2.8
			c1,2.5,2.1,5,3.1,7.5C754.5-106.6,754.8-105.7,755.2-104.8z M730.2-96.5c-0.1-0.1-0.1-0.2-0.1-0.3c-1.1-2.6-2.2-5.3-3.3-7.9
			c-0.7-1.7-1.4-3.3-2.1-5c0-0.1-0.1-0.2-0.2-0.2c-0.5,0-1,0-1.4,0c-0.2,0-0.4,0-0.6,0c0,0.1,0,0.1,0,0.1c1.8,4.4,3.7,8.8,5.5,13.2
			c0,0.1,0.2,0.2,0.2,0.2C728.8-96.5,729.5-96.5,730.2-96.5z M733.6-109.3c-0.2,0.1-0.3,0.2-0.4,0.3c-0.5,0.4-1.1,0.9-1.6,1.3
			c-0.2,0.1-0.2,0.2-0.1,0.5c0.6,1.5,1.2,2.9,1.8,4.4c0,0.1,0.1,0.2,0.1,0.3c0.2-0.1,0.3-0.3,0.4-0.4c0.6-0.5,1.1-0.9,1.7-1.4
			c0.1-0.1,0.1-0.2,0-0.3c-0.6-1.5-1.2-2.9-1.8-4.4C733.7-109.1,733.7-109.2,733.6-109.3z M741.3-101.8c0.3,0,0.5,0.1,0.7,0.1
			c0.5-0.1,1-0.1,1.4-0.3c1.4-0.3,2.8-1,4-1.8c0.3-0.2,0.6-0.5,0.9-0.8c0.2-0.2,0.1-0.3-0.1-0.3c-0.3,0-0.7,0-1,0
			c-0.6,0.1-1.2,0.3-1.7,0.4c-1.4,0.5-2.8,1.1-3.9,2.2C741.5-102.2,741.4-102,741.3-101.8z"/>
		<polygon class="st5" points="731.9,-18.2 758,-1.4 759.5,-32.4 731.9,-18.2 758,-1.4 759.5,-32.4 		"/>
		<path class="st5" d="M742.6-52c9.8,24,9.7,49.8,1.2,72.4l62.6,25c14.8-38.6,15.5-82.5-1.8-123.9L742.6-52z"/>
		<g>
			<path class="st4" d="M647-134.1c-2,0.8-3,3.2-2.1,5.2c0.9,2,3.2,3,5.2,2.1c2-0.8,3-3.2,2.1-5.2C651.3-134,649.1-135,647-134.1z
				 M649.6-127.9c-1.4,0.6-3-0.1-3.6-1.5c-0.6-1.4,0.1-3,1.5-3.6c1.4-0.6,3,0.1,3.6,1.5C651.7-130.1,651.1-128.5,649.6-127.9z"/>
			<path class="st4" d="M647.9-132c-0.8,0.4-1.2,1.3-0.9,2.2c0.4,0.8,1.3,1.2,2.2,0.9c0.9-0.3,1.2-1.3,0.9-2.2
				C649.8-132,648.8-132.3,647.9-132z"/>
			<path class="st4" d="M665.8-142c-2,0.8-3,3.2-2.1,5.2c0.9,2,3.2,3,5.2,2.1c2-0.8,3-3.2,2.1-5.2S667.9-142.8,665.8-142z
				 M668.5-135.7c-1.4,0.6-3-0.1-3.6-1.5c-0.6-1.4,0.1-3,1.5-3.6c1.4-0.6,3,0.1,3.6,1.5C670.5-138,669.9-136.3,668.5-135.7z"/>
			<path class="st4" d="M666.7-139.8c-0.8,0.4-1.2,1.3-0.9,2.2c0.3,0.9,1.3,1.2,2.2,0.9c0.8-0.4,1.2-1.3,0.9-2.2
				C668.6-139.8,667.6-140.2,666.7-139.8z"/>
			<path class="st4" d="M669.8-152.3h-3.6c-0.7-0.5-3.3-2.5-4.9-3c-0.1,0-0.3,0-0.4,0l-4.6,1.9l-1.3-3.1c-0.1-0.3-0.5-0.5-0.8-0.3
				l-22.5,9.4c-0.3,0.1-0.5,0.5-0.3,0.8l5.7,13.7c0.1,0.3,0.5,0.5,0.8,0.3l1-0.4l1.7,4.1c0.1,0.3,0.5,0.5,0.8,0.3l2.5-1
				c0.2-0.1,0.4-0.3,0.4-0.6c-0.1-1.8,1-3.6,2.7-4.3c1.7-0.7,3.7-0.3,4.9,1.1c0.2,0.2,0.4,0.3,0.7,0.2l10.1-4.2
				c0.2-0.1,0.4-0.3,0.4-0.6c-0.1-1.8,1-3.6,2.7-4.3c1.7-0.7,3.7-0.3,4.9,1.1c0.2,0.2,0.4,0.3,0.7,0.2l2.5-1
				c0.3-0.1,0.5-0.5,0.3-0.8l-1.9-4.6l-1.8-4.4C670.3-152.1,670-152.3,669.8-152.3z M656.8-152.3l4.3-1.8c1.7,0.7,4.4,2.9,4.5,2.9
				c0.1,0.1,0.2,0.1,0.4,0.1h3.4l1.4,3.5l-10.3,4.3L656.8-152.3z M633.4-144.8l1.4-0.6l3.9,9.3l-1.4,0.6L633.4-144.8z M635.6-145.7
				l1.5-0.6l3.9,9.3l-1.5,0.6L635.6-145.7z M637.8-146.6l1.5-0.6l3.9,9.3l-1.5,0.6L637.8-146.6z M640-147.6l1.5-0.6l3.9,9.3
				l-1.5,0.6L640-147.6z M642.2-148.5l1.5-0.6l3.9,9.3l-1.5,0.6L642.2-148.5z M644.5-149.4l1.5-0.6l3.9,9.3l-1.5,0.6L644.5-149.4z
				 M646.7-150.4l1.5-0.6l3.9,9.3l-1.5,0.6L646.7-150.4z M648.9-151.3l1.5-0.6l3.9,9.3l-1.5,0.6L648.9-151.3z M651.1-152.2l1.5-0.6
				l3.9,9.3l-1.5,0.6L651.1-152.2z M653.3-153.1l1.5-0.6l3.9,9.3l-1.5,0.6L653.3-153.1z M632.8-146.5l21.4-8.9l0.3,0.8l-21.4,8.9
				L632.8-146.5z M638-133.9l-0.3-0.8l21.4-8.9l0.3,0.8L638-133.9z M672.8-143l-1.5,0.6c-1.6-1.5-3.9-1.9-6-1.1
				c-2,0.9-3.4,2.8-3.4,5l-9.4,3.9c-1.6-1.5-3.9-1.9-6-1.1c-2,0.9-3.4,2.8-3.4,5l-1.5,0.6l-1.4-3.5l20.4-8.5l10.9-4.5L672.8-143z"/>
			<path class="st4" d="M660.8-152.8l-2.9,1.2l1.5,3.5l5.4-2.3h-0.1C663.7-151.2,662-152.3,660.8-152.8z"/>
			
				<rect x="660.7" y="-147.5" transform="matrix(0.9227 -0.3855 0.3855 0.9227 107.8629 243.693)" class="st4" width="1.9" height="0.7"/>
		</g>
		<g>
			<path class="st4" d="M782.8-11.9c-1.7-4.7-3.4-9.5-5.2-14.2c0.5-0.2,0.9-0.3,1.3-0.5c1.9,5.3,3.9,10.6,5.8,15.9
				c-3.4-2-6.8,0.2-6.4,4.1c-0.2,0.1-0.4,0.2-0.6,0.3c-2,0.7-4,1.5-6,2.2c-2.9-3.1-5.6-2.9-7.5,0.6c-0.8-2.3-1.7-4.4-2.4-6.6
				c-0.3-0.8,0.2-1.5,1-1.9c0.5-0.3,1-0.5,1.7-0.7c-0.9-2.4-1.7-4.7-2.5-7c-0.6-1.7-0.4-2.3,1.3-2.9c1.2-0.5,2.5-0.9,3.7-1.4
				c1.2-0.5,2.1-0.2,3.1,0.6c3.9,3.7,7.8,7.3,11.7,11c0.2,0.2,0.5,0.4,0.7,0.6C782.7-11.8,782.8-11.9,782.8-11.9z M766.2-15.5
				c0.5,1.4,1,2.7,1.5,4.1c0.2,0.7,0.5,0.8,1.2,0.6c2.4-0.9,4.8-1.8,7.2-2.6c1-0.4,1-0.6,0.3-1.3c-2.4-2.2-4.8-4.4-7.2-6.7
				c-0.4-0.4-0.8-0.5-1.4-0.3c-0.8,0.4-1.7,0.7-2.6,0.9c-0.7,0.2-0.8,0.5-0.6,1.2C765.2-18.3,765.7-16.9,766.2-15.5z"/>
			<path class="st4" d="M767.1-5.3c1.6-0.6,3.3,0.2,3.9,1.8c0.6,1.5-0.3,3.3-1.8,3.9c-1.6,0.6-3.4-0.3-3.9-1.9
				C764.7-3.1,765.5-4.8,767.1-5.3z M769.6-3c-0.3-0.8-1.2-1.2-2-0.9c-0.8,0.3-1.2,1.2-1,2c0.3,0.8,1.2,1.2,2,0.9
				C769.4-1.3,769.8-2.2,769.6-3z"/>
			<path class="st4" d="M781.2-10.5c1.6-0.6,3.3,0.2,3.9,1.8c0.6,1.5-0.2,3.3-1.8,3.9c-1.6,0.6-3.4-0.3-4-1.9
				C778.8-8.2,779.6-9.9,781.2-10.5z M783.7-8.2c-0.3-0.8-1.2-1.2-2-0.9s-1.2,1.2-0.9,2c0.3,0.8,1.2,1.2,2,0.9
				C783.6-6.5,784-7.4,783.7-8.2z"/>
			<path class="st4" d="M789.4-28.6c-1.1,1.4-2.1,2.7-3.1,3.9c-0.1,0.2-0.5,0.3-0.7,0.2c-1.5-0.3-3-0.6-4.5-1.1
				C783.8-26.6,786.5-27.6,789.4-28.6z"/>
			<path class="st4" d="M794-14.8c-2.6,1-5.2,1.9-7.9,2.9c0-0.1-0.1-0.1-0.1-0.2c1-1.2,1.9-2.4,2.9-3.6c0.1-0.1,0.4-0.2,0.6-0.2
				c1.5,0.3,3,0.6,4.5,0.9C794-14.9,794-14.9,794-14.8z"/>
			<path class="st4" d="M791.4-22.2c-2.6,1-5.3,1.9-7.9,2.9c-0.1-0.1-0.1-0.1-0.2-0.2c1-1.2,1.9-2.5,2.9-3.7
				c0.1-0.1,0.3-0.1,0.4-0.1c1.6,0.3,3.1,0.6,4.7,1C791.4-22.3,791.4-22.3,791.4-22.2z"/>
			<path class="st4" d="M783.8-18.3c2.7-1,5.3-1.9,8-2.9l0.1,0.1c-1,1.3-2,2.6-3,3.8c-0.1,0.1-0.4,0.2-0.5,0.1
				c-1.5-0.3-3-0.6-4.5-0.9C783.9-18.1,783.9-18.2,783.8-18.3z"/>
			<path class="st4" d="M792.1-23.2c-1.7-0.4-3.3-0.7-5-1c1.1-1.4,2.1-2.6,3.1-4C790.8-26.5,791.4-24.9,792.1-23.2z"/>
			<path class="st4" d="M792.9-20.9c0.6,1.8,1.2,3.3,1.9,5.1c-1.7-0.4-3.3-0.7-5-1C790.8-18.2,791.8-19.5,792.9-20.9z"/>
			<path class="st4" d="M783.4-17.2c1.6,0.3,3.1,0.6,4.8,1c-1,1.3-2,2.5-3,3.9C784.5-14,784-15.5,783.4-17.2z"/>
			<path class="st4" d="M785.5-23.6c-1,1.3-2,2.5-3,3.8c-0.6-1.7-1.2-3.2-1.8-4.8C782.3-24.3,783.8-24,785.5-23.6z"/>
			<path class="st4" d="M785.8-9.3c-0.3-0.4-0.6-0.7-0.9-1.1c2.4-0.9,4.8-1.8,7.3-2.7c0.2,0.4,0.3,0.8,0.5,1.3
				C790.4-11,788.1-10.2,785.8-9.3z"/>
		</g>
		<g>
			<path class="st4" d="M497.6,28.3l0.3,1.2l-0.9,0.2l-0.9-3.3l0.9-0.2l0.3,1.2l6.4-1.8l0.3,1L497.6,28.3z"/>
			<path class="st4" d="M499.7,23.7l3.3-0.8l0.2,1l-7.3,1.8l-0.4-1.5c-0.3-1.1,0-1.8,1.3-2.2l0.3-0.1c1.1-0.3,1.5,0.1,1.7,0.4
				c0.1-0.5,0.3-0.8,1.3-1.1c0.6-0.2,1.8-0.4,2.2-0.6l0.2,1c-0.4,0.2-1.6,0.5-2.2,0.6c-0.9,0.2-1.1,0.4-1,1.1L499.7,23.7z
				 M498.9,23.9l-0.1-0.4c-0.2-0.6-0.5-0.8-1.3-0.6l-0.3,0.1c-0.6,0.2-0.9,0.4-0.8,1.1l0.1,0.4L498.9,23.9z"/>
			<path class="st4" d="M500,19.4l2.2-0.2l0.2,1l-7.7,0.4l-0.3-1.4l7.1-2.9l0.2,1l-2.1,0.8L500,19.4z M498.8,18.5
				c-1.4,0.5-2.5,1-3.3,1.2l0,0c0.6-0.1,2.3-0.2,3.5-0.3L498.8,18.5z"/>
			<path class="st4" d="M499.1,15.4l0.4-0.1c0.6-0.1,0.9-0.4,0.8-0.9c-0.1-0.5-0.5-0.6-1.2-0.4c-0.8,0.2-1.1,0.4-1.5,1.3
				c-0.5,0.9-0.8,1.4-1.9,1.6c-1,0.2-2,0.1-2.2-1.2s0.6-1.7,1.4-1.8l0.4-0.1l0.2,1l-0.3,0.1c-0.6,0.1-0.9,0.3-0.8,0.7s0.5,0.5,1,0.4
				c0.6-0.1,0.8-0.3,1.2-1c0.6-1.2,1-1.7,2.2-1.9c1.1-0.2,2.1-0.1,2.4,1.3c0.3,1.3-0.5,1.8-1.5,2l-0.4,0.1L499.1,15.4z"/>
			<path class="st4" d="M493.2,13.3l-0.2-1l6.6-1.1l-0.3-1.9l0.9-0.1l0.5,2.8L493.2,13.3z"/>
			<path class="st4" d="M494.1,6.1l3.6-0.5c1.4-0.2,2.1,0.3,2.3,1.5s-0.5,1.8-1.8,2l-3.6,0.5c-1.4,0.2-2.1-0.4-2.3-1.4
				C492.1,7.1,492.7,6.3,494.1,6.1z M494.4,8.6l3.8-0.6c0.7-0.1,1-0.4,0.9-0.9s-0.4-0.7-1.2-0.6l-3.8,0.6c-0.7,0.1-1,0.4-0.9,0.9
				C493.3,8.5,493.6,8.7,494.4,8.6z"/>
			<path class="st4" d="M499.1,1.2l0.1,0.8c-0.1,0-0.4,0.1-0.6,0.1c0.5,0.1,0.8,0.5,0.8,1c0.1,1.1-0.6,1.5-1.9,1.7l-3.6,0.5
				c-1.2,0.2-2.1-0.2-2.3-1.4c-0.2-1.5,0.9-1.8,1.7-1.9h0.2l0.1,1h-0.3c-0.5,0.1-1,0.2-0.9,0.8c0.1,0.5,0.4,0.6,1.1,0.6l3.9-0.5
				c0.7-0.1,1-0.3,1-0.8c-0.1-0.6-0.6-0.6-1.5-0.5l-1.1,0.1l0.1,0.7L495,3.5l-0.2-1.7L499.1,1.2z"/>
			<path class="st4" d="M493.1-2.5l3.6-0.4c1.4-0.1,2.1,0.4,2.2,1.6c0.1,1.2-0.5,1.8-1.9,1.9L493.3,1c-1.4,0.1-2.1-0.5-2.2-1.6
				C491.1-1.7,491.7-2.4,493.1-2.5z M493.2-0.1l3.8-0.4c0.7-0.1,1-0.4,1-0.8c0-0.5-0.4-0.7-1.1-0.6l-3.8,0.4c-0.7,0.1-1,0.3-1,0.8
				C492.2-0.2,492.5,0,493.2-0.1z"/>
			<path class="st4" d="M494.8-7.9l0.1,1.7l2.6-0.2l-0.1-1.9l0.9,0.1l0.2,2.8l-7.6,0.5l-0.2-2.8l0.9-0.1l0.1,1.8l2.1-0.1l-0.1-1.7
				L494.8-7.9z"/>
			<path class="st4" d="M490.6-10.2l-0.1-2.8h0.9l0.1,1.8l2.2-0.1l-0.1-1.7h0.9l0.1,1.7l3.5-0.1v1L490.6-10.2z"/>
			<path class="st4" d="M495.9-14.5l2.2,0.3v1l-7.6-1.1v-1.4l7.5-1.4v1.1l-2.2,0.4L495.9-14.5z M494.9-15.6
				c-1.4,0.2-2.7,0.4-3.5,0.5l0,0c0.6,0,2.3,0.2,3.5,0.4V-15.6z"/>
			<path class="st4" d="M495.8-21h0.3c0.9,0,2.1,0.2,2,1.7c0,1.4-0.9,1.6-2,1.6h-3.8c-1.2,0-1.9-0.5-1.9-1.7c0-1.4,0.9-1.6,2-1.6
				h0.3v1h-0.4c-0.5,0-0.9,0.1-0.9,0.6s0.3,0.6,0.9,0.6h4c0.6,0,1-0.1,1-0.6s-0.4-0.6-1-0.6h-0.4L495.8-21z"/>
			<path class="st4" d="M495.9-24.9h0.3c0.9,0,2,0.2,2,1.7c0,1.4-0.9,1.6-2.1,1.6l-3.8-0.1c-1.2,0-1.9-0.6-1.9-1.7
				c0-1.4,1-1.6,2-1.6h0.3v1h-0.4c-0.5,0-0.9,0.1-0.9,0.6s0.3,0.6,0.9,0.6l4,0.1c0.6,0,1-0.1,1.1-0.6c0-0.5-0.4-0.6-1-0.6H496
				L495.9-24.9z"/>
			<path class="st4" d="M490.6-26l0.1-1l3,0.2l0.1-1.4l-3-0.2l0.1-1l7.6,0.4l-0.1,1l-3.6-0.2l-0.1,1.4l3.6,0.2l-0.1,1L490.6-26z"/>
			<path class="st4" d="M491-31.6l7.6,0.6l-0.1,1l-7.6-0.6L491-31.6z"/>
			<path class="st4" d="M498.6-32l-7.5-0.7l0.1-1.2c1.2-0.2,5.1-0.8,5.6-0.9l0,0c-1,0-2-0.1-3.3-0.3l-2.3-0.2l0.1-0.9l7.5,0.7
				l-0.1,1.1c-1.1,0.2-5.4,0.8-5.8,0.9l0,0c0.9,0,2,0.1,3.4,0.3l2.3,0.2V-32z"/>
			<path class="st4" d="M497-37.7l2.1,0.6l-0.1,1l-7.4-2.1l0.2-1.4l7.7-0.4l-0.1,1.1l-2.2,0.1L497-37.7z M496.2-38.9
				c-1.5,0-2.7,0.1-3.5,0l0,0c0.6,0.1,2.2,0.5,3.4,0.9L496.2-38.9z"/>
			<path class="st4" d="M500-43.9l-0.1,0.8c-0.1,0-0.4,0-0.6,0c0.5,0.3,0.6,0.7,0.5,1.2c-0.2,1.1-1,1.3-2.2,1.1l-3.6-0.5
				c-1.2-0.2-2-0.8-1.8-2c0.2-1.5,1.3-1.5,2.2-1.4h0.2l-0.1,1h-0.3c-0.4-0.1-1-0.1-1.1,0.5c-0.1,0.5,0.2,0.7,0.9,0.8l3.8,0.6
				c0.7,0.1,1.1,0,1.1-0.5c0.1-0.6-0.4-0.8-1.3-0.9l-1.1-0.2l-0.1,0.7l-0.9-0.1l0.3-1.7L500-43.9z"/>
			<path class="st4" d="M500.7-48l-0.1,0.8c-0.1,0-0.4,0-0.6,0c0.5,0.3,0.6,0.7,0.5,1.2c-0.2,1.1-1,1.3-2.3,1.1l-3.6-0.6
				c-1.2-0.2-2-0.8-1.8-2.1c0.3-1.5,1.3-1.5,2.2-1.3h0.2l-0.2,1h-0.3c-0.4-0.1-1-0.1-1.1,0.5c-0.1,0.5,0.2,0.7,0.9,0.8l3.8,0.7
				c0.7,0.1,1.1,0,1.1-0.5c0.1-0.6-0.4-0.8-1.2-0.9l-1.1-0.2l-0.1,0.7l-0.9-0.2l0.3-1.7L500.7-48z"/>
			<path class="st4" d="M493.7-51.4l7.4,1.4l-0.2,1l-7.4-1.4L493.7-51.4z"/>
			<path class="st4" d="M496.5-55.4l3.6,0.8c1.4,0.3,1.9,1,1.7,2.2c-0.3,1.2-1.1,1.5-2.4,1.2l-3.6-0.8c-1.4-0.3-1.9-1.1-1.6-2.2
				C494.4-55.3,495.2-55.7,496.5-55.4z M495.9-53l3.8,0.8c0.7,0.2,1.1,0,1.2-0.5s-0.1-0.8-0.9-0.9l-3.8-0.8c-0.7-0.1-1.1,0-1.2,0.5
				C494.9-53.5,495.2-53.2,495.9-53z"/>
		</g>
		<g>
			<path class="st4" d="M512.5-94.9l-0.6,1.1l-0.8-0.5l1.7-3l0.8,0.5l-0.6,1l5.7,3.4l-0.5,0.9L512.5-94.9z"/>
			<path class="st4" d="M517.2-96.6l2.9,1.8l-0.5,0.9l-6.4-4l0.8-1.3c0.6-1,1.3-1.3,2.5-0.6l0.3,0.2c0.9,0.6,1,1.1,0.9,1.5
				c0.4-0.3,0.8-0.3,1.7,0.2c0.5,0.3,1.6,1,2,1.2l-0.5,0.8c-0.4-0.2-1.5-0.8-2-1.1c-0.8-0.5-1.1-0.5-1.4,0.1L517.2-96.6z M516.5-97
				l0.2-0.3c0.3-0.6,0.2-0.9-0.5-1.3l-0.2-0.2c-0.5-0.3-0.9-0.4-1.3,0.2l-0.2,0.3L516.5-97z"/>
			<path class="st4" d="M520.5-99.4l1.7,1.5l-0.6,0.9l-5.7-5.2l0.8-1.2l7,3.1l-0.6,0.9l-2-0.9L520.5-99.4z M520.3-100.8
				c-1.3-0.6-2.5-1.1-3.2-1.5l0,0c0.5,0.4,1.7,1.5,2.7,2.3L520.3-100.8z"/>
			<path class="st4" d="M522.7-102.8l0.4,0.3c0.5,0.4,0.9,0.4,1.2,0s0-0.8-0.5-1.1c-0.7-0.5-1-0.5-2-0.2s-1.6,0.4-2.5-0.2
				c-0.8-0.6-1.4-1.4-0.7-2.4c0.7-1.1,1.6-0.8,2.3-0.3l0.3,0.2l-0.6,0.8l-0.3-0.2c-0.5-0.3-0.8-0.4-1.1-0.1c-0.2,0.4,0,0.7,0.4,1
				c0.5,0.3,0.8,0.4,1.6,0.1c1.3-0.4,1.9-0.5,2.9,0.3c0.9,0.6,1.5,1.5,0.7,2.6s-1.7,0.9-2.5,0.3l-0.1-0.3L522.7-102.8z"/>
			<path class="st4" d="M520.2-108.5l0.9-1.3c0.7-0.9,1.5-1.1,2.5-0.3l0.4,0.3c1,0.7,1.4,1.5,0.6,2.7l-0.3,0.4l2.6,1.9l-0.6,0.8
				L520.2-108.5z M523.6-107.3l0.2-0.3c0.5-0.6,0.2-1-0.5-1.5l-0.3-0.2c-0.5-0.3-0.9-0.5-1.3,0l-0.3,0.4L523.6-107.3z"/>
			<path class="st4" d="M526.3-113.5l2.9,2.2c1.1,0.8,1.3,1.7,0.6,2.7s-1.6,0.9-2.7,0.1l-2.9-2.2c-1.1-0.8-1.2-1.8-0.6-2.7
				C524.3-114.3,525.2-114.3,526.3-113.5z M524.7-111.6l3.1,2.3c0.6,0.4,1,0.4,1.3,0.1c0.3-0.4,0.2-0.8-0.4-1.2l-3.1-2.3
				c-0.5-0.4-1-0.5-1.3-0.1C524-112.4,524.1-112,524.7-111.6z"/>
			<path class="st4" d="M529.2-113.7l2.7,2.2l-0.6,0.8l-5.9-4.7l0.9-1.2c0.7-0.9,1.5-1.1,2.5-0.3l0.2,0.2c0.9,0.7,0.9,1.2,0.8,1.6
				c0.4-0.2,0.9-0.2,1.6,0.4c0.5,0.4,1.4,1.2,1.9,1.4l-0.6,0.8c-0.4-0.2-1.4-1-1.8-1.4c-0.7-0.6-1-0.6-1.5-0.1L529.2-113.7z
				 M528.6-114.2l0.2-0.3c0.4-0.5,0.3-0.9-0.3-1.4l-0.2-0.2c-0.5-0.4-0.9-0.5-1.3,0l-0.2,0.3L528.6-114.2z"/>
			<path class="st4" d="M529.3-118.8l-0.8,0.9l-0.7-0.6l2.2-2.6l0.7,0.6l-0.8,0.9l5.1,4.3l-0.7,0.8L529.3-118.8z"/>
			<path class="st4" d="M534.1-122.8l2.7,2.4c1.1,0.9,1.2,1.8,0.4,2.7c-0.8,0.9-1.7,0.8-2.7-0.1l-2.8-2.4c-1-0.9-1.1-1.9-0.4-2.7
				C532.2-123.7,533.1-123.7,534.1-122.8z M532.4-121l2.9,2.6c0.5,0.5,1,0.5,1.3,0.1c0.3-0.4,0.3-0.7-0.3-1.2l-2.9-2.5
				c-0.5-0.5-0.9-0.5-1.3-0.1C531.8-121.9,531.9-121.5,532.4-121z"/>
			<path class="st4" d="M539.2-125.2L538-124l1.9,1.8l1.3-1.4l0.6,0.7l-1.9,2l-5.5-5.1l1.9-2l0.7,0.6l-1.2,1.3l1.6,1.5l1.1-1.2
				L539.2-125.2z"/>
			<path class="st4" d="M544-129.3c-0.9-0.9-2-2.1-2.6-2.7l0,0c0.8,1,2.7,3.6,4,5.5l-0.7,0.7c-1.6-1.2-4.3-3.2-5.4-4.1l0,0
				c0.6,0.6,1.9,1.8,2.8,2.7l2,2l-0.7,0.7l-5.4-5.4l1.1-1.1c1.7,1.2,3.7,2.7,4.5,3.3l0,0c-0.6-0.8-2.1-2.9-3.2-4.6l1-1l5.3,5.4
				l-0.7,0.7L544-129.3z"/>
			<path class="st4" d="M546.1-134.9l2.5,2.7c1,1,1,1.9,0.1,2.8c-0.9,0.8-1.7,0.6-2.7-0.3l-2.5-2.7c-0.9-1-0.9-2-0.1-2.7
				C544.2-136,545.1-135.9,546.1-134.9z M544.2-133.3l2.6,2.8c0.5,0.5,0.9,0.6,1.2,0.3c0.4-0.3,0.3-0.7-0.2-1.3l-2.6-2.8
				c-0.5-0.5-0.9-0.6-1.2-0.3C543.7-134.2,543.7-133.8,544.2-133.3z"/>
			<path class="st4" d="M550.5-131.4l-5-5.7l0.9-0.8c1.1,0.7,4.3,2.9,4.7,3.2l0,0c-0.7-0.7-1.4-1.5-2.2-2.4l-1.5-1.7l0.7-0.6l5,5.7
				l-0.8,0.7c-1-0.6-4.5-3.1-4.9-3.3l0,0c0.6,0.7,1.4,1.5,2.3,2.5l1.6,1.8L550.5-131.4z"/>
			<path class="st4" d="M550.2-139.9l-0.9,0.8l-0.6-0.7l2.6-2.2l0.6,0.7l-0.9,0.8l4.3,5.1l-0.8,0.7L550.2-139.9z"/>
			<path class="st4" d="M555.6-138.6l1.1,1.9l-0.8,0.6l-3.8-6.7l1.1-0.9l5.8,5.1l-0.8,0.7l-1.6-1.5L555.6-138.6z M555.8-140
				c-1.1-1-2-1.8-2.6-2.4l0,0c0.4,0.5,1.2,1.9,1.8,3L555.8-140z"/>
			<path class="st4" d="M562.1-140.9l-0.6,0.5c-0.1-0.1-0.3-0.3-0.4-0.4c0.2,0.5-0.1,1-0.5,1.3c-0.9,0.7-1.6,0.2-2.4-0.7l-2.2-3.1
				c-0.8-1-0.9-2,0.1-2.7c1.2-0.9,2-0.2,2.5,0.5l0.1,0.2l-0.8,0.6l-0.2-0.2c-0.3-0.4-0.6-0.7-1.1-0.4c-0.4,0.3-0.4,0.7,0.1,1.2
				l2.4,3.1c0.4,0.5,0.8,0.7,1.2,0.4c0.5-0.4,0.2-0.8-0.3-1.5l-0.7-0.9l-0.6,0.4l-0.5-0.7l1.4-1.1L562.1-140.9z"/>
			<path class="st4" d="M565.5-143.4l-0.7,0.4c-0.1-0.1-0.3-0.3-0.4-0.5c0.1,0.5-0.1,1-0.5,1.2c-0.9,0.6-1.6,0.2-2.4-0.8l-2.2-3
				c-0.7-1-0.8-2,0.2-2.7c1.2-0.9,2-0.1,2.5,0.6l0.1,0.2l-0.8,0.6l-0.2-0.2c-0.3-0.4-0.6-0.8-1.1-0.4c-0.4,0.3-0.4,0.7,0,1.2
				l2.3,3.1c0.4,0.5,0.8,0.7,1.2,0.5c0.5-0.3,0.3-0.8-0.2-1.5l-0.7-0.9l-0.6,0.4l-0.5-0.7l1.4-1L565.5-143.4z"/>
			<path class="st4" d="M562.8-150.8l4.3,6.2l-0.8,0.6l-4.3-6.2L562.8-150.8z"/>
			<path class="st4" d="M567.6-151.7l2,3c0.8,1.2,0.7,2.1-0.3,2.7c-1,0.7-1.8,0.4-2.6-0.8l-2-3.1c-0.8-1.1-0.6-2.1,0.3-2.7
				C565.9-153,566.8-152.8,567.6-151.7z M565.5-150.4l2.2,3.2c0.4,0.6,0.8,0.7,1.2,0.5c0.4-0.3,0.4-0.7,0-1.3l-2.1-3.2
				c-0.4-0.6-0.8-0.7-1.2-0.5C565.1-151.4,565.1-151,565.5-150.4z"/>
		</g>
		<g>
			<path class="st4" d="M619.7-167.3l0.1,0.4c0.1,0.6,0.4,0.9,0.9,0.8c0.5-0.1,0.6-0.5,0.4-1.2c-0.2-0.8-0.4-1.1-1.3-1.6
				c-0.9-0.5-1.4-0.8-1.6-1.9c-0.2-1-0.1-2,1.2-2.2c1.3-0.2,1.7,0.6,1.8,1.5l0.1,0.4l-1,0.2l-0.1-0.3c-0.1-0.6-0.3-0.9-0.7-0.8
				c-0.4,0.1-0.5,0.5-0.4,1c0.1,0.6,0.3,0.8,1,1.2c1.2,0.6,1.7,1,1.9,2.2c0.2,1.1,0,2.1-1.3,2.3c-1.3,0.2-1.8-0.5-2-1.5l-0.1-0.4
				L619.7-167.3z"/>
			<path class="st4" d="M621.9-173.2l1.5-0.3c1.2-0.2,1.8,0.3,2,1.6l0.1,0.4c0.2,1.2-0.1,2.1-1.5,2.3l-0.5,0.1l0.5,3.2l-1,0.2
				L621.9-173.2z M623.5-169.9l0.4-0.1c0.8-0.1,0.8-0.6,0.7-1.4l-0.1-0.4c-0.1-0.6-0.3-1-1-0.9l-0.5,0.1L623.5-169.9z"/>
			<path class="st4" d="M629.2-170.3l-1.7,0.2l0.4,2.6l1.9-0.3v0.9l-2.8,0.4l-1.1-7.5l2.8-0.4l0.1,0.9l-1.8,0.2l0.3,2.1l1.7-0.2
				L629.2-170.3z"/>
			<path class="st4" d="M629.6-174.4l1.5-0.2c1.6-0.2,2,0.7,2.2,2l0.3,2.9c0.1,1.2,0.1,2.4-1.7,2.6l-1.5,0.2L629.6-174.4z
				 M631.4-167.8h0.4c0.8-0.1,0.9-0.6,0.8-1.5l-0.4-3.2c-0.1-0.8-0.3-1.2-1.1-1.1h-0.4L631.4-167.8z"/>
			<path class="st4" d="M635.1-175l0.7,7.5l-1,0.1l-0.7-7.5L635.1-175z"/>
			<path class="st4" d="M636.4-168.2l1.7-6.1l-2,0.2L636-175l3.1-0.3l0.1,0.8l-1.6,6l2.2-0.2l-0.1,0.9l-3.2,0.3L636.4-168.2z"/>
			<path class="st4" d="M640.8-175.4l0.5,7.6l-1,0.1l-0.5-7.6L640.8-175.4z"/>
			<path class="st4" d="M645.5-173.7l0.2,3.6c0.1,1.4-0.5,2.1-1.7,2.2c-1.2,0.1-1.7-0.6-1.8-2l-0.2-3.7c-0.1-1.4,0.6-2.1,1.7-2.1
				C644.8-175.8,645.4-175.1,645.5-173.7z M643-173.7l0.2,3.9c0,0.7,0.3,1,0.8,1s0.7-0.3,0.7-1.1l-0.2-3.8c0-0.7-0.3-1-0.8-1
				C643.2-174.8,642.9-174.4,643-173.7z"/>
			<path class="st4" d="M646.6-168.1l-0.2-7.6h1.2c0.4,1.2,1.4,5,1.5,5.5l0,0c-0.1-1-0.1-2-0.1-3.3v-2.3h0.9l0.2,7.6H649
				c-0.3-1.1-1.5-5.3-1.6-5.7l0,0c0.1,0.9,0.1,2,0.1,3.4l0.1,2.3L646.6-168.1z"/>
			<path class="st4" d="M652.1-175.8v7.6h-1v-7.6H652.1z"/>
			<path class="st4" d="M654.6-168.2l0.2-7.6h1.2c0.3,1.2,1.2,5.1,1.3,5.6l0,0c0-1,0-2,0-3.3l0.1-2.3h0.9l-0.2,7.6H657
				c-0.3-1.1-1.2-5.3-1.3-5.8l0,0c0,0.9,0,2,0,3.4l-0.1,2.3L654.6-168.2z"/>
			<path class="st4" d="M660.2-170.2l-0.4,2.2l-1-0.1l1.6-7.5l1.4,0.1l0.9,7.6l-1.1-0.1l-0.2-2.2H660.2z M661.3-171.1
				c-0.1-1.5-0.2-2.7-0.3-3.5l0,0c-0.1,0.6-0.4,2.2-0.6,3.5H661.3z"/>
			<path class="st4" d="M663.1-168.5l2.6-5.8l-2-0.2l0.1-0.9l3.1,0.2l-0.1,0.8l-2.6,5.7l2.2,0.2l-0.2,0.9l-3.2-0.2L663.1-168.5z"/>
			<path class="st4" d="M668.7-175l-0.7,7.5l-1-0.1l0.7-7.5L668.7-175z"/>
			<path class="st4" d="M672.9-172.6l-0.4,3.6c-0.2,1.4-0.8,2-2,1.9c-1.2-0.1-1.6-0.9-1.5-2.2l0.4-3.7c0.2-1.4,0.9-2,2-1.8
				C672.6-174.7,673.1-173.9,672.9-172.6z M670.5-172.9l-0.4,3.8c-0.1,0.7,0.1,1.1,0.6,1.1c0.5,0.1,0.8-0.2,0.8-1l0.4-3.8
				c0.1-0.7-0.1-1.1-0.6-1.1C670.8-174,670.5-173.7,670.5-172.9z"/>
			<path class="st4" d="M673.2-166.9l1-7.5l1.2,0.2c0.2,1.2,0.6,5.2,0.6,5.7l0,0c0.1-1,0.2-2,0.4-3.3l0.3-2.2l0.9,0.1l-1,7.5
				l-1.1-0.2c-0.1-1.2-0.6-5.4-0.7-5.9l0,0c-0.1,0.9-0.2,2-0.4,3.4l-0.3,2.3L673.2-166.9z"/>
			<path class="st4" d="M678.9-168.3l-0.7,2.1l-1-0.2l2.5-7.3l1.4,0.2v7.7l-1-0.2v-2.2L678.9-168.3z M680.1-169
				c0-1.5,0.1-2.7,0.1-3.5l0,0c-0.1,0.6-0.6,2.2-1,3.4L680.1-169z"/>
			<path class="st4" d="M683-173l1,0.2l-1.2,6.6l1.9,0.4l-0.3,0.9l-2.8-0.5L683-173z"/>
			<path class="st4" d="M687.5-172.1l-1.5,7.4l-1-0.2l1.5-7.4L687.5-172.1z"/>
		</g>
		<g>
			<path class="st4" d="M737.7-144.7l-1.5,1.6l-0.8-0.6l5.3-5.5l1.2,0.8l-3.3,7l-0.9-0.6l1-2L737.7-144.7z M739.2-144.9
				c0.7-1.3,1.2-2.4,1.6-3.1l0,0c-0.4,0.5-1.5,1.7-2.4,2.6L739.2-144.9z"/>
			<path class="st4" d="M743.5-147.2l0.8,0.6l-3.9,5.4l1.5,1.1l-0.6,0.7l-2.3-1.7L743.5-147.2z"/>
			<path class="st4" d="M746.4-145.1l0.8,0.6l-4,5.3l1.5,1.1l-0.6,0.7l-2.3-1.7L746.4-145.1z"/>
			<path class="st4" d="M748.8-138.2l-1.3-1l-1.6,2.1l1.5,1.2l-0.7,0.7l-2.2-1.7l4.7-5.9l2.2,1.7l-0.6,0.7l-1.4-1.1L748-140l1.3,1
				L748.8-138.2z"/>
			<path class="st4" d="M749.3-136l-0.3,0.4c-0.4,0.5-0.5,0.9-0.1,1.2c0.4,0.3,0.8,0.1,1.2-0.4c0.5-0.7,0.6-1,0.4-2
				s-0.3-1.6,0.4-2.5c0.6-0.8,1.5-1.3,2.5-0.5s0.6,1.7,0.1,2.3l-0.2,0.3l-0.8-0.6l0.2-0.3c0.4-0.4,0.5-0.8,0.2-1.1s-0.7-0.1-1,0.4
				c-0.4,0.5-0.5,0.7-0.3,1.6c0.3,1.3,0.3,1.9-0.5,2.9c-0.7,0.8-1.6,1.4-2.6,0.5c-1-0.8-0.7-1.7-0.1-2.5l0.3-0.3L749.3-136z"/>
			<path class="st4" d="M755.1-136.9l-0.9-0.8l0.6-0.7l2.6,2.3l-0.6,0.7l-0.9-0.8l-4.3,5l-0.8-0.7L755.1-136.9z"/>
			<path class="st4" d="M758.7-135.1l-5,5.7l-0.8-0.7l5-5.7L758.7-135.1z"/>
			<path class="st4" d="M759.2-128.3c0.9-1,2-2.1,2.6-2.7l0,0c-1,0.8-3.5,2.8-5.3,4.2l-0.7-0.7c1.1-1.6,3.1-4.4,3.9-5.5l0,0
				c-0.6,0.7-1.7,1.9-2.6,2.9l-1.9,2l-0.7-0.6l5.2-5.5l1.1,1c-1.2,1.7-2.5,3.8-3.1,4.6l0,0c0.8-0.7,2.9-2.2,4.4-3.4l1.1,1l-5.2,5.5
				l-0.7-0.7L759.2-128.3z"/>
			<path class="st4" d="M763-125.4l-1.2-1.2l-1.8,1.9l1.4,1.3l-0.7,0.6l-2-2l5.3-5.4l2,2l-0.7,0.7l-1.3-1.2l-1.5,1.5l1.2,1.2
				L763-125.4z"/>
			<path class="st4" d="M761.1-122.4l5.4-5.3l0.8,0.9c-0.6,1.1-2.7,4.5-3,4.9l0,0c0.7-0.7,1.4-1.5,2.3-2.3l1.6-1.6l0.7,0.7l-5.4,5.3
				l-0.8-0.8c0.6-1,2.9-4.6,3.1-5l0,0c-0.6,0.7-1.4,1.4-2.4,2.4l-1.7,1.6L761.1-122.4z"/>
			<path class="st4" d="M769.5-123.1l-0.8-0.9l0.7-0.6l2.3,2.5l-0.7,0.6l-0.8-0.9l-4.9,4.5l-0.7-0.7L769.5-123.1z"/>
			<path class="st4" d="M772.9-117.8l-2.7,2.4c-1.1,0.9-1.9,0.9-2.8,0c-0.8-0.9-0.6-1.8,0.4-2.6l2.8-2.4c1-0.9,2-0.9,2.7,0
				C774.1-119.6,773.9-118.7,772.9-117.8z M771.4-119.7l-2.9,2.5c-0.5,0.5-0.6,0.9-0.3,1.2c0.3,0.4,0.7,0.3,1.3-0.2l2.9-2.5
				c0.5-0.5,0.6-0.9,0.3-1.2C772.3-120.2,771.9-120.2,771.4-119.7z"/>
			<path class="st4" d="M776.1-117.1l1.8,2.2l-0.7,0.6l-1.1-1.4l-1.7,1.4l1.1,1.3l-0.7,0.6l-1.1-1.3l-2.7,2.2l-0.6-0.8L776.1-117.1z
				"/>
			<path class="st4" d="M779-113.5l-5.9,4.7l-0.6-0.8l5.9-4.7L779-113.5z"/>
			<path class="st4" d="M778.2-108l-1-1.3l-2.1,1.6l1.2,1.5l-0.8,0.5l-1.7-2.2l6-4.6l1.7,2.2l-0.7,0.6l-1.1-1.4l-1.7,1.3l1,1.3
				L778.2-108z"/>
			<path class="st4" d="M779.2-106.4l-2.8,2l-0.6-0.8l6.1-4.5l0.9,1.2c0.7,0.9,0.7,1.7-0.4,2.5l-0.3,0.2c-0.9,0.7-1.4,0.5-1.7,0.3
				c0.1,0.5,0,0.9-0.8,1.5c-0.5,0.4-1.5,1.1-1.8,1.4l-0.6-0.8c0.3-0.4,1.3-1.1,1.8-1.4c0.8-0.6,0.9-0.8,0.5-1.4L779.2-106.4z
				 M779.9-106.9l0.2,0.3c0.4,0.5,0.8,0.5,1.4,0l0.2-0.2c0.5-0.4,0.7-0.7,0.3-1.3l-0.2-0.3L779.9-106.9z"/>
			<path class="st4" d="M782.7-101.7l-1-1.4l-2.1,1.5l1.1,1.6l-0.8,0.4l-1.6-2.3l6.2-4.3l1.6,2.3l-0.8,0.5l-1-1.5l-1.8,1.2l1,1.4
				L782.7-101.7z"/>
		</g>
		<g>
			<path class="st4" d="M805.8-60.3l0.3,1l-6.4,1.7l0.5,1.8l-0.9,0.1l-0.7-2.7L805.8-60.3z"/>
			<path class="st4" d="M805.6-53.1l-3.5,0.9c-1.4,0.3-2.2-0.1-2.5-1.3c-0.3-1.2,0.3-1.8,1.6-2.2l3.6-0.9c1.3-0.3,2.1,0.2,2.4,1.2
				C807.5-54.2,806.9-53.4,805.6-53.1z M805.1-55.5l-3.7,0.9c-0.7,0.2-0.9,0.5-0.8,0.9c0.1,0.5,0.5,0.6,1.2,0.4l3.7-0.9
				c0.7-0.2,1-0.5,0.8-1C806.2-55.6,805.8-55.7,805.1-55.5z"/>
			<path class="st4" d="M801.1-47.7l-0.2-0.8c0.1-0.1,0.4-0.1,0.6-0.2c-0.6-0.1-0.8-0.5-0.9-1c-0.2-1.1,0.5-1.6,1.7-1.8l3.6-0.8
				c1.2-0.3,2.1,0,2.4,1.2c0.3,1.4-0.7,1.9-1.5,2.1h-0.2l-0.2-1l0.3-0.1c0.4-0.1,0.9-0.3,0.8-0.9c-0.1-0.5-0.4-0.6-1.1-0.4l-3.8,0.8
				c-0.7,0.1-1,0.4-0.9,0.9c0.1,0.6,0.7,0.6,1.5,0.4l1.1-0.2l-0.2-0.7l0.9-0.2l0.4,1.7L801.1-47.7z"/>
			<path class="st4" d="M808.9-47.3l-7.4,1.5l-0.2-1l7.4-1.5L808.9-47.3z"/>
			<path class="st4" d="M803.9-44.5l-0.4,0.1c-0.6,0.1-0.9,0.4-0.8,0.8c0.1,0.5,0.5,0.6,1.1,0.4c0.8-0.2,1.1-0.4,1.6-1.3
				c0.5-0.9,0.8-1.4,1.9-1.6c1-0.2,2-0.1,2.2,1.2c0.2,1.3-0.6,1.7-1.5,1.8l-0.4,0.1l-0.2-1l0.3-0.1c0.6-0.1,0.9-0.3,0.8-0.7
				s-0.5-0.5-1-0.4c-0.6,0.1-0.8,0.3-1.2,1c-0.6,1.2-1,1.6-2.3,1.9c-1.1,0.2-2.1,0-2.3-1.3s0.5-1.8,1.5-2l0.4-0.1L803.9-44.5z"/>
			<path class="st4" d="M809-41.4l-0.2-1.2l0.9-0.1l0.5,3.4l-0.9,0.1l-0.2-1.2l-6.6,1.1l-0.2-1L809-41.4z"/>
			<path class="st4" d="M810.5-37.7l-7.5,1.1l-0.1-1l7.5-1.1L810.5-37.7z"/>
			<path class="st4" d="M805.7-32.8h-0.3c-0.9,0.1-2.1,0.1-2.2-1.4c-0.2-1.4,0.7-1.7,1.8-1.9l3.8-0.5c1.2-0.1,2,0.3,2.1,1.4
				c0.2,1.3-0.7,1.7-1.7,1.8h-0.3l-0.1-1l0.4-0.1c0.5-0.1,0.9-0.2,0.8-0.7c-0.1-0.5-0.4-0.6-1-0.5l-3.9,0.5c-0.6,0.1-1,0.3-1,0.7
				c0.1,0.5,0.5,0.5,1.1,0.5h0.4L805.7-32.8z"/>
			<path class="st4" d="M805.9-31.1l-2.2-0.1l-0.1-1l7.7,0.5l0.1,1.4l-7.4,2l-0.1-1.1L806-30L805.9-31.1z M806.9-30.1
				c1.4-0.4,2.6-0.7,3.4-0.8l0,0c-0.6,0-2.3,0-3.5-0.1L806.9-30.1z"/>
			<path class="st4" d="M807.9-23.8l-0.1-1.7l-2.6,0.2l0.1,1.9l-0.9-0.1l-0.2-2.8l7.6-0.5L812-24l-0.9,0.1l-0.1-1.8l-2.1,0.2
				l0.1,1.7L807.9-23.8z"/>
			<path class="st4" d="M812-21.5l0.1,2.8h-0.9l-0.1-1.8l-2.2,0.1l0.1,1.7h-0.9l-0.1-1.7l-3.5,0.1v-1L812-21.5z"/>
			<path class="st4" d="M808.2-15.1v-1.7h-2.6v1.9l-0.9-0.1l-0.1-2.8l7.6-0.1l0.1,2.8h-0.9v-1.8h-2.1v1.7L808.2-15.1z"/>
			<path class="st4" d="M808.1-13.2h-3.5v-1h7.6v1.5c0,1.1-0.5,1.8-1.8,1.8h-0.3c-1.1,0-1.5-0.4-1.6-0.8c-0.2,0.5-0.5,0.7-1.6,0.7
				c-0.6,0-1.9,0-2.3,0.1v-1c0.5-0.1,1.7-0.1,2.3-0.1c0.9,0,1.2-0.1,1.2-0.8L808.1-13.2z M808.9-13.2v0.4c0,0.7,0.3,0.9,1.1,0.9h0.3
				c0.6,0,1-0.1,1-0.8v-0.4L808.9-13.2z"/>
			<path class="st4" d="M807.5-6.3c1.3,0,2.9,0.1,3.7,0.2l0,0c-1.3-0.2-4.5-0.8-6.7-1.2v-1c2-0.2,5.4-0.6,6.7-0.7l0,0
				c-0.9,0-2.6,0-3.9-0.1l-2.8-0.1v-0.9l7.6,0.2v1.5c-2.1,0.3-4.5,0.6-5.5,0.7l0,0c1,0.2,3.5,0.7,5.5,1.1v1.5l-7.6-0.2v-1H807.5z"/>
			<path class="st4" d="M809.8-0.7l-3.6-0.2c-1.4-0.1-2-0.7-2-1.9c0.1-1.2,0.8-1.7,2.2-1.6l3.7,0.2c1.4,0.1,2,0.8,1.9,1.9
				C811.9-1.2,811.2-0.6,809.8-0.7z M810.1-3.2l-3.9-0.2c-0.7,0-1,0.2-1.1,0.7c0,0.5,0.3,0.7,1,0.8l3.8,0.2c0.7,0,1.1-0.2,1.1-0.7
				C811.1-2.9,810.8-3.1,810.1-3.2z"/>
			<path class="st4" d="M811.6,2l-0.1,1.5c-0.2,1.6-1.1,1.8-2.4,1.7l-2.9-0.3c-1.2-0.1-2.4-0.4-2.2-2.2l0.1-1.5L811.6,2z M804.8,2.4
				v0.4c-0.1,0.8,0.4,1,1.3,1.1l3.2,0.3c0.8,0.1,1.3,0,1.3-0.9V2.9L804.8,2.4z"/>
			<path class="st4" d="M806.8,8.7L807,7l-2.6-0.3l-0.2,1.9l-0.9-0.2l0.3-2.8l7.5,0.9l-0.3,2.8l-0.9-0.1l0.2-1.8L808,7.1l-0.2,1.7
				L806.8,8.7z"/>
			<path class="st4" d="M810.6,10.1l-0.2,1.5c-0.2,1.2-0.8,1.7-2.1,1.5l-0.4-0.1c-1.2-0.2-2-0.7-1.8-2.1l0.1-0.5L803,10l0.1-1
				L810.6,10.1z M807,10.6V11c-0.1,0.8,0.3,1,1.1,1.1l0.4,0.1c0.6,0.1,1.1,0,1.2-0.7l0.1-0.5L807,10.6z"/>
			<path class="st4" d="M807.5,17.3l-3.6-0.6c-1.4-0.2-1.9-0.9-1.7-2.1c0.2-1.2,1-1.6,2.3-1.3l3.6,0.6c1.4,0.2,1.9,1,1.7,2.1
				S808.8,17.6,807.5,17.3z M808,14.9l-3.8-0.7c-0.7-0.1-1.1,0.1-1.1,0.5c-0.1,0.5,0.2,0.8,0.9,0.9l3.8,0.6c0.7,0.1,1.1,0,1.1-0.5
				C809,15.3,808.7,15,808,14.9z"/>
			<path class="st4" d="M803.8,18.4l-0.4-0.1c-0.6-0.1-1,0-1.1,0.5s0.3,0.7,0.9,0.8c0.8,0.2,1.1,0,1.9-0.6c0.8-0.7,1.3-1,2.4-0.8
				c1,0.2,1.9,0.7,1.6,1.9c-0.3,1.3-1.2,1.3-2,1.2l-0.4-0.1l0.2-1l0.3,0.1c0.6,0.1,0.9,0.1,1-0.4c0.1-0.4-0.3-0.6-0.8-0.7
				c-0.6-0.1-0.9-0.1-1.5,0.5c-1,0.9-1.5,1.2-2.8,0.9c-1.1-0.2-2-0.7-1.7-2.1c0.3-1.3,1.2-1.5,2.1-1.3l0.4,0.1L803.8,18.4z"/>
			<path class="st4" d="M808.3,23.6l-7.4-1.6l0.2-1l7.4,1.6L808.3,23.6z"/>
			<path class="st4" d="M806.9,25.2l0.3-1.2l0.9,0.2l-0.8,3.4l-0.9-0.2l0.3-1.2l-6.5-1.5l0.2-1L806.9,25.2z"/>
			<path class="st4" d="M804.5,30.9L801,30c-1.4-0.3-1.9-1.1-1.6-2.3c0.3-1.2,1.1-1.5,2.4-1.1l3.6,0.9c1.3,0.3,1.8,1.2,1.5,2.2
				C806.6,30.9,805.8,31.3,804.5,30.9z M805.2,28.6l-3.7-1c-0.7-0.2-1.1,0-1.2,0.4c-0.1,0.5,0.1,0.8,0.8,1l3.7,1
				c0.7,0.2,1.1,0,1.2-0.4C806.1,29.1,805.9,28.7,805.2,28.6z"/>
		</g>
	</g>
</g>
<g>
	<path class="st6" d="M264.3,212.7c-5,5.3-9.7,8.6-13.4,11.3c-43.8,31.5-95.5,22.3-106.5,20c-16.2-3.3-47.7-9.7-70.4-36.4
		c-34.4-40.5-29-104.2-2.4-146.3c4.9-7.7,30.6-50.4,83-57.3c31.7-4.1,68.6,4.2,95.3,26.7C306,77.8,302,172.9,264.3,212.7z"/>
	<path class="st7" d="M83.3,132c0.6-15.6,1.8-77.5-14-116.7c-1.1-2.8-5.3-3.5-6.6-0.8c-7.5,15.7-32.6,64.4,17.8,118.6
		C81.5,134.1,83.2,133.4,83.3,132z"/>
	<path class="st8" d="M80.8,132.3c-0.1-0.1-0.2-0.2-0.3-0.4c-11.8-30.3-15.4-55-16.4-70.3c-1.1-16.7,0.7-26,0.7-26.4
		c0.1-0.5,0.6-0.8,1.1-0.7c0.5,0.1,0.8,0.6,0.7,1.1c-0.1,0.4-6.8,38.2,15.6,95.8c0.2,0.5-0.1,1-0.5,1.2
		C81.3,132.5,81,132.4,80.8,132.3z"/>
	<path class="st9" d="M95.2,151.8c1.3,1.9,4.1,1.9,5.4,0c7.1-10.5,24.4-42,11.7-83.9C101.5,32.6,99,12.4,98.5,3.2
		c-0.1-2-2.6-2.6-3.7-1C83,20.2,49.1,82.5,95.2,151.8z"/>
	<path class="st10" d="M98.1,151c-0.3-0.2-0.5-0.6-0.4-0.9c0.1-0.6,8.3-55.7-4.3-105.1c-0.1-0.5,0.2-1,0.7-1.1
		c0.5-0.1,1,0.2,1.1,0.7c12.7,49.8,4.5,105.3,4.4,105.9c-0.1,0.5-0.6,0.9-1.1,0.8C98.3,151.1,98.2,151.1,98.1,151z"/>
	<g>
		
			<ellipse transform="matrix(4.385844e-02 -0.999 0.999 4.385844e-02 59.0156 268.4187)" class="st11" cx="169.7" cy="103.4" rx="94" ry="101.5"/>
		<ellipse class="st12" cx="164.2" cy="96.6" rx="79.6" ry="75.2"/>
		<g class="st13">
			<path class="st4" d="M195.7,103.8c0,16.6-1.2,33.2-4.1,49.5c-0.7,4.1-1.6,8.1-2.6,12.2c-1,4-2.2,8-3.7,11.9
				c-1.5,3.9-3.2,7.7-5.5,11.2c-1.2,1.7-2.5,3.4-4.1,4.8c-0.8,0.7-1.7,1.3-2.7,1.7c-1,0.4-2,0.7-3.1,0.7c-1.1,0-2.2-0.2-3.2-0.6
				c-1-0.4-1.9-1-2.7-1.6c-1.7-1.3-3-3-4.2-4.7c-2.3-3.5-4.1-7.3-5.5-11.2c-1.5-3.9-2.7-7.9-3.7-11.9c-1-4-1.9-8.1-2.6-12.2
				c-1.5-8.2-2.5-16.4-3.2-24.7c-0.7-8.3-1-16.6-1.1-24.9c0-4.1,0.1-8.3,0.2-12.4c0.2-4.1,0.4-8.3,0.7-12.4
				c0.6-8.3,1.5-16.5,2.9-24.7c0.7-4.1,1.5-8.2,2.4-12.2c1-4,2.1-8,3.5-12c0.7-2,1.5-3.9,2.3-5.8c0.9-1.9,1.8-3.7,3-5.5
				c1.1-1.7,2.5-3.4,4.1-4.7c0.8-0.7,1.7-1.2,2.7-1.6c1-0.4,2-0.6,3.1-0.6c1.1,0,2.1,0.3,3.1,0.7c1,0.4,1.9,1,2.7,1.7
				c1.6,1.3,3,2.9,4.2,4.6c2.4,3.4,4.2,7.2,5.7,11.1c1.5,3.9,2.8,7.8,3.9,11.8c1.1,4,2,8,2.9,12.1
				C194.3,70.6,195.6,87.3,195.7,103.8z M194.4,103.8c0-8.3-0.3-16.5-1-24.8c-0.7-8.2-1.7-16.4-3.2-24.6c-0.8-4.1-1.7-8.1-2.7-12.1
				c-1.1-4-2.3-7.9-3.8-11.8c-1.5-3.8-3.2-7.6-5.6-11c-1.2-1.7-2.5-3.3-4-4.6c-0.8-0.6-1.6-1.2-2.6-1.6c-0.9-0.4-1.9-0.7-2.9-0.7
				c-1,0-2,0.2-3,0.6c-0.9,0.4-1.8,0.9-2.6,1.6c-1.6,1.3-2.8,2.9-3.9,4.7c-1.1,1.7-2,3.6-2.9,5.4c-0.8,1.9-1.6,3.8-2.2,5.8
				c-1.3,3.9-2.4,7.9-3.3,11.9c-0.9,4-1.7,8.1-2.3,12.2c-1.3,8.2-2.1,16.4-2.6,24.6c-0.5,8.2-0.7,16.5-0.7,24.8
				c0,8.3,0.3,16.5,0.9,24.8c0.6,8.2,1.6,16.5,3,24.6c0.7,4.1,1.5,8.1,2.5,12.1c1,4,2.2,8,3.6,11.8c1.4,3.9,3.1,7.6,5.4,11.1
				c1.1,1.7,2.4,3.3,4,4.6c0.8,0.6,1.6,1.2,2.6,1.6c0.9,0.4,1.9,0.6,2.9,0.6c1,0,2-0.3,2.9-0.7c0.9-0.4,1.7-1,2.5-1.6
				c1.5-1.3,2.8-2.9,3.9-4.7c2.2-3.4,3.9-7.2,5.3-11.1c1.4-3.9,2.5-7.8,3.5-11.8c1-4,1.8-8.1,2.5-12.1c1.4-8.1,2.3-16.4,3-24.6
				C194.1,120.4,194.4,112.1,194.4,103.8z"/>
			<path class="st4" d="M237.5,103.8c-0.1,10.7-1.4,21.4-4.3,31.7c-2.9,10.3-7.3,20.2-13.2,29c-3,4.4-6.3,8.6-10.1,12.4
				c-3.8,3.8-7.9,7.2-12.5,10c-4.5,2.8-9.4,5.1-14.5,6.6c-5.1,1.5-10.5,2.3-15.8,2.4c-5.3,0-10.7-0.8-15.8-2.3
				c-5.1-1.5-10-3.8-14.5-6.6c-4.5-2.8-8.7-6.2-12.5-10c-3.8-3.8-7.2-8-10.1-12.4c-6-8.9-10.4-18.8-13.3-29
				c-1.4-5.1-2.5-10.4-3.2-15.7c-0.7-5.3-1.1-10.6-1.1-16c0-5.3,0.4-10.7,1.1-16c0.7-5.3,1.8-10.5,3.2-15.7
				c2.9-10.3,7.3-20.2,13.3-29c3-4.4,6.4-8.6,10.1-12.4c3.8-3.8,7.9-7.2,12.5-10c4.5-2.8,9.4-5.1,14.5-6.6
				c5.1-1.5,10.4-2.3,15.8-2.3c5.3,0,10.7,0.8,15.8,2.4c5.1,1.5,10,3.8,14.5,6.6c4.5,2.8,8.7,6.2,12.4,10c3.8,3.8,7.1,7.9,10.1,12.4
				c6,8.9,10.3,18.7,13.3,29C236,82.5,237.4,93.2,237.5,103.8z M236.1,103.8c0-10.6-1.3-21.1-4.1-31.3c-2.8-10.2-7-20-12.8-28.8
				c-2.9-4.4-6.2-8.6-9.9-12.3c-3.7-3.8-7.8-7.2-12.2-10c-4.5-2.8-9.3-5.1-14.3-6.6c-5.1-1.5-10.3-2.3-15.6-2.4
				c-5.3,0-10.6,0.8-15.6,2.4c-5.1,1.5-9.9,3.8-14.3,6.6c-4.5,2.8-8.5,6.3-12.2,10c-3.7,3.8-7,7.9-9.9,12.4
				c-5.8,8.8-10,18.6-12.8,28.8c-1.4,5.1-2.4,10.3-3.1,15.5c-0.7,5.2-1,10.5-1,15.8c0,5.3,0.4,10.5,1,15.8
				c0.7,5.2,1.7,10.4,3.1,15.5c2.8,10.2,7,20,12.8,28.8c2.9,4.4,6.2,8.6,9.9,12.3c3.7,3.8,7.8,7.2,12.2,10c4.5,2.8,9.3,5.1,14.3,6.6
				c5,1.5,10.3,2.4,15.6,2.4c5.3,0,10.5-0.8,15.6-2.4c5-1.5,9.9-3.8,14.3-6.6c4.5-2.8,8.5-6.2,12.2-10c3.7-3.8,7-7.9,9.9-12.3
				c5.8-8.8,10-18.6,12.8-28.8C234.7,125,236.1,114.4,236.1,103.8z"/>
			<path class="st4" d="M84.9,67.6C84.8,67.6,84.8,67.5,84.9,67.6c-0.1-0.1-0.1-0.2,0-0.2l21.1-0.2l21.1-0.1l42.3-0.1l42.3,0.1
				l21.1,0.1l21.1,0.2c0,0,0.1,0,0.1,0.1c0,0,0,0.1-0.1,0.1l-21.1,0.2l-21.1,0.1l-42.3,0.1l-42.3-0.1L106,67.7L84.9,67.6z"/>
			<path class="st4" d="M109.3,32.1C109.3,32,109.4,32,109.3,32.1c5.1-0.2,10.1-0.2,15.1-0.3l15-0.1c5,0,10,0,15,0l15,0l30,0.1
				l15,0.1c5,0.1,10,0.1,15,0.2c0,0,0.1,0,0.1,0.1c0,0,0,0.1-0.1,0.1c-5,0.1-10,0.1-15,0.2l-15,0.1l-30,0.1l-15,0c-5,0-10,0-15,0
				l-15-0.1C119.4,32.3,114.4,32.2,109.3,32.1C109.4,32.2,109.3,32.1,109.3,32.1z"/>
			<path class="st4" d="M77.5,103C77.5,103,77.5,103,77.5,103c-0.1-0.1-0.1-0.2,0-0.2l23-0.2l23-0.1l46-0.1l46,0.1l23,0.1l23,0.2
				c0,0,0.1,0,0.1,0.1c0,0,0,0.1-0.1,0.1l-23,0.2l-23,0.1l-46,0.1l-46-0.1l-23-0.1L77.5,103z"/>
			<path class="st4" d="M84.9,138.2l21.1-0.2l21.1-0.1l42.3-0.1l42.3,0.1l21.1,0.1l21.1,0.2c0,0,0.1,0,0.1,0.1c0,0,0,0.1-0.1,0.1
				l-21.1,0.2l-21.1,0.1l-42.3,0.1l-42.3-0.1l-21.1-0.1l-21.1-0.2C84.8,138.4,84.8,138.4,84.9,138.2
				C84.8,138.3,84.8,138.2,84.9,138.2z"/>
			<path class="st4" d="M232.9,173.7c0,0.2-0.1,0.3-0.3,0.3H112.5c-0.2,0-0.3-0.1-0.3-0.3c0-0.2,0.1-0.3,0.3-0.3h120.1
				C232.7,173.4,232.9,173.6,232.9,173.7z"/>
		</g>
	</g>
	<g>
		<path class="st4" d="M87.5,87c-0.1,0-0.2,0-0.3-0.1c-0.5-0.2-0.8-0.8-0.6-1.3c0.1-0.4,0.3-0.8,0.4-1.2c0.2-0.5,0.8-0.8,1.3-0.6
			c0.5,0.2,0.8,0.8,0.6,1.3c-0.1,0.4-0.3,0.8-0.4,1.1C88.4,86.8,88,87,87.5,87z M89.4,82.3c-0.1,0-0.3,0-0.4-0.1
			c-0.5-0.2-0.8-0.8-0.5-1.4c0.2-0.4,0.3-0.8,0.5-1.1c0.2-0.5,0.9-0.7,1.4-0.5c0.5,0.2,0.7,0.9,0.5,1.4c-0.2,0.4-0.3,0.7-0.5,1.1
			C90.2,82,89.8,82.3,89.4,82.3z M91.7,77.7c-0.2,0-0.3,0-0.5-0.1c-0.5-0.3-0.7-0.9-0.4-1.4c0.2-0.4,0.4-0.7,0.6-1.1
			c0.3-0.5,0.9-0.7,1.4-0.4c0.5,0.3,0.7,0.9,0.4,1.4c-0.2,0.3-0.4,0.7-0.6,1C92.4,77.5,92,77.7,91.7,77.7z M94.3,73.3
			c-0.2,0-0.4-0.1-0.6-0.2c-0.5-0.3-0.6-1-0.3-1.4c0.2-0.3,0.5-0.7,0.7-1c0.3-0.5,1-0.6,1.4-0.3c0.5,0.3,0.6,1,0.3,1.4
			c-0.2,0.3-0.4,0.7-0.7,1C95,73.1,94.7,73.3,94.3,73.3z M97.3,69.1c-0.2,0-0.4-0.1-0.6-0.2c-0.5-0.3-0.5-1-0.2-1.4
			c0.3-0.3,0.5-0.7,0.8-1c0.4-0.4,1-0.5,1.4-0.2c0.4,0.4,0.5,1,0.2,1.4c-0.2,0.3-0.5,0.6-0.7,0.9C97.9,69,97.6,69.1,97.3,69.1z
			 M100.6,65.1c-0.2,0-0.5-0.1-0.7-0.3c-0.4-0.4-0.5-1-0.1-1.5c0.3-0.3,0.5-0.6,0.8-0.9c0.4-0.4,1-0.5,1.5-0.1
			c0.4,0.4,0.5,1,0.1,1.5c-0.3,0.3-0.5,0.6-0.8,0.9C101.1,65,100.8,65.1,100.6,65.1z M104.1,61.4c-0.3,0-0.5-0.1-0.7-0.3
			c-0.4-0.4-0.4-1.1,0-1.5c0.3-0.3,0.6-0.6,0.9-0.9c0.4-0.4,1.1-0.4,1.5,0c0.4,0.4,0.4,1.1,0,1.5c-0.3,0.3-0.6,0.6-0.9,0.9
			C104.6,61.3,104.3,61.4,104.1,61.4z M107.8,57.9c-0.3,0-0.6-0.1-0.8-0.3c-0.4-0.4-0.3-1.1,0.1-1.5c0.3-0.3,0.6-0.5,0.9-0.8
			c0.4-0.4,1.1-0.3,1.5,0.1c0.4,0.4,0.3,1.1-0.1,1.5c-0.3,0.3-0.6,0.5-0.9,0.8C108.3,57.8,108,57.9,107.8,57.9z M111.7,54.5
			c-0.3,0-0.6-0.1-0.8-0.4c-0.4-0.4-0.3-1.1,0.2-1.5c0.3-0.3,0.6-0.5,1-0.8c0.4-0.4,1.1-0.3,1.4,0.2c0.4,0.4,0.3,1.1-0.2,1.4
			c-0.3,0.3-0.6,0.5-0.9,0.8C112.1,54.5,111.9,54.5,111.7,54.5z M115.7,51.4c-0.3,0-0.6-0.1-0.8-0.4c-0.3-0.5-0.2-1.1,0.2-1.4
			c0.3-0.2,0.7-0.5,1-0.7c0.5-0.3,1.1-0.2,1.4,0.2c0.3,0.5,0.2,1.1-0.2,1.4c-0.3,0.2-0.7,0.5-1,0.7
			C116.2,51.3,115.9,51.4,115.7,51.4z M119.9,48.5c-0.3,0-0.7-0.2-0.9-0.5c-0.3-0.5-0.2-1.1,0.3-1.4c0.3-0.2,0.7-0.5,1-0.7
			c0.5-0.3,1.1-0.2,1.4,0.3c0.3,0.5,0.2,1.1-0.3,1.4c-0.3,0.2-0.7,0.4-1,0.7C120.3,48.4,120.1,48.5,119.9,48.5z M124.3,45.7
			c-0.4,0-0.7-0.2-0.9-0.5c-0.3-0.5-0.1-1.1,0.4-1.4c0.4-0.2,0.7-0.4,1.1-0.6c0.5-0.3,1.1-0.1,1.4,0.4c0.3,0.5,0.1,1.1-0.4,1.4
			c-0.3,0.2-0.7,0.4-1,0.6C124.7,45.7,124.5,45.7,124.3,45.7z M128.7,43.2c-0.4,0-0.7-0.2-0.9-0.5c-0.3-0.5-0.1-1.1,0.4-1.4
			c0.4-0.2,0.7-0.4,1.1-0.6c0.5-0.3,1.1-0.1,1.4,0.4c0.3,0.5,0.1,1.1-0.4,1.4c-0.4,0.2-0.7,0.4-1.1,0.6
			C129.1,43.1,128.9,43.2,128.7,43.2z M133.3,40.9c-0.4,0-0.8-0.2-0.9-0.6c-0.2-0.5,0-1.1,0.5-1.4c0.4-0.2,0.7-0.4,1.1-0.5
			c0.5-0.2,1.1,0,1.4,0.5c0.2,0.5,0,1.1-0.5,1.4c-0.4,0.2-0.7,0.3-1.1,0.5C133.6,40.8,133.4,40.9,133.3,40.9z M138,38.7
			c-0.4,0-0.8-0.2-0.9-0.6c-0.2-0.5,0-1.1,0.5-1.4c0.4-0.2,0.8-0.3,1.1-0.5c0.5-0.2,1.1,0,1.4,0.6c0.2,0.5,0,1.1-0.6,1.4
			c-0.4,0.2-0.7,0.3-1.1,0.5C138.2,38.7,138.1,38.7,138,38.7z M142.7,36.8c-0.4,0-0.8-0.3-1-0.7c-0.2-0.5,0.1-1.1,0.6-1.3
			c0.4-0.1,0.8-0.3,1.2-0.4c0.5-0.2,1.1,0.1,1.3,0.6c0.2,0.5-0.1,1.1-0.6,1.3c-0.4,0.1-0.8,0.3-1.1,0.4
			C143,36.8,142.8,36.8,142.7,36.8z M147.5,35.1c-0.4,0-0.8-0.3-1-0.7c-0.2-0.5,0.1-1.1,0.7-1.3c0.4-0.1,0.8-0.3,1.2-0.4
			c0.5-0.2,1.1,0.1,1.3,0.7c0.2,0.5-0.1,1.1-0.7,1.3c-0.4,0.1-0.8,0.2-1.2,0.4C147.8,35.1,147.7,35.1,147.5,35.1z M152.5,33.6
			c-0.5,0-0.9-0.3-1-0.8c-0.2-0.5,0.2-1.1,0.7-1.3c0.4-0.1,0.8-0.2,1.2-0.3c0.6-0.1,1.1,0.2,1.3,0.7c0.1,0.6-0.2,1.1-0.7,1.3
			c-0.4,0.1-0.8,0.2-1.2,0.3C152.6,33.6,152.5,33.6,152.5,33.6z M157.4,32.4c-0.5,0-0.9-0.3-1-0.8c-0.1-0.6,0.2-1.1,0.8-1.2
			c0.4-0.1,0.8-0.2,1.2-0.3c0.6-0.1,1.1,0.2,1.2,0.8c0.1,0.6-0.2,1.1-0.8,1.2c-0.4,0.1-0.8,0.2-1.2,0.2
			C157.6,32.4,157.5,32.4,157.4,32.4z M184.1,31.6c-0.1,0-0.2,0-0.2,0c-0.4-0.1-0.8-0.2-1.2-0.2c-0.6-0.1-0.9-0.6-0.8-1.2
			c0.1-0.6,0.6-0.9,1.2-0.8c0.4,0.1,0.8,0.2,1.2,0.3c0.6,0.1,0.9,0.7,0.8,1.2C185,31.3,184.6,31.6,184.1,31.6z M162.5,31.4
			c-0.5,0-0.9-0.4-1-0.9c-0.1-0.6,0.3-1.1,0.9-1.2c0.4-0.1,0.8-0.1,1.2-0.2c0.6-0.1,1.1,0.3,1.2,0.9c0.1,0.6-0.3,1.1-0.9,1.2
			c-0.4,0.1-0.8,0.1-1.2,0.2C162.6,31.4,162.5,31.4,162.5,31.4z M167.6,30.8c-0.5,0-1-0.4-1-0.9c-0.1-0.6,0.4-1.1,0.9-1.1
			c0.4,0,0.8-0.1,1.2-0.1c0.6,0,1.1,0.4,1.1,1c0,0.6-0.4,1.1-1,1.1C168.5,30.7,168.1,30.8,167.6,30.8
			C167.6,30.8,167.6,30.8,167.6,30.8z M179,30.8c0,0-0.1,0-0.1,0c-0.4,0-0.8-0.1-1.2-0.1c-0.6,0-1-0.5-0.9-1.1c0-0.6,0.5-1,1.1-0.9
			c0.4,0,0.8,0.1,1.2,0.1c0.6,0.1,1,0.6,0.9,1.1C180,30.4,179.6,30.8,179,30.8z M172.7,30.5c-0.6,0-1-0.5-1-1c0-0.6,0.4-1,1-1
			c0.3,0,0.6,0,0.8,0l0.4,0c0.6,0,1,0.5,1,1c0,0.6-0.5,1-1,1c0,0,0,0,0,0l-0.4,0C173.2,30.5,173,30.5,172.7,30.5
			C172.7,30.5,172.7,30.5,172.7,30.5z"/>
		<g>
			<g>
				<g>
					<circle class="st14" cx="86.6" cy="59.2" r="13.7"/>
					<path class="st14" d="M100.2,58.5H86.6H72.9c0,0-1.1,7.6,11.1,28.3c0.5,0.9,1.5,1.4,2.6,1.4c1.1,0,2-0.5,2.6-1.4
						C101.3,66.1,100.2,58.5,100.2,58.5z"/>
				</g>
				<g>
					<path class="st15" d="M86.6,88.7L86.6,88.7L86.6,88.7c-1.2,0.1-2.3-0.6-2.9-1.6C76.6,75,73.9,67.3,73,63c-0.3-1-0.4-2-0.5-2.9
						c-0.1-1,0-1.4,0-1.5l0-0.2c0.6-7.3,6.7-13,14-13c7.5,0,13.6,5.8,14,13.2c0,0.1,0,0.3,0,0.8l0,0.1c0,1.3-0.2,2.7-0.6,3.9
						c-1,4.3-3.6,11.9-10.6,23.8C88.9,88.1,87.8,88.7,86.6,88.7z M73.3,59.1c0,0.2,0,0.5,0,0.9l0,0c0,0.9,0.2,1.8,0.4,2.8l0,0
						c0.9,4.2,3.5,11.8,10.6,23.9c0.5,0.8,1.3,1.3,2.2,1.3l0,0.4V88c0.8,0,1.8-0.5,2.2-1.3c7-11.9,9.6-19.4,10.5-23.6l0,0
						c0.4-1.2,0.5-2.5,0.5-3.7l-0.1-0.1v0c0-0.4,0.1-0.6,0.1-0.7l0,0c-0.4-7-6.2-12.4-13.2-12.4c-7,0-12.8,5.5-13.2,12.6L73.3,59.1
						L73.3,59.1z"/>
				</g>
				<circle class="st4" cx="86.6" cy="59.2" r="7.9"/>
			</g>
			<g>
				<path class="st4" d="M79.1,51c0,0-0.1,0-0.1,0c0-0.1,0-0.1,0-0.2c2.2-1.9,5-3,8-3c0.1,0,0.1,0.1,0.1,0.1c0,0.1-0.1,0.1-0.1,0.1
					C84.2,48,81.4,49.1,79.1,51C79.2,50.9,79.2,51,79.1,51z"/>
			</g>
			<g>
				<path class="st4" d="M74.9,60.1c-0.1,0-0.1-0.1-0.1-0.1c0-2.3,0.6-4.5,1.8-6.4c0-0.1,0.1-0.1,0.2,0c0.1,0,0.1,0.1,0,0.2
					c-1.2,1.9-1.8,4.1-1.8,6.3C75.1,60.1,75,60.1,74.9,60.1z"/>
			</g>
		</g>
		<g>
			<g>
				<g>
					<circle class="st14" cx="184.1" cy="11.8" r="9.9"/>
					<path class="st14" d="M194,11.2h-9.9h-9.9c0,0-0.8,5.5,8.1,20.6c0.4,0.7,1.1,1.1,1.9,1.1c0.8,0,1.5-0.4,1.9-1
						C194.8,16.8,194,11.2,194,11.2z"/>
				</g>
				<g>
					<path class="st15" d="M184.1,33.3L184.1,33.3L184.1,33.3c-0.9,0.1-1.7-0.4-2.1-1.2c-5.2-8.8-7.1-14.4-7.8-17.5
						c-0.2-0.7-0.3-1.4-0.3-2.1c-0.1-0.7,0-1.1,0-1.1l0-0.2c0.4-5.3,4.8-9.5,10.2-9.5c5.4,0,9.9,4.2,10.2,9.6c0,0.1,0,0.2,0,0.5l0,0
						c0,1-0.1,1.9-0.4,2.9c-0.7,3.1-2.6,8.7-7.7,17.3C185.8,32.8,185,33.3,184.1,33.3z M174.4,11.7c0,0.1,0,0.4,0,0.7l0,0
						c0,0.7,0.1,1.3,0.3,2l0,0c0.7,3.1,2.6,8.6,7.7,17.4c0.3,0.6,0.9,0.9,1.6,0.9l0,0.3v-0.3c0.6,0,1.3-0.4,1.6-0.9
						c5.1-8.6,7-14.1,7.7-17.2l0,0c0.3-0.9,0.3-1.8,0.3-2.7l-0.1,0v0c0-0.3,0-0.4,0-0.5l0,0c-0.3-5.1-4.5-9.1-9.6-9.1
						c-5.1,0-9.3,4-9.6,9.2L174.4,11.7L174.4,11.7z"/>
				</g>
				
					<ellipse transform="matrix(0.9571 -0.2898 0.2898 0.9571 4.4974 53.8617)" class="st4" cx="184.1" cy="11.7" rx="5.7" ry="5.7"/>
			</g>
			<g>
				<path class="st4" d="M178.7,5.8C178.7,5.8,178.6,5.8,178.7,5.8c-0.1-0.1-0.1-0.1-0.1-0.2c1.6-1.4,3.7-2.1,5.8-2.1
					c0.1,0,0.1,0,0.1,0.1c0,0.1,0,0.1-0.1,0.1C182.3,3.6,180.3,4.4,178.7,5.8C178.7,5.8,178.7,5.8,178.7,5.8z"/>
			</g>
			<g>
				<path class="st4" d="M175.6,12.5C175.6,12.5,175.5,12.4,175.6,12.5c-0.1-1.8,0.4-3.4,1.2-4.8c0,0,0.1-0.1,0.1,0
					c0,0,0.1,0.1,0,0.1C176.2,9.1,175.7,10.7,175.6,12.5C175.7,12.4,175.7,12.5,175.6,12.5z"/>
			</g>
		</g>
	</g>
	<g>
		
			<rect x="141.8" y="144" transform="matrix(-1 -1.224647e-16 1.224647e-16 -1 432.7307 292.7147)" class="st16" width="149.1" height="4.7"/>
		
			<rect x="141.8" y="96.8" transform="matrix(-1 -1.224647e-16 1.224647e-16 -1 435.3864 198.1594)" class="st16" width="151.7" height="4.5"/>
		
			<rect x="141.8" y="60.9" transform="matrix(-1 -1.224647e-16 1.224647e-16 -1 433.8877 125.8917)" class="st16" width="150.2" height="4.1"/>
		<path class="st16" d="M140.5,173.7h4.8V32.2c0-2.3-1.8-4.1-4.1-4.1h-0.7V173.7z"/>
		<path class="st16" d="M289.5,184.2h5.2V28.8H294c-2.5,0-4.5,2-4.5,4.5V184.2z"/>
	</g>
	<path class="st14" d="M214,96.7c-2.2,0-4.1-1.8-4.1-4V74.8c0-2.3,1.9-4.3,4.2-4.3c7-0.1,21.6-0.1,33.4,0.9c1.6,0.1,2.9,1.5,2.9,3.1
		l1.1,17.3c0.1,2.3-1.7,4.2-4,4.2L214,96.7z"/>
	<path class="st17" d="M229.1,85.8l4.8,0.5c0.7,0.1,1.3-0.5,1.2-1.2l-1.1-14.4c-2-0.1-4-0.1-6-0.1v14.1
		C228.1,85.2,228.6,85.7,229.1,85.8z"/>
	<path class="st4" d="M231.1,83.3c0,0.3,0.2,0.5,0.5,0.5c0,0,0,0,0,0c0.3,0,0.5-0.2,0.5-0.5l-0.7-12.5c-0.3,0-0.7,0-1,0L231.1,83.3z
		"/>
	<path class="st14" d="M256.4,96.7c-1.9,0-3.5-1.5-3.5-3.4V78c0-2,1.6-3.6,3.6-3.7c6-0.1,18.5-0.1,28.6,0.8c1.4,0.1,2.5,1.3,2.5,2.6
		l1,14.8c0.1,2-1.5,3.6-3.4,3.6L256.4,96.7z"/>
	<path class="st17" d="M269.3,87.3l4.1,0.4c0.6,0.1,1.1-0.4,1-1l-0.9-12.3c-1.7-0.1-3.4-0.1-5.1-0.1v12.1
		C268.5,86.9,268.9,87.3,269.3,87.3z"/>
	<path class="st4" d="M271,85.2c0,0.2,0.2,0.4,0.4,0.4c0,0,0,0,0,0c0.2,0,0.4-0.2,0.4-0.4l-0.6-10.7c-0.3,0-0.6,0-0.8,0L271,85.2z"
		/>
	<path class="st14" d="M195,62.9c-1.4,0-2.5-1.4-2.5-3.2V45.6c0-1.9,1.2-3.4,2.6-3.4c4.3-0.1,13.3-0.1,20.6,0.7
		c1,0.1,1.8,1.2,1.8,2.4l0.7,13.6c0.1,1.8-1.1,3.3-2.5,3.3L195,62.9z"/>
	<path class="st17" d="M206.3,54.2l3.8,0.4c0.5,0.1,1-0.4,0.9-0.9l-0.8-11.3c-1.6-0.1-3.2-0.1-4.7-0.1v11.1
		C205.5,53.8,205.9,54.2,206.3,54.2z"/>
	<path class="st4" d="M207.9,52.3c0,0.2,0.2,0.4,0.4,0.4c0,0,0,0,0,0c0.2,0,0.4-0.2,0.4-0.4l-0.6-9.9c-0.3,0-0.5,0-0.8,0L207.9,52.3
		z"/>
	<path class="st18" d="M224.8,62.4c-1.6,0-2.9-1.6-2.9-3.7V42.4c0-2.2,1.4-3.9,3-3.9c5-0.1,15.5-0.1,24,0.8c1.2,0.1,2.1,1.3,2.1,2.8
		l0.8,15.8c0.1,2.1-1.2,3.8-2.9,3.9L224.8,62.4z"/>
	<path class="st17" d="M237.9,52.4l4.4,0.5c0.6,0.1,1.1-0.4,1.1-1.1l-1-13.2c-1.9-0.1-3.7-0.1-5.5-0.1v12.9
		C237,51.9,237.4,52.3,237.9,52.4z"/>
	<path class="st4" d="M239.7,50.1c0,0.2,0.2,0.4,0.4,0.4c0,0,0,0,0,0c0.2,0,0.4-0.2,0.4-0.5l-0.7-11.5c-0.3,0-0.6,0-0.9,0
		L239.7,50.1z"/>
	<path class="st19" d="M259.4,63.2c-1.6,0-2.9-1.6-2.9-3.7V43.1c0-2.2,1.4-3.9,3-3.9c5-0.1,15.5-0.1,24,0.8c1.2,0.1,2.1,1.3,2.1,2.8
		l0.8,15.8c0.1,2.1-1.2,3.8-2.9,3.9L259.4,63.2z"/>
	<path class="st17" d="M272.5,53.1l4.4,0.5c0.6,0.1,1.1-0.4,1.1-1.1l-1-13.2c-1.9-0.1-3.7-0.1-5.5-0.1v12.9
		C271.6,52.6,272,53.1,272.5,53.1z"/>
	<path class="st4" d="M274.3,50.8c0,0.2,0.2,0.4,0.4,0.4c0,0,0,0,0,0c0.2,0,0.4-0.2,0.4-0.5l-0.7-11.5c-0.3,0-0.6,0-0.9,0
		L274.3,50.8z"/>
	<path class="st18" d="M182.7,144.5c-1.9,0.1-3.5-2.4-3.5-5.4V115c0-3.2,1.6-5.8,3.6-5.8c6-0.1,18.5-0.1,28.6,1.2
		c1.4,0.2,2.5,2,2.5,4.2l1,23.4c0.1,3.1-1.5,5.7-3.4,5.7L182.7,144.5z"/>
	<path class="st17" d="M195.7,122.2l4.1,0.4c0.6,0.1,1.1-0.4,1-1l-0.9-12.3c-1.7-0.1-3.4-0.1-5.1-0.1v12.1
		C194.9,121.7,195.2,122.1,195.7,122.2z"/>
	<path class="st4" d="M197.4,120c0,0.2,0.2,0.4,0.4,0.4c0,0,0,0,0,0c0.2,0,0.4-0.2,0.4-0.4l-0.6-10.7c-0.3,0-0.6,0-0.8,0L197.4,120z
		"/>
	<path class="st19" d="M219.7,144.3c-1.9,0.1-3.5-2.4-3.5-5.4v-24.2c0-3.2,1.6-5.8,3.6-5.8c6-0.1,18.5-0.1,28.6,1.2
		c1.4,0.2,2.5,2,2.5,4.2l1,23.4c0.1,3.1-1.5,5.7-3.4,5.7L219.7,144.3z"/>
	<path class="st17" d="M232.7,121.9l4.1,0.4c0.6,0.1,1.1-0.4,1-1l-0.9-12.3c-1.7-0.1-3.4-0.1-5.1-0.1V121
		C231.8,121.5,232.2,121.9,232.7,121.9z"/>
	<path class="st4" d="M234.4,119.8c0,0.2,0.2,0.4,0.4,0.4c0,0,0,0,0,0c0.2,0,0.4-0.2,0.4-0.4l-0.6-10.7c-0.3,0-0.6,0-0.8,0
		L234.4,119.8z"/>
	<path class="st14" d="M256.8,144.8c-1.9,0.1-3.5-2.7-3.5-6.1v-27c0-3.5,1.6-6.4,3.6-6.5c6-0.1,18.5-0.1,28.6,1.4
		c1.4,0.2,2.5,2.2,2.5,4.7l1,26.1c0.1,3.5-1.5,6.3-3.4,6.4L256.8,144.8z"/>
	<path class="st17" d="M269.7,119.7l4.1,0.5c0.6,0.1,1.1-0.5,1-1.1l-0.9-13.8c-1.7-0.1-3.4-0.1-5.1-0.1v13.5
		C268.9,119.2,269.3,119.7,269.7,119.7z"/>
	<path class="st4" d="M271.4,117.4c0,0.2,0.2,0.4,0.4,0.4c0,0,0,0,0,0c0.2,0,0.4-0.2,0.4-0.5l-0.6-12c-0.3,0-0.6,0-0.8,0
		L271.4,117.4z"/>
	<rect x="120.2" y="201.4" class="st16" width="126.2" height="11.6"/>
	
		<linearGradient id="SVGID_1_" gradientUnits="userSpaceOnUse" x1="1619.7092" y1="208.1486" x2="1633.1158" y2="206.558" gradientTransform="matrix(1 0 0 1 -1508.4775 0)">
		<stop  offset="0" style="stop-color:#CB236D"/>
		<stop  offset="1" style="stop-color:#4C246D"/>
	</linearGradient>
	<path class="st20" d="M121.2,213h-1.7c-1.1,0-2-0.9-2-2v-9.6h3.7V213z"/>
	<path class="st14" d="M245.1,135.2c0-2.8-2.9-5.1-6.1-5.1H119.9c-3.2,0-5.7,2.3-5.7,5.1v62.8c0,2.8,2.5,5.1,5.7,5.1H239
		c3.2,0,6.1-2.4,6.1-5.1V135.2z"/>
	<path class="st14" d="M286.4,180.9l-7.8-24.1c-0.2-0.6-0.8-1-1.4-1c-5.5,0-30.3,0-31.4,0V213h42.5L286.4,180.9z"/>
	<path class="st11" d="M288.5,204.2c-0.4-0.3-0.9-0.4-1.5-0.4l-32.8,0.6l-0.1,9.3l32.7,0.8c1.2,0,2.2-0.6,2.2-1.4v-7.9
		C289,204.9,288.9,204.5,288.5,204.2z"/>
	<g>
		<path class="st11" d="M280.3,179.2l-4.7-18.8c-0.2-0.7-0.8-1.2-1.4-1.2h-18.5c-0.4,0-0.8,0.2-1.1,0.5c-0.3,0.3-0.4,0.7-0.4,1.1
			l0.4,15c0,0.7,0.5,1.3,1.2,1.4l22.8,3.7c0.5,0.1,1-0.1,1.3-0.5C280.3,180.2,280.4,179.7,280.3,179.2z"/>
		<path class="st11" d="M279.4,159.1l-0.2,0c-0.4,0.1-0.8,0.3-1,0.7c-0.2,0.3-0.3,0.8-0.2,1.2l5.2,19.2c0.2,0.7,0.9,1.2,1.7,1.1
			l1.6-0.3L279.4,159.1z"/>
	</g>
	<path class="st21" d="M263.1,184.3c0,0.8-0.6,1.4-1.4,1.4h-5.8c-0.8,0-1.4-0.6-1.4-1.4v-0.7c0-0.8,0.6-1.4,1.4-1.4h5.8
		c0.8,0,1.4,0.6,1.4,1.4V184.3z"/>
	<path class="st16" d="M247.9,138.9c-0.5,0-1.1,0.1-1.5,0.5c-0.4,0.3-0.7,0.8-0.7,1.3v15.1h19.2
		C264.9,155.8,263.9,140.1,247.9,138.9z"/>
	
		<ellipse transform="matrix(3.837642e-02 -0.9993 0.9993 3.837642e-02 41.3764 471.0043)" class="st18" cx="265.4" cy="214" rx="14.9" ry="14.9"/>
	<ellipse transform="matrix(0.984 -0.1784 0.1784 0.984 -33.9248 50.7895)" class="st11" cx="265.4" cy="214" rx="12.1" ry="12.1"/>
	<path class="st22" d="M275.6,218.5c0,0-0.1,0-0.1,0c-0.1-0.1-0.2-0.2-0.2-0.4c0.5-1.3,0.8-2.6,0.8-4.1c0-5.7-4.7-10.4-10.4-10.4
		c-1.8,0-3.5,0.5-5.1,1.3c-0.1,0.1-0.3,0-0.4-0.1c-0.1-0.1,0-0.3,0.1-0.4c1.6-0.9,3.5-1.4,5.4-1.4c6.1,0,11,4.9,11,11
		c0,1.5-0.3,2.9-0.9,4.3C275.8,218.4,275.7,218.5,275.6,218.5z"/>
	<ellipse transform="matrix(0.2508 -0.968 0.968 0.2508 -8.329 417.2462)" class="st18" cx="265.4" cy="214" rx="5.5" ry="5.5"/>
	
		<ellipse transform="matrix(3.327787e-02 -0.9994 0.9994 3.327787e-02 -46.1242 380.3229)" class="st18" cx="173.5" cy="214" rx="14.9" ry="14.9"/>
	
		<ellipse transform="matrix(0.9871 -0.1602 0.1602 0.9871 -32.039 30.5609)" class="st11" cx="173.5" cy="214" rx="12.1" ry="12.1"/>
	<path class="st22" d="M183.7,218.5c0,0-0.1,0-0.1,0c-0.1-0.1-0.2-0.2-0.2-0.4c0.5-1.3,0.8-2.6,0.8-4.1c0-5.7-4.7-10.4-10.4-10.4
		c-1.8,0-3.5,0.5-5.1,1.3c-0.1,0.1-0.3,0-0.4-0.1c-0.1-0.1,0-0.3,0.1-0.4c1.6-0.9,3.5-1.4,5.4-1.4c6.1,0,11,4.9,11,11
		c0,1.5-0.3,2.9-0.9,4.3C183.9,218.4,183.8,218.5,183.7,218.5z"/>
	<ellipse transform="matrix(0.3052 -0.9523 0.9523 0.3052 -83.2182 313.953)" class="st18" cx="173.5" cy="214" rx="5.5" ry="5.5"/>
	<g>
		<g>
			
				<linearGradient id="SVGID_2_" gradientUnits="userSpaceOnUse" x1="5153.0244" y1="214.0042" x2="5182.8271" y2="214.0042" gradientTransform="matrix(1 0 0 1 -5028.4775 0)">
				<stop  offset="0" style="stop-color:#09005D"/>
				<stop  offset="1" style="stop-color:#1A0F91"/>
			</linearGradient>
			<circle class="st23" cx="139.4" cy="214" r="14.9"/>
			
				<linearGradient id="SVGID_3_" gradientUnits="userSpaceOnUse" x1="1682.8746" y1="190.1367" x2="1624.4269" y2="230.0522" gradientTransform="matrix(1 0 0 1 -1508.4775 0)">
				<stop  offset="0" style="stop-color:#FF928E"/>
				<stop  offset="1" style="stop-color:#FE7062"/>
			</linearGradient>
			<circle class="st24" cx="139.4" cy="214" r="12.1"/>
			<path class="st4" d="M149.6,218.5c0,0-0.1,0-0.1,0c-0.1-0.1-0.2-0.2-0.2-0.4c0.5-1.3,0.8-2.6,0.8-4.1c0-5.7-4.7-10.4-10.4-10.4
				c-1.8,0-3.5,0.5-5.1,1.3c-0.1,0.1-0.3,0-0.4-0.1c-0.1-0.1,0-0.3,0.1-0.4c1.6-0.9,3.5-1.4,5.4-1.4c6.1,0,11,4.9,11,11
				c0,1.5-0.3,2.9-0.9,4.3C149.8,218.4,149.7,218.5,149.6,218.5z"/>
		</g>
		
			<linearGradient id="SVGID_4_" gradientUnits="userSpaceOnUse" x1="5173.395" y1="205.0432" x2="5158.2471" y2="229.8621" gradientTransform="matrix(1 0 0 1 -5028.4775 0)">
			<stop  offset="0" style="stop-color:#09005D"/>
			<stop  offset="1" style="stop-color:#1A0F91"/>
		</linearGradient>
		<circle class="st25" cx="139.4" cy="214" r="5.5"/>
	</g>
	<g>
		<path class="st21" d="M288.4,202c0,0.8-0.7,1.5-1.5,1.5h-3.8c-0.8,0-1.5-0.7-1.5-1.5v-5.2c0-0.8,0.7-1.5,1.5-1.5h3.8
			c0.8,0,1.5,0.7,1.5,1.5V202z"/>
		<path class="st26" d="M284.6,195.4v7.6h-1.2c-0.8,0-1.8-0.9-1.8-1.7v-4.8c0-0.8,1-1.1,1.8-1.1H284.6z"/>
	</g>
	<path class="st4" d="M248.3,193.6c-0.2,0-0.3-0.1-0.3-0.3v-34c0-0.2,0.1-0.3,0.3-0.3s0.3,0.1,0.3,0.3v34
		C248.6,193.5,248.5,193.6,248.3,193.6z"/>
	<path class="st4" d="M261.4,154.2c-0.1,0-0.2-0.1-0.3-0.2c-4.4-12.8-13.5-11.9-13.6-11.8c-0.2,0-0.3-0.1-0.3-0.3
		c0-0.2,0.1-0.3,0.3-0.3c0.1,0,9.6-1,14.2,12.2C261.7,154,261.7,154.2,261.4,154.2C261.5,154.2,261.4,154.2,261.4,154.2z"/>
	<g>
		<path class="st18" d="M76.5,245.9c0-0.1,0-0.2,0-0.2c-1.3-4.5-8.4-7.4-8.4-7.4l-2.8,0.1c-1.7,4-1.6,6.4-1.3,7.5c0,0,0,0.1,0,0.1
			C66.2,246.2,71.1,246.3,76.5,245.9z"/>
		<path class="st18" d="M63.9,246c0.1,0.4,0.4,0.6,0.9,0.7c3.3,0.6,8.6,0.2,10.8,0c0.5,0,0.9-0.4,0.9-0.8
			C71.1,246.3,66.2,246.2,63.9,246z"/>
	</g>
	<g>
		<path class="st18" d="M84.3,245.1c-2.5-0.1-3.8-0.4-4.5-0.6c0,0.3,0,0.5,0,0.8c0,0.3,0.2,0.5,0.5,0.5l13.8-0.1
			c0.4,0,0.7-0.5,0.5-0.9C92.8,244.9,88.2,245.3,84.3,245.1z"/>
		<path class="st18" d="M94.6,244.8c0,0,0-0.1-0.1-0.1c-1.2-1.7-4.3-5.1-10.5-6.6l-3-0.1c0,0-1.3,2.3-1.3,6.5c0.7,0.3,2,0.6,4.5,0.6
			C88.2,245.3,92.8,244.9,94.6,244.8z"/>
	</g>
	<path class="st18" d="M79.1,169.7c0,0,6.2,34.7,6.1,68.8c0,0.6-4.5,1.4-4.6,0.9c-1-5.9-7.6-43.9-10.9-49.3c0,0-1.3,33.7-0.6,48.9
		c0,0.4-4.2,1-4.3,0.5c-0.7-5-5.5-39.4-5.3-60.6c0-1.2,1.1-11.2,1.1-11.2C67.6,169,72.9,171.1,79.1,169.7z"/>
	<path class="st14" d="M56.5,149.8c-4.1-9-4.5-15.4,0-18.1c0.3-0.1,0.5-0.1,0.8-0.2c1.4-0.2,3.4-0.4,5.7-0.7c0,0,0,0,0,0
		c0.3-0.1,4.9-1.1,9.9-1.4c4.8-0.3,10,0,12.1,2.4c0,0,1.4,3.6,4.1,7.1c3.9,5.1,5.8,10.7,7.8,9.6c0.5-0.3,1-2.3,1.4-3.2
		c1.5,0.2,4.4,0.6,6.6,3c-1.7,9.1-7.2,12.9-20.8,1.7c-2.6,7.3-5.4,16.5-4.5,23.2c0.1,0.6-0.4,1.2-1,1.3c-3.1,0.5-12.9,1.6-17.7-0.3
		c-0.3-0.1-1.1-0.3-1.1-0.6c0-2.2,0.6-11-3.1-22.6C56.7,150.7,56.6,150.2,56.5,149.8z"/>
	
		<linearGradient id="SVGID_5_" gradientUnits="userSpaceOnUse" x1="1901.0009" y1="119.5945" x2="1893.4875" y2="152.0627" gradientTransform="matrix(1 0 0 1 -1829.7137 0)">
		<stop  offset="0" style="stop-color:#FEBBBA"/>
		<stop  offset="1" style="stop-color:#FF928E"/>
	</linearGradient>
	<path class="st27" d="M65.6,122.1l-0.9,9.5c0,0,5.3,1.6,9.2-1.1l-2.7-8.6L65.6,122.1z"/>
	<g>
		
			<linearGradient id="SVGID_6_" gradientUnits="userSpaceOnUse" x1="490.4432" y1="-1097.8922" x2="477.1145" y2="-1080.2594" gradientTransform="matrix(0.9332 -0.3594 0.3594 0.9332 9.1218 1315.8992)">
			<stop  offset="0" style="stop-color:#FEBBBA"/>
			<stop  offset="1" style="stop-color:#FF928E"/>
		</linearGradient>
		<path class="st28" d="M74.6,114.1c0.1,0.2,0.3,11.8,0.3,11.8l-6.6,0l-1.9-11C66.4,114.9,73.6,111.3,74.6,114.1z"/>
		<path class="st16" d="M68.7,116.3c-0.2,0.2-0.3,0.5-0.3,0.8l0.5,5.8c0,0.1,0,0.2,0.1,0.3c0.2,0.5,0.9,1.8,2.3,1.1
			c1.2-0.7,2.3-1.2,3.2-1.3c0.5,0,1,0.4,1,0.9c0,1.1,0,3.3-0.3,5.2c-0.1,0.5-0.5,0.8-1,0.8c-1.3-0.1-3.8-0.3-5.9-1
			c-0.3-0.1-0.6-0.4-0.6-0.7c-0.3-1.5-1.1-5.8-1.5-7c-0.4-1.1-1.9-1.5-2.6-1.6c-0.3,0-0.5-0.2-0.6-0.4c-0.4-0.7-1.1-2.1,0.7-3.2
			c0.4-0.3,0.6-0.9,0.3-1.3c-0.5-0.8-0.8-2,0.6-3c1.4-1.1,2.8-0.6,3.6,0c0.4,0.2,0.9,0.2,1.2-0.1c0.1-0.1,0.3-0.2,0.6-0.1
			c1.4,0.3,1.1-1.6,1.8-2.2c1-0.8,2,0.4,2.4,1.3c0.2,0.5,0.4,1,0.6,1.5c0.4,0.8,1,1.4,1.7,1.9c0.1,0.1,0.2,0.1,0.3,0.3
			c0.1,0.2,0,0.4-0.1,0.5c-0.1,0.1-0.3,0.2-0.5,0.3c-1.4,0.6-2.9,0.7-4.3,0.2C70.6,114.7,69.3,115.7,68.7,116.3z"/>
		
			<linearGradient id="SVGID_7_" gradientUnits="userSpaceOnUse" x1="471.1644" y1="-1084.0056" x2="481.7148" y2="-1094.8301" gradientTransform="matrix(0.9332 -0.3594 0.3594 0.9332 9.1218 1315.8992)">
			<stop  offset="0" style="stop-color:#FEBBBA"/>
			<stop  offset="1" style="stop-color:#FF928E"/>
		</linearGradient>
		<path class="st29" d="M66.7,123.2c0,0,0.1-3.4-1.3-3.9c-1.4-0.5-3.1,0.3-2.1,2.6C64.5,124.7,66.7,123.2,66.7,123.2z"/>
	</g>
	<g>
		<g>
			<path class="st14" d="M76.8,113.8c-2.1-10.8-17.4-6.3-13.8,3.4C68.2,115.6,74.5,112.8,76.8,113.8z"/>
		</g>
		<path class="st14" d="M67.9,115.4l8.9,2.4c0.2,0.1,0.5,0,0.6-0.2c1.2-1.2,2.7-1.7,4.3-1.8c0.2,0,0.2-0.3,0.1-0.4l-5.3-2
			c0,0,0,0,0,0c-2.8-0.6-5.6,0.3-8.6,1.7C67.8,115.2,67.8,115.3,67.9,115.4z"/>
	</g>
	<path class="st30" d="M65.4,163c-2.7,0.1-4.9-2.1-4.9-4.8V137c0-2.8,2.2-5.1,5-5.1c8.4-0.1,25.6-0.1,39.8,1.1
		c1.9,0.2,3.4,1.7,3.5,3.7l1.3,20.5c0.1,2.7-2,5-4.8,5L65.4,163z"/>
	<path class="st17" d="M83.4,150l5.7,0.6c0.8,0.1,1.5-0.6,1.4-1.4l-1.3-17.1c-2.4-0.1-4.8-0.1-7.1-0.2v16.7
		C82.3,149.3,82.8,149.9,83.4,150z"/>
	<path class="st4" d="M85.8,147c0,0.3,0.3,0.5,0.6,0.5c0,0,0,0,0,0c0.3,0,0.6-0.3,0.5-0.6L86.1,132c-0.4,0-0.8,0-1.2,0L85.8,147z"/>
	<g>
		<path class="st14" d="M85,165.2c1-1.4,0.3-2.4,0.3-2.4c-5.2-1.9-12.7-1.7-18.4-8.8c-2.3,1.2-0.4,1.9-3,5.6
			C75.8,167.2,85,165.2,85,165.2z"/>
		<path class="st14" d="M60.9,138.4c0.1,8.6,2.8,15.1,15.6,21.8l-2.6,4.1c-6.3-0.6-17.3-8.9-20.6-15.1c-0.8-1.5-2-6.3-1.8-9.7
			C51.8,132.4,59,126,60.9,138.4z"/>
		<path class="st14" d="M84.9,165.2c3.1,1.2,5.3-0.7,6.7-2.8c-2.9-0.3-4.8-0.4-7.2,0.1L84.9,165.2z"/>
	</g>
	
		<linearGradient id="SVGID_8_" gradientUnits="userSpaceOnUse" x1="2106.3794" y1="454.5727" x2="2120.1394" y2="519.3717" gradientTransform="matrix(0.9937 -0.1123 0.1123 0.9937 -2039.2949 -82.8389)">
		<stop  offset="0" style="stop-color:#FEBBBA"/>
		<stop  offset="1" style="stop-color:#FF928E"/>
	</linearGradient>
	<path class="st31" d="M110.5,143.3c-0.8-0.2-2.6-2.6-2.8-1.7c-0.2,0.9,0.3,2,0.3,2.4c-0.1,0.4-0.7,2.5-0.2,3.4
		c0.3,0.6,1,2.6,1.4,3.7c0.1,0.4,0.2,0.8,0.6,0.8c0.4,0,0.7-0.5,0.7-0.9C110.5,150.8,111.3,143.5,110.5,143.3z"/>
	<path class="st32" d="M106.4,238.5h54.2v-64.4h-43c-6.2,0-11.3,5.1-11.3,11.3V238.5z"/>
	<path class="st30" d="M115.2,238.6h52.1V187c0-7.1-5.7-12.8-12.8-12.8h-39.3V238.6z"/>
	<path class="st17" d="M142.9,192.8l-6,0.6c-0.8,0.1-1.6-0.6-1.5-1.4l1.3-17.9c2.5-0.1,5-0.1,7.4-0.2v17.5
		C144.1,192.1,143.6,192.7,142.9,192.8z"/>
	<path class="st4" d="M140.4,189.7c0,0.3-0.3,0.6-0.6,0.6c0,0,0,0,0,0c-0.3,0-0.6-0.3-0.6-0.6l0.9-15.6c0.4,0,0.8,0,1.2,0
		L140.4,189.7z"/>
</g>
</svg>
