<?xml version="1.0" encoding="utf-8"?>
<!-- Generator: Adobe Illustrator 24.0.1, SVG Export Plug-In . SVG Version: 6.00 Build 0)  -->
<svg version="1.1" id="Livello_1" xmlns="http://www.w3.org/2000/svg" xmlns:xlink="http://www.w3.org/1999/xlink" x="0px" y="0px"
	 viewBox="0 0 178.1 189.5" style="enable-background:new 0 0 178.1 189.5;" xml:space="preserve">
<style type="text/css">
	.st0{fill:#67A1B8;}
	.st1{opacity:0.24;fill:#FFFFFF;}
	.st2{fill:#3489A3;}
	.st3{opacity:0.5;fill:#FFFFFF;}
	.st4{fill:#0271A5;}
	.st5{fill:url(#SVGID_1_);}
	.st6{fill:url(#SVGID_2_);}
	.st7{fill:url(#SVGID_3_);}
	.st8{opacity:0.47;fill:#FFFFFF;}
	.st9{fill:#A35338;}
	.st10{fill:url(#SVGID_4_);}
	.st11{fill:#E6BD53;}
	.st12{fill:#278DBC;}
	.st13{fill:url(#SVGID_5_);}
	.st14{fill:url(#SVGID_6_);}
	.st15{fill:url(#SVGID_7_);}
	.st16{fill:#FFFFFF;}
	.st17{fill:url(#SVGID_8_);}
	.st18{fill:url(#SVGID_9_);}
	.st19{fill:url(#SVGID_10_);}
	.st20{fill:url(#SVGID_11_);}
	.st21{fill:url(#SVGID_12_);}
	.st22{fill:url(#SVGID_13_);}
	.st23{fill:url(#SVGID_14_);}
	.st24{fill:#213C54;}
	.st25{fill:url(#SVGID_15_);}
	.st26{opacity:0.8;fill:#FFFFFF;}
	.st27{fill:url(#SVGID_16_);}
	.st28{fill:url(#SVGID_17_);}
	.st29{fill:url(#SVGID_18_);}
	.st30{fill:url(#SVGID_19_);}
	.st31{fill:url(#SVGID_20_);}
	.st32{fill:url(#SVGID_21_);}
	.st33{fill:url(#SVGID_22_);}
	.st34{fill:#B58926;}
	.st35{fill:url(#SVGID_23_);}
	.st36{fill:url(#SVGID_24_);}
</style>
<g>
	<g>
		<g>
			<path class="st0" d="M49.6,100.8c0,0,16.6-40.1,13.3-70.9c-0.2-2.1-2.6-3.1-4.3-1.8C47.7,36.9,18.2,65.8,49.6,100.8z"/>
			<path class="st1" d="M47.7,96.2c0,0.1-0.2,0.2-0.2,0.1c-1.6-5.1-5.8-27.4,7.4-56.1c0-0.1,0.2,0,0.1,0.1
				C52.5,47.2,43.9,73.7,47.7,96.2z"/>
		</g>
		<g>
			<path class="st2" d="M41.8,122.9c0,0,9.8-54.8,0.8-91.7c-0.6-2.5-3.3-2.9-4.7-0.8C28.5,44.7,3.5,90,41.8,122.9z"/>
			<path class="st3" d="M39.1,117.8c0.1,0.2-0.1,0.3-0.2,0.1c-2.5-5.7-10.9-31.8-2.5-71.6c0-0.1,0.2-0.1,0.2,0
				C35.2,55.9,31.1,91.3,39.1,117.8z"/>
		</g>
	</g>
	<g>
		<g>
			<g>
				<polygon class="st4" points="120.4,54.8 77.8,51 35.2,55.3 35.2,146.5 77.8,144.3 120.4,146.8 162.9,143 162.9,52.7 				"/>
			</g>
			<linearGradient id="SVGID_1_" gradientUnits="userSpaceOnUse" x1="89.9384" y1="33.9398" x2="2.8315" y2="219.1227">
				<stop  offset="0" style="stop-color:#6CC9F0"/>
				<stop  offset="1" style="stop-color:#3C519F"/>
			</linearGradient>
			<polygon class="st5" points="78.7,143.1 38.2,145.3 38.2,58.7 78.7,54.6 			"/>
			<linearGradient id="SVGID_2_" gradientUnits="userSpaceOnUse" x1="51.5008" y1="-15.4752" x2="125.0579" y2="163.256">
				<stop  offset="0" style="stop-color:#6CC9F0"/>
				<stop  offset="1" style="stop-color:#3C519F"/>
			</linearGradient>
			<polygon class="st6" points="119.2,144.6 78.7,142.2 78.7,53.7 119.2,57.3 			"/>
			<linearGradient id="SVGID_3_" gradientUnits="userSpaceOnUse" x1="216.6862" y1="-19.7884" x2="57.3123" y2="225.4019">
				<stop  offset="0" style="stop-color:#6CC9F0"/>
				<stop  offset="1" style="stop-color:#3C519F"/>
			</linearGradient>
			<polygon class="st7" points="159.6,141 119.2,144.6 119.2,57.3 159.6,55.3 			"/>
			<polygon class="st8" points="77.8,142.2 78.7,142.2 78.7,53.7 77.8,54.6 			"/>
		</g>
		<g>
			<path class="st4" d="M38.2,90.6c3.5,6.9,10.9,13,17.5,17.1c3,1.9,6.1,3.6,9.6,4.4c3.4,0.8,7.3,0.4,10.2-1.7
				c3.7-2.7,5.1-7.6,9-10.1c2-1.3,4.4-0.8,6.5-2.1c2-1.3,3.6-3.4,3.9-5.9c0.2-1.8-0.1-3.6-0.1-5.4c0.2-6.9,6.2-12.1,8.5-18.6
				c1.4-3.9,1.3-8.2,1.3-12.3c2.1,0.3,4.3,0.5,6.5,0.4c-1.4,6-2.7,12.1-5.4,17.6c-1.3,2.8-3,5.5-3.9,8.4c-0.4,1.2-0.6,2.5-0.3,3.8
				c0.3,1.2,1.2,2.4,2.5,2.6c2.2,0.4,4.6-2,6.3-3.1c2.2-1.4,4.6-2.6,7.1-3.3c2.5-0.7,5.1-1.2,7.2-2.5c3.4-2.1,5.2-5.9,6.6-9.7
				c1.7-4.6,2.9-9.3,3.6-14.1c4.1,0,6.9,0.1,10.8-0.3c-5.4,7.4-9.3,15.7-11,24.7c-0.3,1.7-0.6,3.5-0.2,5.3
				c1.1,5.1,9.9,8.6,13.8,11.8c4.3,3.5,8.2,7.4,11.7,11.7v6.4c-5.6-5.9-12.1-10.8-19.3-14.6c-2.6-1.4-8-5.5-11-4.8
				c-1.5,0.3-3,0.9-4.4,1.6c-0.6,0.3-1.3,0.7-1.8,1.3c-0.6,0.7-0.8,1.5-1.1,2.4c-0.4,1.2-0.8,2.5-0.8,3.7c0,0.6,0,1.2,0.1,1.8
				c0.3,2.7,1.2,5.3,2.5,7.6c0.7,1.2,2.2,2.5,3.1,3.6c2.8,3.2,6.1,6.1,8.3,9.8c1.5,2.5,2.4,5.4,3.7,8.1c1.1,2.2,2.7,4.1,3.9,6.3
				c-1.4,0.1-2.7,0.3-4.1,0.4c-1.7-3.4-4-6.6-6.6-9.5c-1.5-1.6-2.7-3.1-4.5-4.5c-3.5-2.8-7.2-5.8-11.5-7.3
				c-4.6-1.6-8.3,1.3-12.2,3.4c-5.7,3.1-12,4.6-18.4,5.1c-2.7,0.2-4.2,1.8-6.7,2.6c-2.7,0.8-5.3,0.2-7.6-1.4
				c-8.5-5.9-16.6-12.5-23.4-20.3c-3.5-4-10.1-9-9.9-14.4C38.2,92.4,37.9,90.8,38.2,90.6z"/>
		</g>
	</g>
	<g>
		<rect x="22.5" y="156.7" class="st9" width="91.5" height="5.6"/>
		<linearGradient id="SVGID_4_" gradientUnits="userSpaceOnUse" x1="55.9439" y1="136.9557" x2="11.1066" y2="166.0522">
			<stop  offset="0" style="stop-color:#F7EA4A"/>
			<stop  offset="0.9139" style="stop-color:#DC4D63"/>
			<stop  offset="1" style="stop-color:#D93D66"/>
		</linearGradient>
		<rect x="20.6" y="155.5" class="st10" width="1.9" height="7.6"/>
		<path class="st11" d="M112.5,123.1c0-1.4-1.4-2.5-3.6-2.5H24.7c-2.2,0-4.1,1.1-4.1,2.5v31.5c0,1.4,1.8,2.5,4.1,2.5h84.1
			c2.2,0,3.6-1.2,3.6-2.5V123.1z"/>
		<path class="st11" d="M110.4,124.4c0-1.3-1.7-2.1-3.9-2.1H27.2c-2.1,0-3.9,0.9-3.9,2.1v28.8c0,1.3,1.8,2.2,3.9,2.2h79.4
			c2.1,0,3.9-1,3.9-2.2V124.4z"/>
		<path class="st11" d="M135,145.4l-4.1-12.7c-0.1-0.3-0.4-0.4-0.7-0.4c-2.9,0-16,0-16.8,0v29.9H136L135,145.4z"/>
		<path class="st12" d="M136.3,157.9c-0.2-0.1-0.6-0.2-0.9-0.2l-17.4,0.3l-0.1,4.9l17.5,0.4c0.6,0,1.4-0.3,1.4-0.7v-4.2
			C136.7,158.2,136.5,158,136.3,157.9z"/>
		<g>
			<path class="st12" d="M131.7,144.6l-2.5-9.9c-0.1-0.3-0.4-0.6-0.8-0.6h-9.8c-0.2,0-0.4,0.1-0.6,0.3c-0.1,0.2-0.2,0.4-0.2,0.6
				l0.2,8c0,0.4,0.3,0.7,0.7,0.7l12.1,2c0.3,0,0.5,0,0.7-0.2C131.7,145.1,131.8,144.9,131.7,144.6z"/>
			<path class="st12" d="M131.2,134l-0.1,0c-0.2,0-0.4,0.2-0.5,0.3c-0.1,0.2-0.2,0.4-0.1,0.6l2.7,10.2c0.1,0.4,0.5,0.6,0.9,0.6
				l0.9-0.2L131.2,134z"/>
		</g>
		
			<linearGradient id="SVGID_5_" gradientUnits="userSpaceOnUse" x1="5676.4805" y1="143.0671" x2="5664.2646" y2="149.3722" gradientTransform="matrix(1 0 0 1 -5548.4229 0)">
			<stop  offset="0" style="stop-color:#F7EA4A"/>
			<stop  offset="1" style="stop-color:#D93D66"/>
		</linearGradient>
		<path class="st13" d="M118,147c0-0.4,0.3-0.7,0.7-0.7h3.1c0.4,0,0.7,0.3,0.7,0.7v0.1c0,0.4-0.3,0.7-0.7,0.7h-3.1
			c-0.4,0-0.7-0.3-0.7-0.7V147z"/>
		<path class="st9" d="M114.6,123.3c-0.3,0-0.7,0-0.8,0.2c-0.2,0.2-0.4,0.4-0.4,0.6v8.2h10.3C123.6,132.3,123,123.9,114.6,123.3z"/>
		<g>
			<g>
				
					<linearGradient id="SVGID_6_" gradientUnits="userSpaceOnUse" x1="5664.3608" y1="163.0605" x2="5680.165" y2="163.0605" gradientTransform="matrix(1 0 0 1 -5548.4229 0)">
					<stop  offset="0" style="stop-color:#2A3780"/>
					<stop  offset="1" style="stop-color:#201D3F"/>
				</linearGradient>
				<circle class="st14" cx="123.8" cy="163.1" r="7.9"/>
				
					<linearGradient id="SVGID_7_" gradientUnits="userSpaceOnUse" x1="5672.2632" y1="153.0129" x2="5672.2632" y2="180.1518" gradientTransform="matrix(1 0 0 1 -5548.4229 0)">
					<stop  offset="0" style="stop-color:#6DB0E2"/>
					<stop  offset="1" style="stop-color:#3D64AD"/>
				</linearGradient>
				<circle class="st15" cx="123.8" cy="163.1" r="6.4"/>
				<path class="st16" d="M129.2,165.4C129.2,165.4,129.2,165.4,129.2,165.4c-0.2-0.1-0.2-0.2-0.2-0.2c0.3-0.7,0.4-1.4,0.4-2.1
					c0-3-2.5-5.5-5.5-5.5c-0.9,0-1.9,0.2-2.7,0.7c-0.1,0-0.2,0-0.2-0.1c0-0.1,0-0.2,0.1-0.2c0.9-0.5,1.9-0.7,2.9-0.7
					c3.2,0,5.9,2.6,5.9,5.9c0,0.8-0.2,1.6-0.5,2.3C129.4,165.4,129.3,165.4,129.2,165.4z"/>
			</g>
			
				<linearGradient id="SVGID_8_" gradientUnits="userSpaceOnUse" x1="5675.1636" y1="158.3084" x2="5667.1304" y2="171.47" gradientTransform="matrix(1 0 0 1 -5548.4229 0)">
				<stop  offset="0" style="stop-color:#2A3780"/>
				<stop  offset="1" style="stop-color:#201D3F"/>
			</linearGradient>
			<circle class="st17" cx="123.8" cy="163.1" r="2.9"/>
		</g>
		<g>
			<g>
				
					<linearGradient id="SVGID_9_" gradientUnits="userSpaceOnUse" x1="5589.1865" y1="163.2809" x2="5604.9907" y2="163.2809" gradientTransform="matrix(1 0 0 1 -5548.4229 0)">
					<stop  offset="0" style="stop-color:#2A3780"/>
					<stop  offset="1" style="stop-color:#201D3F"/>
				</linearGradient>
				<circle class="st18" cx="48.7" cy="163.3" r="7.9"/>
				
					<linearGradient id="SVGID_10_" gradientUnits="userSpaceOnUse" x1="5597.0884" y1="153.2334" x2="5597.0884" y2="180.3722" gradientTransform="matrix(1 0 0 1 -5548.4229 0)">
					<stop  offset="0" style="stop-color:#6DB0E2"/>
					<stop  offset="1" style="stop-color:#3D64AD"/>
				</linearGradient>
				<circle class="st19" cx="48.7" cy="163.3" r="6.4"/>
				<path class="st16" d="M54.1,165.7C54,165.7,54,165.7,54.1,165.7c-0.2-0.1-0.2-0.2-0.2-0.2c0.3-0.7,0.4-1.4,0.4-2.1
					c0-3-2.5-5.5-5.5-5.5c-0.9,0-1.9,0.2-2.7,0.7c-0.1,0-0.2,0-0.2-0.1c0-0.1,0-0.2,0.1-0.2c0.9-0.5,1.9-0.7,2.9-0.7
					c3.2,0,5.9,2.6,5.9,5.9c0,0.8-0.2,1.6-0.5,2.3C54.2,165.6,54.1,165.7,54.1,165.7z"/>
			</g>
			
				<linearGradient id="SVGID_11_" gradientUnits="userSpaceOnUse" x1="5599.9888" y1="158.5289" x2="5591.9561" y2="171.6904" gradientTransform="matrix(1 0 0 1 -5548.4229 0)">
				<stop  offset="0" style="stop-color:#2A3780"/>
				<stop  offset="1" style="stop-color:#201D3F"/>
			</linearGradient>
			<circle class="st20" cx="48.7" cy="163.3" r="2.9"/>
		</g>
		<g>
			<g>
				
					<linearGradient id="SVGID_12_" gradientUnits="userSpaceOnUse" x1="5633.7178" y1="163.2809" x2="5649.5225" y2="163.2809" gradientTransform="matrix(1 0 0 1 -5548.4229 0)">
					<stop  offset="0" style="stop-color:#2A3780"/>
					<stop  offset="1" style="stop-color:#201D3F"/>
				</linearGradient>
				<circle class="st21" cx="93.2" cy="163.3" r="7.9"/>
				
					<linearGradient id="SVGID_13_" gradientUnits="userSpaceOnUse" x1="5641.6201" y1="153.2334" x2="5641.6201" y2="180.3722" gradientTransform="matrix(1 0 0 1 -5548.4229 0)">
					<stop  offset="0" style="stop-color:#6DB0E2"/>
					<stop  offset="1" style="stop-color:#3D64AD"/>
				</linearGradient>
				<circle class="st22" cx="93.2" cy="163.3" r="6.4"/>
				<path class="st16" d="M98.6,165.7C98.6,165.7,98.5,165.7,98.6,165.7c-0.2-0.1-0.2-0.2-0.2-0.2c0.3-0.7,0.4-1.4,0.4-2.1
					c0-3-2.5-5.5-5.5-5.5c-0.9,0-1.9,0.2-2.7,0.7c-0.1,0-0.2,0-0.2-0.1c0-0.1,0-0.2,0.1-0.2c0.9-0.5,1.9-0.7,2.9-0.7
					c3.2,0,5.9,2.6,5.9,5.9c0,0.8-0.2,1.6-0.5,2.3C98.7,165.6,98.7,165.7,98.6,165.7z"/>
			</g>
			
				<linearGradient id="SVGID_14_" gradientUnits="userSpaceOnUse" x1="5644.5205" y1="158.5289" x2="5636.4873" y2="171.6904" gradientTransform="matrix(1 0 0 1 -5548.4229 0)">
				<stop  offset="0" style="stop-color:#2A3780"/>
				<stop  offset="1" style="stop-color:#201D3F"/>
			</linearGradient>
			<circle class="st23" cx="93.2" cy="163.3" r="2.9"/>
		</g>
		<g>
			<g>
				<circle class="st24" cx="30.6" cy="163.3" r="7.9"/>
				
					<ellipse transform="matrix(0.9925 -0.1222 0.1222 0.9925 -19.7211 4.9608)" class="st12" cx="30.6" cy="163.3" rx="6.4" ry="6.4"/>
				<path class="st16" d="M36,165.7C36,165.7,35.9,165.7,36,165.7c-0.2-0.1-0.2-0.2-0.2-0.2c0.3-0.7,0.4-1.4,0.4-2.1
					c0-3-2.5-5.5-5.5-5.5c-0.9,0-1.9,0.2-2.7,0.7c-0.1,0-0.2,0-0.2-0.1c0-0.1,0-0.2,0.1-0.2c0.9-0.5,1.9-0.7,2.9-0.7
					c3.2,0,5.9,2.6,5.9,5.9c0,0.8-0.2,1.6-0.5,2.3C36.1,165.6,36,165.7,36,165.7z"/>
			</g>
			
				<ellipse transform="matrix(0.2298 -0.9732 0.9732 0.2298 -135.3521 155.5373)" class="st24" cx="30.6" cy="163.3" rx="2.9" ry="2.9"/>
		</g>
		<g>
			
				<linearGradient id="SVGID_15_" gradientUnits="userSpaceOnUse" x1="5681.7783" y1="157.0609" x2="5684.1426" y2="151.4104" gradientTransform="matrix(1 0 0 1 -5548.4229 0)">
				<stop  offset="0" style="stop-color:#F7EA4A"/>
				<stop  offset="1" style="stop-color:#D93D66"/>
			</linearGradient>
			<path class="st25" d="M132.5,153.5c0-0.4,0.3-0.8,0.8-0.8h2.1c0.4,0,0.8,0.3,0.8,0.8v2.3c0,0.4-0.3,0.8-0.8,0.8h-2.1
				c-0.4,0-0.8-0.3-0.8-0.8V153.5z"/>
			<path class="st26" d="M134,152.7v4.5h-0.6c-0.4,0-1.2-0.5-1.2-0.9v-2.6c0-0.4,0.8-1.1,1.2-1.1H134z"/>
		</g>
		<path class="st16" d="M114.5,152.4c-0.1,0-0.2-0.1-0.2-0.2v-18.2c0-0.1,0.1-0.2,0.2-0.2s0.2,0.1,0.2,0.2v18.2
			C114.7,152.4,114.6,152.4,114.5,152.4z"/>
		<path class="st16" d="M121.7,131.4c-0.1,0-0.1,0-0.2-0.1c-2.3-6.7-7-6.3-7.2-6.3c-0.1,0-0.2-0.1-0.2-0.2c0-0.1,0.1-0.2,0.2-0.2
			c0.1,0,5.1-0.5,7.6,6.5C121.9,131.2,121.9,131.3,121.7,131.4C121.8,131.4,121.7,131.4,121.7,131.4z"/>
		<g>
			<g>
				<circle class="st24" cx="48.7" cy="163.3" r="7.9"/>
				
					<ellipse transform="matrix(0.9925 -0.1222 0.1222 0.9925 -19.5856 7.1696)" class="st12" cx="48.7" cy="163.3" rx="6.4" ry="6.4"/>
				<path class="st16" d="M54.1,165.7C54,165.7,54,165.7,54.1,165.7c-0.2-0.1-0.2-0.2-0.2-0.2c0.3-0.7,0.4-1.4,0.4-2.1
					c0-3-2.5-5.5-5.5-5.5c-0.9,0-1.9,0.2-2.7,0.7c-0.1,0-0.2,0-0.2-0.1c0-0.1,0-0.2,0.1-0.2c0.9-0.5,1.9-0.7,2.9-0.7
					c3.2,0,5.9,2.6,5.9,5.9c0,0.8-0.2,1.6-0.5,2.3C54.2,165.6,54.1,165.7,54.1,165.7z"/>
			</g>
			
				<ellipse transform="matrix(0.2298 -0.9732 0.9732 0.2298 -121.4282 173.1308)" class="st24" cx="48.7" cy="163.3" rx="2.9" ry="2.9"/>
		</g>
		<g>
			<g>
				<circle class="st24" cx="93.2" cy="163.3" r="7.9"/>
				
					<ellipse transform="matrix(0.9925 -0.1222 0.1222 0.9925 -19.252 12.6106)" class="st12" cx="93.2" cy="163.3" rx="6.4" ry="6.4"/>
				<path class="st16" d="M98.6,165.7C98.6,165.7,98.5,165.7,98.6,165.7c-0.2-0.1-0.2-0.2-0.2-0.2c0.3-0.7,0.4-1.4,0.4-2.1
					c0-3-2.5-5.5-5.5-5.5c-0.9,0-1.9,0.2-2.7,0.7c-0.1,0-0.2,0-0.2-0.1c0-0.1,0-0.2,0.1-0.2c0.9-0.5,1.9-0.7,2.9-0.7
					c3.2,0,5.9,2.6,5.9,5.9c0,0.8-0.2,1.6-0.5,2.3C98.7,165.6,98.7,165.7,98.6,165.7z"/>
			</g>
			
				<ellipse transform="matrix(0.2298 -0.9732 0.9732 0.2298 -87.1279 216.4711)" class="st24" cx="93.2" cy="163.3" rx="2.9" ry="2.9"/>
		</g>
		<g>
			<g>
				<circle class="st24" cx="123.8" cy="163.1" r="7.9"/>
				
					<ellipse transform="matrix(0.9925 -0.1222 0.1222 0.9925 -18.9954 16.353)" class="st12" cx="123.8" cy="163.1" rx="6.4" ry="6.4"/>
				<path class="st16" d="M129.2,165.4C129.2,165.4,129.2,165.4,129.2,165.4c-0.2-0.1-0.2-0.2-0.2-0.2c0.3-0.7,0.4-1.4,0.4-2.1
					c0-3-2.5-5.5-5.5-5.5c-0.9,0-1.9,0.2-2.7,0.7c-0.1,0-0.2,0-0.2-0.1c0-0.1,0-0.2,0.1-0.2c0.9-0.5,1.9-0.7,2.9-0.7
					c3.2,0,5.9,2.6,5.9,5.9c0,0.8-0.2,1.6-0.5,2.3C129.4,165.4,129.3,165.4,129.2,165.4z"/>
			</g>
			
				<ellipse transform="matrix(0.2298 -0.9732 0.9732 0.2298 -63.3106 246.1243)" class="st24" cx="123.8" cy="163.1" rx="2.9" ry="2.9"/>
		</g>
	</g>
	<g>
		
			<linearGradient id="SVGID_16_" gradientUnits="userSpaceOnUse" x1="-3629.6213" y1="130.7341" x2="-3622.1296" y2="130.7341" gradientTransform="matrix(-1 0 0 1 -3466.2104 0)">
			<stop  offset="0" style="stop-color:#F9B877"/>
			<stop  offset="1" style="stop-color:#EF7A62"/>
		</linearGradient>
		<path class="st27" d="M160.7,126.9c0.8,0.8,1.9,1.5,2.7,2c-1.2,1.5-2.8,2.9-4.9,4.4l-0.6,1.4l-2-2.3
			C155.9,132.3,159.4,130.5,160.7,126.9z"/>
		<path class="st24" d="M150.3,171.3c0,0,0-0.1,0-0.1c0.6-2.5,3.8-4.1,3.8-4.1l1.2,0.1c0.7,2.2,0.6,3.6,0.5,4.2c0,0,0,0,0,0
			C154.8,171.5,152.6,171.5,150.3,171.3z"/>
		<path class="st24" d="M155.8,171.4c-0.1,0.2-0.2,0.4-0.4,0.4c-1.5,0.3-3.8,0.1-4.8-0.1c-0.2,0-0.4-0.2-0.4-0.5
			C152.6,171.5,154.8,171.5,155.8,171.4z"/>
		
			<linearGradient id="SVGID_17_" gradientUnits="userSpaceOnUse" x1="-3620.5264" y1="162.8818" x2="-3621.5996" y2="172.2467" gradientTransform="matrix(-1 0 0 1 -3466.2104 0)">
			<stop  offset="0" style="stop-color:#F9B877"/>
			<stop  offset="1" style="stop-color:#EF7A62"/>
		</linearGradient>
		<path class="st28" d="M155.8,165.3l-0.5,2.5c0,0.2-0.2,0.3-0.4,0.3c-0.2,0-0.5,0-0.8,0c-0.3,0-0.5-0.3-0.4-0.6l0.4-2.3H155.8z"/>
		
			<linearGradient id="SVGID_18_" gradientUnits="userSpaceOnUse" x1="-3604.3948" y1="167.2737" x2="-3624.8318" y2="183.3208" gradientTransform="matrix(-1 0 0 1 -3466.2104 0)">
			<stop  offset="0" style="stop-color:#6CC9F0"/>
			<stop  offset="1" style="stop-color:#3C519F"/>
		</linearGradient>
		<path class="st29" d="M144.9,171.4c1.4,0,2.1-0.2,2.5-0.4c0,0.1,0,0.3,0,0.4c0,0.2-0.1,0.3-0.3,0.3l-7.5,0c-0.2,0-0.4-0.3-0.3-0.5
			C140.2,171.2,142.7,171.4,144.9,171.4z"/>
		<path class="st24" d="M139.2,171.2C139.2,171.1,139.3,171.1,139.2,171.2c0.7-1,2.4-2.8,5.7-3.6l1.6-0.1c0,0,0.7,1.2,0.7,3.6
			c-0.4,0.2-1.1,0.3-2.5,0.4C142.7,171.4,140.2,171.2,139.2,171.2z"/>
		
			<linearGradient id="SVGID_19_" gradientUnits="userSpaceOnUse" x1="-3611.7856" y1="163.8834" x2="-3612.8586" y2="173.2482" gradientTransform="matrix(-1 0 0 1 -3466.2104 0)">
			<stop  offset="0" style="stop-color:#F9B877"/>
			<stop  offset="1" style="stop-color:#EF7A62"/>
		</linearGradient>
		<path class="st30" d="M146.9,165c0,0.1-0.2,1.9-0.3,2.6c0,0.2-0.1,0.3-0.3,0.3c-0.3,0-0.7,0.1-1.1,0c-0.2,0-0.4-0.2-0.4-0.5v-2.9
			L146.9,165z"/>
		<path class="st24" d="M148.2,131.8c0,0-3.9,14.7-3.8,33.3c0,0.3,0.2,0.6,0.6,0.7c0.5,0.1,1.2,0.2,1.8,0.2c0.3,0,0.6-0.2,0.6-0.6
			c0.5-3.2,3.7-21.2,5.4-24.1c0,0,1.2,16,0.8,24.3c0,0.2,0.1,0.4,0.3,0.4c0.3,0,0.8,0.1,1.4,0c0.2,0,0.4-0.2,0.5-0.4
			c0.4-2.7,2.6-18.8,2.5-30.4c0-0.7-1.7-3.5-1.7-3.5H148.2z"/>
		<path class="st11" d="M142.8,113.9c0.6-0.8,1.2-1.6,1.6-2.5c0.6-1.2,0.1,0.8,0.2-0.6c4.8-3.5,12.1-1.7,14.9-1.4
			c0.9,0.1,1.8,0.6,2.4,1.3c2.4,2.8,7.7,10.4,1.5,18.1c-0.8-0.4-1.9-1.2-2.7-2c0.7-1.9,0.7-4.4-0.7-7.5c0,0.2-0.1,0.5-0.2,0.7
			c-2,6.3-2.1,11.5-2.1,12.8c0,0.2-0.1,0.3-0.3,0.4c-2.6,1-7.7,0.4-9.3,0.2c-0.3,0-0.5-0.3-0.5-0.6c0.8-6-3.4-15.9-4.6-18.4
			C143,114.2,142.9,114.1,142.8,113.9z"/>
		
			<linearGradient id="SVGID_20_" gradientUnits="userSpaceOnUse" x1="-3618.1558" y1="103.0145" x2="-3622.2529" y2="120.72" gradientTransform="matrix(-1 0 0 1 -3466.2104 0)">
			<stop  offset="0" style="stop-color:#F9B877"/>
			<stop  offset="1" style="stop-color:#EF7A62"/>
		</linearGradient>
		<path class="st31" d="M155,104.4l0.5,5.2c0,0-2.9,0.9-5-0.6l1.5-4.7L155,104.4z"/>
		<g>
			
				<linearGradient id="SVGID_21_" gradientUnits="userSpaceOnUse" x1="-4052.7961" y1="-3771.8867" x2="-4060.0649" y2="-3762.2705" gradientTransform="matrix(-0.6854 -0.7281 -0.7281 0.6854 -5371.4727 -266.0028)">
				<stop  offset="0" style="stop-color:#F9B877"/>
				<stop  offset="1" style="stop-color:#EF7A62"/>
			</linearGradient>
			<path class="st32" d="M151.7,98.5c-0.1,0.1-2.9,5.7-2.9,5.7l3.3,1.6l3.5-4.9C155.5,100.9,152.8,97.4,151.7,98.5z"/>
			<path class="st9" d="M154.1,101c0.1,0.2,0,0.3,0,0.5l-1.6,2.7c0,0-0.1,0.1-0.1,0.1c-0.2,0.2-0.9,0.7-1.4,0
				c-0.4-0.6-0.8-1.2-1.3-1.4c-0.3-0.1-0.6,0-0.7,0.2c-0.3,0.5-0.8,1.6-1.1,2.6c-0.1,0.3,0.1,0.5,0.3,0.6c0.7,0.3,2,0.8,3.1,0.9
				c0.2,0,0.4-0.1,0.5-0.2c0.5-0.7,1.9-2.6,2.4-3.1c0.4-0.4,1.3-0.3,1.6-0.2c0.1,0,0.3,0,0.4-0.1c0.4-0.2,1-0.8,0.4-1.7
				c-0.1-0.2-0.1-0.6,0.2-0.7c0.4-0.3,0.9-0.8,0.4-1.6c-0.4-0.8-1.2-0.9-1.8-0.9c-0.2,0-0.5-0.1-0.6-0.3c0-0.1-0.1-0.2-0.3-0.2
				c-0.3-0.1-0.5-0.3-0.4-0.6c0.1-0.5,0.1-0.1-0.7-0.6c-1.4-0.8-2.3,0.1-2.7,1.1c-0.3,1.1,0.9,1.3,1.9,1.4
				C153.5,99.8,153.9,100.6,154.1,101z"/>
			
				<linearGradient id="SVGID_22_" gradientUnits="userSpaceOnUse" x1="-4063.4421" y1="-3764.2715" x2="-4057.6118" y2="-3770.2532" gradientTransform="matrix(-0.6854 -0.7281 -0.7281 0.6854 -5371.4727 -266.0028)">
				<stop  offset="0" style="stop-color:#F9B877"/>
				<stop  offset="1" style="stop-color:#EF7A62"/>
			</linearGradient>
			<path class="st33" d="M153.5,105c0,0,0.6-1.8,1.4-1.8c0.8,0.1,1.4,0.9,0.4,1.8C154.2,106.1,153.5,105,153.5,105z"/>
			<g>
				<path class="st11" d="M150.1,98.5c2.8-5.3,10-0.5,6.6,3.9C154.3,100.8,151.5,98.4,150.1,98.5z"/>
			</g>
			<path class="st11" d="M154.5,100.8l-5-0.2c-0.1,0-0.2-0.1-0.3-0.2c-0.4-0.8-1.1-1.3-1.9-1.6c-0.1,0-0.1-0.2,0-0.2l3.1-0.2
				c0,0,0,0,0,0c1.5,0.1,2.9,1,4.2,2.2C154.6,100.7,154.5,100.8,154.5,100.8z"/>
		</g>
		<path class="st34" d="M160.3,118.9c1.1-2.9,0.7-6.4,0.7-6.4l-0.3,0c0,0,0.4,3.5-0.7,6.3L160.3,118.9z"/>
		
			<linearGradient id="SVGID_23_" gradientUnits="userSpaceOnUse" x1="-3618.2834" y1="135.3591" x2="-3621.1614" y2="140.4806" gradientTransform="matrix(-1 0 0 1 -3466.2104 0)">
			<stop  offset="0" style="stop-color:#2A3780"/>
			<stop  offset="1" style="stop-color:#201D3F"/>
		</linearGradient>
		<path class="st35" d="M153,141c0.1,0,0.1,0,0.1-0.1c0.3-1.2,2.7-2.6,2.8-2.6c0.1,0,0.1-0.1,0.1-0.2c0-0.1-0.1-0.1-0.2-0.1
			c-0.1,0.1-2.5,1.4-2.9,2.8C152.8,140.9,152.9,140.9,153,141C152.9,141,153,141,153,141z"/>
		<g>
			<path class="st11" d="M133,115.5c5.5,0.8,9-2.6,11.7-4.7c3.5-2.8,6.2-1.4,6.2-1.4l-3.7,7.1c-5.6,5.3-11.3,4.1-14.9,2.4
				C132.2,117.5,132.6,116.4,133,115.5z"/>
			<path class="st11" d="M125.3,112.3l1.8,1c2.2,1.3,4.1,2,5.9,2.3c-0.4,0.9-0.8,2-0.7,3.4c-2.3-1.1-3.7-2.4-3.7-2.4
				C124.4,114.1,125.3,112.3,125.3,112.3z"/>
		</g>
		
			<linearGradient id="SVGID_24_" gradientUnits="userSpaceOnUse" x1="-4350.3906" y1="105.2045" x2="-4375.4629" y2="137.2823" gradientTransform="matrix(-1 0 0 1 -4233.979 0)">
			<stop  offset="0" style="stop-color:#F9B877"/>
			<stop  offset="1" style="stop-color:#EF7A62"/>
		</linearGradient>
		<path class="st36" d="M120,114.8c0.1-0.4,0.4-0.7,0.8-0.9l3.7-1.5c0,0,0.1-0.5-0.8-0.8c-0.8-0.3-0.6-1.3-0.6-1.3s1.1,0.5,2.8,1.3
			c1,0.5,1.5,1.3,1.8,1.9l-0.9,1.2c-2.3,0.7-4.6,0.8-6.9,0.5L120,114.8z"/>
	</g>
	<g>
		<g>
			<g>
				<g>
					<circle class="st11" cx="56.7" cy="70.4" r="12.3"/>
					<path class="st11" d="M69,69.8H56.7H44.4c0,0-1,6.8,10,25.5c0.5,0.8,1.4,1.3,2.3,1.3c0.9,0,1.8-0.5,2.3-1.3
						C70,76.6,69,69.8,69,69.8z"/>
				</g>
				<g>
					<path class="st26" d="M56.7,97L56.7,97L56.7,97c-1.1,0.1-2.1-0.5-2.6-1.4c-6.4-10.9-8.8-17.9-9.6-21.7
						c-0.2-0.9-0.4-1.8-0.4-2.7c-0.1-0.9,0-1.3,0-1.3l0-0.2c0.5-6.6,6-11.8,12.6-11.8c6.7,0,12.3,5.2,12.6,11.9c0,0.1,0,0.3,0,0.7
						l0,0c0,1.2-0.2,2.4-0.5,3.6C68,78,65.6,84.8,59.3,95.6C58.8,96.5,57.8,97,56.7,97z M44.8,70.3c0,0.2,0,0.4,0,0.8l0,0
						c0,0.8,0.2,1.7,0.4,2.5l0,0c0.8,3.8,3.2,10.6,9.5,21.5c0.4,0.7,1.2,1.1,2,1.1l0,0.4v-0.4c0.7,0,1.6-0.4,2-1.1
						c6.3-10.7,8.6-17.5,9.5-21.3l0,0c0.3-1.1,0.4-2.2,0.4-3.4l-0.1-0.1v0c0-0.4,0.1-0.5,0.1-0.6l0,0c-0.3-6.3-5.6-11.2-11.9-11.2
						c-6.3,0-11.6,5-11.9,11.3L44.8,70.3L44.8,70.3z"/>
				</g>
				<circle class="st16" cx="56.8" cy="70.4" r="7.1"/>
			</g>
			<g>
				<path class="st16" d="M50,63C50,63,50,63,50,63c-0.1-0.1-0.1-0.2-0.1-0.2c2-1.7,4.5-2.7,7.2-2.7c0.1,0,0.1,0.1,0.1,0.1
					s-0.1,0.1-0.1,0.1C54.6,60.4,52.1,61.3,50,63C50.1,63,50.1,63,50,63z"/>
			</g>
			<g>
				<path class="st16" d="M46.2,71.3c-0.1,0-0.1-0.1-0.1-0.1c0-2.1,0.6-4.1,1.7-5.8c0-0.1,0.1-0.1,0.2,0c0.1,0,0.1,0.1,0,0.2
					c-1.1,1.7-1.6,3.7-1.6,5.7C46.3,71.2,46.3,71.3,46.2,71.3z"/>
			</g>
			<circle class="st16" cx="57.2" cy="103.6" r="3.2"/>
		</g>
		<g>
			<g>
				<g>
					<circle class="st11" cx="148.6" cy="41.2" r="9.8"/>
					<path class="st11" d="M158.4,40.7h-9.8h-9.8c0,0-0.8,5.5,8,20.4c0.4,0.7,1.1,1,1.8,1c0.8,0,1.5-0.4,1.8-1
						C159.2,46.1,158.4,40.7,158.4,40.7z"/>
				</g>
				<g>
					<path class="st26" d="M148.6,62.4L148.6,62.4L148.6,62.4c-0.9,0.1-1.7-0.4-2.1-1.1c-5.1-8.7-7-14.3-7.7-17.4
						c-0.2-0.7-0.3-1.4-0.3-2.1c-0.1-0.7,0-1,0-1.1l0-0.2c0.4-5.3,4.8-9.4,10.1-9.4c5.4,0,9.8,4.2,10.1,9.5c0,0.1,0,0.2,0,0.5l0,0
						c0,1-0.1,1.9-0.4,2.8c-0.7,3.1-2.6,8.6-7.6,17.2C150.2,62,149.5,62.4,148.6,62.4z M139,41.1c0,0.1,0,0.4,0,0.7l0,0
						c0,0.7,0.1,1.3,0.3,2l0,0c0.7,3.1,2.5,8.5,7.6,17.2c0.3,0.6,0.9,0.9,1.6,0.9l0,0.3v-0.3c0.6,0,1.3-0.4,1.6-0.9
						c5-8.5,6.9-14,7.6-17l0,0c0.3-0.9,0.3-1.8,0.3-2.7l-0.1,0v0c0-0.3,0-0.4,0-0.5l0,0c-0.3-5-4.5-9-9.5-9c-5.1,0-9.2,4-9.5,9.1
						L139,41.1L139,41.1z"/>
				</g>
				<circle class="st16" cx="148.6" cy="41.2" r="5.7"/>
			</g>
			<g>
				<path class="st16" d="M143.2,35.3C143.2,35.3,143.2,35.2,143.2,35.3c-0.1-0.1-0.1-0.1-0.1-0.2c1.6-1.4,3.6-2.1,5.7-2.1
					c0.1,0,0.1,0,0.1,0.1c0,0.1,0,0.1-0.1,0.1C146.8,33.2,144.8,33.9,143.2,35.3C143.3,35.2,143.2,35.3,143.2,35.3z"/>
			</g>
			<g>
				<path class="st16" d="M140.2,41.9C140.1,41.9,140.1,41.8,140.2,41.9c-0.1-1.7,0.4-3.3,1.2-4.7c0,0,0.1-0.1,0.1,0
					c0,0,0.1,0.1,0,0.1C140.7,38.6,140.3,40.2,140.2,41.9C140.3,41.8,140.2,41.9,140.2,41.9z"/>
			</g>
			<circle class="st16" cx="148.7" cy="68.7" r="3.2"/>
		</g>
		<path class="st16" d="M57.2,105.3c-0.1,0-0.3-0.1-0.4-0.2c-0.2-0.2-0.3-0.6,0-0.9c0.4-0.4,0.8-0.9,1.2-1.3c0.2-0.2,0.6-0.3,0.9,0
			c0.2,0.2,0.3,0.6,0,0.9c-0.4,0.4-0.8,0.9-1.2,1.3C57.6,105.3,57.4,105.3,57.2,105.3z M60.3,102.1c-0.2,0-0.3-0.1-0.4-0.2
			c-0.2-0.2-0.2-0.6,0-0.9c0.4-0.4,0.8-0.9,1.2-1.2c0.2-0.2,0.6-0.2,0.9,0c0.2,0.2,0.2,0.6,0,0.9c-0.4,0.4-0.8,0.8-1.2,1.2
			C60.6,102.1,60.4,102.1,60.3,102.1z M125.2,99.4c-0.3,0-0.6-0.3-0.6-0.6c0-0.3,0.3-0.6,0.6-0.6c0.3,0,0.7,0,1,0
			c0.2,0,0.4-0.1,0.6-0.1c0.3-0.1,0.7,0.1,0.7,0.4c0.1,0.3-0.1,0.7-0.4,0.7c-0.2,0.1-0.4,0.1-0.7,0.2l-0.1,0l-0.1,0
			C126,99.3,125.6,99.3,125.2,99.4C125.3,99.4,125.3,99.4,125.2,99.4z M122.6,99.3C122.6,99.3,122.6,99.3,122.6,99.3
			c-0.6,0-1.2-0.1-1.8-0.1c-0.3,0-0.6-0.3-0.6-0.7c0-0.3,0.3-0.6,0.7-0.6c0.6,0,1.2,0.1,1.7,0.1c0.3,0,0.6,0.3,0.6,0.6
			C123.2,99.1,122.9,99.3,122.6,99.3z M63.4,99.1c-0.2,0-0.3-0.1-0.5-0.2c-0.2-0.3-0.2-0.6,0-0.9c0.4-0.4,0.9-0.8,1.3-1.2
			c0.3-0.2,0.6-0.2,0.9,0.1c0.2,0.3,0.2,0.6-0.1,0.9c-0.4,0.4-0.9,0.8-1.3,1.2C63.7,99,63.6,99.1,63.4,99.1z M118.3,98.9
			C118.2,98.9,118.2,98.9,118.3,98.9c-0.7-0.1-1.2-0.2-1.8-0.3c-0.3-0.1-0.6-0.4-0.5-0.7c0.1-0.3,0.4-0.6,0.7-0.5
			c0.6,0.1,1.2,0.2,1.7,0.3c0.3,0,0.6,0.4,0.5,0.7C118.8,98.7,118.6,98.9,118.3,98.9z M129.5,98.5c-0.3,0-0.5-0.2-0.6-0.4
			c-0.1-0.3,0.1-0.7,0.4-0.8c0.6-0.2,1.1-0.4,1.6-0.6c0.3-0.1,0.7,0,0.8,0.4c0.1,0.3,0,0.7-0.4,0.8c-0.5,0.2-1.1,0.4-1.7,0.6
			C129.6,98.4,129.6,98.5,129.5,98.5z M113.9,98.2c0,0-0.1,0-0.1,0c-0.6-0.1-1.1-0.2-1.7-0.4c-0.3-0.1-0.5-0.4-0.5-0.7
			c0.1-0.3,0.4-0.5,0.7-0.5c0.6,0.1,1.1,0.3,1.7,0.4c0.3,0.1,0.5,0.4,0.5,0.7C114.5,98,114.2,98.2,113.9,98.2z M109.7,97.2
			c-0.1,0-0.1,0-0.2,0c-0.6-0.1-1.1-0.3-1.7-0.5c-0.3-0.1-0.5-0.4-0.4-0.8c0.1-0.3,0.4-0.5,0.8-0.4c0.6,0.2,1.1,0.3,1.7,0.5
			c0.3,0.1,0.5,0.4,0.4,0.7C110.2,97,110,97.2,109.7,97.2z M133.6,96.9c-0.2,0-0.5-0.1-0.6-0.4c-0.1-0.3,0-0.7,0.3-0.8
			c0.5-0.2,1-0.5,1.5-0.8c0.3-0.2,0.7,0,0.8,0.3c0.2,0.3,0,0.7-0.3,0.8c-0.5,0.3-1.1,0.5-1.6,0.8C133.8,96.9,133.7,96.9,133.6,96.9z
			 M66.8,96.3c-0.2,0-0.4-0.1-0.5-0.2c-0.2-0.3-0.2-0.7,0.1-0.9c0.5-0.4,1-0.7,1.4-1.1c0.3-0.2,0.7-0.1,0.9,0.2
			c0.2,0.3,0.1,0.7-0.2,0.9c-0.5,0.3-0.9,0.7-1.4,1C67,96.2,66.9,96.3,66.8,96.3z M105.5,96c-0.1,0-0.1,0-0.2,0
			c-0.6-0.2-1.1-0.4-1.7-0.5c-0.3-0.1-0.5-0.4-0.4-0.8c0.1-0.3,0.4-0.5,0.8-0.4c0.6,0.2,1.1,0.4,1.7,0.5c0.3,0.1,0.5,0.4,0.4,0.8
			C106,95.8,105.7,96,105.5,96z M137.4,94.8c-0.2,0-0.4-0.1-0.5-0.3c-0.2-0.3-0.1-0.7,0.2-0.9c0.5-0.3,0.9-0.6,1.4-1
			c0.3-0.2,0.7-0.2,0.9,0.1c0.2,0.3,0.2,0.7-0.1,0.9c-0.5,0.4-1,0.7-1.5,1C137.7,94.7,137.5,94.8,137.4,94.8z M101.3,94.6
			c-0.1,0-0.1,0-0.2,0c-0.6-0.2-1.1-0.4-1.7-0.6c-0.3-0.1-0.5-0.5-0.4-0.8c0.1-0.3,0.5-0.5,0.8-0.4c0.5,0.2,1.1,0.4,1.7,0.6
			c0.3,0.1,0.5,0.5,0.4,0.8C101.8,94.5,101.6,94.6,101.3,94.6z M70.4,93.8c-0.2,0-0.4-0.1-0.5-0.3c-0.2-0.3-0.1-0.7,0.2-0.8
			c0.5-0.3,1-0.6,1.6-0.9c0.3-0.2,0.7,0,0.8,0.3c0.2,0.3,0,0.7-0.3,0.8c-0.5,0.3-1,0.5-1.5,0.8C70.6,93.8,70.5,93.8,70.4,93.8z
			 M97.1,93.2c-0.1,0-0.1,0-0.2,0c-0.6-0.2-1.1-0.4-1.7-0.6c-0.3-0.1-0.5-0.5-0.4-0.8c0.1-0.3,0.5-0.5,0.8-0.4
			c0.5,0.2,1.1,0.4,1.7,0.6c0.3,0.1,0.5,0.5,0.4,0.8C97.6,93.1,97.4,93.2,97.1,93.2z M140.8,92.1c-0.2,0-0.3-0.1-0.4-0.2
			c-0.2-0.2-0.2-0.6,0-0.9c0.4-0.4,0.8-0.8,1.2-1.2c0.2-0.3,0.6-0.3,0.9,0c0.3,0.2,0.3,0.6,0,0.9c-0.4,0.4-0.8,0.9-1.3,1.3
			C141.1,92,141,92.1,140.8,92.1z M74.3,91.9c-0.2,0-0.5-0.1-0.6-0.4c-0.1-0.3,0-0.7,0.3-0.8c0.6-0.2,1.1-0.4,1.7-0.6
			c0.3-0.1,0.7,0.1,0.8,0.4c0.1,0.3-0.1,0.7-0.4,0.8c-0.5,0.2-1.1,0.4-1.6,0.6C74.5,91.8,74.4,91.9,74.3,91.9z M93,91.9
			c-0.1,0-0.1,0-0.2,0c-0.6-0.2-1.1-0.4-1.7-0.5c-0.3-0.1-0.5-0.4-0.4-0.8c0.1-0.3,0.4-0.5,0.8-0.4c0.5,0.2,1.1,0.3,1.7,0.5
			c0.3,0.1,0.5,0.4,0.4,0.8C93.5,91.7,93.2,91.9,93,91.9z M88.8,90.6c0,0-0.1,0-0.1,0c-0.6-0.1-1.2-0.3-1.7-0.4
			c-0.3-0.1-0.5-0.4-0.5-0.7c0.1-0.3,0.4-0.5,0.7-0.5c0.5,0.1,1.1,0.2,1.7,0.4c0.3,0.1,0.5,0.4,0.4,0.7C89.3,90.5,89,90.6,88.8,90.6
			z M78.4,90.4c-0.2,0-0.5-0.2-0.6-0.4c-0.1-0.3,0-0.7,0.4-0.8c0.6-0.2,1.2-0.4,1.8-0.5c0.3-0.1,0.7,0.2,0.7,0.5
			c0.1,0.3-0.2,0.7-0.5,0.7c-0.6,0.1-1.1,0.2-1.6,0.4C78.6,90.4,78.5,90.4,78.4,90.4z M84.5,89.8C84.4,89.8,84.4,89.8,84.5,89.8
			c-0.7-0.1-1.2-0.1-1.8-0.1c-0.3,0-0.6-0.3-0.6-0.6c0-0.3,0.3-0.6,0.6-0.6c0,0,0,0,0,0c0.6,0,1.2,0.1,1.8,0.1
			c0.3,0,0.6,0.3,0.5,0.7C85,89.6,84.8,89.8,84.5,89.8z M143.7,88.7c-0.1,0-0.2,0-0.4-0.1c-0.3-0.2-0.3-0.6-0.1-0.9
			c0.3-0.5,0.6-0.9,0.9-1.4c0.2-0.3,0.6-0.4,0.8-0.2c0.3,0.2,0.4,0.6,0.2,0.8c-0.3,0.5-0.6,1-1,1.5
			C144.1,88.7,143.9,88.7,143.7,88.7z M145.9,85c-0.1,0-0.2,0-0.3-0.1c-0.3-0.1-0.4-0.5-0.3-0.8c0.2-0.5,0.5-1,0.7-1.6
			c0.1-0.3,0.5-0.5,0.8-0.4c0.3,0.1,0.5,0.5,0.4,0.8c-0.2,0.6-0.5,1.1-0.7,1.7C146.3,84.8,146.1,85,145.9,85z M147.4,80.9
			c-0.1,0-0.1,0-0.2,0c-0.3-0.1-0.5-0.4-0.4-0.8c0.2-0.5,0.3-1.1,0.4-1.7c0.1-0.3,0.4-0.5,0.7-0.5c0.3,0.1,0.5,0.4,0.5,0.7
			c-0.1,0.6-0.3,1.2-0.4,1.7C147.9,80.7,147.7,80.9,147.4,80.9z M148.3,76.6C148.3,76.6,148.2,76.6,148.3,76.6
			c-0.4-0.1-0.7-0.4-0.6-0.7c0.1-0.6,0.1-1.1,0.2-1.7c0-0.3,0.3-0.6,0.7-0.6c0.3,0,0.6,0.3,0.6,0.7c-0.1,0.6-0.1,1.2-0.2,1.8
			C148.9,76.3,148.6,76.6,148.3,76.6z M148.7,72.2C148.7,72.2,148.7,72.2,148.7,72.2c-0.4,0-0.6-0.3-0.6-0.6c0-0.6,0-1.1,0-1.7
			c0-0.3,0.3-0.6,0.6-0.6c0,0,0,0,0,0c0.3,0,0.6,0.3,0.6,0.6c0,0.6,0,1.2,0,1.8C149.3,71.9,149,72.2,148.7,72.2z"/>
	</g>
</g>
</svg>
