<?xml version="1.0" encoding="utf-8"?>
<!-- Generator: Adobe Illustrator 24.0.1, SVG Export Plug-In . SVG Version: 6.00 Build 0)  -->
<svg version="1.1" id="Livello_1" xmlns="http://www.w3.org/2000/svg" xmlns:xlink="http://www.w3.org/1999/xlink" x="0px" y="0px"
	 viewBox="0 0 193.1 189.5" style="enable-background:new 0 0 193.1 189.5;" xml:space="preserve">
<style type="text/css">
	.st0{fill:#173C56;}
	.st1{opacity:0.3;}
	.st2{fill:#020203;}
	.st3{fill:#4B73A8;}
	.st4{opacity:0.75;}
	.st5{opacity:0.5;fill:#020203;}
	.st6{fill:#93B2DE;}
	.st7{fill:#278DBC;}
	.st8{fill:#FFFFFF;}
	.st9{fill:#0271A5;}
	.st10{fill:#6A94C0;}
	.st11{fill:#D54315;}
	.st12{fill:#AE4D2F;}
	.st13{fill:#B95E5D;}
	.st14{fill:#EE7269;}
	.st15{fill:#E6BD53;}
	.st16{fill:#8C5347;}
	.st17{fill:#F8BFB4;}
</style>
<g>
	<g>
		<path class="st0" d="M130.6,139c4.8,0.6,9.5,1.2,14.1,2c10.7,1.9,21.3,4.8,29.8,9.9c2.2,1.3,4.4,3,4,5.1c-0.5,2.7-4.9,3.9-8.6,4.4
			c-16.1,2.5-32.4,4-48.7,4.5c-19.6,0.6-39.3,1-58.9,0.5c-10-0.3-19.9-0.8-29.8-1.5c-5-0.4-9.9-0.8-14.8-1.3
			c-2.6-0.2-5.1-0.5-7.7-0.8c-1.1-0.1-5.6-1.1-6.5-0.7c15.6-7.3,31.5-14.8,49-19.3c18-4.6,39.2-5.3,57.8-4.4
			C117,137.7,123.8,138.2,130.6,139z"/>
	</g>
	<g class="st1">
		<path class="st2" d="M154.2,154.7c2.2,2.3-16.2,0.9-41.5,0.8c-25.3-0.1-43.8,1.1-41.5-1.2c2.2-2.2,20.8-6.6,41.5-6.4
			C133.5,147.9,152,152.4,154.2,154.7z"/>
	</g>
	<g>
		<g>
			<g>
				<g>
					<path class="st3" d="M138.5,154c0.7,0.1,1.3,0.3,2,0.4c1.9,0.4,3.7-0.6,4.1-2.3c1.2-5.3,2.4-10.5,3.6-15.8
						c0.4-1.8-0.9-3.6-2.9-4c-0.7-0.1-1.4-0.3-2.2-0.4c-2-0.4-4,0.8-4.3,2.6c-1.1,5.3-2.1,10.6-3.2,15.9
						C135.3,152,136.6,153.6,138.5,154z"/>
					<g class="st4">
						<path class="st5" d="M137,152c0,0-0.1,0-0.1,0c-0.2,0-0.4-0.2-0.3-0.4c1.2-6,2.4-11.9,3.6-17.9c0-0.2,0.3-0.3,0.5-0.3
							c0,0,0.1,0,0.1,0c0.2,0,0.4,0.3,0.3,0.5c-1.2,6-2.5,11.9-3.7,17.9C137.5,151.9,137.3,152,137,152z"/>
						<path class="st5" d="M138.8,153.3c0,0-0.1,0-0.1,0c-0.2,0-0.4-0.2-0.3-0.4c1.4-6.6,2.8-13.2,4.2-19.9c0-0.2,0.3-0.3,0.5-0.3
							c0,0,0.1,0,0.1,0c0.2,0,0.4,0.3,0.3,0.5c-1.4,6.6-2.8,13.2-4.2,19.8C139.2,153.2,139,153.3,138.8,153.3z"/>
						<path class="st5" d="M140.7,153.6c0,0-0.1,0-0.1,0c-0.2,0-0.4-0.2-0.3-0.4c1.4-6.6,2.9-13.2,4.3-19.8c0-0.2,0.3-0.3,0.5-0.3
							c0,0,0.1,0,0.1,0c0.2,0,0.4,0.3,0.3,0.5c-1.5,6.6-2.9,13.2-4.4,19.8C141.1,153.6,140.9,153.7,140.7,153.6z"/>
						<path class="st5" d="M142.8,153.1c0,0-0.1,0-0.1,0c-0.2,0-0.4-0.2-0.3-0.4c1.3-5.9,2.6-11.9,4-17.8c0-0.2,0.3-0.3,0.5-0.3
							c0,0,0.1,0,0.1,0c0.2,0,0.4,0.3,0.3,0.5c-1.3,5.9-2.7,11.8-4,17.8C143.2,153,143,153.1,142.8,153.1z"/>
					</g>
				</g>
				<g>
					<path class="st3" d="M128.7,152.3c0.7,0.1,1.4,0.2,2,0.3c1.9,0.3,3.7-0.7,4-2.4c1-5.3,2.1-10.6,3.1-15.9c0.4-1.8-1-3.6-3-4
						c-0.7-0.1-1.5-0.2-2.2-0.4c-2-0.3-3.9,0.9-4.2,2.7c-0.9,5.3-1.8,10.7-2.7,16C125.5,150.4,126.8,151.9,128.7,152.3z"/>
					<g class="st4">
						<path class="st5" d="M127.2,150.3c0,0-0.1,0-0.1,0c-0.2,0-0.4-0.2-0.3-0.4c1-6,2-12,3.1-18c0-0.2,0.3-0.4,0.5-0.3
							c0,0,0.1,0,0.1,0c0.2,0,0.4,0.2,0.4,0.5c-1,6-2.1,12-3.1,18C127.7,150.2,127.5,150.3,127.2,150.3z"/>
						<path class="st5" d="M129,151.6c0,0-0.1,0-0.1,0c-0.2,0-0.4-0.2-0.3-0.4c1.2-6.7,2.4-13.3,3.5-20c0-0.2,0.3-0.4,0.5-0.3
							c0,0,0.1,0,0.1,0c0.2,0,0.4,0.2,0.4,0.5c-1.2,6.7-2.4,13.3-3.6,20C129.4,151.5,129.2,151.6,129,151.6z"/>
						<path class="st5" d="M130.9,151.9c0,0-0.1,0-0.1,0c-0.2,0-0.4-0.2-0.3-0.4c1.2-6.7,2.4-13.3,3.7-20c0-0.2,0.3-0.4,0.5-0.3
							c0,0,0.1,0,0.1,0c0.2,0,0.4,0.2,0.4,0.5c-1.2,6.7-2.5,13.3-3.7,20C131.3,151.8,131.1,151.9,130.9,151.9z"/>
						<path class="st5" d="M133,151.2c0,0-0.1,0-0.1,0c-0.2,0-0.4-0.2-0.3-0.4c1.1-6,2.3-12,3.4-17.9c0-0.2,0.3-0.4,0.5-0.3
							c0,0,0.1,0,0.1,0c0.2,0,0.4,0.2,0.4,0.5c-1.2,6-2.3,11.9-3.5,17.9C133.4,151.2,133.2,151.3,133,151.2z"/>
					</g>
				</g>
			</g>
			<g>
				<g>
					<path class="st3" d="M88.4,147.7c0.7,0,1.4,0.1,2.1,0.1c1.9,0.1,3.6-1.1,3.7-2.8c0.3-5.4,0.7-10.8,1-16.2
						c0.1-1.9-1.5-3.5-3.5-3.6c-0.7,0-1.5-0.1-2.2-0.1c-2.1-0.1-3.8,1.3-3.8,3.2c-0.2,5.4-0.4,10.8-0.6,16.2
						C84.9,146.2,86.5,147.6,88.4,147.7z"/>
					<g class="st4">
						<path class="st5" d="M86.6,145.9c0,0-0.1,0-0.1,0c-0.2,0-0.4-0.2-0.4-0.4c0.2-6.1,0.5-12.2,0.7-18.2c0-0.2,0.2-0.4,0.4-0.4
							c0,0,0.1,0,0.1,0c0.2,0,0.4,0.2,0.4,0.4c-0.2,6.1-0.5,12.2-0.8,18.2C87,145.8,86.9,145.9,86.6,145.9z"/>
						<path class="st5" d="M88.5,147c0,0-0.1,0-0.1,0c-0.2,0-0.4-0.2-0.4-0.4c0.3-6.8,0.6-13.5,0.9-20.3c0-0.2,0.2-0.4,0.5-0.4
							c0,0,0.1,0,0.1,0c0.2,0,0.4,0.2,0.4,0.4c-0.3,6.8-0.6,13.5-1,20.3C88.9,146.9,88.8,147,88.5,147z"/>
						<path class="st5" d="M90.5,147.1c0,0-0.1,0-0.1,0c-0.2,0-0.4-0.2-0.4-0.4c0.3-6.8,0.7-13.5,1-20.3c0-0.2,0.2-0.4,0.5-0.4
							c0,0,0.1,0,0.1,0c0.2,0,0.4,0.2,0.4,0.4c-0.4,6.8-0.7,13.5-1.1,20.3C90.9,147,90.7,147.1,90.5,147.1z"/>
						<path class="st5" d="M92.5,146.3c0,0-0.1,0-0.1,0c-0.2,0-0.4-0.2-0.4-0.4c0.4-6.1,0.7-12.2,1-18.2c0-0.2,0.2-0.4,0.5-0.4
							c0,0,0.1,0,0.1,0c0.2,0,0.4,0.2,0.4,0.4c-0.4,6.1-0.7,12.2-1.1,18.2C92.9,146.1,92.7,146.3,92.5,146.3z"/>
					</g>
				</g>
				<g>
					<path class="st3" d="M78.5,147.2c0.7,0,1.4,0.1,2.1,0.1c1.9,0.1,3.5-1.2,3.6-2.9c0.2-5.4,0.3-10.8,0.5-16.2
						c0.1-1.9-1.6-3.4-3.6-3.5c-0.7,0-1.5-0.1-2.2-0.1c-2.1-0.1-3.7,1.4-3.7,3.3c0,5.4,0,10.8,0,16.2
						C75,145.8,76.6,147.2,78.5,147.2z"/>
					<g class="st4">
						<path class="st5" d="M76.7,145.5c0,0-0.1,0-0.1,0c-0.2,0-0.4-0.2-0.4-0.4c0-6.1,0.1-12.2,0.1-18.2c0-0.2,0.2-0.4,0.4-0.4
							c0,0,0.1,0,0.1,0c0.2,0,0.4,0.2,0.4,0.4c-0.1,6.1-0.1,12.2-0.2,18.2C77.1,145.3,76.9,145.5,76.7,145.5z"/>
						<path class="st5" d="M78.6,146.5c0,0-0.1,0-0.1,0c-0.2,0-0.4-0.2-0.4-0.4c0.1-6.8,0.2-13.5,0.3-20.3c0-0.2,0.2-0.4,0.4-0.4
							c0,0,0.1,0,0.1,0c0.2,0,0.4,0.2,0.4,0.4c-0.1,6.8-0.2,13.5-0.3,20.3C79,146.4,78.8,146.5,78.6,146.5z"/>
						<path class="st5" d="M80.6,146.6c0,0-0.1,0-0.1,0c-0.2,0-0.4-0.2-0.4-0.4c0.1-6.8,0.3-13.5,0.4-20.3c0-0.2,0.2-0.4,0.4-0.4
							c0,0,0.1,0,0.1,0c0.2,0,0.4,0.2,0.4,0.4c-0.1,6.8-0.3,13.5-0.4,20.3C81,146.4,80.8,146.6,80.6,146.6z"/>
						<path class="st5" d="M82.5,145.7c0,0-0.1,0-0.1,0c-0.2,0-0.4-0.2-0.4-0.4c0.2-6.1,0.3-12.2,0.5-18.2c0-0.2,0.2-0.4,0.4-0.4
							c0,0,0.1,0,0.1,0c0.2,0,0.4,0.2,0.4,0.4c-0.2,6.1-0.3,12.2-0.5,18.2C82.9,145.5,82.8,145.7,82.5,145.7z"/>
					</g>
				</g>
			</g>
		</g>
		<g>
			<path class="st6" d="M147.1,139.6c-23.7-4.9-47.8-7.7-72.1-8.2c-2.1-0.1-3.8-1.6-3.8-3.5C70.9,100.5,70.5,73.2,70,46
				c-0.1-2.8,2.1-5.2,4.8-5.2c31.2,0.1,62.4,3.7,92.8,10.6c2.6,0.6,4.2,3.4,3.5,6.1c-6.6,26.5-13.2,53-19.6,79.5
				C151.2,138.9,149.1,140.1,147.1,139.6z"/>
		</g>
		<path class="st7" d="M153.1,133.5c0.9,0.2,1.4,1.2,1.1,2.1c-0.3,1.3-0.6,2.6-1,3.9c-0.8,3.1-3.6,5-6.3,4.5
			c-24-5-48.4-7.8-72.9-8.4c-2.8-0.1-5.1-2.6-5.1-5.8c0-1.3,0-2.7-0.1-4c0-1,0.7-1.8,1.6-1.8c5.4,0,23.6,0.5,41.6,2.6
			C130.1,128.6,147.9,132.3,153.1,133.5z"/>
		<path class="st7" d="M168.3,50.3c-9.1-2.1-27.8-5.9-46.6-8c-18.8-2.2-37.8-2.8-47.2-2.8c-3.4,0-6,2.8-5.9,6.2c0,0.1,0,0.2,0,0.3
			c0,0.6,0.5,1.1,1.1,1.1c5.1-0.1,28.3-0.1,51.2,2.7c22.9,2.4,45.5,7.6,50.5,8.9c0.6,0.1,1.1-0.2,1.3-0.8c0-0.1,0.1-0.2,0.1-0.3
			C173.5,54.4,171.6,51.1,168.3,50.3z"/>
		<path class="st8" d="M73.9,120.2c0-23.3-0.2-46.6-0.4-69.8c0-1,0.8-1.9,1.8-1.9c30.3,0.2,60.5,3.6,90.1,10.3
			c1,0.2,1.6,1.2,1.3,2.2c-5.4,22.6-10.8,45.2-16.1,67.9c-0.2,0.7-0.9,1.2-1.7,1c-24.2-5-48.8-7.8-73.5-8.4
			C74.6,121.5,73.9,120.9,73.9,120.2z"/>
		<g>
			<path class="st9" d="M148.8,132.3l-0.3,0c-24-5-48.7-7.8-73.2-8.4c-1.3,0-2.3-1.1-2.3-2.3C73,98,73,74,72.9,50.3
				c0-0.6,0.2-1.3,0.7-1.7c0.5-0.5,1.1-0.7,1.7-0.7c30.4,0.2,60.8,3.7,90.4,10.3c0.6,0.1,1.2,0.5,1.5,1.1c0.3,0.5,0.4,1.2,0.3,1.8
				c-5.4,23-10.9,46.3-16.2,69.5c-0.2,1-1.2,1.8-2.3,1.8H148.8z"/>
			<path class="st8" d="M75.3,49.9C75.3,49.9,75.3,49.9,75.3,49.9c30.3,0.2,60.4,3.6,89.9,10.3c0.2,0,0.3,0.3,0.3,0.5
				c-5.5,23.1-10.9,46.3-16.2,69.5c0,0.1-0.2,0.2-0.3,0.2c0,0,0,0-0.1,0c-24.2-5-48.8-7.9-73.6-8.4c-0.2,0-0.3-0.1-0.3-0.3
				c0-23.8,0-47.6-0.1-71.3C74.9,50,75.1,49.9,75.3,49.9 M75.3,45.9L75.3,45.9L75.3,45.9c-1.2,0-2.3,0.5-3.1,1.3
				c-0.8,0.8-1.3,2-1.3,3.1C71,73.9,71,97.9,71,121.6c0,2.3,1.9,4.3,4.2,4.3c24.4,0.6,48.9,3.4,72.8,8.3c0.3,0.1,0.6,0.1,0.9,0.1
				c2,0,3.8-1.4,4.2-3.3c5.3-23.1,10.8-46.4,16.2-69.4c0.3-1.1,0.1-2.4-0.6-3.4c-0.6-1-1.6-1.7-2.8-2C136.3,49.5,105.8,46,75.3,45.9
				L75.3,45.9L75.3,45.9z"/>
		</g>
		<g>
			<g>
				<path class="st7" d="M165.2,137.1c7.5-26.1,15.1-52.2,22.8-78.1c0.3-1.2,0.2-2.1-0.4-2c-6.8,1-13.7,2.2-20.5,3.6
					c-0.1,0-0.2,0.2-0.2,0.4c-5.4,22.5-10.8,45.1-16.1,67.6c0,0.1,0,0.3,0,0.3c4.5,3,8.9,6,13.3,9.2
					C164.5,138.3,164.9,137.9,165.2,137.1z"/>
			</g>
			<g>
				<path class="st7" d="M53.6,43.5c1.6,27,3.1,54.1,4.5,81.3c0,0.8,0.4,1.4,0.8,1.2c5-2.1,10-4,15.1-5.9c0.1,0,0.1-0.2,0.1-0.3
					c0-23.2-0.1-46.4-0.3-69.5c0-0.2-0.1-0.4-0.1-0.4c-6.4-2.9-12.8-5.6-19.2-8.1C53.9,41.5,53.6,42.3,53.6,43.5z"/>
			</g>
		</g>
		<path class="st10" d="M74.6,122.6c25.2,0.5,50.2,3.4,74.9,8.6c0.5,0.1,1-0.2,1.1-0.6c0.1-0.4,0.2-0.8,0.3-1.3
			c0.1-0.5-0.2-0.9-0.7-1c-24.9-5.2-50.1-8.1-75.5-8.6c-0.5,0-0.9,0.4-0.9,0.8c0,0.4,0,0.9,0,1.3C73.7,122.2,74.1,122.5,74.6,122.6z
			"/>
		<g>
			<path class="st10" d="M73.6,136.9c24.7,0.6,49.3,3.4,73.5,8.4c0.2,0,0.4-0.1,0.5-0.3c0.1-0.3,0.1-0.6,0.2-0.9
				c0-0.2-0.1-0.4-0.3-0.4c-24.3-5.1-49.1-7.9-73.9-8.5c-0.2,0-0.4,0.2-0.4,0.4c0,0.3,0,0.6,0,0.9C73.2,136.8,73.4,136.9,73.6,136.9
				z"/>
		</g>
		<g>
			<g>
				<g>
					<g>
						<path class="st11" d="M84.6,128.1c0,1.3-0.1,2.7-0.1,4c0.4,0,0.8,0,1.2,0.1c0.2,0,0.4-0.2,0.5-0.5c0-1,0.1-2,0.1-3
							c0-0.3-0.2-0.5-0.4-0.5C85.4,128.1,85,128.1,84.6,128.1z"/>
					</g>
				</g>
				<path class="st8" d="M72.7,129.7c0,0.6,0.2,1.1,0.5,1.4c0.3,0.4,0.8,0.6,1.3,0.6c1.1,0,2.3,0.1,3.4,0.1c0-1.3,0-2.7,0-4
					c-1.2,0-2.3-0.1-3.5-0.1C73.5,127.7,72.7,128.6,72.7,129.7z"/>
				<g>
					<g>
						<path class="st11" d="M78,127.8c0,1.3,0,2.7,0,4c1.9,0.1,3.8,0.1,5.7,0.2c0-1.3,0.1-2.7,0.1-4C81.8,128,79.9,127.9,78,127.8z"
							/>
					</g>
				</g>
			</g>
			<g>
				<g>
					<path class="st11" d="M137.7,138.2c0.3-1.3,0.5-2.6,0.8-4c-0.4-0.1-0.8-0.1-1.2-0.2c-0.2,0-0.5,0.2-0.5,0.4c-0.2,1-0.4,2-0.6,3
						c-0.1,0.3,0.1,0.5,0.3,0.6C136.9,138.1,137.3,138.2,137.7,138.2z"/>
				</g>
				<path class="st8" d="M149.7,138.6c0.1-0.5,0-1.1-0.2-1.5c-0.2-0.4-0.6-0.7-1.1-0.8c-1.1-0.2-2.3-0.5-3.4-0.7
					c-0.3,1.3-0.6,2.6-0.9,3.9c1.1,0.2,2.2,0.5,3.4,0.7C148.4,140.3,149.4,139.6,149.7,138.6z"/>
				<g>
					<path class="st11" d="M144.1,139.5c0.3-1.3,0.6-2.6,0.9-3.9c-1.9-0.4-3.8-0.7-5.7-1.1c-0.3,1.3-0.5,2.6-0.8,4
						C140.4,138.7,142.2,139.1,144.1,139.5z"/>
				</g>
			</g>
			<path class="st8" d="M122.5,137.3c-7.6-1.1-15.3-2-23-2.6c-0.5,0-0.9-0.5-0.9-0.9c0.1-1.8,0.3-3.6,0.4-5.3c0-0.5,0.5-0.9,1.1-0.8
				c7.9,0.7,15.7,1.6,23.5,2.7c0.5,0.1,0.9,0.5,0.8,1c-0.3,1.8-0.5,3.5-0.8,5.3C123.5,137,123,137.4,122.5,137.3z"/>
		</g>
		<g>
			<g>
				<g>
					<path class="st11" d="M169.4,54.7c-0.1,0.4-0.4,0.8-0.7,1c-0.4,0.2-0.8,0.3-1.3,0.2c-0.8-0.2-1.7-0.4-2.5-0.6
						c-0.3-0.1-0.5-0.4-0.5-0.8c0.1-0.6,0.3-1.2,0.4-1.8c0.1-0.4,0.4-0.6,0.8-0.5c0.8,0.2,1.7,0.4,2.5,0.6
						C169,53,169.6,53.9,169.4,54.7z"/>
				</g>
				<g>
					<path class="st11" d="M158.6,52.4c0.1-0.4,0.4-0.8,0.7-1c0.4-0.2,0.8-0.3,1.3-0.2c0.8,0.2,1.7,0.4,2.5,0.5
						c0.3,0.1,0.6,0.4,0.5,0.8c-0.1,0.6-0.3,1.2-0.4,1.8c-0.1,0.4-0.4,0.6-0.8,0.5c-0.8-0.2-1.7-0.4-2.5-0.5
						C159,54.1,158.5,53.2,158.6,52.4z"/>
				</g>
			</g>
			<g>
				<g>
					<path class="st11" d="M83.4,43.7c0,0.4-0.2,0.8-0.5,1.1c-0.3,0.3-0.7,0.4-1.2,0.4c-0.9,0-1.7,0-2.6,0c-0.3,0-0.6-0.3-0.6-0.7
						c0-0.6,0-1.2,0-1.9c0-0.4,0.3-0.7,0.6-0.7c0.9,0,1.7,0,2.6,0C82.7,42.1,83.4,42.9,83.4,43.7z"/>
				</g>
				<g>
					<path class="st11" d="M72.5,43.6c0-0.4,0.2-0.8,0.5-1.1c0.3-0.3,0.7-0.5,1.2-0.5c0.9,0,1.7,0,2.6,0c0.3,0,0.6,0.3,0.6,0.7
						c0,0.6,0,1.2,0,1.9c0,0.4-0.3,0.7-0.6,0.7c-0.9,0-1.7,0-2.6,0C73.2,45.2,72.5,44.5,72.5,43.6z"/>
				</g>
			</g>
			<g>
				<path class="st8" d="M126.1,46.9c-0.1,0.4-0.3,0.8-0.6,1.1c-0.3,0.2-0.8,0.4-1.2,0.3c-2.1-0.3-4.2-0.5-6.4-0.7
					c-0.9-0.1-1.6-0.9-1.5-1.8c0-0.4,0.3-0.8,0.6-1.1c0.3-0.3,0.8-0.4,1.2-0.3c2.1,0.2,4.3,0.5,6.4,0.7
					C125.5,45.3,126.2,46.1,126.1,46.9z"/>
			</g>
		</g>
	</g>
	<g>
		<path class="st5" d="M152.2,82.3c-0.2-0.1-0.5,0-0.6,0.3c-4.2,11.1-8.5,22.3-12.6,33.5c0.2-1.1,0.4-2.3,0.7-3.4
			c-0.7-0.1-1.3-0.2-2-0.3c0.8-4.2,1.6-8.4,2.3-12.6c0.4,0,0.8,0.1,1.3,0.1c0.2-1.6,0.4-3.2,0.6-4.8c-0.5-0.1-0.9-0.1-1.4-0.2
			c0.5-4.3,1.1-8.5,1.6-12.8c2.3-2.2,4.5-4.4,6.8-6.5c-0.3-0.2-0.5-0.4-0.8-0.5c-2.2,2.2-4.5,4.3-6.7,6.5c-2.2-0.3-4.4-0.5-6.6-0.7
			c0.1-0.5,0.3-1,0.4-1.5c1.6,0.4,3.2,0.9,4.8,1.4c0.2,0.1,0.5-0.1,0.5-0.3c0.2-2.9,0.5-5.8,0.7-8.7c0-0.2-0.1-0.3-0.3-0.4
			c-2.3-0.7-4.6-1.3-6.9-2c-0.2,0-0.4,0-0.4,0.2c-1.3,2.6-2.7,5.2-4,7.8c-0.1,0.2,0,0.5,0.2,0.5c1.6,0.4,3.1,0.8,4.7,1.3
			c-0.2,0.6-0.3,1.1-0.5,1.7c-3.7-0.4-7.4-0.7-11.1-0.9c-1.8-2.5-3.6-5.1-5.3-7.6c-0.3,0.1-0.6,0.3-0.9,0.4c1.8,2.5,3.6,5.1,5.4,7.6
			c-0.3,4.3-0.6,8.7-0.9,13c-0.3,0-0.5,0-0.8,0c0,0.7-0.1,1.4-0.1,2.1c-4.7-0.6-9.4-1.1-14.1-1.5c0-1.2,0-2.4,0.1-3.6
			c-0.6,0-1.2,0-1.9,0c0.1-3.8,0.1-7.6,0.2-11.4c2.2,1.6,4.5,3.2,6.7,4.8c0.1-0.3,0.2-0.6,0.4-0.8c-2.3-1.7-4.7-3.4-7.1-5.1
			c0-0.3,0-0.6,0-1c-6.7-0.2-13.5-0.1-20.3,0c0,0.4,0,0.7,0,1.1c-1.9,2.2-3.7,4.4-5.6,6.6c0.2,0.2,0.4,0.5,0.6,0.7
			c1.7-2,3.4-4,5.1-5.9c0.1,3.7,0.3,7.4,0.4,11.1c-0.1,0-0.3,0-0.4,0c0.1,1.6,0.1,3.2,0.2,4.8c0.3,0,0.6,0,0.9,0
			c-0.1,3.8-0.2,7.7-0.3,11.5c-2.9-0.1-5.9-0.2-8.8-0.3c0,1.1,0,2.3,0,3.4c0.3,0,0.6,0,0.8,0c0,3.2,0,6.5-0.1,9.7
			c4.6,0.1,9.3,0.3,13.9,0.6c0.2-3.2,0.3-6.5,0.5-9.7c0.3,0,0.6,0,0.8,0.1c0.1-1.1,0.1-2.3,0.2-3.4c0.4,0,0.8,0,1.1,0.1
			c-0.2,4.4-0.5,8.7-0.7,13.1c4.6,0.3,9.2,0.7,13.8,1.2c0.4-4.4,0.8-8.7,1.3-13.1c0.7,0.1,1.5,0.1,2.2,0.2
			c-0.4,4.4-0.9,8.7-1.4,13.1c4.6,0.5,9.2,1.1,13.8,1.7c0.6-4.3,1.3-8.7,1.9-13c0.3,0,0.7,0.1,1,0.1c-0.6,4.3-1.3,8.7-1.9,13
			c4.6,0.7,9.2,1.4,13.7,2.2c0-0.2,0.1-0.4,0.1-0.6c2.1,0.6,4.2,1.2,6.3,1.8c5.5-13.7,11.1-27.4,16.7-41c0.1-0.2,0-0.5-0.3-0.6
			C157.3,84.3,154.8,83.3,152.2,82.3z M105.3,108.1c-0.6-0.1-1.2-0.1-1.9-0.2c0.4-4.3,0.7-8.5,1.1-12.8c0.4,0,0.7,0,1.1,0
			c-0.1,0.8-0.1,1.7-0.2,2.5c0.3,0,0.6,0.1,0.9,0.1C105.9,101.2,105.6,104.6,105.3,108.1z"/>
		<g>
			<g>
				<path class="st12" d="M148.2,109.8c-6.8-0.3-13.6-0.4-20.4-0.3c0-6,0-12-0.1-18c7.2-0.1,14.3,0.1,21.5,0.4
					C148.8,97.8,148.5,103.8,148.2,109.8z"/>
			</g>
			<path class="st13" d="M150.4,95.6c-7.9,0.2-15.8,0.5-23.7,1.2c-0.1-1.8-0.3-3.5-0.4-5.3c8-0.6,16-1,24.1-1.2
				C150.3,92.1,150.4,93.8,150.4,95.6z"/>
		</g>
		<g>
			<g>
				<path class="st14" d="M130.5,124.6c-5-0.8-10-1.5-15.1-2.1c0.5-4.3,1.1-8.5,1.6-12.8c5.2,0.6,10.4,1.4,15.6,2.2
					C131.9,116.1,131.2,120.3,130.5,124.6z"/>
			</g>
			<path class="st13" d="M133.2,114.2c-5.8-0.9-11.6-1.8-17.4-2.5c0.2-1.3,0.3-2.5,0.5-3.8c5.9,0.7,11.7,1.5,17.6,2.5
				C133.6,111.7,133.4,112.9,133.2,114.2z"/>
		</g>
		<g>
			<g>
				<path class="st15" d="M151.6,113.8c-1.1,4.7-2.1,9.4-3.2,14.1c-5-1-10-2-15-2.8c0.9-4.8,1.7-9.5,2.6-14.2
					C141.2,111.7,146.4,112.7,151.6,113.8z"/>
			</g>
			<path class="st13" d="M145.8,112.6c-1,4.7-2,9.4-3,14.2c-1.3-0.2-2.5-0.5-3.8-0.7c0.9-4.7,1.9-9.5,2.8-14.2
				C143.1,112.1,144.5,112.3,145.8,112.6z"/>
		</g>
		<g>
			<g>
				<g>
					<path class="st8" d="M105.7,75.4c-2.1,0.6-4.2,1.3-6.2,2c-0.7,0.2-1.4-0.1-1.6-0.8c-0.2-0.6-0.4-1.1-0.6-1.7
						c-0.2-0.7,0.1-1.4,0.8-1.6c2.1-0.7,4.2-1.3,6.3-2c0.7-0.2,1.4,0.2,1.6,0.8c0.2,0.6,0.3,1.1,0.5,1.7
						C106.8,74.5,106.4,75.2,105.7,75.4z"/>
				</g>
				<path class="st8" d="M99.4,75.2c-0.1-0.2-0.1-0.3-0.2-0.5c-0.1-0.3,0.1-0.6,0.4-0.7c1.4-0.4,2.8-0.9,4.2-1.3
					c0.3-0.1,0.6,0.1,0.7,0.4c0.1,0.2,0.1,0.3,0.2,0.5c0.1,0.3-0.1,0.6-0.4,0.7c-1.4,0.4-2.8,0.9-4.1,1.3
					C99.8,75.7,99.5,75.5,99.4,75.2z"/>
				<g>
					<path class="st8" d="M101.7,71.1c-0.4,0.1-0.9,0.3-1.3,0.4c-0.4-1.2-0.8-2.4-1.2-3.7c0.4-0.1,0.9-0.3,1.3-0.4
						C100.9,68.7,101.3,69.9,101.7,71.1z"/>
					<path class="st8" d="M101.6,69.2c0.2,0.6-0.1,1.3-0.8,1.5c-0.6,0.2-1.3-0.2-1.5-0.8c-0.2-0.6,0.1-1.3,0.8-1.5
						C100.7,68.2,101.4,68.5,101.6,69.2z"/>
					<g>
						<path class="st8" d="M105.3,59.3c-1.3-0.7-3.2-0.2-3.8,1.3c-0.8,1.9-0.6,4,0.2,5.5c0.2,0.3,0.4,0.6,0.7,0.7
							c0.3,0.1,0.8,0,1-0.3c0.2-0.4-0.1-0.7,0-1.1c0.1-0.6,0.8-0.9,1.3-1.3c0.9-0.6,1.5-1.5,1.7-2.4
							C106.5,60.8,106.1,59.8,105.3,59.3z M105.7,61.6c-0.1,0.7-0.7,1.5-1.4,2c-0.1,0-0.2,0.1-0.2,0.1c-0.6,0.4-1.3,0.8-1.4,1.6
							c0,0.2,0,0.5,0,0.6c0,0.1,0,0.2,0,0.2c0,0,0,0,0,0c0,0-0.1,0-0.1,0c-0.1-0.1-0.3-0.3-0.3-0.4c-0.8-1.5-0.9-3.4-0.2-5
							c0.3-0.6,0.9-1,1.6-1.1c0.4-0.1,0.8,0,1.2,0.2C105.5,60.2,105.8,60.9,105.7,61.6z"/>
						<path class="st8" d="M91,66.4c0.7,0.7,1.8,1.1,2.8,1.1c0.7,0,1.4-0.1,1.8,0.3c0.3,0.3,0.3,0.7,0.6,0.9c0.3,0.2,0.8,0,1-0.3
							c0.2-0.3,0.2-0.6,0.1-1c-0.2-1.8-1.3-3.6-3-4.7c-1.3-0.9-3.2-0.3-3.9,1.1C90.1,64.6,90.3,65.7,91,66.4z M91.1,64
							c0.2-0.3,0.5-0.6,0.9-0.8c0.7-0.3,1.4-0.3,2,0.1c1.5,1,2.6,2.6,2.8,4.3c0,0.2,0,0.4,0,0.5c0,0,0,0-0.1,0c0,0,0,0,0,0
							c0,0-0.1-0.1-0.1-0.2c-0.1-0.2-0.2-0.4-0.3-0.6c-0.5-0.6-1.4-0.6-2-0.6c-0.1,0-0.2,0-0.3,0c-0.9,0-1.8-0.3-2.3-0.9
							C91,65.4,90.8,64.6,91.1,64z"/>
					</g>
					<path class="st8" d="M93.1,61c2.8-0.9,5.6-1.7,8.4-2.5c0.4,1.4,0.8,2.7,1.2,4.1c0.7,2.3-0.6,4.7-2.8,5.4c0,0,0,0,0,0
						c-2.3,0.7-4.7-0.6-5.5-2.9C94,63.7,93.6,62.4,93.1,61z"/>
					<path class="st8" d="M101.9,58.6c-3,0.9-6,1.8-9,2.7c-0.2,0.1-0.5-0.1-0.5-0.3l0,0c-0.1-0.2,0-0.5,0.3-0.5c3-0.9,6-1.8,9.1-2.7
						c0.2-0.1,0.5,0.1,0.5,0.3l0,0C102.3,58.3,102.1,58.6,101.9,58.6z"/>
					<path class="st8" d="M104,71.4c0.1,0.4-1.1,0.7-2.6,1.1c-1.5,0.5-2.7,0.9-2.8,0.5c-0.1-0.4,0.9-1.4,2.4-1.9
						C102.5,70.7,103.9,71,104,71.4z"/>
				</g>
			</g>
			<g>
				<g>
					<g>
						<path class="st15" d="M85.3,60.9c2.5,2.8,4.9,5.7,7.3,8.5c-0.3,0.2-0.6,0.3-0.9,0.5c-2.4-2.9-4.9-5.7-7.4-8.5
							C84.7,61.3,85,61.1,85.3,60.9z"/>
					</g>
					<g>
						<path class="st15" d="M119.7,60.8c-2.4,2.8-4.8,5.7-7.2,8.6c0.3,0.2,0.6,0.3,0.9,0.5c2.4-2.9,4.8-5.7,7.2-8.6
							C120.3,61.1,120,60.9,119.7,60.8z"/>
					</g>
				</g>
				<g>
					<path class="st15" d="M113.9,68.8c-0.1,5.1-0.2,10.2-0.3,15.3c-7.2-0.2-14.5-0.2-21.7,0c-0.2-5.1-0.4-10.2-0.6-15.3
						C98.8,68.7,106.3,68.6,113.9,68.8z"/>
				</g>
			</g>
		</g>
		<g>
			<g>
				<g>
					<path class="st12" d="M115.6,88.4c-1.2,11-2.5,22.1-3.7,33.1c0,0.3-0.3,0.5-0.6,0.5c-0.7-0.1-1.3-0.1-2-0.2
						c-0.3,0-0.6-0.3-0.5-0.6c0.1-0.7,0.1-1.4,0.2-2.1c0-0.2-0.1-0.4-0.3-0.4c-7.3-0.8-14.6-1.3-22-1.7c-0.2,0-0.4,0.1-0.4,0.3
						c0,0.7-0.1,1.4-0.1,2.1c0,0.3-0.3,0.5-0.6,0.5c-0.7,0-1.3-0.1-2-0.1c-0.3,0-0.6-0.3-0.6-0.6c0.3-11.1,0.6-22.1,0.8-33.2
						C94.4,86.4,105,87.2,115.6,88.4z"/>
				</g>
			</g>
			<g>
				<path class="st16" d="M115,90.3C104.7,89.1,94.4,88.3,84,88c-0.9,0-1.6-0.8-1.6-1.7c0,0,0,0,0,0c0-0.9,0.8-1.6,1.7-1.6
					c10.4,0.4,20.8,1.2,31.2,2.3c0.9,0.1,1.6,0.9,1.5,1.8l0,0C116.7,89.7,115.9,90.4,115,90.3z"/>
			</g>
			<g>
				<g>
					<path class="st16" d="M109.4,102.9c-7.3-0.7-14.5-1.3-21.8-1.7c-1.4-0.1-2.4-1.2-2.4-2.5c0.1-2,0.1-4.1,0.2-6.1
						c0-1.4,1.2-2.4,2.6-2.3c7.5,0.4,15,0.9,22.5,1.7c1.4,0.1,2.4,1.4,2.3,2.7c-0.2,2-0.4,4.1-0.7,6.1
						C112,102.1,110.7,103,109.4,102.9z"/>
				</g>
				<path class="st17" d="M100.8,96.8c-0.1,1-0.9,1.7-1.9,1.6c-1-0.1-1.7-0.9-1.7-1.9c0.1-1,0.9-1.7,1.9-1.6
					C100.1,95,100.9,95.9,100.8,96.8z"/>
			</g>
			<g>
				<g>
					<path class="st16" d="M108.2,114.9c-7-0.7-14-1.3-21.1-1.6c-1.3-0.1-2.3-1.1-2.3-2.3c0.1-1.9,0.1-3.8,0.2-5.8
						c0-1.3,1.2-2.3,2.5-2.2c7.3,0.4,14.5,0.9,21.7,1.6c1.3,0.1,2.3,1.3,2.2,2.6c-0.2,1.9-0.4,3.8-0.6,5.8
						C110.7,114.1,109.5,115,108.2,114.9z"/>
				</g>
				<path class="st17" d="M99.8,109c-0.1,0.9-0.9,1.6-1.9,1.5c-1-0.1-1.7-0.9-1.6-1.8c0.1-0.9,0.9-1.6,1.9-1.5
					C99.1,107.3,99.8,108.1,99.8,109z"/>
			</g>
		</g>
		<g>
			<g>
				<path class="st8" d="M92.8,120.2c-5-1-10-2-15-2.8c0.6-4.2,1.3-8.5,1.9-12.7c5.2,0.9,10.4,1.8,15.5,2.9
					C94.5,111.8,93.7,116,92.8,120.2z"/>
			</g>
			<path class="st13" d="M95.8,109.9c-5.7-1.2-11.5-2.3-17.2-3.2c0.2-1.2,0.4-2.5,0.5-3.7c5.8,1,11.7,2,17.4,3.2
				C96.3,107.4,96,108.6,95.8,109.9z"/>
		</g>
		<g>
			<path class="st14" d="M152.4,84.1c-1.6-0.6-3.3-0.8-5.1-0.6c-0.1,0-0.2,0-0.3,0c2.4-1.7,4.7-3.5,7.5-3.1c0.1,0,0.2-0.2,0.1-0.2
				c-2-0.6-4.1,0.3-6.1,1.3c-1.3,0.7-2.5,1.4-3.8,2c-0.6,0.3-1.2,0.5-1.7,0.6c3-2.3,5.3-5.4,6.8-9c0,0,0-0.1-0.1,0
				c-2,3.5-4.7,6.3-7.8,8.5c1.5-2.2,3.1-4.4,4.5-6.7c1.6-2.7,3.1-5.5,5-8c0.1-0.1,0-0.2-0.1-0.1c-2.1,2.4-4.4,4.7-6.3,7.3
				c-0.8,1.1-1.5,2.3-2.1,3.5c0.4-0.9,0.7-1.7,1.1-2.6c1.1-2.4,2.2-4.9,3.5-7.2c0.1-0.1-0.1-0.2-0.2-0.1c-1.9,2.2-3.5,4.5-4.7,7.2
				c-0.1,0.3-0.2,0.6-0.4,0.9c0.2-2.7,0.1-5.5,0.7-8.2c0-0.1-0.1-0.1-0.1,0c-0.8,2.5-1.8,5-2.1,7.5c-0.1,1-0.1,2.1-0.1,3.1
				c-1.4-2.6-3.9-4.6-5.6-6.2c-0.1-0.1-0.2,0.1-0.1,0.1c1.4,1.7,2.9,3.4,3.9,5.6c0.7,1.5,1.1,3.1,1.6,4.7c-0.1,0.1-0.1,0.3-0.1,0.4
				c0.1,0.1,0.1,0.2,0.2,0.3c0,0.2,0.2,0.4,0.4,0.4c0.1,0,0.2,0,0.2,0.1c1.2,0.5,2.9-0.1,4.1-0.5c2.5-0.9,4.7-1.1,7.1-0.6
				C152.4,84.3,152.5,84.1,152.4,84.1z"/>
			<path class="st8" d="M147.5,86.3c-1,3.5-5.3,5.2-9.3,2.9c-4-2.3-4.6-6.8-2.1-9.5c0,0,0,0,0,0c0.2-0.2,0.6-0.3,0.9-0.2
				c1.7,0.5,3.6,1.3,5.4,2.4c1.8,1.1,3.5,2.3,4.8,3.5C147.5,85.6,147.6,86,147.5,86.3C147.5,86.3,147.5,86.3,147.5,86.3z"/>
		</g>
	</g>
</g>
</svg>
