<?xml version="1.0" encoding="utf-8"?>
<!-- Generator: Adobe Illustrator 24.0.1, SVG Export Plug-In . SVG Version: 6.00 Build 0)  -->
<svg version="1.1" id="Livello_1" xmlns="http://www.w3.org/2000/svg" xmlns:xlink="http://www.w3.org/1999/xlink" x="0px" y="0px"
	 viewBox="0 0 223.2 189.5" style="enable-background:new 0 0 223.2 189.5;" xml:space="preserve">
<style type="text/css">
	.st0{fill:#3489A3;}
	.st1{opacity:0.24;fill:#FFFFFF;}
	.st2{fill:#67A1B8;}
	.st3{fill:#E6BD53;}
	.st4{opacity:0.9;fill:#278DBC;}
	.st5{fill:#77443D;}
	.st6{fill:#213C54;}
	.st7{fill:#FFFFFF;}
	.st8{opacity:0.37;fill:#FFFFFF;}
	.st9{fill:url(#SVGID_1_);}
	.st10{fill:url(#SVGID_2_);}
	.st11{fill:url(#SVGID_3_);}
	.st12{fill:url(#SVGID_4_);}
	.st13{fill:url(#SVGID_5_);}
	.st14{fill:url(#SVGID_6_);}
	.st15{fill:url(#SVGID_7_);}
	.st16{fill:#5C5C5C;}
	.st17{fill:url(#SVGID_8_);}
	.st18{fill:url(#SVGID_9_);}
	.st19{fill:url(#SVGID_10_);}
	.st20{fill:url(#SVGID_11_);}
	.st21{fill:url(#SVGID_12_);}
	.st22{fill:url(#SVGID_13_);}
	.st23{fill:url(#SVGID_14_);}
	.st24{fill:url(#SVGID_15_);}
	.st25{fill:url(#SVGID_16_);}
	.st26{fill:url(#SVGID_17_);}
	.st27{fill:url(#SVGID_18_);}
	.st28{fill:url(#SVGID_19_);}
	.st29{fill:url(#SVGID_20_);}
	.st30{fill:url(#SVGID_21_);}
	.st31{fill:#8C5347;}
	.st32{fill:url(#SVGID_22_);}
	.st33{fill:url(#SVGID_23_);}
	.st34{fill:url(#SVGID_24_);}
	.st35{fill:url(#SVGID_25_);}
	.st36{fill:url(#SVGID_26_);}
	.st37{fill:url(#SVGID_27_);}
	.st38{fill:url(#SVGID_28_);}
	.st39{fill:url(#SVGID_29_);}
	.st40{fill:url(#SVGID_30_);}
	.st41{fill:url(#SVGID_31_);}
	.st42{fill:url(#SVGID_32_);}
	.st43{fill:url(#SVGID_33_);}
	.st44{fill:url(#SVGID_34_);}
	.st45{fill:url(#SVGID_35_);}
	.st46{fill:#278DBC;}
	.st47{fill:url(#SVGID_36_);}
	.st48{fill:url(#SVGID_37_);}
	.st49{fill:url(#SVGID_38_);}
	.st50{fill:url(#SVGID_39_);}
	.st51{fill:url(#SVGID_40_);}
	.st52{fill:url(#SVGID_41_);}
	.st53{fill:url(#SVGID_42_);}
	.st54{fill:url(#SVGID_43_);}
	.st55{fill:url(#SVGID_44_);}
	.st56{fill:url(#SVGID_45_);}
	.st57{fill:url(#SVGID_46_);}
	.st58{fill:url(#SVGID_47_);}
	.st59{fill:url(#SVGID_48_);}
	.st60{fill:url(#SVGID_49_);}
	.st61{fill:url(#SVGID_50_);}
	.st62{fill:url(#SVGID_51_);}
	.st63{fill:url(#SVGID_52_);}
	.st64{fill:url(#SVGID_53_);}
	.st65{fill:url(#SVGID_54_);}
	.st66{fill:url(#SVGID_55_);}
	.st67{fill:url(#SVGID_56_);}
	.st68{fill:url(#SVGID_57_);}
	.st69{fill:url(#SVGID_58_);}
	.st70{fill:#A35338;}
	.st71{fill:url(#SVGID_59_);}
	.st72{fill:#0271A5;}
	.st73{fill:#95B0DD;}
	.st74{fill:url(#SVGID_60_);}
</style>
<g>
	<g>
		<g>
			<path class="st0" d="M56.3,122.3c-0.6-15.1-4-74.9-22.1-111.6c-1.3-2.6-5.4-3-6.4-0.3c-6,15.7-26.7,64.6,26,113.1
				C54.8,124.5,56.4,123.7,56.3,122.3z"/>
			<path class="st1" d="M53.8,122.2c-0.1-0.1-0.2-0.2-0.3-0.4c-13.6-28.4-19-51.9-21-66.7c-2.3-16-1.3-25.2-1.3-25.6
				c0.1-0.5,0.5-0.8,1-0.8c0.5,0.1,0.8,0.5,0.8,1c0,0.4-3.7,37.4,22.1,91.3c0.2,0.4,0,1-0.4,1.2C54.4,122.4,54.1,122.4,53.8,122.2z"
				/>
		</g>
		<g>
			<path class="st2" d="M57.6,102.5c0.9,1.2,2.8,1,3.5-0.3c4-7.3,13.5-28.9,2.7-55.5C54.7,24.2,51.9,11.2,51,5.2
				c-0.2-1.3-1.9-1.6-2.5-0.4C41.8,17.2,23.3,60,57.6,102.5z"/>
			<path class="st1" d="M59.4,101.9c-0.2-0.1-0.4-0.3-0.3-0.6c0-0.4,2.2-36.9-9-68.5c-0.1-0.3,0.1-0.7,0.4-0.8
				c0.3-0.1,0.7,0.1,0.8,0.4c11.2,31.8,9.1,68.6,9.1,69c0,0.3-0.3,0.6-0.7,0.6C59.5,101.9,59.5,101.9,59.4,101.9z"/>
		</g>
	</g>
	<g>
		<rect x="41.4" y="61.4" class="st3" width="151.2" height="104.7"/>
		<g>
			<path class="st4" d="M112.7,165.7H53.9V93.5c0-7.3,5.9-13.2,13.2-13.2H94c10.4,0,18.8,8.4,18.8,18.8V165.7z"/>
			<path class="st5" d="M112.2,86.5H56c-2.1,0-3.7-1.7-3.7-3.7v0c0-2.1,1.7-3.7,3.7-3.7h56.2c2.1,0,3.7,1.7,3.7,3.7v0
				C115.9,84.8,114.3,86.5,112.2,86.5z"/>
		</g>
		<g>
			<path class="st4" d="M180.6,166.2h-58.9V94c0-7.3,5.9-13.2,13.2-13.2h26.9c10.4,0,18.8,8.4,18.8,18.8V166.2z"/>
			<path class="st5" d="M180.2,87.2h-57.6c-1.7-0.6-3-2-3-3.7v-1.4c0-1.7,1.4-3,3-3h57.6c1.7,0,3,1.4,3,3v1.4
				C183.3,85.2,181.9,86.6,180.2,87.2z"/>
		</g>
		<g>
			<g>
				<path class="st6" d="M87.7,160.6c2,0,3.6-1.7,3.6-4V139c0-2.3-1.7-4.2-3.8-4.2c-6.3-0.1-19.2-0.1-29.8,0.9
					c-1.4,0.1-2.6,1.4-2.6,3.1l-1,17c-0.1,2.3,1.5,4.1,3.6,4.2L87.7,160.6z"/>
				<path class="st7" d="M87.7,140.9c0,1.5,0,3.9,0,5.4c0,0.8-0.7,1.4-1.4,1.3l-5.2-0.7c-0.7-0.1-1.2-0.8-1.1-1.6l0.6-4.7
					c0.1-0.7,0.6-1.2,1.2-1.2h4.6C87.1,139.6,87.7,140.2,87.7,140.9z"/>
				<path class="st8" d="M74.2,149.8l-4.3,0.5c-0.6,0.1-1.1-0.5-1.1-1.1l0.9-14.2c1.8-0.1,3.6-0.1,5.3-0.1v13.9
					C75.1,149.3,74.7,149.8,74.2,149.8z"/>
				<path class="st7" d="M72.4,147.4c0,0.3-0.2,0.5-0.4,0.5c0,0,0,0,0,0c-0.2,0-0.4-0.2-0.4-0.5l0.6-12.4c0.3,0,0.6,0,0.9,0
					L72.4,147.4z"/>
				<g>
					
						<linearGradient id="SVGID_1_" gradientUnits="userSpaceOnUse" x1="-1599.5175" y1="140.4848" x2="-1609.7673" y2="155.379" gradientTransform="matrix(-1 0 0 1 -1516.0498 0)">
						<stop  offset="0" style="stop-color:#2A3780"/>
						<stop  offset="1" style="stop-color:#201D3F"/>
					</linearGradient>
					<path class="st9" d="M85.3,145.4c0.1,0,0.1-0.1,0.1-0.1l0.2-3.9c0-0.1-0.1-0.2-0.1-0.2c-0.1,0-0.1,0.1-0.2,0.1l-0.2,3.9
						C85.1,145.3,85.2,145.4,85.3,145.4C85.3,145.4,85.3,145.4,85.3,145.4z"/>
					
						<linearGradient id="SVGID_2_" gradientUnits="userSpaceOnUse" x1="-1599.2084" y1="140.7434" x2="-1609.4384" y2="155.6088" gradientTransform="matrix(-1 0 0 1 -1516.0498 0)">
						<stop  offset="0" style="stop-color:#2A3780"/>
						<stop  offset="1" style="stop-color:#201D3F"/>
					</linearGradient>
					<path class="st10" d="M84.8,145.4c0.1,0,0.1-0.1,0.1-0.2l0.1-4c0-0.1-0.1-0.2-0.1-0.2c-0.1,0-0.1,0.1-0.1,0.2l-0.1,4
						C84.7,145.3,84.7,145.4,84.8,145.4C84.8,145.4,84.8,145.4,84.8,145.4z"/>
					
						<linearGradient id="SVGID_3_" gradientUnits="userSpaceOnUse" x1="-1598.8263" y1="141.0466" x2="-1609.0662" y2="155.9263" gradientTransform="matrix(-1 0 0 1 -1516.0498 0)">
						<stop  offset="0" style="stop-color:#2A3780"/>
						<stop  offset="1" style="stop-color:#201D3F"/>
					</linearGradient>
					<path class="st11" d="M84.2,145.4c-0.1,0-0.1-0.1-0.1-0.2c0.1-1.3,0.2-3.9,0.2-4c0-0.1,0.1-0.2,0.1-0.2c0.1,0,0.1,0.1,0.1,0.2
						c0,0.1-0.1,3.3-0.2,4C84.4,145.3,84.3,145.4,84.2,145.4C84.2,145.4,84.2,145.4,84.2,145.4z M84.2,141.3L84.2,141.3L84.2,141.3z
						"/>
					
						<linearGradient id="SVGID_4_" gradientUnits="userSpaceOnUse" x1="-1598.1704" y1="141.5818" x2="-1608.3721" y2="156.4061" gradientTransform="matrix(-1 0 0 1 -1516.0498 0)">
						<stop  offset="0" style="stop-color:#2A3780"/>
						<stop  offset="1" style="stop-color:#201D3F"/>
					</linearGradient>
					<path class="st12" d="M83.3,145.6c0.2,0,0.3-0.1,0.3-0.3c0.1-3.9,0.1-3.9,0.1-4c0-0.2-0.2-0.3-0.4-0.2c-0.1,0-0.2,0.2-0.2,0.4
						c0,0.2-0.1,2.5-0.1,3.8C83,145.4,83.1,145.6,83.3,145.6C83.2,145.6,83.3,145.6,83.3,145.6z"/>
					
						<linearGradient id="SVGID_5_" gradientUnits="userSpaceOnUse" x1="-1597.735" y1="141.9281" x2="-1607.9448" y2="156.7644" gradientTransform="matrix(-1 0 0 1 -1516.0498 0)">
						<stop  offset="0" style="stop-color:#2A3780"/>
						<stop  offset="1" style="stop-color:#201D3F"/>
					</linearGradient>
					<path class="st13" d="M82.6,145.4c0.1,0,0.1-0.1,0.1-0.2v-3.9c0-0.1-0.1-0.2-0.1-0.2c-0.1,0-0.1,0.1-0.1,0.2v3.9
						C82.5,145.3,82.5,145.4,82.6,145.4z"/>
					
						<linearGradient id="SVGID_6_" gradientUnits="userSpaceOnUse" x1="-1597.4633" y1="142.1407" x2="-1607.7028" y2="157.0198" gradientTransform="matrix(-1 0 0 1 -1516.0498 0)">
						<stop  offset="0" style="stop-color:#2A3780"/>
						<stop  offset="1" style="stop-color:#201D3F"/>
					</linearGradient>
					<path class="st14" d="M82.1,145.4c0.1,0,0.1-0.1,0.1-0.2c0-1.4,0.1-3.6,0.2-3.8c0-0.1,0-0.1,0-0.2c0-0.1-0.1-0.1-0.2,0
						c-0.1,0.1-0.2,0.1-0.2,4C82,145.3,82,145.4,82.1,145.4L82.1,145.4z"/>
					
						<linearGradient id="SVGID_7_" gradientUnits="userSpaceOnUse" x1="-1599.9685" y1="140.1316" x2="-1610.187" y2="154.9804" gradientTransform="matrix(-1 0 0 1 -1516.0498 0)">
						<stop  offset="0" style="stop-color:#2A3780"/>
						<stop  offset="1" style="stop-color:#201D3F"/>
					</linearGradient>
					<path class="st15" d="M86.1,145.8c0.2,0,0.3-0.1,0.3-0.3l0.2-4.1c0-0.2-0.1-0.3-0.3-0.3c-0.2,0-0.3,0.1-0.3,0.3l-0.2,4.1
						C85.8,145.6,85.9,145.8,86.1,145.8C86.1,145.8,86.1,145.8,86.1,145.8z"/>
				</g>
			</g>
			<g>
				<path class="st16" d="M87.3,132.7v-15.8c0-2.1-1.4-3.8-3.2-3.8c-5.4-0.1-16.5-0.1-25.6,0.8c-1.2,0.1-2.2,1.3-2.3,2.7L55.3,132
					c-0.1,2,1.3,3.7,3.1,3.8l25.8,0.6C85.8,136.3,87.3,134.7,87.3,132.7z"/>
				<path class="st7" d="M84.1,118.6c0,1.3,0,3.5,0,4.9c0,0.7-0.6,1.3-1.2,1.2l-4.4-0.6c-0.6-0.1-1-0.7-0.9-1.4l0.5-4.2
					c0.1-0.6,0.5-1,1-1h3.9C83.7,117.4,84.1,117.9,84.1,118.6z"/>
				<path class="st8" d="M72.5,126.6l-3.7,0.5c-0.5,0.1-1-0.4-0.9-1l0.8-12.8c1.6-0.1,3.1-0.1,4.6-0.1v12.5
					C73.3,126.1,73,126.5,72.5,126.6z"/>
				<path class="st7" d="M71,124.4c0,0.2-0.2,0.4-0.4,0.4c0,0,0,0,0,0c-0.2,0-0.4-0.2-0.4-0.5l0.6-11.1c0.3,0,0.5,0,0.7,0L71,124.4z
					"/>
				<g>
					
						<linearGradient id="SVGID_8_" gradientUnits="userSpaceOnUse" x1="-1596.4883" y1="118.1982" x2="-1605.7014" y2="131.5861" gradientTransform="matrix(-1 0 0 1 -1516.0498 0)">
						<stop  offset="0" style="stop-color:#2A3780"/>
						<stop  offset="1" style="stop-color:#201D3F"/>
					</linearGradient>
					<path class="st17" d="M82.1,122.6c0.1,0,0.1-0.1,0.1-0.1l0.2-3.5c0-0.1,0-0.1-0.1-0.2c-0.1,0-0.1,0.1-0.1,0.1l-0.2,3.5
						C82,122.5,82,122.6,82.1,122.6C82.1,122.6,82.1,122.6,82.1,122.6z"/>
					
						<linearGradient id="SVGID_9_" gradientUnits="userSpaceOnUse" x1="-1596.2314" y1="118.4325" x2="-1605.4197" y2="131.7841" gradientTransform="matrix(-1 0 0 1 -1516.0498 0)">
						<stop  offset="0" style="stop-color:#2A3780"/>
						<stop  offset="1" style="stop-color:#201D3F"/>
					</linearGradient>
					<path class="st18" d="M81.7,122.6c0.1,0,0.1-0.1,0.1-0.1l0.1-3.6c0-0.1-0.1-0.1-0.1-0.1c-0.1,0-0.1,0.1-0.1,0.1l-0.1,3.6
						C81.6,122.6,81.6,122.6,81.7,122.6C81.7,122.6,81.7,122.6,81.7,122.6z"/>
					
						<linearGradient id="SVGID_10_" gradientUnits="userSpaceOnUse" x1="-1595.91" y1="118.704" x2="-1605.1107" y2="132.0737" gradientTransform="matrix(-1 0 0 1 -1516.0498 0)">
						<stop  offset="0" style="stop-color:#2A3780"/>
						<stop  offset="1" style="stop-color:#201D3F"/>
					</linearGradient>
					<path class="st19" d="M81.2,122.6c-0.1,0-0.1-0.1-0.1-0.2c0-1.2,0.1-3.5,0.1-3.6c0-0.1,0.1-0.1,0.1-0.1c0.1,0,0.1,0.1,0.1,0.1
						c0,0.1-0.1,3-0.1,3.6C81.3,122.6,81.2,122.6,81.2,122.6C81.2,122.6,81.2,122.6,81.2,122.6z M81.2,118.9L81.2,118.9L81.2,118.9z
						"/>
					
						<linearGradient id="SVGID_11_" gradientUnits="userSpaceOnUse" x1="-1595.3604" y1="119.1871" x2="-1604.5137" y2="132.488" gradientTransform="matrix(-1 0 0 1 -1516.0498 0)">
						<stop  offset="0" style="stop-color:#2A3780"/>
						<stop  offset="1" style="stop-color:#201D3F"/>
					</linearGradient>
					<path class="st20" d="M80.3,122.8c0.1,0,0.2-0.1,0.2-0.3c0.1-3.5,0.1-3.5,0.1-3.6c0-0.2-0.2-0.2-0.3-0.2
						c-0.1,0-0.2,0.2-0.2,0.3c0,0.2,0,2.2-0.1,3.5C80.1,122.6,80.2,122.8,80.3,122.8C80.3,122.8,80.3,122.8,80.3,122.8z"/>
					
						<linearGradient id="SVGID_12_" gradientUnits="userSpaceOnUse" x1="-1594.9944" y1="119.4974" x2="-1604.1576" y2="132.8127" gradientTransform="matrix(-1 0 0 1 -1516.0498 0)">
						<stop  offset="0" style="stop-color:#2A3780"/>
						<stop  offset="1" style="stop-color:#201D3F"/>
					</linearGradient>
					<path class="st21" d="M79.8,122.6c0.1,0,0.1-0.1,0.1-0.1V119c0-0.1-0.1-0.1-0.1-0.1c-0.1,0-0.1,0.1-0.1,0.1v3.5
						C79.7,122.6,79.7,122.6,79.8,122.6z"/>
					
						<linearGradient id="SVGID_13_" gradientUnits="userSpaceOnUse" x1="-1594.7654" y1="119.687" x2="-1603.9657" y2="133.0562" gradientTransform="matrix(-1 0 0 1 -1516.0498 0)">
						<stop  offset="0" style="stop-color:#2A3780"/>
						<stop  offset="1" style="stop-color:#201D3F"/>
					</linearGradient>
					<path class="st22" d="M79.4,122.6c0.1,0,0.1-0.1,0.1-0.1c0-1.2,0.1-3.2,0.1-3.4c0,0,0-0.1,0-0.1c0-0.1-0.1-0.1-0.2,0
						c-0.1,0.1-0.1,0.1-0.2,3.6C79.2,122.6,79.3,122.6,79.4,122.6L79.4,122.6z"/>
					
						<linearGradient id="SVGID_14_" gradientUnits="userSpaceOnUse" x1="-1596.8666" y1="117.8841" x2="-1606.041" y2="131.2158" gradientTransform="matrix(-1 0 0 1 -1516.0498 0)">
						<stop  offset="0" style="stop-color:#2A3780"/>
						<stop  offset="1" style="stop-color:#201D3F"/>
					</linearGradient>
					<path class="st23" d="M82.8,122.9c0.1,0,0.2-0.1,0.2-0.3l0.2-3.7c0-0.2-0.1-0.3-0.2-0.3c-0.1,0-0.3,0.1-0.3,0.3l-0.2,3.7
						C82.5,122.8,82.6,122.9,82.8,122.9C82.7,122.9,82.7,122.9,82.8,122.9z"/>
				</g>
			</g>
			<g>
				<path class="st3" d="M78.8,110.7v-12c0-1.6-1.1-2.8-2.4-2.9c-4.1-0.1-12.5-0.1-19.4,0.6c-0.9,0.1-1.7,1-1.7,2.1l-0.6,11.6
					c0,1.5,1,2.8,2.3,2.8l19.5,0.4C77.7,113.5,78.8,112.2,78.8,110.7z"/>
				<path class="st7" d="M76.4,100.1c0,1,0,2.6,0,3.7c0,0.5-0.4,1-0.9,0.9l-3.4-0.5c-0.4-0.1-0.8-0.5-0.7-1.1l0.4-3.2
					c0.1-0.5,0.4-0.8,0.8-0.8h3C76,99.2,76.4,99.6,76.4,100.1z"/>
				<path class="st8" d="M67.6,106.1l-2.8,0.3c-0.4,0-0.7-0.3-0.7-0.8l0.6-9.6c1.2,0,2.3-0.1,3.4-0.1v9.4
					C68.2,105.7,67.9,106.1,67.6,106.1z"/>
				<path class="st7" d="M66.5,104.4c0,0.2-0.1,0.3-0.3,0.3c0,0,0,0,0,0c-0.2,0-0.3-0.2-0.3-0.3l0.4-8.4c0.2,0,0.4,0,0.6,0
					L66.5,104.4z"/>
				<g>
					
						<linearGradient id="SVGID_15_" gradientUnits="userSpaceOnUse" x1="-1589.6481" y1="99.7629" x2="-1596.6058" y2="109.8734" gradientTransform="matrix(-1 0 0 1 -1516.0498 0)">
						<stop  offset="0" style="stop-color:#2A3780"/>
						<stop  offset="1" style="stop-color:#201D3F"/>
					</linearGradient>
					<path class="st24" d="M74.8,103.1c0,0,0.1,0,0.1-0.1l0.1-2.6c0-0.1,0-0.1-0.1-0.1c-0.1,0-0.1,0-0.1,0.1l-0.1,2.6
						C74.7,103,74.8,103.1,74.8,103.1C74.8,103.1,74.8,103.1,74.8,103.1z"/>
					
						<linearGradient id="SVGID_16_" gradientUnits="userSpaceOnUse" x1="-1589.4541" y1="99.9398" x2="-1596.3931" y2="110.023" gradientTransform="matrix(-1 0 0 1 -1516.0498 0)">
						<stop  offset="0" style="stop-color:#2A3780"/>
						<stop  offset="1" style="stop-color:#201D3F"/>
					</linearGradient>
					<path class="st25" d="M74.5,103.1c0.1,0,0.1,0,0.1-0.1l0.1-2.7c0-0.1,0-0.1-0.1-0.1c-0.1,0-0.1,0-0.1,0.1l-0.1,2.7
						C74.4,103.1,74.5,103.1,74.5,103.1C74.5,103.1,74.5,103.1,74.5,103.1z"/>
					
						<linearGradient id="SVGID_17_" gradientUnits="userSpaceOnUse" x1="-1589.2114" y1="100.1449" x2="-1596.1598" y2="110.2416" gradientTransform="matrix(-1 0 0 1 -1516.0498 0)">
						<stop  offset="0" style="stop-color:#2A3780"/>
						<stop  offset="1" style="stop-color:#201D3F"/>
					</linearGradient>
					<path class="st26" d="M74.1,103.1c-0.1,0-0.1-0.1-0.1-0.1c0-0.9,0.1-2.6,0.1-2.7c0-0.1,0-0.1,0.1-0.1c0.1,0,0.1,0,0.1,0.1
						c0,0-0.1,2.3-0.1,2.7C74.2,103.1,74.2,103.1,74.1,103.1C74.1,103.1,74.1,103.1,74.1,103.1z M74.2,100.3L74.2,100.3L74.2,100.3z
						"/>
					
						<linearGradient id="SVGID_18_" gradientUnits="userSpaceOnUse" x1="-1588.7964" y1="100.5097" x2="-1595.7089" y2="110.5546" gradientTransform="matrix(-1 0 0 1 -1516.0498 0)">
						<stop  offset="0" style="stop-color:#2A3780"/>
						<stop  offset="1" style="stop-color:#201D3F"/>
					</linearGradient>
					<path class="st27" d="M73.5,103.2c0.1,0,0.2-0.1,0.2-0.2c0.1-2.6,0.1-2.7,0.1-2.7c0-0.1-0.1-0.2-0.2-0.2
						c-0.1,0-0.1,0.1-0.1,0.2c0,0.2,0,1.7-0.1,2.6C73.3,103.1,73.4,103.2,73.5,103.2C73.5,103.2,73.5,103.2,73.5,103.2z"/>
					
						<linearGradient id="SVGID_19_" gradientUnits="userSpaceOnUse" x1="-1588.5199" y1="100.7441" x2="-1595.4399" y2="110.7998" gradientTransform="matrix(-1 0 0 1 -1516.0498 0)">
						<stop  offset="0" style="stop-color:#2A3780"/>
						<stop  offset="1" style="stop-color:#201D3F"/>
					</linearGradient>
					<path class="st28" d="M73.1,103.1c0.1,0,0.1,0,0.1-0.1v-2.6c0-0.1,0-0.1-0.1-0.1c-0.1,0-0.1,0-0.1,0.1v2.6
						C73,103.1,73.1,103.1,73.1,103.1z"/>
					
						<linearGradient id="SVGID_20_" gradientUnits="userSpaceOnUse" x1="-1588.347" y1="100.8872" x2="-1595.295" y2="110.9837" gradientTransform="matrix(-1 0 0 1 -1516.0498 0)">
						<stop  offset="0" style="stop-color:#2A3780"/>
						<stop  offset="1" style="stop-color:#201D3F"/>
					</linearGradient>
					<path class="st29" d="M72.8,103.1c0.1,0,0.1,0,0.1-0.1c0-0.9,0.1-2.4,0.1-2.6c0,0,0-0.1,0-0.1c0-0.1-0.1-0.1-0.1,0
						c-0.1,0-0.1,0.1-0.2,2.7C72.7,103.1,72.7,103.1,72.8,103.1L72.8,103.1z"/>
					
						<linearGradient id="SVGID_21_" gradientUnits="userSpaceOnUse" x1="-1589.9338" y1="99.5257" x2="-1596.8624" y2="109.5938" gradientTransform="matrix(-1 0 0 1 -1516.0498 0)">
						<stop  offset="0" style="stop-color:#2A3780"/>
						<stop  offset="1" style="stop-color:#201D3F"/>
					</linearGradient>
					<path class="st30" d="M75.3,103.3c0.1,0,0.2-0.1,0.2-0.2l0.1-2.8c0-0.1-0.1-0.2-0.2-0.2c-0.1,0-0.2,0.1-0.2,0.2l-0.1,2.8
						C75.2,103.2,75.2,103.3,75.3,103.3C75.3,103.3,75.3,103.3,75.3,103.3z"/>
				</g>
			</g>
		</g>
		<path class="st31" d="M196.3,62.4H38.2c-1.4,0-2.2-1.7-1.4-3L52,34.6c0.4-0.7,1.2-1.1,2-1.1h130.9c1.3,0,2.5,0.8,3,2L198,59.4
			C198.6,60.8,197.7,62.4,196.3,62.4z"/>
	</g>
	<g>
		<g>
			<g>
				<path class="st3" d="M135.4,164.6v-20.9c0-2.7-2.2-5-4.9-5c-8.2-0.1-25.2-0.1-39.1,1.1c-1.9,0.2-3.4,1.7-3.4,3.6l-1.3,20.2
					c-0.1,2.7,2,4.9,4.7,4.9l39.3,0.7C133.3,169.4,135.4,167.3,135.4,164.6z"/>
				<path class="st7" d="M130.6,146c0,1.8,0,4.6-0.1,6.4c0,0.9-0.9,1.7-1.8,1.6l-6.8-0.8c-0.9-0.1-1.5-0.9-1.4-1.8l0.8-5.5
					c0.1-0.8,0.8-1.4,1.6-1.4h6C129.9,144.5,130.6,145.2,130.6,146z"/>
				<path class="st8" d="M113,156.5l-5.6,0.6c-0.8,0.1-1.5-0.6-1.4-1.4l1.2-16.8c2.4-0.1,4.7-0.1,7-0.2v16.5
					C114.1,155.9,113.6,156.5,113,156.5z"/>
				<path class="st7" d="M110.6,153.6c0,0.3-0.3,0.5-0.6,0.5c0,0,0,0,0,0c-0.3,0-0.6-0.3-0.5-0.6l0.9-14.7c0.4,0,0.8,0,1.1,0
					L110.6,153.6z"/>
				<g>
					
						<linearGradient id="SVGID_22_" gradientUnits="userSpaceOnUse" x1="-4710.1338" y1="145.494" x2="-4722.2524" y2="163.1043" gradientTransform="matrix(-1 0 0 1 -4584.7646 0)">
						<stop  offset="0" style="stop-color:#2A3780"/>
						<stop  offset="1" style="stop-color:#201D3F"/>
					</linearGradient>
					<path class="st32" d="M127.5,151.3c0.1,0,0.2-0.1,0.2-0.2l0.3-4.6c0-0.1-0.1-0.2-0.2-0.2c-0.1,0-0.2,0.1-0.2,0.2l-0.3,4.6
						C127.3,151.2,127.4,151.3,127.5,151.3C127.5,151.3,127.5,151.3,127.5,151.3z"/>
					
						<linearGradient id="SVGID_23_" gradientUnits="userSpaceOnUse" x1="-4709.6978" y1="145.7939" x2="-4721.8169" y2="163.4042" gradientTransform="matrix(-1 0 0 1 -4584.7646 0)">
						<stop  offset="0" style="stop-color:#2A3780"/>
						<stop  offset="1" style="stop-color:#201D3F"/>
					</linearGradient>
					<path class="st33" d="M126.9,151.3c0.1,0,0.2-0.1,0.2-0.2l0.2-4.7c0-0.1-0.1-0.2-0.2-0.2c-0.1,0-0.2,0.1-0.2,0.2l-0.2,4.7
						C126.7,151.2,126.8,151.3,126.9,151.3C126.9,151.3,126.9,151.3,126.9,151.3z"/>
					
						<linearGradient id="SVGID_24_" gradientUnits="userSpaceOnUse" x1="-4709.1719" y1="146.1557" x2="-4721.291" y2="163.7661" gradientTransform="matrix(-1 0 0 1 -4584.7646 0)">
						<stop  offset="0" style="stop-color:#2A3780"/>
						<stop  offset="1" style="stop-color:#201D3F"/>
					</linearGradient>
					<path class="st34" d="M126.1,151.3c-0.1,0-0.2-0.1-0.2-0.2c0.1-1.6,0.2-4.6,0.2-4.7c0-0.1,0.1-0.2,0.2-0.2
						c0.1,0,0.2,0.1,0.2,0.2c0,0.1-0.2,3.9-0.2,4.7C126.3,151.2,126.2,151.3,126.1,151.3C126.1,151.3,126.1,151.3,126.1,151.3z
						 M126.1,146.4L126.1,146.4L126.1,146.4z"/>
					
						<linearGradient id="SVGID_25_" gradientUnits="userSpaceOnUse" x1="-4708.2627" y1="146.7816" x2="-4720.3818" y2="164.3919" gradientTransform="matrix(-1 0 0 1 -4584.7646 0)">
						<stop  offset="0" style="stop-color:#2A3780"/>
						<stop  offset="1" style="stop-color:#201D3F"/>
					</linearGradient>
					<path class="st35" d="M124.8,151.5c0.2,0,0.4-0.2,0.4-0.4c0.2-4.6,0.1-4.7,0.1-4.7c-0.1-0.2-0.3-0.3-0.5-0.3
						c-0.2,0.1-0.3,0.2-0.3,0.4c0,0.3-0.1,2.9-0.1,4.6C124.5,151.3,124.6,151.5,124.8,151.5C124.8,151.5,124.8,151.5,124.8,151.5z"
						/>
					
						<linearGradient id="SVGID_26_" gradientUnits="userSpaceOnUse" x1="-4707.6631" y1="147.1942" x2="-4719.7817" y2="164.8046" gradientTransform="matrix(-1 0 0 1 -4584.7646 0)">
						<stop  offset="0" style="stop-color:#2A3780"/>
						<stop  offset="1" style="stop-color:#201D3F"/>
					</linearGradient>
					<path class="st36" d="M124,151.3c0.1,0,0.2-0.1,0.2-0.2v-4.6c0-0.1-0.1-0.2-0.2-0.2c-0.1,0-0.2,0.1-0.2,0.2v4.6
						C123.8,151.2,123.9,151.3,124,151.3z"/>
					
						<linearGradient id="SVGID_27_" gradientUnits="userSpaceOnUse" x1="-4707.2905" y1="147.4504" x2="-4719.4097" y2="165.0607" gradientTransform="matrix(-1 0 0 1 -4584.7646 0)">
						<stop  offset="0" style="stop-color:#2A3780"/>
						<stop  offset="1" style="stop-color:#201D3F"/>
					</linearGradient>
					<path class="st37" d="M123.4,151.3c0.1,0,0.2-0.1,0.2-0.2c0-1.6,0.1-4.2,0.2-4.5c0-0.1,0-0.1,0-0.2c-0.1-0.1-0.2-0.1-0.3-0.1
						c-0.1,0.1-0.2,0.1-0.3,4.8C123.2,151.2,123.2,151.3,123.4,151.3L123.4,151.3z"/>
					
						<linearGradient id="SVGID_28_" gradientUnits="userSpaceOnUse" x1="-4710.7573" y1="145.0649" x2="-4722.876" y2="162.6752" gradientTransform="matrix(-1 0 0 1 -4584.7646 0)">
						<stop  offset="0" style="stop-color:#2A3780"/>
						<stop  offset="1" style="stop-color:#201D3F"/>
					</linearGradient>
					<path class="st38" d="M128.5,151.7c0.2,0,0.4-0.2,0.4-0.4l0.3-4.8c0-0.2-0.1-0.4-0.4-0.4c-0.2,0-0.4,0.1-0.4,0.4l-0.3,4.8
						C128.1,151.6,128.3,151.7,128.5,151.7C128.5,151.7,128.5,151.7,128.5,151.7z"/>
				</g>
			</g>
			<g>
				<path class="st6" d="M130,136.1v-14.7c0-1.9-1.5-3.5-3.5-3.5c-5.8-0.1-17.7-0.1-27.4,0.8c-1.3,0.1-2.4,1.2-2.4,2.5l-0.9,14.2
					c-0.1,1.9,1.4,3.4,3.3,3.5l27.6,0.5C128.4,139.4,130,137.9,130,136.1z"/>
				<path class="st7" d="M126.6,123c0,1.2,0,3.2,0,4.5c0,0.7-0.6,1.2-1.3,1.1l-4.8-0.6c-0.6-0.1-1.1-0.7-1-1.3l0.6-3.9
					c0.1-0.6,0.6-1,1.1-1h4.2C126.1,121.9,126.6,122.4,126.6,123z"/>
				<path class="st8" d="M114.2,130.4l-4,0.4c-0.6,0.1-1-0.4-1-1l0.9-11.8c1.7-0.1,3.3-0.1,4.9-0.1v11.6
					C115,129.9,114.6,130.3,114.2,130.4z"/>
				<path class="st7" d="M112.6,128.3c0,0.2-0.2,0.4-0.4,0.4c0,0,0,0,0,0c-0.2,0-0.4-0.2-0.4-0.4l0.6-10.3c0.3,0,0.5,0,0.8,0
					L112.6,128.3z"/>
				<g>
					
						<linearGradient id="SVGID_29_" gradientUnits="userSpaceOnUse" x1="-4707.6743" y1="122.6175" x2="-4716.1851" y2="134.9848" gradientTransform="matrix(-1 0 0 1 -4584.7646 0)">
						<stop  offset="0" style="stop-color:#2A3780"/>
						<stop  offset="1" style="stop-color:#201D3F"/>
					</linearGradient>
					<path class="st39" d="M124.4,126.7c0.1,0,0.1-0.1,0.1-0.1l0.2-3.2c0-0.1-0.1-0.1-0.1-0.1c-0.1,0-0.1,0.1-0.1,0.1l-0.2,3.2
						C124.3,126.6,124.3,126.7,124.4,126.7C124.4,126.7,124.4,126.7,124.4,126.7z"/>
					
						<linearGradient id="SVGID_30_" gradientUnits="userSpaceOnUse" x1="-4707.3682" y1="122.8281" x2="-4715.8789" y2="135.1954" gradientTransform="matrix(-1 0 0 1 -4584.7646 0)">
						<stop  offset="0" style="stop-color:#2A3780"/>
						<stop  offset="1" style="stop-color:#201D3F"/>
					</linearGradient>
					<path class="st40" d="M124,126.7c0.1,0,0.1-0.1,0.1-0.1l0.1-3.3c0-0.1-0.1-0.1-0.1-0.1c-0.1,0-0.1,0.1-0.1,0.1l-0.1,3.3
						C123.9,126.6,123.9,126.7,124,126.7C124,126.7,124,126.7,124,126.7z"/>
					
						<linearGradient id="SVGID_31_" gradientUnits="userSpaceOnUse" x1="-4706.999" y1="123.0822" x2="-4715.5098" y2="135.4495" gradientTransform="matrix(-1 0 0 1 -4584.7646 0)">
						<stop  offset="0" style="stop-color:#2A3780"/>
						<stop  offset="1" style="stop-color:#201D3F"/>
					</linearGradient>
					<path class="st41" d="M123.4,126.7c-0.1,0-0.1-0.1-0.1-0.1c0.1-1.1,0.2-3.2,0.2-3.3c0-0.1,0.1-0.1,0.1-0.1
						c0.1,0,0.1,0.1,0.1,0.1c0,0.1-0.1,2.8-0.2,3.3C123.6,126.7,123.5,126.7,123.4,126.7C123.4,126.7,123.4,126.7,123.4,126.7z
						 M123.4,123.3L123.4,123.3L123.4,123.3z"/>
					
						<linearGradient id="SVGID_32_" gradientUnits="userSpaceOnUse" x1="-4706.3604" y1="123.5217" x2="-4714.8711" y2="135.889" gradientTransform="matrix(-1 0 0 1 -4584.7646 0)">
						<stop  offset="0" style="stop-color:#2A3780"/>
						<stop  offset="1" style="stop-color:#201D3F"/>
					</linearGradient>
					<path class="st42" d="M122.5,126.8c0.1,0,0.3-0.1,0.3-0.3c0.1-3.2,0.1-3.3,0.1-3.3c0-0.1-0.2-0.2-0.3-0.2
						c-0.1,0-0.2,0.2-0.2,0.3c0,0.2-0.1,2.1-0.1,3.2C122.3,126.7,122.4,126.8,122.5,126.8C122.5,126.8,122.5,126.8,122.5,126.8z"/>
					
						<linearGradient id="SVGID_33_" gradientUnits="userSpaceOnUse" x1="-4705.9395" y1="123.8115" x2="-4714.4502" y2="136.1788" gradientTransform="matrix(-1 0 0 1 -4584.7646 0)">
						<stop  offset="0" style="stop-color:#2A3780"/>
						<stop  offset="1" style="stop-color:#201D3F"/>
					</linearGradient>
					<path class="st43" d="M122,126.7c0.1,0,0.1-0.1,0.1-0.1v-3.2c0-0.1-0.1-0.1-0.1-0.1c-0.1,0-0.1,0.1-0.1,0.1v3.2
						C121.8,126.6,121.9,126.7,122,126.7z"/>
					
						<linearGradient id="SVGID_34_" gradientUnits="userSpaceOnUse" x1="-4705.6777" y1="123.9914" x2="-4714.1885" y2="136.3587" gradientTransform="matrix(-1 0 0 1 -4584.7646 0)">
						<stop  offset="0" style="stop-color:#2A3780"/>
						<stop  offset="1" style="stop-color:#201D3F"/>
					</linearGradient>
					<path class="st44" d="M121.5,126.7c0.1,0,0.1-0.1,0.1-0.1c0-1.1,0.1-3,0.1-3.2c0,0,0-0.1,0-0.1c0-0.1-0.1-0.1-0.2,0
						c-0.1,0-0.1,0.1-0.2,3.4C121.4,126.6,121.4,126.7,121.5,126.7L121.5,126.7z"/>
					
						<linearGradient id="SVGID_35_" gradientUnits="userSpaceOnUse" x1="-4708.1123" y1="122.3161" x2="-4716.623" y2="134.6834" gradientTransform="matrix(-1 0 0 1 -4584.7646 0)">
						<stop  offset="0" style="stop-color:#2A3780"/>
						<stop  offset="1" style="stop-color:#201D3F"/>
					</linearGradient>
					<path class="st45" d="M125.1,127c0.1,0,0.3-0.1,0.3-0.3l0.2-3.4c0-0.1-0.1-0.3-0.3-0.3c-0.1,0-0.3,0.1-0.3,0.3l-0.2,3.4
						C124.9,126.9,125,127,125.1,127C125.1,127,125.1,127,125.1,127z"/>
				</g>
			</g>
		</g>
		<path class="st46" d="M170.2,158.8v-16.4h27.6v32.4c0,0.7-0.6,1.2-1.2,1.2h-61.8c-0.6,0-1.2-0.5-1.2-1.2v-16.1H170.2z"/>
		<path class="st3" d="M172.6,176.1c-0.4,0-0.7-0.3-0.7-0.7c0,0,0,0,0,0c0-5.9,4.8-10.7,10.7-10.7s10.7,4.8,10.7,10.7c0,0,0,0,0,0
			c0,0.4-0.3,0.7-0.7,0.7H172.6z"/>
		<path class="st3" d="M135.3,176.4c-0.4,0-0.7-0.3-0.7-0.7c0,0,0,0,0,0c0-5.9,4.8-10.7,10.7-10.7s10.7,4.8,10.7,10.7c0,0,0,0,0,0
			c0,0.4-0.3,0.7-0.7,0.7H135.3z"/>
		<g>
			<g>
				
					<linearGradient id="SVGID_36_" gradientUnits="userSpaceOnUse" x1="-1255.1576" y1="175.3152" x2="-1239.6215" y2="175.3152" gradientTransform="matrix(-1 0 0 1 -1064.7646 0)">
					<stop  offset="0" style="stop-color:#2A3780"/>
					<stop  offset="1" style="stop-color:#201D3F"/>
				</linearGradient>
				<circle class="st47" cx="182.6" cy="175.3" r="7.8"/>
				<linearGradient id="SVGID_37_" gradientUnits="userSpaceOnUse" x1="184.8389" y1="154.7561" x2="181.7746" y2="183.2108">
					<stop  offset="0" style="stop-color:#F7EA4A"/>
					<stop  offset="1" style="stop-color:#D93D66"/>
				</linearGradient>
				<circle class="st48" cx="182.6" cy="175.3" r="6.3"/>
				<path class="st7" d="M177.3,177.7c-0.1,0-0.2-0.1-0.2-0.1c-0.3-0.7-0.5-1.5-0.5-2.3c0-3.2,2.6-5.8,5.8-5.8c1,0,2,0.3,2.8,0.7
					c0.1,0.1,0.1,0.2,0.1,0.3c-0.1,0.1-0.2,0.1-0.3,0.1c-0.8-0.4-1.7-0.7-2.6-0.7c-3,0-5.4,2.4-5.4,5.4c0,0.7,0.1,1.4,0.4,2.1
					C177.6,177.5,177.5,177.6,177.3,177.7C177.4,177.7,177.4,177.7,177.3,177.7z"/>
			</g>
			
				<linearGradient id="SVGID_38_" gradientUnits="userSpaceOnUse" x1="-1244.5385" y1="170.6439" x2="-1252.4349" y2="183.582" gradientTransform="matrix(-1 0 0 1 -1064.7646 0)">
				<stop  offset="0" style="stop-color:#2A3780"/>
				<stop  offset="1" style="stop-color:#201D3F"/>
			</linearGradient>
			<circle class="st49" cx="182.6" cy="175.3" r="2.9"/>
		</g>
		<g>
			<g>
				
					<linearGradient id="SVGID_39_" gradientUnits="userSpaceOnUse" x1="-1217.7903" y1="176.012" x2="-1202.2542" y2="176.012" gradientTransform="matrix(-1 0 0 1 -1064.7646 0)">
					<stop  offset="0" style="stop-color:#2A3780"/>
					<stop  offset="1" style="stop-color:#201D3F"/>
				</linearGradient>
				<circle class="st50" cx="145.3" cy="176" r="7.8"/>
				<linearGradient id="SVGID_40_" gradientUnits="userSpaceOnUse" x1="149.8188" y1="158.3554" x2="143.0335" y2="184.6213">
					<stop  offset="0" style="stop-color:#F7EA4A"/>
					<stop  offset="1" style="stop-color:#D93D66"/>
				</linearGradient>
				<circle class="st51" cx="145.3" cy="176" r="6.3"/>
				<path class="st7" d="M140,178.4c-0.1,0-0.2-0.1-0.2-0.1c-0.3-0.7-0.5-1.5-0.5-2.3c0-3.2,2.6-5.8,5.8-5.8c1,0,2,0.3,2.8,0.7
					c0.1,0.1,0.1,0.2,0.1,0.3c-0.1,0.1-0.2,0.1-0.3,0.1c-0.8-0.4-1.7-0.7-2.6-0.7c-3,0-5.4,2.4-5.4,5.4c0,0.7,0.1,1.4,0.4,2.1
					C140.2,178.2,140.2,178.3,140,178.4C140,178.4,140,178.4,140,178.4z"/>
			</g>
			
				<linearGradient id="SVGID_41_" gradientUnits="userSpaceOnUse" x1="-1207.1711" y1="171.3406" x2="-1215.0676" y2="184.2788" gradientTransform="matrix(-1 0 0 1 -1064.7646 0)">
				<stop  offset="0" style="stop-color:#2A3780"/>
				<stop  offset="1" style="stop-color:#201D3F"/>
			</linearGradient>
			<circle class="st52" cx="145.3" cy="176" r="2.9"/>
		</g>
		<path class="st6" d="M170.3,144.2h28v0c0-1.8-1.4-3.2-3.2-3.2h-24.8V144.2z"/>
		<path class="st6" d="M133.6,158.8h5.9V138c0-3.3-2.6-5.9-5.9-5.9l0,0V158.8z"/>
		
			<rect x="132.2" y="143.7" transform="matrix(-1 -1.224647e-16 1.224647e-16 -1 265.8121 313.8143)" class="st6" width="1.4" height="26.4"/>
		<path class="st6" d="M117,170.4h16.6v-2.2h-14.4C118,168.2,117,169.2,117,170.4L117,170.4z"/>
		<linearGradient id="SVGID_42_" gradientUnits="userSpaceOnUse" x1="166.3125" y1="130.6644" x2="160.7518" y2="159.1418">
			<stop  offset="0" style="stop-color:#6CC9F0"/>
			<stop  offset="1" style="stop-color:#3C519F"/>
		</linearGradient>
		<polygon class="st53" points="153,158.8 170.1,158.8 170.1,151.2 153,151.2 		"/>
		
			<linearGradient id="SVGID_43_" gradientUnits="userSpaceOnUse" x1="3522.2588" y1="-391.1569" x2="3512.8142" y2="-376.8049" gradientTransform="matrix(0.9717 7.110000e-02 7.110000e-02 0.8218 -3234.4885 201.7067)">
			<stop  offset="0" style="stop-color:#F7EA4A"/>
			<stop  offset="1" style="stop-color:#D93D66"/>
		</linearGradient>
		<polygon class="st54" points="146.5,149.8 147.4,150.1 149.3,145.4 148.4,145 		"/>
		
			<linearGradient id="SVGID_44_" gradientUnits="userSpaceOnUse" x1="3315.9255" y1="126.2881" x2="3306.7773" y2="140.19" gradientTransform="matrix(1 0 0 1 -3154.7878 0)">
			<stop  offset="0" style="stop-color:#F7EA4A"/>
			<stop  offset="1" style="stop-color:#D93D66"/>
		</linearGradient>
		<path class="st55" d="M147.3,145.2l3.3,1.7l0,0c0.3-0.6,0.1-1.4-0.5-1.7l-3.3-1.7l0,0C146.4,144.1,146.7,144.9,147.3,145.2z"/>
		
			<linearGradient id="SVGID_45_" gradientUnits="userSpaceOnUse" x1="-4725.2852" y1="147.3216" x2="-4738.4424" y2="172.6508" gradientTransform="matrix(-1 0 0 1 -4584.7646 0)">
			<stop  offset="0" style="stop-color:#2A3780"/>
			<stop  offset="1" style="stop-color:#201D3F"/>
		</linearGradient>
		<path class="st56" d="M139.4,158.3h9.6v-7.6c0-0.7-0.6-1.2-1.2-1.2h-4.9L139.4,158.3z"/>
		<g>
			
				<linearGradient id="SVGID_46_" gradientUnits="userSpaceOnUse" x1="2765.5767" y1="-500.1096" x2="2766.7136" y2="-502.9762" gradientTransform="matrix(-0.9885 -0.1515 -0.1515 0.9885 2817.0469 1046.7046)">
				<stop  offset="0" style="stop-color:#F2908F"/>
				<stop  offset="1" style="stop-color:#F6B2B2"/>
			</linearGradient>
			<path class="st57" d="M158.8,129c0,0,1,2.5,2.1,3.8l-3,1.1c0,0-0.2-2.6-1.6-3.5L158.8,129z"/>
			
				<linearGradient id="SVGID_47_" gradientUnits="userSpaceOnUse" x1="3004.802" y1="-1101.377" x2="3009.8762" y2="-1101.377" gradientTransform="matrix(-0.955 -0.2968 -0.2968 0.955 2693.2473 2089.1182)">
				<stop  offset="0" style="stop-color:#F2908F"/>
				<stop  offset="1" style="stop-color:#F6B2B2"/>
			</linearGradient>
			<path class="st58" d="M150.5,145.5l-0.6-0.4l-1.9-1.1c-0.2-0.1-0.5-0.2-0.7-0.1l-1.7,0.5c-0.1,0-0.1,0.2,0,0.2l4.4,1.4
				L150.5,145.5z"/>
			<g>
				
					<linearGradient id="SVGID_48_" gradientUnits="userSpaceOnUse" x1="4783.25" y1="397.2499" x2="4777.542" y2="401.6172" gradientTransform="matrix(-0.9602 -0.2793 -0.2793 0.9602 4860.3218 1081.595)">
					<stop  offset="0" style="stop-color:#F2908F"/>
					<stop  offset="1" style="stop-color:#F6B2B2"/>
				</linearGradient>
				<path class="st59" d="M157.3,125.2c0,0-1.6,1.9-2,3.1c-0.4,1.1-0.9,1.8,0.4,2.4c1.3,0.6,2.6,0.3,3.5-0.7c0,0,1.5-1.5,1.5-2.3
					C160.7,126.9,157.3,125.2,157.3,125.2z"/>
				
					<linearGradient id="SVGID_49_" gradientUnits="userSpaceOnUse" x1="4778.6914" y1="394.2218" x2="4783.8652" y2="400.8831" gradientTransform="matrix(-0.9602 -0.2793 -0.2793 0.9602 4860.3218 1081.595)">
					<stop  offset="0" style="stop-color:#F2908F"/>
					<stop  offset="1" style="stop-color:#F6B2B2"/>
				</linearGradient>
				<path class="st60" d="M156.8,124.8c0.4-0.4,1.2-1,1.8-0.9c0.2,0,0.4,0.1,0.6,0.2c1.1,0.5,2.9,1.6,2.5,3.1c0,0.1,0,0.1,0.1,0.1
					c0.1,0,0.3,0,0.5,0.3c0.3,0.5-0.1,1.4-1.4,2c-0.1,0-0.1,0.1,0,0.1c0.1,0.2,0.3,0.5-0.5,0.7c-0.8,0.2-1.2,0-1.4-0.1
					c0,0-0.1-0.1,0-0.1l0.4-1c0-0.1,0-0.1-0.1-0.1L159,129l-0.2,0c0,0,1.1-1.2,0.6-1.7c-0.5-0.4-3-1.6-2.7-2.3
					C156.7,124.9,156.8,124.9,156.8,124.8z"/>
				
					<linearGradient id="SVGID_50_" gradientUnits="userSpaceOnUse" x1="4782.542" y1="396.3247" x2="4776.8345" y2="400.6919" gradientTransform="matrix(-0.9602 -0.2793 -0.2793 0.9602 4860.3218 1081.595)">
					<stop  offset="0" style="stop-color:#F2908F"/>
					<stop  offset="1" style="stop-color:#F6B2B2"/>
				</linearGradient>
				<path class="st61" d="M158.9,129.2c0,0,0.8-1.3,1.3-0.7c0.5,0.6-0.8,1.5-1.3,1.4L158.9,129.2z"/>
			</g>
			<path class="st6" d="M152,159h-3c-0.6-3.4-0.9-6.8,0.1-7.2c2.1-1,12.6-1.9,12.6-1.9l2,2.3l-11.3,1.9C152,154.9,152,156.9,152,159
				z"/>
			<path class="st3" d="M168.2,150c0,0-3.4,1.2-6.5-0.1c0,0-1.6-7.5-3.1-9.4c0,0-2.6,6.6-8.9,5.6c-0.1,0-0.1-0.1-0.1-0.2l0.2-0.7
				c0.1-0.2,0.2-0.3,0.4-0.3c2.1,0.1,5.1-3.9,5.7-9.3c0.1-1.1,0.9-1.6,2.4-2.3c0.9-0.4,1.5-0.7,1.8-0.9c0.2-0.1,0.4-0.1,0.5,0
				C162.1,133.6,168.1,139.2,168.2,150z"/>
			<path class="st6" d="M149.4,153.8c0.4-0.6,1-1.1,1.7-1.3l10.6-2.7l-0.5-2.2l-2-6.2l0.1,0c0.3-0.2,0.7-0.1,0.8,0.3l1.9,6.2
				c0.1,0.3,0.3,0.5,0.6,0.5h5.6l0.1,2.7c0,0.2,0,0.4,0,0.7c0,1.5-1.2,2.7-2.7,2.8l-12.4,0.6c-0.3,0-0.5,0.2-0.5,0.4
				c-0.1,0.6-0.6,1.7-1.8,3.5h-4.5L149.4,153.8z"/>
			<path class="st6" d="M157.1,134c2.7,1.8,5.3,4.3,7.8,7.3l1.4-0.2c-3-3.2-5.9-6.1-8.3-7.6L157.1,134z"/>
			<path class="st6" d="M166.5,140.9l-1.8,0c-0.3,0-0.5,0.2-0.6,0.4l-2.3,5.9l0.4,1.4l6.1-0.3C168,145.9,167.5,143.4,166.5,140.9z"
				/>
			<g>
				<g>
					<path class="st3" d="M156.4,125.1c3.3-4.1,8.8,1.3,5.1,4.6C159.6,127.8,157.6,125.1,156.4,125.1z"/>
				</g>
				<path class="st3" d="M159.8,127.7l-4.3-1c-0.1,0-0.2-0.1-0.2-0.2c-0.3-0.8-0.7-1.3-1.4-1.7c-0.1,0,0-0.2,0.1-0.2l2.7,0.3
					c0,0,0,0,0,0C157.9,125.4,158.9,126.4,159.8,127.7C159.9,127.7,159.9,127.8,159.8,127.7z"/>
			</g>
		</g>
		<path class="st6" d="M169,160.2h-28.6c-0.7,0-1.4-0.4-1.8-1.1c-0.5-0.8-0.6-1.7-0.3-2.6l11.1-34.6c0.7-2,2.2-3.3,3.9-3.3h18.3
			v38.3C171.7,158.6,170.4,160.2,169,160.2z M140.9,157.1h28c0,0,0.1-0.2,0.1-0.3v-35.3h-15.7c-0.6,0-1.2,0.5-1.4,1.4L140.9,157.1z"
			/>
		<g>
			<g>
				<circle class="st6" cx="145.3" cy="176" r="7.8"/>
				
					<ellipse transform="matrix(0.1222 -0.9925 0.9925 0.1222 -47.1838 298.6754)" class="st46" cx="145.3" cy="176" rx="6.3" ry="6.3"/>
				<path class="st7" d="M140,178.4C140,178.4,140,178.4,140,178.4c0.2-0.1,0.2-0.2,0.2-0.2c-0.3-0.7-0.4-1.4-0.4-2.1
					c0-3,2.4-5.4,5.4-5.4c0.9,0,1.8,0.2,2.6,0.7c0.1,0,0.2,0,0.2-0.1c0-0.1,0-0.2-0.1-0.2c-0.9-0.5-1.8-0.7-2.8-0.7
					c-3.2,0-5.7,2.6-5.7,5.7c0,0.8,0.2,1.5,0.5,2.2C139.8,178.3,139.9,178.4,140,178.4z"/>
			</g>
			
				<ellipse transform="matrix(0.9732 -0.2298 0.2298 0.9732 -36.5534 38.0817)" class="st6" cx="145.3" cy="176" rx="2.9" ry="2.9"/>
		</g>
		<g>
			<g>
				<circle class="st6" cx="182.6" cy="175.3" r="7.8"/>
				
					<ellipse transform="matrix(0.1222 -0.9925 0.9925 0.1222 -13.6865 335.1474)" class="st46" cx="182.6" cy="175.3" rx="6.3" ry="6.3"/>
				<path class="st7" d="M177.3,177.7C177.4,177.7,177.4,177.6,177.3,177.7c0.2-0.1,0.2-0.2,0.2-0.2c-0.3-0.7-0.4-1.4-0.4-2.1
					c0-3,2.4-5.4,5.4-5.4c0.9,0,1.8,0.2,2.6,0.7c0.1,0,0.2,0,0.2-0.1c0-0.1,0-0.2-0.1-0.2c-0.9-0.5-1.8-0.7-2.8-0.7
					c-3.2,0-5.7,2.6-5.7,5.7c0,0.8,0.2,1.5,0.5,2.2C177.2,177.6,177.3,177.7,177.3,177.7z"/>
			</g>
			
				<ellipse transform="matrix(0.9732 -0.2298 0.2298 0.9732 -35.3927 46.6482)" class="st6" cx="182.6" cy="175.3" rx="2.9" ry="2.9"/>
		</g>
	</g>
	<g>
		<g>
			
				<linearGradient id="SVGID_51_" gradientUnits="userSpaceOnUse" x1="-1102.1965" y1="76.5784" x2="-1100.0735" y2="91.971" gradientTransform="matrix(1 0 0 1 1157.1871 0)">
				<stop  offset="0" style="stop-color:#F2908F"/>
				<stop  offset="1" style="stop-color:#F6B2B2"/>
			</linearGradient>
			<path class="st62" d="M73.1,120.9l-1.7,0.9c-2.1,1.3-3.9,1.9-5.6,2.2c-5.2,0.8-8.6-2.5-11.1-4.5c-3.3-2.6-5.9-1.4-5.9-1.4
				l3.6,6.8c5.3,5,10.8,3.9,14.2,2.3c2.2-1,3.6-2.3,3.6-2.3C74,122.6,73.1,120.9,73.1,120.9z"/>
			
				<linearGradient id="SVGID_52_" gradientUnits="userSpaceOnUse" x1="-1089.2006" y1="74.7859" x2="-1087.0774" y2="90.1785" gradientTransform="matrix(1 0 0 1 1157.1871 0)">
				<stop  offset="0" style="stop-color:#F2908F"/>
				<stop  offset="1" style="stop-color:#F6B2B2"/>
			</linearGradient>
			<path class="st63" d="M78.2,123.3c-0.1-0.4-0.4-0.7-0.7-0.8l-3.5-1.4c0,0-0.1-0.4,0.7-0.8c0.8-0.3,0.6-1.2,0.6-1.2
				s-1.1,0.5-2.7,1.3c-0.9,0.4-1.4,1.2-1.7,1.8l0.9,1.2c2.2,0.6,4.3,0.8,6.6,0.5L78.2,123.3z"/>
		</g>
		<path class="st6" d="M47.9,172.9c0,0-0.3,1.5-0.4,3c-0.1,0.6,0.4,1.1,1,1.1c2,0.1,6.3,0.2,7.8,0.2c0.2,0,0.4-0.2,0.3-0.5l0,0
			c-0.1-0.2-0.2-0.3-0.4-0.4l-7-3.2L47.9,172.9z"/>
		
			<linearGradient id="SVGID_53_" gradientUnits="userSpaceOnUse" x1="1916.3347" y1="172.868" x2="1918.624" y2="172.868" gradientTransform="matrix(1 0 0 1 -1868.6219 0)">
			<stop  offset="0" style="stop-color:#F2908F"/>
			<stop  offset="1" style="stop-color:#F6B2B2"/>
		</linearGradient>
		<path class="st64" d="M47.7,172l0.2,1.8c0,0,1.2,0.6,2.1-0.1l-0.5-2L47.7,172z"/>
		<path class="st6" d="M47.4,136.8c-0.1,0.5,0.2,25.6,2.6,36.4c0,0.2,0.3,0.5,0.2,0.7c-0.2,0.4-1.8,0.3-2.7,0.3
			c-0.3,0-0.4-0.3-0.5-0.6c-0.7-2.5-4.1-15-4.5-26.9c-0.5-13.3,0-0.5,0-0.5l-0.2-8.4L47.4,136.8z"/>
		<path class="st6" d="M39.8,173.7c0,0-0.4,0.8-0.8,2.8c-0.1,0.4,0.2,0.7,0.6,0.8c0.7,0.1,1.7,0.1,2.5,0.1c0.4,0,0.7-0.3,0.6-0.7
			c-0.1-0.7-0.4-2-1.2-2.9L39.8,173.7z"/>
		
			<linearGradient id="SVGID_54_" gradientUnits="userSpaceOnUse" x1="1908.0844" y1="172.7506" x2="1910.0609" y2="172.7506" gradientTransform="matrix(1 0 0 1 -1868.6219 0)">
			<stop  offset="0" style="stop-color:#F2908F"/>
			<stop  offset="1" style="stop-color:#F6B2B2"/>
		</linearGradient>
		<path class="st65" d="M39.5,171.3l0.5,2.7c0,0,0.5,0.4,1.5,0.1l-0.2-2.9L39.5,171.3z"/>
		<path class="st6" d="M38.3,137.8c-2,12.7,0.3,32.4,1.1,36.1c0.1,0.2,0.2,0.4,0.4,0.4c0.4,0.1,1,0.1,1.6-0.1
			c0.2-0.1,0.4-0.3,0.4-0.5c0.1-3-0.1-21.1,1.8-28.3c0.1-0.4,0.3-0.7,0.6-0.9l3.1-2.5l0.1-5.4L38.3,137.8z"/>
		<path class="st16" d="M49.8,117.4c-5.3-0.1-11.2,1.4-11.2,1.4c-1.3,7.6-0.8,16.1-0.5,18.9c0.1,0.6-0.2,1.2,0.3,1.3
			c2.8,0.4,7.2,0,8.5-0.4c0.5-0.1,0.4-0.7,0.5-1.2c0.9-4.4,3.5-14,3.5-14c1.3,1.6,3,3.9,5.7,4.5c-1.3-1.6,1.2-4.8,1-6
			C55.3,119.1,51.5,117.4,49.8,117.4z"/>
		
			<linearGradient id="SVGID_55_" gradientUnits="userSpaceOnUse" x1="503.545" y1="111.062" x2="509.0297" y2="126.2776" gradientTransform="matrix(-1 0 0 1 550.9291 0)">
			<stop  offset="0" style="stop-color:#F2908F"/>
			<stop  offset="1" style="stop-color:#F6B2B2"/>
		</linearGradient>
		<path class="st66" d="M44.4,113.1l-1.7,4.9c0,0.1,0,0.2,0.1,0.2c0.5,0.3,2.1,1,4.1-0.3c0.2-0.1,0.4-0.3,0.4-0.6l0.5-4.2H44.4z"/>
		<g>
			
				<linearGradient id="SVGID_56_" gradientUnits="userSpaceOnUse" x1="-4115.082" y1="-1056.1251" x2="-4123.9287" y2="-1046.3058" gradientTransform="matrix(0.746 -0.6659 0.6659 0.746 3821.5054 -2192.7603)">
				<stop  offset="0" style="stop-color:#F2908F"/>
				<stop  offset="1" style="stop-color:#F6B2B2"/>
			</linearGradient>
			<path class="st67" d="M48.1,108.6c0,0,1.9,3.5,1.6,4.9c-0.2,1.4-2.5,1.3-4.6,0.2l-1.4-3.8L48.1,108.6z"/>
			
				<linearGradient id="SVGID_57_" gradientUnits="userSpaceOnUse" x1="-4351.7964" y1="-801.8155" x2="-4350.4443" y2="-794.1027" gradientTransform="matrix(0.746 -0.6659 0.6659 0.746 3821.5054 -2192.7603)">
				<stop  offset="0" style="stop-color:#232451"/>
				<stop  offset="1" style="stop-color:#2A307B"/>
			</linearGradient>
			<path class="st68" d="M45.3,111.8c0.1,0,0.1-0.1,0.1-0.2c-0.1-0.2-0.4-0.7-0.5-1.1c0,0-0.3-0.2,0.9-0.5c0.6-0.2,1.8-0.3,2.3-0.7
				c0.6-0.5-0.5-1.5-0.9-1.8c-0.6-0.3-1.3-0.6-1.9-0.4c-0.3,0.1-0.6,0.3-0.9,0.4c-0.5,0.3-1,0.6-1.3,1c-0.2,0.3-0.3,0.6-0.4,1
				c-0.1,0.5-0.3,1-0.2,1.5c0.1,1.4,1.7,2.6,3,2.7c0.1,0,0.2-0.1,0.2-0.2l-0.5-1.5c0-0.1,0-0.1,0.1-0.2L45.3,111.8z"/>
			
				<linearGradient id="SVGID_58_" gradientUnits="userSpaceOnUse" x1="-4116.4102" y1="-1057.3217" x2="-4125.2563" y2="-1047.5023" gradientTransform="matrix(0.746 -0.6659 0.6659 0.746 3821.5054 -2192.7603)">
				<stop  offset="0" style="stop-color:#F2908F"/>
				<stop  offset="1" style="stop-color:#F6B2B2"/>
			</linearGradient>
			<path class="st69" d="M45.5,112c0,0-1.3-0.9-1.4-0.1c-0.1,0.8,1.2,1.1,1.8,0.8L45.5,112z"/>
		</g>
		<g>
			<path class="st70" d="M48.8,107.7c-2.7-5.1-9.8-0.5-6.5,3.9C44.8,109.9,47.5,107.5,48.8,107.7z"/>
		</g>
		<path class="st70" d="M44.6,109.9l4.9-0.2c0.1,0,0.2-0.1,0.3-0.2c0.4-0.8,1.1-1.3,1.9-1.6c0.1,0,0.1-0.2,0-0.2l-3-0.2c0,0,0,0,0,0
			c-1.5,0.1-2.8,1-4.1,2.2C44.5,109.8,44.5,109.9,44.6,109.9z"/>
		<path class="st16" d="M39.2,126.6c3-3.3,2.7-5.9-0.7-7.8c0,0-5.6,3.8-6.5,8.6c1.1,0.1,3,0.4,4.8,1.3
			C37.3,126.4,39.2,126.6,39.2,126.6z"/>
		
			<linearGradient id="SVGID_59_" gradientUnits="userSpaceOnUse" x1="3973.668" y1="131.1015" x2="3988.2598" y2="131.1015" gradientTransform="matrix(1 0 0 1 -3941.728 0)">
			<stop  offset="0" style="stop-color:#F2908F"/>
			<stop  offset="1" style="stop-color:#F6B2B2"/>
		</linearGradient>
		<path class="st71" d="M45.7,130c0,0-6.3,3.5-8.4,0.5c-0.4-0.6-0.5-1.2-0.4-1.8c-1.9-0.9-3.8-1.2-4.8-1.3c-0.3,1.4-0.1,3,0.7,4.5
			c3.7,6.8,13.7-0.4,13.7-0.4L45.7,130z"/>
		<g>
			<g>
				<path class="st72" d="M45,134.5l3.4-11.9c0-0.1,0.2-0.2,0.3-0.3c0.6-0.1,2.4-0.3,4.5-0.4c2.5-0.2,5.4-0.4,7.1-0.2
					c0.2,0,0.4,0.3,0.3,0.5c-1,2-5,10.1-7.1,12.7c-0.1,0.1-0.2,0.1-0.3,0.1l-7.9-0.1C45.1,134.9,44.9,134.7,45,134.5z"/>
			</g>
			<path class="st73" d="M53.5,120.8l2.5-0.4c0.1,0,0.2,0.1,0.2,0.2l-0.2,0.7c0,0.1-0.1,0.1-0.1,0.1l-2.4,0.3
				c-0.1,0-0.2-0.1-0.2-0.2l0.2-0.6C53.4,120.9,53.4,120.8,53.5,120.8z"/>
			<path class="st73" d="M51.6,122.9l0.2-1.1c0-0.1,0.1-0.2,0.2-0.2l5-0.5c0.2,0,0.3,0.1,0.3,0.3l-0.3,1.3c0,0.1-0.1,0.2-0.2,0.2
				l-4.9,0.2C51.7,123.2,51.6,123.1,51.6,122.9z"/>
			
				<linearGradient id="SVGID_60_" gradientUnits="userSpaceOnUse" x1="513.7603" y1="118.5027" x2="509.7794" y2="122.7489" gradientTransform="matrix(-1 0 0 1 550.9291 0)">
				<stop  offset="0" style="stop-color:#F2908F"/>
				<stop  offset="1" style="stop-color:#F6B2B2"/>
			</linearGradient>
			<path class="st74" d="M45.8,131.6c0,0-0.5-2-0.3-2.6c0.2-0.7,0.6-1.6,1.8-1.4c1.2,0.2,2.7,0.7,2.7,0.7s-0.1,0.9-1,0.6l0.6,0.5
				c0,0-0.1,0.7-0.9,0.3l0.5,0.6c0,0-0.3,0.6-0.9,0.2C47.7,130.1,47.4,131.8,45.8,131.6z"/>
		</g>
	</g>
</g>
</svg>
